<svg width="21" height="20" viewBox="0 0 21 20" fill="none" xmlns="http://www.w3.org/2000/svg">
<path d="M7.3335 11C8.18158 8.75416 9.62027 6.77895 11.4977 5.28287C13.3751 3.78679 15.6217 2.82533 18.0002 2.5C17.6748 4.87849 16.7131 7.12502 15.217 9.00245C13.7209 10.8799 11.7457 12.3186 9.49984 13.1667M9.33341 7.5C10.9527 8.24739 12.2527 9.54736 13.0001 11.1667M3 17.5V14.1667C3 13.5074 3.1955 12.8629 3.56177 12.3148C3.92804 11.7666 4.44863 11.3394 5.05772 11.0871C5.66681 10.8348 6.33703 10.7688 6.98363 10.8974C7.63024 11.026 8.22418 11.3435 8.69036 11.8096C9.15653 12.2758 9.474 12.8698 9.60262 13.5164C9.73124 14.163 9.66522 14.8332 9.41293 15.4423C9.16064 16.0514 8.7334 16.572 8.18523 16.9382C7.63707 17.3045 6.9926 17.5 6.33333 17.5H3Z" stroke="#14B8A6" stroke-width="1.66667" stroke-linecap="round" stroke-linejoin="round"/>
</svg>
