<svg width="601" height="116" viewBox="0 0 601 116" fill="none" xmlns="http://www.w3.org/2000/svg">
<path d="M142.086 55.1903H167.944C171.196 55.1903 173.773 54.4541 175.674 52.9817C177.576 51.4479 178.527 49.3314 178.527 46.632C178.527 43.9326 177.576 41.8467 175.674 40.3743C173.773 38.8406 171.196 38.0737 167.944 38.0737H139.601L147.423 29.5154V93.8406H130.03V24.8222H170.245C175.398 24.8222 179.908 25.7424 183.773 27.5829C187.638 29.4234 190.644 31.9694 192.791 35.2209C194.938 38.4725 196.012 42.2762 196.012 46.632C196.012 50.9265 194.938 54.6995 192.791 57.951C190.644 61.2025 187.638 63.7485 183.773 65.589C179.908 67.3682 175.398 68.2578 170.245 68.2578H142.086V55.1903ZM153.22 61.54H172.822L198.22 93.8406H178.067L153.22 61.54ZM282.424 65.313C281.749 71.2639 279.694 76.5093 276.258 81.0492C272.822 85.5277 268.283 89.0246 262.638 91.54C256.994 94.0553 250.552 95.313 243.313 95.313C235.399 95.313 228.436 93.8099 222.424 90.8038C216.473 87.7976 211.841 83.5952 208.528 78.1964C205.215 72.7976 203.559 66.5093 203.559 59.3314C203.559 52.1535 205.215 45.8651 208.528 40.4663C211.841 35.0676 216.473 30.8651 222.424 27.859C228.436 24.8528 235.399 23.3498 243.313 23.3498C250.552 23.3498 256.994 24.6074 262.638 27.1228C268.283 29.6381 272.822 33.1351 276.258 37.6136C279.694 42.0921 281.749 47.3375 282.424 53.3498H264.939C264.325 50.2209 263.068 47.5522 261.166 45.3436C259.325 43.1351 256.872 41.4479 253.804 40.2823C250.798 39.0553 247.301 38.4418 243.313 38.4418C238.712 38.4418 234.755 39.3007 231.442 41.0185C228.129 42.6749 225.583 45.0676 223.804 48.1964C222.025 51.3252 221.135 55.0369 221.135 59.3314C221.135 63.6258 222.025 67.3375 223.804 70.4663C225.583 73.5952 228.129 76.0185 231.442 77.7363C234.755 79.3927 238.712 80.2209 243.313 80.2209C247.301 80.2209 250.798 79.6381 253.804 78.4725C256.872 77.3068 259.325 75.6197 261.166 73.4111C263.068 71.2025 264.325 68.5032 264.939 65.313H282.424ZM311.176 32.4602H328.568V93.8406H311.176V32.4602ZM284.304 24.8222H355.439V40.1903H284.304V24.8222ZM421.844 52.8897V65.7731H371.874V52.8897H421.844ZM383.654 59.3314L379.052 87.859L371.782 79.6688H424.789V93.8406H361.66L366.997 59.3314L361.66 24.8222H424.328V38.9939H371.782L379.052 30.8038L383.654 59.3314ZM510.867 65.313C510.193 71.2639 508.137 76.5093 504.702 81.0492C501.266 85.5277 496.726 89.0246 491.082 91.54C485.438 94.0553 478.996 95.313 471.757 95.313C463.843 95.313 456.88 93.8099 450.867 90.8038C444.916 87.7976 440.285 83.5952 436.972 78.1964C433.659 72.7976 432.002 66.5093 432.002 59.3314C432.002 52.1535 433.659 45.8651 436.972 40.4663C440.285 35.0676 444.916 30.8651 450.867 27.859C456.88 24.8528 463.843 23.3498 471.757 23.3498C478.996 23.3498 485.438 24.6074 491.082 27.1228C496.726 29.6381 501.266 33.1351 504.702 37.6136C508.137 42.0921 510.193 47.3375 510.867 53.3498H493.383C492.769 50.2209 491.512 47.5522 489.61 45.3436C487.769 43.1351 485.315 41.4479 482.248 40.2823C479.242 39.0553 475.745 38.4418 471.757 38.4418C467.156 38.4418 463.199 39.3007 459.886 41.0185C456.573 42.6749 454.027 45.0676 452.248 48.1964C450.469 51.3252 449.579 55.0369 449.579 59.3314C449.579 63.6258 450.469 67.3375 452.248 70.4663C454.027 73.5952 456.573 76.0185 459.886 77.7363C463.199 79.3927 467.156 80.2209 471.757 80.2209C475.745 80.2209 479.242 79.6381 482.248 78.4725C485.315 77.3068 487.769 75.6197 489.61 73.4111C491.512 71.2025 492.769 68.5032 493.383 65.313H510.867ZM520.595 24.8222H537.988V93.8406H520.595V24.8222ZM575.442 24.8222H592.743V93.8406H575.442V24.8222ZM530.258 51.2332H582.804V66.5093H530.258V51.2332Z" fill="black"/>
<path fill-rule="evenodd" clip-rule="evenodd" d="M109.028 99.992L115.774 88.3023L65.1591 0.847357L51.1445 0L109.028 99.992Z" fill="#BFF747"/>
<path fill-rule="evenodd" clip-rule="evenodd" d="M12.5742 67.0741H26.0672L61.4077 5.63837L58.3984 0.434582L51.1413 0L12.5742 67.0741Z" fill="#BFF747"/>
<path fill-rule="evenodd" clip-rule="evenodd" d="M109.025 99.992L112.512 93.9515L58.399 0.43457L57.9102 11.6896L109.025 99.992Z" fill="#BFF747"/>
<path fill-rule="evenodd" clip-rule="evenodd" d="M19.0586 67.0741H26.0659L57.9299 11.6896L58.397 0.43457L19.0586 67.0741Z" fill="#BFF747"/>
<path fill-rule="evenodd" clip-rule="evenodd" d="M57.9918 33.0483L70.3877 55.1023L58.774 75.0267L44.4228 100.318L7.74606 100.286L0 88.5741L6.14902 78.199L31.9944 78.525L57.9918 33.0483Z" fill="#BFF747"/>
<path fill-rule="evenodd" clip-rule="evenodd" d="M58.7812 75.0267L70.3949 55.1023L95.8601 100.318L73.0239 100.286L61.7581 80.3067L58.7812 75.0267Z" fill="#BFF747"/>
<path fill-rule="evenodd" clip-rule="evenodd" d="M58.7812 75.0267L73.0239 100.286L70.3949 55.1023L58.7812 75.0267Z" fill="#BFF747"/>
<path fill-rule="evenodd" clip-rule="evenodd" d="M70.3841 55.1023L58.7705 75.0267L57.9883 33.0483L70.3841 55.1023Z" fill="#BFF747"/>
<path fill-rule="evenodd" clip-rule="evenodd" d="M31.9922 78.5251L43.6601 58.1008L44.388 100.568L31.9922 78.5251Z" fill="#BFF747"/>
<path fill-rule="evenodd" clip-rule="evenodd" d="M32.0061 78.5144L7.75781 100.286L44.4019 100.568L32.0061 78.5144Z" fill="#BFF747"/>
<path fill-rule="evenodd" clip-rule="evenodd" d="M58.7706 75.0268L45.1255 58.1008L44.3867 100.568L58.7706 75.0268Z" fill="#BFF747"/>
<path fill-rule="evenodd" clip-rule="evenodd" d="M83.5469 78.4489L73.0197 100.286L70.3906 55.1023L83.5469 78.4489Z" fill="#BFF747"/>
</svg>
