<svg width="111" height="38" viewBox="0 0 111 38" fill="none" xmlns="http://www.w3.org/2000/svg">
<path d="M10.7474 15.6895C14.9371 13.6857 18.2159 10.2854 20.0983 6.03502C18.8839 4.7599 17.3051 3.8491 15.605 3.30262L14.6942 2.99902C14.6335 3.12046 14.5728 3.30263 14.5728 3.42407C13.1155 7.55303 10.1402 10.8926 6.1327 12.7749C3.33959 14.1108 1.27512 16.5396 0.303599 19.4541L0 20.3649C0.12144 20.4256 0.303602 20.4864 0.425041 20.4864C1.57872 20.9114 2.73239 21.4579 3.82535 22.1258C5.34335 19.3934 7.77213 17.086 10.7474 15.6895Z" fill="#FFD870"/>
<path d="M28.3562 15.9331C26.1096 19.3334 23.0129 22.0658 19.1875 23.8874C16.0908 25.3447 13.7227 28.0771 12.6298 31.356L12.3262 32.3882C13.4798 33.4205 14.8764 34.2098 16.3944 34.6956L17.3052 34.9992C17.3659 34.8777 17.4266 34.6956 17.4266 34.5741C18.8839 30.4452 21.8592 27.1056 25.8667 25.2233C28.6598 23.8874 30.785 21.4586 31.6958 18.5441L31.9994 17.6333C30.7243 17.269 29.5099 16.6617 28.3562 15.9331Z" fill="#FFD870"/>
<path d="M9.8964 29.2308C11.4144 25.5876 14.2075 22.6123 17.79 20.9121C21.0688 19.3334 23.8012 16.9046 25.6836 13.9293C24.287 12.5935 23.1333 11.0755 22.2832 9.25391C20.0366 13.3829 16.5149 16.7225 12.2038 18.7869C9.71424 19.9406 7.71049 21.9444 6.49609 24.3732C7.83193 25.6483 8.92489 27.227 9.77496 28.9879C9.77496 28.9879 9.83568 29.1093 9.8964 29.2308Z" fill="#F3604C"/>
<path d="M41.055 26.499V26.115L43.095 25.131V12.027L41.055 11.043V10.659H48.735C49.887 10.659 50.911 10.795 51.807 11.067C52.719 11.323 53.431 11.715 53.943 12.243C54.471 12.755 54.735 13.411 54.735 14.211C54.735 15.027 54.423 15.779 53.799 16.467C53.191 17.155 52.311 17.635 51.159 17.907C52.711 18.115 53.927 18.571 54.807 19.275C55.703 19.963 56.151 20.835 56.151 21.891C56.151 22.771 55.855 23.563 55.263 24.267C54.671 24.955 53.855 25.499 52.815 25.899C51.791 26.299 50.623 26.499 49.311 26.499H41.055ZM47.535 11.979H46.719V17.739H47.679C48.735 17.739 49.559 17.491 50.151 16.995C50.743 16.483 51.039 15.795 51.039 14.931C51.039 12.963 49.871 11.979 47.535 11.979ZM48.375 18.915H46.719V25.179H48.543C49.727 25.179 50.647 24.883 51.303 24.291C51.975 23.699 52.311 22.939 52.311 22.011C52.311 20.955 51.967 20.179 51.279 19.683C50.607 19.171 49.639 18.915 48.375 18.915ZM63.5593 26.739C61.9113 26.739 60.6073 26.267 59.6473 25.323C58.7033 24.363 58.2313 23.099 58.2313 21.531C58.2313 20.315 58.4953 19.243 59.0233 18.315C59.5513 17.371 60.2633 16.635 61.1593 16.107C62.0553 15.579 63.0553 15.315 64.1593 15.315C65.4553 15.315 66.4633 15.747 67.1833 16.611C67.9033 17.475 68.2713 18.699 68.2873 20.283L68.1913 20.403H61.4713V20.523C61.4713 21.195 61.5993 21.811 61.8553 22.371C62.1113 22.915 62.5113 23.347 63.0553 23.667C63.6153 23.987 64.3353 24.147 65.2153 24.147C65.6793 24.147 66.1593 24.091 66.6553 23.979C67.1673 23.867 67.6953 23.675 68.2393 23.403H68.3113V23.787C67.9113 24.635 67.2953 25.339 66.4633 25.899C65.6473 26.459 64.6793 26.739 63.5593 26.739ZM63.6073 16.395C63.0473 16.395 62.5833 16.651 62.2153 17.163C61.8633 17.675 61.6393 18.395 61.5433 19.323H65.5993C65.4873 18.219 65.2553 17.459 64.9033 17.043C64.5673 16.611 64.1353 16.395 63.6073 16.395ZM70.4736 26.499V26.019L75.6576 16.683H72.2016L70.9056 19.299H70.4496L70.7136 15.315H70.8336C71.0576 15.379 71.3296 15.435 71.6496 15.483C71.9856 15.531 72.2896 15.555 72.5616 15.555H79.7856V16.035L74.6016 25.371H78.4176L79.5216 22.587H79.9776V26.499H70.4736ZM85.3045 12.939C84.7925 12.939 84.3685 12.779 84.0325 12.459C83.7125 12.123 83.5525 11.707 83.5525 11.211C83.5525 10.699 83.7125 10.283 84.0325 9.96302C84.3685 9.62702 84.7925 9.45902 85.3045 9.45902C85.8165 9.45902 86.2325 9.62702 86.5525 9.96302C86.8885 10.283 87.0565 10.699 87.0565 11.211C87.0565 11.707 86.8885 12.123 86.5525 12.459C86.2325 12.779 85.8165 12.939 85.3045 12.939ZM82.0645 26.499V26.115L83.6725 25.347V18.051L82.1365 16.923V16.635L86.7685 15.315H87.0565V25.347L88.4725 26.115V26.499H82.0645ZM90.1286 26.499V26.115L91.7366 25.347V16.635H89.9126V15.555H91.7366V14.811C91.7366 14.363 91.8566 13.867 92.0966 13.323C92.3526 12.763 92.6966 12.203 93.1286 11.643C93.5766 11.083 94.0726 10.563 94.6166 10.083C95.1606 9.60302 95.7366 9.21902 96.3446 8.93102C96.9526 8.64302 97.5526 8.49902 98.1446 8.49902C98.3206 8.49902 98.4966 8.52302 98.6726 8.57102C98.8646 8.61902 99.0246 8.67502 99.1526 8.73902C99.5366 8.94702 99.7286 9.15502 99.7286 9.36302C99.7286 9.47502 99.6806 9.62702 99.5846 9.81902L98.9606 11.115H98.7446L98.2886 10.923C98.0326 10.795 97.7846 10.699 97.5446 10.635C97.3206 10.555 97.0726 10.515 96.8006 10.515C96.0966 10.515 95.6406 10.787 95.4326 11.331C95.2246 11.859 95.1206 12.771 95.1206 14.067V15.555H97.9526V16.635H95.1206V25.371L96.9686 26.115V26.499H90.1286ZM100.163 32.283C99.7949 32.283 99.5629 32.227 99.4669 32.115C99.3869 32.019 99.3469 31.843 99.3469 31.587V29.931L99.4669 29.811H100.547C100.947 29.811 101.275 29.779 101.531 29.715C101.803 29.667 102.043 29.515 102.251 29.259C102.475 29.019 102.707 28.611 102.947 28.035L103.571 26.523L98.7949 16.587L97.3069 15.939V15.555H103.931V15.939L102.443 16.635V16.707L105.083 22.251H105.251L107.291 16.803V16.707L105.875 15.939V15.555H110.459V15.939L108.755 16.731L103.955 28.395C103.811 28.763 103.683 29.067 103.571 29.307C103.475 29.563 103.363 29.803 103.235 30.027C103.107 30.267 102.923 30.555 102.683 30.891C102.363 31.355 101.963 31.699 101.483 31.923C101.019 32.163 100.579 32.283 100.163 32.283Z" fill="black"/>
</svg>
