<svg width="134" height="33" viewBox="0 0 134 33" fill="none" xmlns="http://www.w3.org/2000/svg">
<rect width="32" height="32" rx="16" fill="#0787FE"/>
<mask id="mask0_269_1580" style="mask-type:luminance" maskUnits="userSpaceOnUse" x="7" y="11" width="15" height="15">
<path d="M7.12109 11.5555H21.3332V25.7542H7.12109V11.5555Z" fill="white"/>
</mask>
<g mask="url(#mask0_269_1580)">
<path fill-rule="evenodd" clip-rule="evenodd" d="M21.3222 11.5659C21.3222 13.5233 19.731 15.1145 17.7736 15.1145H15.9992V22.2119C15.9992 24.1693 14.408 25.7605 12.4505 25.7605V15.1145H7.12744C7.12744 13.1571 8.71864 11.5659 10.6762 11.5659H21.3222Z" fill="white"/>
</g>
<mask id="mask1_269_1580" style="mask-type:luminance" maskUnits="userSpaceOnUse" x="10" y="6" width="15" height="4">
<path d="M10.6665 6.24304H24.8766V9.80739H10.6665V6.24304Z" fill="white"/>
</mask>
<g mask="url(#mask1_269_1580)">
<path fill-rule="evenodd" clip-rule="evenodd" d="M24.8706 6.24304C24.8706 8.20045 23.2794 9.79165 21.3218 9.79165H10.6758C10.6758 7.83425 12.267 6.24304 14.2245 6.24304H24.8706Z" fill="#121212"/>
</g>
<path d="M41.8167 26V8.72H52.2207V11.612H44.7087V15.92H50.7807V18.8H44.7087V26H41.8167ZM60.2517 26.36C58.9557 26.36 57.8237 26.068 56.8557 25.484C55.8877 24.9 55.1357 24.096 54.5997 23.072C54.0717 22.04 53.8077 20.856 53.8077 19.52C53.8077 18.16 54.0797 16.968 54.6237 15.944C55.1677 14.92 55.9237 14.12 56.8917 13.544C57.8597 12.968 58.9797 12.68 60.2517 12.68C61.5557 12.68 62.6917 12.972 63.6597 13.556C64.6277 14.14 65.3797 14.948 65.9157 15.98C66.4517 17.004 66.7197 18.184 66.7197 19.52C66.7197 20.864 66.4477 22.052 65.9037 23.084C65.3677 24.108 64.6157 24.912 63.6477 25.496C62.6797 26.072 61.5477 26.36 60.2517 26.36ZM60.2517 23.648C61.4037 23.648 62.2597 23.264 62.8197 22.496C63.3797 21.728 63.6597 20.736 63.6597 19.52C63.6597 18.264 63.3757 17.264 62.8077 16.52C62.2397 15.768 61.3877 15.392 60.2517 15.392C59.4757 15.392 58.8357 15.568 58.3317 15.92C57.8357 16.264 57.4677 16.748 57.2277 17.372C56.9877 17.988 56.8677 18.704 56.8677 19.52C56.8677 20.776 57.1517 21.78 57.7197 22.532C58.2957 23.276 59.1397 23.648 60.2517 23.648ZM75.5876 26.36C74.2916 26.36 73.1596 26.068 72.1916 25.484C71.2236 24.9 70.4716 24.096 69.9356 23.072C69.4076 22.04 69.1436 20.856 69.1436 19.52C69.1436 18.16 69.4156 16.968 69.9596 15.944C70.5036 14.92 71.2596 14.12 72.2276 13.544C73.1956 12.968 74.3156 12.68 75.5876 12.68C76.8916 12.68 78.0276 12.972 78.9956 13.556C79.9636 14.14 80.7156 14.948 81.2516 15.98C81.7876 17.004 82.0556 18.184 82.0556 19.52C82.0556 20.864 81.7836 22.052 81.2396 23.084C80.7036 24.108 79.9516 24.912 78.9836 25.496C78.0156 26.072 76.8836 26.36 75.5876 26.36ZM75.5876 23.648C76.7396 23.648 77.5956 23.264 78.1556 22.496C78.7156 21.728 78.9956 20.736 78.9956 19.52C78.9956 18.264 78.7116 17.264 78.1436 16.52C77.5756 15.768 76.7236 15.392 75.5876 15.392C74.8116 15.392 74.1716 15.568 73.6676 15.92C73.1716 16.264 72.8036 16.748 72.5636 17.372C72.3236 17.988 72.2036 18.704 72.2036 19.52C72.2036 20.776 72.4876 21.78 73.0556 22.532C73.6316 23.276 74.4756 23.648 75.5876 23.648ZM92.7955 26C91.9395 26.16 91.0995 26.228 90.2755 26.204C89.4595 26.188 88.7275 26.04 88.0795 25.76C87.4315 25.472 86.9395 25.02 86.6035 24.404C86.3075 23.844 86.1515 23.272 86.1355 22.688C86.1195 22.104 86.1115 21.444 86.1115 20.708V9.44H88.9915V20.54C88.9915 21.06 88.9955 21.516 89.0035 21.908C89.0195 22.3 89.1035 22.62 89.2555 22.868C89.5435 23.348 90.0035 23.616 90.6355 23.672C91.2675 23.728 91.9875 23.696 92.7955 23.576V26ZM83.7595 15.308V13.04H92.7955V15.308H83.7595ZM96.0823 26V13.04H98.6383V16.196L98.3263 15.788C98.4863 15.356 98.6983 14.964 98.9623 14.612C99.2343 14.252 99.5583 13.956 99.9343 13.724C100.254 13.508 100.606 13.34 100.99 13.22C101.382 13.092 101.782 13.016 102.19 12.992C102.598 12.96 102.994 12.976 103.378 13.04V15.74C102.994 15.628 102.55 15.592 102.046 15.632C101.55 15.672 101.102 15.812 100.702 16.052C100.302 16.268 99.9743 16.544 99.7183 16.88C99.4703 17.216 99.2863 17.6 99.1663 18.032C99.0463 18.456 98.9863 18.916 98.9863 19.412V26H96.0823ZM111.826 26.36C110.514 26.36 109.362 26.076 108.37 25.508C107.378 24.94 106.602 24.152 106.042 23.144C105.49 22.136 105.214 20.976 105.214 19.664C105.214 18.248 105.486 17.02 106.03 15.98C106.574 14.932 107.33 14.12 108.298 13.544C109.266 12.968 110.386 12.68 111.658 12.68C113.002 12.68 114.142 12.996 115.078 13.628C116.022 14.252 116.722 15.136 117.178 16.28C117.634 17.424 117.806 18.772 117.694 20.324H114.826V19.268C114.818 17.86 114.57 16.832 114.082 16.184C113.594 15.536 112.826 15.212 111.778 15.212C110.594 15.212 109.714 15.58 109.138 16.316C108.562 17.044 108.274 18.112 108.274 19.52C108.274 20.832 108.562 21.848 109.138 22.568C109.714 23.288 110.554 23.648 111.658 23.648C112.37 23.648 112.982 23.492 113.494 23.18C114.014 22.86 114.414 22.4 114.694 21.8L117.55 22.664C117.054 23.832 116.286 24.74 115.246 25.388C114.214 26.036 113.074 26.36 111.826 26.36ZM107.362 20.324V18.14H116.278V20.324H107.362ZM129.484 26V19.76C129.484 19.352 129.456 18.9 129.4 18.404C129.344 17.908 129.212 17.432 129.004 16.976C128.804 16.512 128.5 16.132 128.092 15.836C127.692 15.54 127.148 15.392 126.46 15.392C126.092 15.392 125.728 15.452 125.368 15.572C125.008 15.692 124.68 15.9 124.384 16.196C124.096 16.484 123.864 16.884 123.688 17.396C123.512 17.9 123.424 18.548 123.424 19.34L121.708 18.608C121.708 17.504 121.92 16.504 122.344 15.608C122.776 14.712 123.408 14 124.24 13.472C125.072 12.936 126.096 12.668 127.312 12.668C128.272 12.668 129.064 12.828 129.688 13.148C130.312 13.468 130.808 13.876 131.176 14.372C131.544 14.868 131.816 15.396 131.992 15.956C132.168 16.516 132.28 17.048 132.328 17.552C132.384 18.048 132.412 18.452 132.412 18.764V26H129.484ZM120.496 26V13.04H123.076V17.06H123.424V26H120.496Z" fill="#1D1D1D"/>
</svg>
