<svg width="386" height="332" viewBox="0 0 386 332" fill="none" xmlns="http://www.w3.org/2000/svg">
<g clip-path="url(#clip0_163_526)">
<path d="M166.184 242.79L154.727 289.26C144.357 289.596 134.112 286.916 125.233 281.547L132.871 251.032L166.184 242.79Z" fill="#E8F8F6"/>
<path d="M283.665 168.787L265.288 189.62L241.241 170.301L256.629 146.705C254.587 145.382 252.546 143.983 250.428 142.546L220.407 188.034H163.613C159.327 188.035 155.165 189.468 151.788 192.105C148.411 194.743 146.012 198.433 144.972 202.591L144.14 205.88C143.876 205.994 65.4917 237.378 65.4917 237.378C65.2995 247.654 69.0313 257.617 75.9273 265.238L147.695 241.228C162.48 242.598 209.359 246.369 224.718 244.442C240.041 242.532 250.84 227.792 254.247 214.949L289.072 174.074L283.665 168.787Z" fill="#E8F8F6"/>
<path d="M129.657 145.235L143.346 157.447L125.309 177.638L135.026 186.299L153.064 166.106L166.713 178.319L176.846 129.655L129.657 145.235Z" fill="#E8F8F6"/>
<path d="M123.607 145.576C123.18 149.473 123.205 153.406 123.683 157.297L133.173 155.444C129.279 152.921 126.008 149.547 123.607 145.576Z" fill="#14B8A6"/>
<path d="M68.7054 78.4589C68.715 79.0251 68.6115 79.5876 68.4009 80.1133C68.1904 80.639 67.8769 81.1174 67.4791 81.5204C67.0812 81.9234 66.6068 82.2429 66.0839 82.4602C65.5609 82.6775 64.9998 82.7882 64.4335 82.7858C63.8672 82.7834 63.307 82.668 62.7859 82.4463C62.2648 82.2246 61.7932 81.9011 61.3987 81.4948C61.0042 81.0885 60.6948 80.6075 60.4887 80.08C60.2825 79.5525 60.1838 78.9892 60.1982 78.4231C60.2264 77.3107 60.6894 76.2536 61.4878 75.4785C62.2863 74.7034 63.3566 74.272 64.4693 74.2766C65.5821 74.2813 66.6487 74.7218 67.4406 75.5036C68.2324 76.2854 68.6865 77.3463 68.7054 78.4589Z" fill="#14B8A6"/>
<path d="M282.455 206.225C278.465 202.798 274.52 199.32 270.621 195.789L273.457 192.462L282.455 206.225Z" fill="#14B8A6"/>
<path d="M275.082 149.471L269.146 149.736C270.149 149.132 271.054 148.38 271.831 147.505C272.824 148.299 273.918 148.96 275.082 149.471Z" fill="#14B8A6"/>
<path d="M147.657 241.276L134.156 245.814L132.871 251.031L166.183 242.789C155.445 241.957 147.694 241.239 147.657 241.276Z" fill="#14B8A6"/>
<path d="M338.567 243.014C335.051 244.716 332.597 243.468 332.82 239.347L338.567 243.014Z" fill="#14B8A6"/>
<path d="M350.515 223.088C348.549 223.145 346.625 222.516 345.071 221.311C347.642 220.101 349.91 220.441 350.515 223.088Z" fill="#14B8A6"/>
<path d="M285.405 130.942C292.475 130.345 290.017 139.602 286.614 143.005C285.972 143.837 286.236 144.398 288.278 144.556C292.551 144.896 290.585 151.021 283.779 148.979C283.126 149.019 282.497 149.244 281.964 149.622C291.118 153.97 293.609 169.699 300.907 154C308.166 138.353 293.307 130.072 285.405 130.942Z" fill="#14B8A6"/>
<path d="M335.845 217.343C335.845 217.784 335.67 218.206 335.358 218.518C335.047 218.83 334.624 219.005 334.183 219.005C333.743 219.005 333.32 218.83 333.008 218.518C332.697 218.206 332.522 217.784 332.522 217.343C332.522 216.902 332.697 216.48 333.008 216.168C333.32 215.856 333.743 215.681 334.183 215.681C334.624 215.681 335.047 215.856 335.358 216.168C335.67 216.48 335.845 216.902 335.845 217.343Z" fill="#14B8A6"/>
<path d="M310.17 215.678C310.17 216.119 309.995 216.541 309.683 216.853C309.372 217.165 308.949 217.34 308.508 217.34C308.068 217.34 307.645 217.165 307.333 216.853C307.022 216.541 306.847 216.119 306.847 215.678C306.847 215.237 307.022 214.815 307.333 214.503C307.645 214.192 308.068 214.016 308.508 214.016C308.949 214.016 309.372 214.192 309.683 214.503C309.995 214.815 310.17 215.237 310.17 215.678Z" fill="#14B8A6"/>
<path d="M305.709 194.126C305.709 194.566 305.534 194.989 305.222 195.301C304.91 195.612 304.488 195.787 304.047 195.787C303.606 195.787 303.184 195.612 302.872 195.301C302.56 194.989 302.385 194.566 302.385 194.126C302.385 193.685 302.56 193.262 302.872 192.951C303.184 192.639 303.606 192.464 304.047 192.464C304.488 192.464 304.91 192.639 305.222 192.951C305.534 193.262 305.709 193.685 305.709 194.126Z" fill="#14B8A6"/>
<path d="M279.771 194.126C279.771 194.566 279.596 194.989 279.284 195.301C278.973 195.612 278.55 195.787 278.109 195.787C277.668 195.787 277.246 195.612 276.934 195.301C276.623 194.989 276.448 194.566 276.448 194.126C276.448 193.685 276.623 193.262 276.934 192.951C277.246 192.639 277.668 192.464 278.109 192.464C278.55 192.464 278.973 192.639 279.284 192.951C279.596 193.262 279.771 193.685 279.771 194.126Z" fill="#14B8A6"/>
<path d="M275.99 168.942C275.99 169.383 275.815 169.806 275.503 170.117C275.191 170.429 274.769 170.604 274.328 170.604C273.887 170.604 273.465 170.429 273.153 170.117C272.842 169.806 272.667 169.383 272.667 168.942C272.667 168.501 272.842 168.079 273.153 167.767C273.465 167.456 273.887 167.281 274.328 167.281C274.769 167.281 275.191 167.456 275.503 167.767C275.815 168.079 275.99 168.501 275.99 168.942Z" fill="#14B8A6"/>
<path d="M252.999 169.358C252.999 169.799 252.824 170.221 252.513 170.533C252.201 170.844 251.778 171.019 251.338 171.019C250.897 171.019 250.474 170.844 250.163 170.533C249.851 170.221 249.676 169.799 249.676 169.358C249.676 168.917 249.851 168.494 250.163 168.183C250.474 167.871 250.897 167.696 251.338 167.696C251.778 167.696 252.201 167.871 252.513 168.183C252.824 168.494 252.999 168.917 252.999 169.358Z" fill="#14B8A6"/>
<path d="M240.755 141.605C240.755 142.045 240.58 142.468 240.268 142.78C239.957 143.091 239.534 143.266 239.093 143.266C238.653 143.266 238.23 143.091 237.918 142.78C237.607 142.468 237.432 142.045 237.432 141.605C237.432 141.164 237.607 140.741 237.918 140.43C238.23 140.118 238.653 139.943 239.093 139.943C239.534 139.943 239.957 140.118 240.268 140.43C240.58 140.741 240.755 141.164 240.755 141.605Z" fill="#14B8A6"/>
<path d="M216.7 144.328C216.7 144.769 216.525 145.191 216.213 145.503C215.901 145.815 215.479 145.99 215.038 145.99C214.597 145.99 214.175 145.815 213.863 145.503C213.552 145.191 213.376 144.769 213.376 144.328C213.376 143.887 213.552 143.465 213.863 143.153C214.175 142.842 214.597 142.667 215.038 142.667C215.479 142.667 215.901 142.842 216.213 143.153C216.525 143.465 216.7 143.887 216.7 144.328Z" fill="#14B8A6"/>
<path d="M216.7 123.038C216.7 123.479 216.525 123.902 216.213 124.213C215.901 124.525 215.479 124.7 215.038 124.7C214.597 124.7 214.175 124.525 213.863 124.213C213.552 123.902 213.376 123.479 213.376 123.038C213.376 122.598 213.552 122.175 213.863 121.863C214.175 121.552 214.597 121.377 215.038 121.377C215.479 121.377 215.901 121.552 216.213 121.863C216.525 122.175 216.7 122.598 216.7 123.038Z" fill="#14B8A6"/>
<path d="M196.179 126.669C196.179 127.109 196.004 127.532 195.692 127.844C195.38 128.155 194.958 128.33 194.517 128.33C194.076 128.33 193.654 128.155 193.342 127.844C193.031 127.532 192.855 127.109 192.855 126.669C192.855 126.228 193.031 125.805 193.342 125.494C193.654 125.182 194.076 125.007 194.517 125.007C194.958 125.007 195.38 125.182 195.692 125.494C196.004 125.805 196.179 126.228 196.179 126.669Z" fill="#14B8A6"/>
<path d="M193.409 103.377C193.409 103.818 193.234 104.241 192.922 104.552C192.61 104.864 192.188 105.039 191.747 105.039C191.306 105.039 190.884 104.864 190.572 104.552C190.261 104.241 190.085 103.818 190.085 103.377C190.085 102.937 190.261 102.514 190.572 102.202C190.884 101.891 191.306 101.716 191.747 101.716C192.188 101.716 192.61 101.891 192.922 102.202C193.234 102.514 193.409 102.937 193.409 103.377Z" fill="#14B8A6"/>
<path d="M172.952 106.327C172.952 106.768 172.776 107.191 172.464 107.503C172.152 107.815 171.729 107.99 171.288 107.99C170.847 107.99 170.424 107.815 170.112 107.503C169.8 107.191 169.624 106.768 169.624 106.327C169.624 105.886 169.8 105.462 170.112 105.15C170.424 104.838 170.847 104.663 171.288 104.663C171.729 104.663 172.152 104.838 172.464 105.15C172.776 105.462 172.952 105.886 172.952 106.327Z" fill="#14B8A6"/>
<path d="M17.3197 207.094C17.3197 207.264 17.252 207.428 17.1315 207.548C17.0109 207.669 16.8474 207.736 16.6769 207.736C16.5065 207.736 16.343 207.669 16.2224 207.548C16.1019 207.428 16.0342 207.264 16.0342 207.094C16.0342 206.923 16.1019 206.76 16.2224 206.639C16.343 206.519 16.5065 206.451 16.6769 206.451C16.8474 206.451 17.0109 206.519 17.1315 206.639C17.252 206.76 17.3197 206.923 17.3197 207.094Z" stroke="#013941" stroke-width="2" stroke-linejoin="round"/>
<path d="M80.6911 231.313H70.4824C66.8952 231.292 63.3473 230.564 60.0419 229.17C56.7365 227.776 53.7384 225.744 51.2192 223.19C48.6999 220.635 46.7096 217.609 45.3624 214.283C44.0153 210.958 43.3377 207.399 43.3687 203.811V88.0252C43.4123 84.4347 44.1631 80.8879 45.578 77.5876C46.993 74.2874 49.0444 71.2983 51.6151 68.7912C54.1858 66.2841 57.2253 64.3081 60.56 62.9762C63.8946 61.6443 67.4591 60.9826 71.0496 61.0289H237.043C244.329 61.1275 251.278 64.106 256.374 69.3135C261.469 74.5209 264.296 81.5337 264.237 88.8192V150.832" stroke="#013941" stroke-width="2" stroke-linecap="round" stroke-linejoin="round"/>
<path d="M247.139 229.783C252.1 227.707 256.339 224.214 259.325 219.742C262.311 215.269 263.911 210.015 263.927 204.637V203.613" stroke="#013941" stroke-width="2" stroke-linecap="round" stroke-linejoin="round"/>
<path d="M189.365 94.2079H264.305" stroke="#013941" stroke-width="2" stroke-linecap="round" stroke-linejoin="round"/>
<path d="M43.5598 93.7361H151.816" stroke="#013941" stroke-width="2" stroke-linecap="round" stroke-linejoin="round"/>
<path d="M68.7054 78.4588C68.715 79.025 68.6115 79.5875 68.4009 80.1132C68.1904 80.6389 67.8769 81.1173 67.4791 81.5203C67.0812 81.9233 66.6068 82.2428 66.0839 82.4601C65.5609 82.6774 64.9998 82.7881 64.4335 82.7857C63.8672 82.7833 63.307 82.6679 62.7859 82.4462C62.2648 82.2245 61.7932 81.901 61.3987 81.4947C61.0042 81.0883 60.6948 80.6073 60.4887 80.0799C60.2825 79.5524 60.1838 78.9891 60.1982 78.423C60.2264 77.3105 60.6894 76.2535 61.4878 75.4784C62.2863 74.7033 63.3566 74.2718 64.4693 74.2765C65.5821 74.2812 66.6487 74.7217 67.4406 75.5035C68.2324 76.2853 68.6865 77.3462 68.7054 78.4588Z" stroke="#013941" stroke-width="2" stroke-linecap="round" stroke-linejoin="round"/>
<path d="M81.5231 78.496C81.5327 79.0625 81.4292 79.6252 81.2185 80.1512C81.0078 80.6772 80.6942 81.1558 80.2962 81.5589C79.8981 81.9621 79.4236 82.2818 78.9003 82.4992C78.3771 82.7166 77.8158 82.8273 77.2492 82.825C76.6826 82.8226 76.1222 82.7071 75.6008 82.4853C75.0795 82.2635 74.6076 81.9399 74.213 81.5333C73.8183 81.1268 73.5088 80.6456 73.3025 80.1179C73.0963 79.5902 72.9975 79.0266 73.0119 78.4602C73.0402 77.3473 73.5034 76.2897 74.3021 75.5142C75.1009 74.7388 76.1717 74.3071 77.285 74.3118C78.3983 74.3165 79.4654 74.7572 80.2577 75.5393C81.0499 76.3215 81.5042 77.3829 81.5231 78.496Z" stroke="#013941" stroke-width="2" stroke-linecap="round" stroke-linejoin="round"/>
<path d="M94.3806 78.5716C94.3782 79.1302 94.2659 79.6829 94.0499 80.198C93.834 80.7132 93.5187 81.1808 93.1221 81.5741C92.7254 81.9675 92.2552 82.2788 91.7382 82.4904C91.2212 82.702 90.6676 82.8097 90.109 82.8073C89.5505 82.805 88.9978 82.6926 88.4826 82.4767C87.9674 82.2608 87.4998 81.9455 87.1065 81.5488C86.7132 81.1522 86.4019 80.6819 86.1903 80.165C85.9787 79.648 85.871 79.0944 85.8733 78.5358C85.8781 77.4077 86.3308 76.3276 87.1319 75.5333C87.9329 74.7389 89.0167 74.2953 90.1449 74.3001C91.273 74.3048 92.353 74.7575 93.1474 75.5586C93.9417 76.3597 94.3853 77.4435 94.3806 78.5716Z" stroke="#013941" stroke-width="2" stroke-linecap="round" stroke-linejoin="round"/>
<path d="M129.657 145.235L143.346 157.448L125.309 177.638L135.026 186.299L153.064 166.106L166.713 178.319L176.846 129.656L129.657 145.235Z" stroke="#013941" stroke-width="2" stroke-linecap="round" stroke-linejoin="round"/>
<path d="M123.608 145.576C123.18 149.473 123.205 153.406 123.683 157.297L133.176 155.444C129.272 152.932 125.998 149.556 123.608 145.576Z" stroke="#013941" stroke-width="2" stroke-linecap="round" stroke-linejoin="round"/>
<path d="M161.004 79.0259V4.12036" stroke="#013941" stroke-width="2" stroke-linecap="round" stroke-linejoin="round"/>
<path d="M160.986 114.04V103.605" stroke="#013941" stroke-width="2" stroke-linecap="round" stroke-linejoin="round"/>
<path d="M161.004 134.874V122.359" stroke="#013941" stroke-width="2" stroke-linecap="round" stroke-linejoin="round"/>
<path d="M123.683 157.296C125.12 168.299 130.489 178.589 141.267 178.589C149.093 178.589 154.16 175.224 157.223 169.855" stroke="#013941" stroke-width="2" stroke-linecap="round" stroke-linejoin="round"/>
<path d="M165.087 118.2C165.087 119.303 164.649 120.361 163.869 121.142C163.089 121.922 162.031 122.36 160.927 122.36C159.824 122.36 158.766 121.922 157.986 121.142C157.205 120.361 156.767 119.303 156.767 118.2C156.767 117.097 157.205 116.039 157.986 115.258C158.766 114.478 159.824 114.04 160.927 114.04C162.031 114.04 163.089 114.478 163.869 115.258C164.649 116.039 165.087 117.097 165.087 118.2Z" stroke="#013941" stroke-width="2" stroke-linecap="round" stroke-linejoin="round"/>
<path d="M161.117 97.1472C164.974 97.0278 165.314 92.3453 161.571 92.1921C158.773 92.0806 156.807 92.1164 154.606 92.1164C150.9 92.1164 150.711 97.0755 153.774 97.3362C155.597 97.4815 157.573 97.2467 161.117 97.1472Z" stroke="#013941" stroke-width="2" stroke-linecap="round" stroke-linejoin="round"/>
<path d="M159 81.3314C157.639 81.2558 156.655 81.216 155.37 81.1324C151.854 80.9334 151.479 85.8726 154.387 86.2746C155.863 86.4393 157.349 86.5025 158.834 86.4637" stroke="#013941" stroke-width="2" stroke-linecap="round" stroke-linejoin="round"/>
<path d="M161.752 102.47C165.495 102.233 165.732 97.712 162.092 97.6682C159.408 97.6344 157.479 97.7279 155.362 97.7816C151.77 97.8692 151.696 102.609 154.643 102.81C157.018 102.83 159.392 102.717 161.752 102.47Z" stroke="#013941" stroke-width="2" stroke-linecap="round" stroke-linejoin="round"/>
<path d="M158.837 86.5875C157.404 86.5517 156.16 86.6253 154.765 86.5875C151.022 86.5119 150.719 91.5406 153.782 91.8431C155.672 92.0322 157.639 91.8849 161.268 91.8431C161.806 91.8774 162.34 91.7373 162.792 91.4436C163.244 91.1499 163.589 90.7183 163.776 90.213C163.963 89.7076 163.981 89.1554 163.829 88.6385C163.677 88.1216 163.363 87.6675 162.932 87.3437" stroke="#013941" stroke-width="2" stroke-linecap="round" stroke-linejoin="round"/>
<path d="M177.779 86.387C175.874 84.1574 173.778 82.0979 171.515 80.2319C169.284 78.4548 168.452 78.7274 163.802 78.8389C158.357 78.9623 158.827 79.217 158.848 88.5182C158.848 90.7868 162.781 91.2406 163.839 84.0567C162.97 89.5769 165.314 93.4733 169.013 94.8723" stroke="#013941" stroke-width="2" stroke-linecap="round" stroke-linejoin="round"/>
<path d="M163.045 103.913C161.308 103.36 160.23 103.714 154.731 102.823" stroke="#013941" stroke-width="2" stroke-linecap="round" stroke-linejoin="round"/>
<path d="M273.457 192.462L282.455 206.225" stroke="#013941" stroke-width="2" stroke-linecap="round" stroke-linejoin="round"/>
<path d="M334.187 243.311C305.392 224.786 293.93 216.83 270.621 195.79" stroke="#013941" stroke-width="2" stroke-linecap="round" stroke-linejoin="round"/>
<path d="M256.591 146.823L241.203 170.417L265.25 189.778L283.627 168.942" stroke="#013941" stroke-width="2" stroke-linecap="round" stroke-linejoin="round"/>
<path d="M281.964 149.584C273.695 158.268 273.63 159.673 279.741 165.378C294.931 179.561 297.442 182.136 304.688 187.997C312.626 194.422 324.438 203.198 349.309 221.118" stroke="#013941" stroke-width="2" stroke-linecap="round" stroke-linejoin="round"/>
<path d="M269.106 149.736L275.076 149.471C273.934 148.917 272.846 148.259 271.825 147.505" stroke="#013941" stroke-width="2" stroke-linecap="round" stroke-linejoin="round"/>
<path d="M285.404 130.904C283.281 131.198 281.223 131.85 279.317 132.832C265.321 139.475 268.466 144.82 271.831 147.505L269.106 149.736C267.943 150.488 266.59 150.895 265.204 150.908C263.818 150.922 262.457 150.541 261.28 149.811C220.286 123.686 180.311 85.8546 179.491 85.0009C172.404 90.4664 166.544 97.3584 162.289 105.231C184.828 127.437 209.105 147.806 234.888 166.145" stroke="#013941" stroke-width="2" stroke-linecap="round" stroke-linejoin="round"/>
<path d="M144.14 205.959C150.442 203.576 157.244 202.823 163.915 203.77L211.633 210.387" stroke="#013941" stroke-width="2" stroke-linecap="round" stroke-linejoin="round"/>
<path d="M289.072 174.085L254.247 214.96C252.663 220.241 250.265 225.242 247.139 229.783C242.524 236.436 235.34 243.126 224.718 244.453C209.395 246.37 162.773 242.637 147.705 241.24L75.9273 265.287C69.0313 257.666 65.2995 247.703 65.4917 237.427L144.14 205.961L144.936 202.671C145.977 198.516 148.376 194.828 151.754 192.193C155.132 189.559 159.293 188.129 163.577 188.132H220.369L250.393 142.665" stroke="#013941" stroke-width="2" stroke-linecap="round" stroke-linejoin="round"/>
<path d="M134.178 245.769L125.223 281.547C134.102 286.917 144.347 289.596 154.717 289.26L166.174 242.79" stroke="#013941" stroke-width="2" stroke-linecap="round" stroke-linejoin="round"/>
<path d="M357.17 245.173C359.454 248.057 362.16 250.58 365.196 252.658C371.207 256.779 369.665 258.271 363.803 255.871C359.713 254.2 358.879 253.461 349.811 249.368C343.971 246.345 338.303 243 332.834 239.348" stroke="#013941" stroke-width="2" stroke-linecap="round" stroke-linejoin="round"/>
<path d="M358.911 247.251C358.911 247.251 363.412 248.829 369.006 250.503C375.287 252.381 377.06 250.351 370.216 246.948C366.648 245.396 363.393 243.205 360.613 240.483" stroke="#013941" stroke-width="2" stroke-linecap="round" stroke-linejoin="round"/>
<path d="M362.087 235.87C362.087 235.87 375.546 240.41 376.415 240.672C382.913 242.624 382.351 245.138 376.113 244.604C370.403 244.117 363.409 242.865 363.409 242.865" stroke="#013941" stroke-width="2" stroke-linecap="round" stroke-linejoin="round"/>
<path d="M350.515 223.088C350.379 222.302 349.948 221.597 349.309 221.118C346.283 219.03 340.878 223.956 338.364 227.102C335.409 230.809 330.283 240.719 334.185 243.31C334.879 243.643 335.646 243.791 336.413 243.739C337.18 243.688 337.921 243.438 338.564 243.016" stroke="#013941" stroke-width="2" stroke-linecap="round" stroke-linejoin="round"/>
<path d="M345.071 221.311C347.857 223.007 351.928 224.069 354.026 221.765C356.824 218.702 360.457 213.823 361.854 215.186C364.014 217.299 358.111 223.996 358.111 227.59C358.111 228.799 361.327 229.88 362.688 230.123C364.877 230.521 372.33 231.894 373.086 232.013C379.852 233.07 379.022 235.776 373.124 235.719C370.211 235.611 367.298 235.904 364.465 236.588" stroke="#013941" stroke-width="2" stroke-linecap="round" stroke-linejoin="round"/>
<path d="M362.768 232.769C362.051 238.011 359.633 242.872 355.886 246.607" stroke="#013941" stroke-width="2" stroke-linecap="round" stroke-linejoin="round"/>
<path d="M358.344 233.298C354.599 238.063 350.251 240.142 345.26 237.987" stroke="#013941" stroke-width="2" stroke-linecap="round" stroke-linejoin="round"/>
<path d="M65.6807 242.903C57.5217 246.087 44.4673 250.881 37.1322 252.961C28.9732 255.267 21.8947 257.649 21.5923 259.13C20.6092 264.423 41.8903 262.115 50.9726 265.896C53.1112 266.825 55.4077 267.338 57.7386 267.406C62.1166 267.406 65.9812 263.549 72.9004 261.319C68.9933 255.88 66.5112 249.548 65.6807 242.903Z" stroke="#013941" stroke-width="2" stroke-linecap="round" stroke-linejoin="round"/>
<path d="M129.846 284.042C127.275 292.436 123.305 304.573 120.583 311.228C117.369 319.132 114.873 326.165 115.857 327.299C119.411 331.345 130.716 313.158 139.299 308.356C141.353 307.253 143.177 305.767 144.672 303.978C147.281 300.689 146.789 295.546 148.944 289.119C142.318 288.627 135.842 286.906 129.846 284.042Z" stroke="#013941" stroke-width="2" stroke-linecap="round" stroke-linejoin="round"/>
<path d="M286.798 142.813C290.103 139.266 292.348 130.309 285.405 130.902C293.307 130.071 308.198 138.349 300.907 154.006C293.603 169.696 291.114 153.931 281.964 149.583C282.199 149.348 282.485 149.172 282.8 149.068C283.116 148.965 283.451 148.936 283.779 148.986C290.585 151.027 292.553 144.89 288.278 144.562C286.613 144.425 285.663 144.029 286.798 142.813Z" stroke="#013941" stroke-width="2" stroke-linecap="round" stroke-linejoin="round"/>
<path d="M30.1373 210.006C30.3117 210.312 30.403 210.659 30.4022 211.011C30.4014 211.364 30.3086 211.71 30.1328 212.016C29.9571 212.321 29.7046 212.576 29.4003 212.754C29.096 212.932 28.7505 213.027 28.398 213.031H4.95582C4.60272 213.028 4.25639 212.934 3.95102 212.756C3.64564 212.579 3.39181 212.325 3.21457 212.02C3.03801 211.713 2.94507 211.366 2.94507 211.013C2.94507 210.659 3.03801 210.312 3.21457 210.006L14.9377 189.664C15.1155 189.361 15.3696 189.11 15.6748 188.935C15.98 188.761 16.3255 188.67 16.6769 188.671C17.0283 188.67 17.3739 188.761 17.679 188.935C17.9842 189.11 18.2384 189.361 18.4162 189.664L30.1373 210.006Z" stroke="#013941" stroke-width="2" stroke-linecap="round" stroke-linejoin="round"/>
<path d="M16.677 196.583V203.653" stroke="#013941" stroke-width="2" stroke-linecap="round" stroke-linejoin="round"/>
<path d="M215.056 279.466V299.052" stroke="#013941" stroke-width="2" stroke-linecap="round" stroke-linejoin="round"/>
<path d="M224.869 289.26H205.243" stroke="#013941" stroke-width="2" stroke-linecap="round" stroke-linejoin="round"/>
<path d="M295.281 92.2973C294.588 91.6083 293.65 91.2216 292.672 91.2216C291.695 91.2216 290.757 91.6083 290.063 92.2973L289.08 93.2426L288.173 92.2973C287.83 91.9547 287.423 91.6829 286.976 91.4975C286.528 91.3121 286.048 91.2167 285.564 91.2167C285.079 91.2167 284.6 91.3121 284.152 91.4975C283.704 91.6829 283.297 91.9547 282.955 92.2973C282.612 92.6399 282.341 93.0466 282.155 93.4943C281.97 93.9419 281.874 94.4217 281.874 94.9062C281.874 95.3907 281.97 95.8705 282.155 96.3181C282.341 96.7658 282.612 97.1725 282.955 97.5151L289.124 103.684L295.293 97.5151C295.983 96.8213 296.369 95.8821 296.367 94.9037C296.365 93.9254 295.974 92.9879 295.281 92.2973Z" stroke="#013941" stroke-width="2" stroke-linecap="round" stroke-linejoin="round"/>
<path d="M122.095 22.3471C122.391 22.3489 122.683 22.4091 122.955 22.5242C123.228 22.6393 123.475 22.8071 123.682 23.0179C123.889 23.2287 124.053 23.4783 124.163 23.7525C124.274 24.0267 124.329 24.3201 124.326 24.6157V39.4372C124.324 39.7328 124.264 40.0252 124.149 40.2975C124.034 40.5698 123.866 40.8166 123.655 41.0239C123.444 41.2312 123.195 41.3948 122.92 41.5053C122.646 41.6159 122.353 41.6711 122.057 41.668H99.9385C99.6428 41.6664 99.3503 41.6064 99.0779 41.4914C98.8054 41.3764 98.5585 41.2086 98.3511 40.9977C98.1438 40.7869 97.9802 40.5371 97.8698 40.2628C97.7593 39.9885 97.7043 39.6951 97.7077 39.3994V24.5779C97.7092 24.2822 97.7692 23.9897 97.8843 23.7173C97.9993 23.4448 98.1671 23.1979 98.3779 22.9905C98.5887 22.7832 98.8385 22.6196 99.1128 22.5092C99.3871 22.3988 99.6806 22.3437 99.9763 22.3471H122.095Z" stroke="#013941" stroke-width="2" stroke-linecap="round" stroke-linejoin="round"/>
<path d="M98.4639 22.8759L111.017 31.9881L123.57 22.9137" stroke="#013941" stroke-width="2" stroke-linecap="round" stroke-linejoin="round"/>
<path d="M261.318 149.81C263.322 158.544 268.679 162.942 277.389 163.006" stroke="#013941" stroke-width="2" stroke-linecap="round" stroke-linejoin="round"/>
<path d="M233.565 219.005C232.273 224.35 232.972 229.982 235.531 234.849" stroke="#013941" stroke-width="2" stroke-linecap="round" stroke-linejoin="round"/>
<path d="M240.144 176.58L229.708 191.101L234.775 202.217L247.101 205.09L259.427 191.895L240.144 176.58Z" stroke="#013941" stroke-width="2" stroke-linecap="round" stroke-linejoin="round"/>
<path d="M142.704 288.276L150.152 259.463" stroke="#013941" stroke-width="2" stroke-linecap="round" stroke-linejoin="round"/>
<path d="M69.8777 256.362L101.224 244.679" stroke="#013941" stroke-width="2" stroke-linecap="round" stroke-linejoin="round"/>
<path d="M132.871 250.995L166.184 242.79" stroke="#013941" stroke-width="2" stroke-linecap="round" stroke-linejoin="round"/>
</g>
<defs>
<clipPath id="clip0_163_526">
<rect width="386" height="332" fill="white"/>
</clipPath>
</defs>
</svg>
