<svg width="120" height="40" viewBox="0 0 120 40" fill="none" xmlns="http://www.w3.org/2000/svg">
<g clip-path="url(#clip0_2001_909)">
<path d="M30.68 19.7348C31.76 18.0248 32.3 16.0648 32.3 13.8348C32.3 11.6048 31.76 9.5948 30.68 7.8848C29.6 6.1748 28.08 4.8348 26.11 3.8748C24.14 2.9048 21.81 2.4248 19.1 2.4248H15.49V7.7448H18.9C21.12 7.7448 22.87 8.2948 24.12 9.3848C25.38 10.4848 26.01 11.9648 26.01 13.8348C26.01 15.7048 25.38 17.1348 24.12 18.2348C22.86 19.3348 21.12 19.8748 18.9 19.8748H6.19V19.8548H0V38.6848H6.19V25.1948H19.1C21.81 25.1948 24.14 24.7148 26.11 23.7448C28.08 22.7748 29.6 21.4448 30.68 19.7348Z" fill="#0055FF"/>
<path d="M39.9001 7.64477C41.0901 7.64477 42.0601 7.32477 42.8001 6.67477C43.5401 6.03477 43.9101 5.19477 43.9101 4.16477C43.9101 3.13477 43.5401 2.24477 42.8001 1.60477C42.0601 0.964766 41.0901 0.634766 39.9001 0.634766C38.7101 0.634766 37.7301 0.954766 36.9701 1.60477C36.2101 2.25477 35.8301 3.10477 35.8301 4.16477C35.8301 5.22477 36.2101 6.03477 36.9701 6.67477C37.7301 7.32477 38.7001 7.64477 39.9001 7.64477Z" fill="#0055FF"/>
<path d="M36.8496 11.1748V25.3748H42.8896V11.1748H39.8996H36.8496Z" fill="#0055FF"/>
<path d="M76.8898 11.3247H70.1198L61.9198 20.9647L53.7698 11.3247H46.7598L70.6498 38.6947H77.6598L65.6598 24.5647L76.8898 11.3247Z" fill="#0055FF"/>
<path d="M48.8496 39.3545H52.2596L58.5096 31.5645L56.7796 29.6445L48.8496 39.3545Z" fill="#2F3339"/>
<path d="M106.1 18.4545C104.87 15.9845 103.15 14.0645 100.92 12.6945C98.7003 11.3245 96.0503 10.6445 92.9903 10.6445C89.9303 10.6445 87.2603 11.2445 84.8903 12.4545C82.5203 13.6645 80.6703 15.3445 79.3303 17.4845C79.1603 17.7545 79.0003 18.0345 78.8503 18.3145H85.7703C86.3903 17.6245 87.1103 17.0445 87.9603 16.5945C89.3503 15.8545 90.9803 15.4745 92.8503 15.4745C94.6203 15.4745 96.1603 15.8245 97.4603 16.5145C98.7703 17.2145 99.8003 18.2145 100.56 19.5445C101.06 20.4145 101.4 21.4045 101.61 22.4945H77.5103C77.3903 23.2845 77.3203 24.1045 77.3203 24.9545C77.3203 27.8245 78.0303 30.3445 79.4503 32.5045C80.8703 34.6645 82.8203 36.3445 85.3003 37.5545C87.7803 38.7645 90.6003 39.3645 93.7603 39.3645C96.2503 39.3645 98.6803 38.9945 101.07 38.2545C103.45 37.5145 105.48 36.4845 107.16 35.1645V30.7645C105.48 31.9545 103.55 32.8845 101.36 33.5645C99.1603 34.2445 97.0203 34.5845 94.9303 34.5845C92.6003 34.5845 90.5903 34.1745 88.8803 33.3745C87.1703 32.5645 85.8503 31.4145 84.9103 29.9145C84.3903 29.0745 84.0303 28.1445 83.8003 27.1345H107.93C107.93 23.8145 107.32 20.9145 106.1 18.4545Z" fill="#0055FF"/>
<path d="M113.16 1.45459V38.6946H119.2V3.45459L113.16 1.45459Z" fill="#0055FF"/>
<path d="M17.0596 30.4147C16.5896 30.1847 16.0396 30.0747 15.3896 30.0747H10.8496V38.6947H12.3196V35.4847H15.3896C16.0296 35.4847 16.5896 35.3747 17.0596 35.1447C17.5296 34.9147 17.8896 34.5947 18.1496 34.1947C18.4096 33.7947 18.5396 33.3247 18.5396 32.7947C18.5396 32.2647 18.4096 31.7847 18.1496 31.3847C17.8896 30.9847 17.5296 30.6647 17.0596 30.4347V30.4147ZM16.5896 33.8247C16.2896 34.0847 15.8796 34.2147 15.3496 34.2147H12.3296V31.3247H15.3496C15.8796 31.3247 16.2896 31.4547 16.5896 31.7147C16.8896 31.9747 17.0396 32.3247 17.0396 32.7747C17.0396 33.2247 16.8896 33.5647 16.5896 33.8247Z" fill="#2F3339"/>
<path d="M21.5005 34.9947H26.6305V33.7747H21.5005L21.1105 31.3347H26.9105V30.0747H19.4805L20.1705 34.3847L19.4805 38.6947H26.3105L26.9705 37.4247H21.1105L21.5005 34.9947Z" fill="#2F3339"/>
<path d="M31.6402 30.0649L27.4902 38.6949H29.0702L30.0102 36.6949L30.5702 35.4849L32.5602 31.2449L34.5502 35.4849L35.1202 36.6949L36.0602 38.6949H37.6202L33.4702 30.0649H31.6402Z" fill="#2F3339"/>
<path d="M47.1195 30.0747H45.5295L40.1595 36.6147V30.0747H38.6895V38.6947H39.9995L43.1395 34.8847L45.5695 38.6947H47.2595L44.0895 33.7447L47.1195 30.0747Z" fill="#2F3339"/>
</g>
<defs>
<clipPath id="clip0_2001_909">
<rect width="119.2" height="38.73" fill="white" transform="translate(0 0.634766)"/>
</clipPath>
</defs>
</svg>
