<svg width="464" height="464" viewBox="0 0 464 464" 
fill="none" xmlns="http://www.w3.org/2000/svg">
<path d="M224.844 237.658C211.906 246.474 202.871 261.123 196.682 275.64C189.117 293.339 114.951 391.014 116.811 392.526C117.504 393.65 118.231 394.733 118.993 395.774L114.837 400.377C119.662 407.395 131.241 415.553 139.179 417.263C140.218 415.34 141.4 413.496 142.711 411.746C144.612 412.223 146.539 412.587 148.482 412.833C159.881 398.826 189.685 361.587 216.229 326.351C210.92 354.241 204.567 383.482 197.993 418.403C199.355 419.064 200.747 419.659 202.148 420.213L199.826 430.728C208.771 433.272 218.249 433.272 227.194 430.728L228.932 424.294C230.825 424.179 232.72 423.997 234.606 423.754C252.984 368.14 267.155 295.333 275.484 239.588L224.844 237.658ZM206.248 327.916C198.441 326.118 187.607 318.452 182.739 312.39L203.145 281.825C209.374 289.876 217.752 296.003 227.312 299.5L206.248 327.916Z" 
fill="#E8F8F6"/> 
<path d="M131.737 266.474L125.553 270.202L132.351 281.912C109.593 291.875 84.7729 296.222 59.9829 294.588L77.3952 324.982L143.492 286.825L131.737 266.474Z" 
fill="#E8F8F6"/>
<path d="M112.001 231.956L81.2988 249.588C91.1595 248.897 100.882 246.878 110.202 243.586L113.843 250.077C116.111 249.009 118.475 248.158 120.904 247.538L112.001 231.956Z" 
fill="#E8F8F6"/>
<path d="M115.641 253.053L116.649 254.807L119.5 253.228C118.212 253.251 116.922 253.193 115.641 253.053Z" 
fill="#14B8A6"/>
<path d="M287.57 121.428C285.158 121.691 282.57 125.287 280.86 130.463C282.707 129.539 284.676 128.445 287.093 127.042C288.469 126.21 290.046 125.771 291.654 125.77C290.991 123.448 289.676 121.167 287.57 121.428Z" 
fill="#14B8A6"/>
<path d="M290.421 143.974C287 145.684 282.526 147.877 279.938 149.369C280.631 151.386 281.688 152.688 283.009 152.921C285.587 153.376 288.491 149.59 290.421 143.974Z" 
fill="#14B8A6"/>
<path d="M297 154.763C297 154.72 293.447 157.263 288.535 160.509L311.388 156.649L297 154.763Z" 
fill="#14B8A6"/>
<path d="M257.263 158.184L261.079 164.062C260.891 162.577 260.789 161.084 260.772 159.588C260.772 159.544 258.754 158.755 257.263 158.184Z" 
fill="#14B8A6"/>
<path d="M241.912 140.333C225.948 151.693 230.816 158.108 249.149 152.351L248.801 151.224C249.45 150.312 249.813 149.227 249.844 148.108C249.875 146.989 249.572 145.885 248.974 144.939C245.511 140.509 249.544 137.439 251.562 140.86C252.658 142.746 253.141 142.044 253.141 140.421C252.307 139.983 252.307 139.498 253.053 139.062C252.963 138.248 252.817 137.442 252.614 136.649C252.884 137.023 253.233 137.333 253.635 137.558C254.037 137.782 254.484 137.917 254.943 137.951C255.404 137.985 255.865 137.917 256.297 137.752C256.728 137.588 257.118 137.331 257.439 137C253.316 135.816 253.886 134.632 254.669 134.544C260.774 134.237 263.027 135.022 272.443 134.281C274.925 133.233 279.731 131.165 282.092 129.851C281.929 121.659 255.195 130.68 241.912 140.333Z" 
fill="#14B8A6"/>
<path d="M271.342 141.693C270.553 142.22 269.726 142.746 268.886 143.272C268.667 142.307 268.711 142.877 269.061 141.737C269.807 141.693 270.55 141.693 271.342 141.693Z" 
fill="#14B8A6"/>
<path d="M216.303 326.298L212.663 344.851L255.689 270.684C246.605 285.202 231.912 305.553 216.303 326.298Z" 
fill="#14B8A6"/>
<path d="M255.86 447.921C248.36 441.561 237.219 433.623 227.219 430.728C218.274 433.272 208.797 433.272 199.851 430.728C197.998 436.005 196.862 441.508 196.474 447.087C196.444 447.595 196.517 448.104 196.691 448.582C196.864 449.061 197.134 449.499 197.483 449.869C197.832 450.239 198.254 450.533 198.722 450.733C199.189 450.934 199.693 451.036 200.202 451.035C217.746 451.079 232.834 451.254 254.632 451.298C255.022 451.292 255.401 451.167 255.719 450.942C256.037 450.716 256.279 450.399 256.414 450.033C256.546 449.666 256.563 449.268 256.464 448.891C256.365 448.514 256.155 448.176 255.86 447.921Z" 
fill="#14B8A6"/>
<path d="M134.939 437.448C134.611 430.451 136.093 423.486 139.237 417.228C131.298 415.518 119.72 407.36 114.895 400.342L111.963 403.623C107.273 407.672 107.605 414.38 109.726 420.202C112.183 427.044 114.419 438.623 117.051 444.368C118.101 446.493 119.736 448.274 121.764 449.501C123.792 450.728 126.129 451.35 128.498 451.293H146.086C142.57 442.131 140.027 442.219 134.939 437.448Z" 
fill="#14B8A6"/>
<path d="M229.062 222.044L224.281 229.676L223.93 225.07L229.062 222.044Z" 
fill="#14B8A6"/>
<path d="M97.6583 258.974L96.2109 252.746L102.439 251.298L103.886 257.526L97.6583 258.974Z" 
fill="#14B8A6"/>
<path d="M85.1145 260.509L84.5005 254.149L90.8163 253.535L91.4742 259.895L85.1145 260.509Z" 
fill="#14B8A6"/>
<path d="M72.6582 260.86V254.5H79.0617V260.86H72.6582Z" 
fill="#14B8A6"/>
<path d="M293.579 194.763C289.696 197.254 285.685 199.538 281.562 201.605C281.474 200.038 281.243 198.481 280.869 196.956L293.579 194.763Z" 
fill="#14B8A6"/>
<path d="M248.448 87.8336L220.728 67.5197H139.632V108.141H191.834L191.659 107.79C207.564 98.5974 225.295 93.0125 243.598 91.4301L248.448 87.8336ZM211.781 94.8073C211.844 94.8666 211.887 94.9438 211.904 95.0285C211.922 95.1132 211.912 95.2012 211.878 95.2805C211.856 95.3336 211.822 95.3815 211.781 95.4213C211.741 95.4628 211.694 95.4958 211.641 95.5183C211.588 95.5409 211.531 95.5525 211.474 95.5525C211.416 95.5525 211.36 95.5409 211.307 95.5183C211.254 95.4958 211.206 95.4628 211.167 95.4213L203.141 87.3419L195.066 95.3774C195.006 95.4403 194.929 95.4834 194.844 95.5007C194.76 95.5181 194.672 95.5089 194.593 95.4744C194.539 95.4521 194.492 95.4191 194.452 95.3774C194.389 95.3181 194.346 95.2408 194.328 95.1561C194.311 95.0715 194.32 94.9835 194.355 94.9042C194.377 94.8511 194.41 94.8032 194.452 94.7634L202.531 86.7371L194.505 78.6577C194.423 78.5763 194.378 78.4658 194.378 78.3507C194.378 78.2355 194.423 78.1251 194.505 78.0437C194.586 77.9622 194.697 77.9165 194.812 77.9165C194.927 77.9165 195.037 77.9622 195.119 78.0437L203.145 86.1231L211.225 78.0967C211.306 78.0158 211.417 77.9704 211.532 77.9704C211.647 77.9704 211.757 78.0158 211.839 78.0967C211.92 78.1784 211.965 78.2888 211.965 78.4038C211.965 78.5187 211.92 78.6291 211.839 78.7108L203.759 86.7371L211.781 94.8073Z" 
fill="#14B8A6"/>
<path d="M115.641 253.053L116.649 254.807" stroke="#013941" stroke-width="2.32" stroke-linecap="round" stroke-linejoin="round"/>
<path d="M28.7109 451.254H435.289" stroke="#013941" stroke-width="2.32" stroke-linecap="round" stroke-linejoin="round"/>
<path d="M139.632 416.517V441.386" stroke="#013941" stroke-width="2.32" stroke-linecap="round" stroke-linejoin="round"/>
<path d="M139.632 289.062V359.061" stroke="#013941" stroke-width="2.32" stroke-linecap="round" stroke-linejoin="round"/>
<path d="M139.632 12.702V158.184" stroke="#013941" stroke-width="2.32" stroke-linecap="round" stroke-linejoin="round"/>
<path d="M139.632 26.9125V67.5265H69.4126L41.6934 47.2195L69.4126 26.9125H139.632Z" stroke="#013941" stroke-width="2.32" stroke-linecap="round" stroke-linejoin="round"/>
<path d="M191.825 108.141H139.632V67.5266H220.728L248.448 87.8335L243.535 91.43" stroke="#013941" stroke-width="2.32" stroke-linecap="round" stroke-linejoin="round"/>
<path d="M220.246 183.36L181.43 115.991C159.662 128.55 142.731 148.041 133.342 171.352C123.952 194.663 122.646 220.448 129.632 244.588" stroke="#013941" stroke-width="2.32" stroke-linecap="round" stroke-linejoin="round"/>
<path d="M231.386 176.781L191.603 107.746C208.195 98.1863 226.745 92.5269 245.848 91.1958C264.951 89.8647 284.106 92.897 301.864 100.063C319.622 107.229 335.517 118.341 348.345 132.558C361.174 146.774 370.601 163.723 375.911 182.121C381.221 200.519 382.277 219.884 378.997 238.751C375.718 257.617 368.189 275.49 356.981 291.017C345.773 306.543 331.18 319.317 314.306 328.37C297.432 337.423 278.72 342.519 259.585 343.272" stroke="#013941" stroke-width="2.32" stroke-linecap="round" stroke-linejoin="round"/>
<path d="M209.632 335.114C211.167 335.684 212.702 336.254 214.281 336.78" stroke="#013941" stroke-width="2.32" stroke-linecap="round" stroke-linejoin="round"/>
<path d="M151.562 263.491L139.5 270.55C138.184 268.401 137.57 267.305 137.57 267.305" stroke="#013941" stroke-width="2.32" stroke-linecap="round" stroke-linejoin="round"/>
<path d="M172.527 313.009C161.835 303.861 152.76 292.978 145.685 280.816L224.632 234.719" stroke="#013941" stroke-width="2.32" stroke-linecap="round" stroke-linejoin="round"/>
<path d="M290.421 143.974C287 145.684 282.513 147.854 279.939 149.369C279.279 149.756 278.715 150.075 278.36 150.334C271.589 155.257 273.051 152.129 274.5 149.5C275.156 148.314 277.852 145.562 278.974 143.448C279.292 142.587 279.309 141.642 279.018 140.772C274.906 141.529 270.733 141.911 266.552 141.912C263.706 142.148 260.842 142.074 258.011 141.693C250.394 140.661 251.086 138.766 258.143 137.877C263.044 137.247 267.856 136.055 272.485 134.325C277.554 132.31 282.453 129.89 287.134 127.088C288.5 126.261 290.064 125.821 291.661 125.814" stroke="#013941" stroke-width="2.32" stroke-linecap="round" stroke-linejoin="round"/>
<path d="M280.86 130.465C282.571 125.29 285.161 121.712 287.571 121.43C289.678 121.183 290.994 123.448 291.649 125.772C292.887 131.839 292.462 138.128 290.421 143.974C288.54 149.604 285.588 153.376 283.009 152.921C281.689 152.69 280.641 151.386 279.939 149.369" stroke="#013941" stroke-width="2.32" stroke-linecap="round" stroke-linejoin="round"/>
<path d="M253.14 140.465C253.14 142.081 252.665 142.741 251.561 140.86C249.555 137.432 245.509 140.509 248.974 144.939C249.565 145.888 249.864 146.99 249.833 148.108C249.802 149.225 249.443 150.309 248.8 151.224" stroke="#013941" stroke-width="2.32" stroke-linecap="round" stroke-linejoin="round"/>
<path d="M257.439 137C256.954 137.498 256.319 137.823 255.631 137.924C254.944 138.025 254.242 137.897 253.635 137.559C253.232 137.334 252.884 137.023 252.614 136.649C252.817 137.473 252.965 138.311 253.055 139.154" stroke="#013941" stroke-width="2.32" stroke-linecap="round" stroke-linejoin="round"/>
<path d="M265.29 128.886C265.29 128.93 265.29 128.93 265.333 128.974C265.904 130.991 266.43 132.877 266.912 134.676" stroke="#013941" stroke-width="2.32" stroke-linecap="round" stroke-linejoin="round"/>
<path d="M260.816 159.544C260.816 159.544 258.754 158.754 257.263 158.14L261.079 164.061" stroke="#013941" stroke-width="2.32" stroke-linecap="round" stroke-linejoin="round"/>
<path d="M288.351 160.541L311.386 156.649L297 154.719" stroke="#013941" stroke-width="2.32" stroke-linecap="round" stroke-linejoin="round"/>
<path d="M279.018 140.772C280.026 140.597 281.167 140.246 282.439 139.983" stroke="#013941" stroke-width="2.32" stroke-linecap="round" stroke-linejoin="round"/>
<path d="M259.281 137.702L257.878 137.132C253.272 135.948 253.722 134.632 254.588 134.592C256.342 134.505 261.474 134.856 266.823 134.68L272.437 134.285" stroke="#013941" stroke-width="2.32" stroke-linecap="round" stroke-linejoin="round"/>
<path d="M303.272 123.967C304.97 129.135 305.431 134.63 304.615 140.009C303.8 145.387 301.733 150.499 298.579 154.932" stroke="#013941" stroke-width="2.32" stroke-linecap="round" stroke-linejoin="round"/>
<path d="M249.124 152.36C233.03 157.397 227.76 153.037 236.405 144.779C243.383 138.117 256.793 131.308 265.883 128.699C272.287 126.728 279.733 125.747 281.626 128.387" stroke="#013941" stroke-width="2.32" stroke-linecap="round" stroke-linejoin="round"/>
<path d="M271.342 141.693C270.553 142.219 269.726 142.746 268.886 143.272" stroke="#013941" stroke-width="2.32" stroke-linecap="round" stroke-linejoin="round"/>
<path d="M241.957 140.333C241.478 138.044 241.581 135.672 242.255 133.432C242.929 131.192 244.152 129.157 245.814 127.512C247.476 125.866 249.524 124.663 251.77 124.012C254.016 123.36 256.39 123.281 258.674 123.782C261.732 124.452 264.477 126.125 266.474 128.535" stroke="#013941" stroke-width="2.32" stroke-linecap="round" stroke-linejoin="round"/>
<path d="M246.737 169.5V182.57L259.237 172.483L271.342 180.246L266.956 167.965" stroke="#013941" stroke-width="2.32" stroke-linecap="round" stroke-linejoin="round"/>
<path d="M266.956 167.965C267.187 167.926 281.672 163.909 284.784 162.517C289.027 160.197 293.108 157.591 297 154.719L282.614 152.833" stroke="#013941" stroke-width="2.32" stroke-linecap="round" stroke-linejoin="round"/>
<path d="M255.684 270.684L212.658 344.851" stroke="#013941" stroke-width="2.32" stroke-linecap="round" stroke-linejoin="round"/>
<path d="M228.974 424.237L227.176 430.728" stroke="#013941" stroke-width="2.32" stroke-linecap="round" stroke-linejoin="round"/>
<path d="M199.851 430.728L202.173 420.213" stroke="#013941" stroke-width="2.32" stroke-linecap="round" stroke-linejoin="round"/>
<path d="M254.623 451.298C232.824 451.277 217.737 451.067 200.193 451.035C199.684 451.037 199.18 450.935 198.712 450.735C198.244 450.534 197.823 450.24 197.474 449.869C197.125 449.498 196.857 449.06 196.683 448.582C196.51 448.104 196.435 447.595 196.465 447.087C196.852 441.507 197.988 436.005 199.842 430.728C208.787 433.272 218.265 433.272 227.21 430.728C237.21 433.623 248.335 441.577 255.851 447.921C256.146 448.176 256.356 448.514 256.455 448.891C256.554 449.268 256.536 449.666 256.405 450.033C256.27 450.399 256.028 450.716 255.71 450.942C255.392 451.168 255.013 451.292 254.623 451.298Z" stroke="#013941" stroke-width="2.32" stroke-linecap="round" stroke-linejoin="round"/>
<path d="M142.746 411.737C141.15 413.757 139.798 415.959 138.72 418.297C135.93 424.293 134.633 430.876 134.939 437.482C140.017 442.263 142.57 442.131 146.079 451.298H128.492C126.123 451.35 123.788 450.727 121.761 449.5C119.733 448.274 118.097 446.495 117.044 444.373C114.431 438.618 112.18 427.046 109.72 420.206C107.794 414.853 107.088 407.741 111.956 403.627L119.039 395.804" stroke="#013941" stroke-width="2.32" stroke-linecap="round" stroke-linejoin="round"/>
<path d="M139.202 417.263C131.264 415.552 119.685 407.395 114.86 400.377" stroke="#013941" stroke-width="2.32" stroke-linecap="round" stroke-linejoin="round"/>
<path d="M134.939 437.482C131.476 435.114 119.764 437.482 119.764 437.482" stroke="#013941" stroke-width="2.32" stroke-linecap="round" stroke-linejoin="round"/>
<path d="M238.233 249.237C233.452 257.263 225.998 261.139 215.864 260.86" stroke="#013941" stroke-width="2.32" stroke-linecap="round" stroke-linejoin="round"/>
<path d="M182.746 312.395C187.615 318.447 198.443 326.123 206.255 327.921L227.307 299.544C217.748 296.044 209.372 289.915 203.145 281.861L182.746 312.395Z" stroke="#013941" stroke-width="2.32" stroke-linecap="round" stroke-linejoin="round"/>
<path d="M203.141 281.868L205.772 305.158L227.307 299.544" stroke="#013941" stroke-width="2.32" stroke-linecap="round" stroke-linejoin="round"/>
<path d="M256.123 344.188C257.45 344.286 258.767 343.9 259.831 343.102C260.896 342.304 261.635 341.147 261.913 339.846L268.579 306.469C268.687 305.92 268.673 305.354 268.538 304.81C268.403 304.267 268.151 303.76 267.798 303.325C267.446 302.89 267.003 302.538 266.5 302.293C265.996 302.048 265.445 301.916 264.886 301.908" stroke="#013941" stroke-width="2.32" stroke-linecap="round" stroke-linejoin="round"/>
<path d="M83.1406 43.2722L90.5529 53.6669L99.1932 38.5792" stroke="#013941" stroke-width="2.32" stroke-linecap="round" stroke-linejoin="round"/>
<path d="M345.29 64.4563L335.904 63.0967L331.693 54.5441L327.483 63.0967L318.053 64.4563L324.851 71.123L323.272 80.4651L331.693 76.0353L340.114 80.4651L338.491 71.123L345.29 64.4563Z" stroke="#013941" stroke-width="2.32" stroke-linecap="round" stroke-linejoin="round"/>
<path d="M86.0146 190.246V203.623" stroke="#013941" stroke-width="2.32" stroke-linecap="round" stroke-linejoin="round"/>
<path d="M92.7019 196.936H79.3247" stroke="#013941" stroke-width="2.32" stroke-linecap="round" stroke-linejoin="round"/>
<path d="M148.93 260.772C144.032 264.064 138.816 266.856 133.36 269.105" stroke="#013941" stroke-width="2.32" stroke-linecap="round" stroke-linejoin="round"/>
<path d="M97.6583 258.974L96.2109 252.746L102.439 251.298L103.886 257.526L97.6583 258.974Z" stroke="#013941" stroke-width="2.32" stroke-linecap="round" stroke-linejoin="round"/>
<path d="M85.1145 260.509L84.5005 254.149L90.8163 253.535L91.4742 259.895L85.1145 260.509Z" stroke="#013941" stroke-width="2.32" stroke-linecap="round" stroke-linejoin="round"/>
<path d="M72.6582 260.86V254.5H79.0617V260.86H72.6582Z" stroke="#013941" stroke-width="2.32" stroke-linecap="round" stroke-linejoin="round"/>
<path d="M131.781 266.474L143.492 286.825L77.439 324.982L59.9829 294.588" stroke="#013941" stroke-width="2.32" stroke-linecap="round" stroke-linejoin="round"/>
<path d="M119.5 253.228L113.842 256.342L122.965 271.781L131.781 266.474L123.93 252.833" stroke="#013941" stroke-width="2.32" stroke-linecap="round" stroke-linejoin="round"/>
<path d="M113.842 250.07L110.149 243.579C89.1677 250.793 66.5693 251.901 44.9829 246.774C45.0893 262.79 47.6027 278.698 52.439 293.967C79.6731 297.018 107.231 292.859 132.351 281.905L125.597 270.195" stroke="#013941" stroke-width="2.32" stroke-linecap="round" stroke-linejoin="round"/>
<path d="M81.2549 249.588L111.957 231.956L120.904 247.526" stroke="#013941" stroke-width="2.32" stroke-linecap="round" stroke-linejoin="round"/>
<path d="M422.212 231.077C422.39 232.074 422.267 233.103 421.859 234.03C421.45 234.958 420.774 235.743 419.918 236.284C419.063 236.827 418.067 237.105 417.055 237.082C416.042 237.06 415.059 236.738 414.23 236.157C413.609 235.723 413.092 235.156 412.717 234.498C412.342 233.84 412.119 233.106 412.062 232.351C412.005 231.595 412.117 230.837 412.389 230.13C412.662 229.423 413.088 228.785 413.637 228.263C414.306 227.622 415.137 227.175 416.041 226.97C416.945 226.765 417.888 226.809 418.768 227.098C419.649 227.387 420.435 227.91 421.041 228.611C421.648 229.311 422.052 230.164 422.212 231.077Z" stroke="#013941" stroke-width="2.32" stroke-linecap="round" stroke-linejoin="round"/>
<path d="M139.369 254.193C136.518 255.07 128.623 257.307 125.246 252.658C125.246 252.658 115.781 254.237 113.097 252.088C110.412 249.939 120.774 247.753 124.639 246.43C129.117 244.838 133.535 243.083 137.884 241.167" stroke="#013941" stroke-width="2.32" stroke-linecap="round" stroke-linejoin="round"/>
<path d="M281.562 201.605C281.474 200.038 281.243 198.481 280.869 196.956L293.588 194.763" stroke="#013941" stroke-width="2.32" stroke-linecap="round" stroke-linejoin="round"/>
<path d="M224.844 237.658C211.906 246.474 202.88 261.127 196.682 275.64C194.23 281.388 184.447 295.991 172.515 313.009C162.033 327.965 149.893 344.765 139.621 359.061C126.292 377.619 116.112 391.956 116.814 392.533C120.146 398.151 124.744 402.912 130.242 406.439C135.74 409.966 141.985 412.16 148.48 412.847C166.682 390.479 231.813 308.9 255.673 270.742" stroke="#013941" stroke-width="2.32" stroke-linecap="round" stroke-linejoin="round"/>
<path d="M242.439 293.491L212.658 423.228" stroke="#013941" stroke-width="2.32" stroke-linecap="round" stroke-linejoin="round"/>
<path d="M275.553 239.544C267.219 295.289 253.053 368.096 234.676 423.71C222.21 425.592 209.468 423.745 198.053 418.401C204.579 383.71 205.643 380.603 216.289 326.296" stroke="#013941" stroke-width="2.32" stroke-linecap="round" stroke-linejoin="round"/>
<path d="M288.526 121.49L329.154 127.833C344.549 130.202 348.628 145.984 336.698 159.193C323.198 174.14 299.327 192.829 281.566 201.605C282.224 215.246 278.584 227.395 275.564 239.588L224.844 237.658C224.152 228.046 224.366 230.883 223.921 225.07L154.163 265.934C145.44 258.054 139.266 247.751 136.433 236.342C136.433 236.342 208.974 190.29 222.658 181.908C230.314 177.088 238.37 172.936 246.737 169.495" stroke="#013941" stroke-width="2.32" stroke-linecap="round" stroke-linejoin="round"/>
<path d="M186.781 316.649L125.202 402.57" stroke="#013941" stroke-width="2.32" stroke-linecap="round" stroke-linejoin="round"/>
<path d="M229.062 258.14L207.921 287.132" stroke="#013941" stroke-width="2.32" stroke-linecap="round" stroke-linejoin="round"/>
<path d="M148.492 228.711C151.267 240.354 157.672 250.814 166.781 258.579" stroke="#013941" stroke-width="2.32" stroke-linecap="round" stroke-linejoin="round"/>
<path d="M243.408 139.332C245.213 142.434 246.767 145.676 248.055 149.027C250.118 153.879 250.667 159.24 249.632 164.41C249.292 166.38 248.286 168.173 246.781 169.488C253.754 174.401 261.298 173.831 266.956 167.953C263.535 168.436 261.571 167.995 261.079 164.05C260.897 162.551 260.809 161.042 260.816 159.532C261.972 159.86 263.167 160.037 264.368 160.059C269.763 160.059 271.254 155.322 268.886 143.26L268.586 141.765" stroke="#013941" stroke-width="2.32" stroke-linecap="round" stroke-linejoin="round"/>
<path d="M223.93 225.07L229.062 222.044L224.281 229.675" stroke="#013941" stroke-width="2.32" stroke-linecap="round" stroke-linejoin="round"/>
<path d="M195.329 77.8658C195.165 77.7129 194.948 77.6297 194.723 77.6336C194.499 77.6376 194.285 77.7284 194.127 77.887C193.968 78.0456 193.877 78.2596 193.873 78.4839C193.869 78.7081 193.952 78.9252 194.105 79.0893L195.329 77.8658ZM210.957 95.9406C211.036 96.0256 211.132 96.0938 211.238 96.1412C211.344 96.1885 211.459 96.2139 211.575 96.216C211.691 96.218 211.806 96.1966 211.914 96.1531C212.022 96.1096 212.12 96.0448 212.202 95.9626C212.284 95.8804 212.349 95.7824 212.393 95.6747C212.436 95.5669 212.458 95.4514 212.456 95.3352C212.453 95.219 212.428 95.1043 212.381 94.9981C212.333 94.8919 212.265 94.7964 212.18 94.7171L210.957 95.9406ZM194.105 79.0893L210.957 95.9406L212.18 94.7171L195.329 77.8658L194.105 79.0893Z" 
fill="#013941"/>
<path d="M212.18 79.0893C212.333 78.9252 212.416 78.7081 212.412 78.4839C212.408 78.2596 212.318 78.0456 212.159 77.887C212 77.7284 211.786 77.6376 211.562 77.6336C211.338 77.6297 211.121 77.7129 210.957 77.8658L212.18 79.0893ZM194.105 94.7171C193.952 94.8812 193.869 95.0983 193.873 95.3225C193.877 95.5468 193.968 95.7608 194.127 95.9194C194.285 96.078 194.499 96.1688 194.723 96.1728C194.948 96.1767 195.165 96.0935 195.329 95.9406L194.105 94.7171ZM210.957 77.8658L194.105 94.7171L195.329 95.9406L212.18 79.0893L210.957 77.8658Z" 
fill="#013941"/>
</svg>
