<svg width="343" height="332" viewBox="0 0 343 332" fill="none" xmlns="http://www.w3.org/2000/svg">
<g clip-path="url(#clip0_163_867)">
<path d="M266.992 204.974L207.509 213.841C204.639 200.99 203.114 194.586 202.111 189.985C197.914 170.874 181.308 164.316 176.71 162.864C176.131 166.329 155.947 178.331 146.786 172.845C113.251 216.628 92.5689 245.242 48.2506 287.189C41.4353 293.508 61.2856 315.209 68.1339 308.989C110.784 270.772 133.459 249.857 165.626 210.703L159.408 190.059L186.074 235.873C187.968 239.122 190.815 241.711 194.228 243.292C197.643 244.871 201.458 245.364 205.162 244.706L271.989 232.664C277.979 231.687 273.126 203.867 266.992 204.974Z" fill="#E8F8F6"/>
<path d="M117.857 60.3046L107.866 13.8916L92.4819 17.2C91.684 17.3858 90.9553 17.7944 90.3807 18.3781C89.8059 18.9619 89.4087 19.6969 89.2355 20.4976C89.0622 21.2982 89.1199 22.1315 89.4018 22.9008C89.6835 23.6699 90.178 24.3433 90.8277 24.8423C92.3088 25.9835 93.4329 27.5244 94.0676 29.283C94.7023 31.0419 94.8212 32.9454 94.4103 34.7695C93.9994 36.5935 93.0756 38.2621 91.7481 39.5789C90.4204 40.8954 88.7443 41.8052 86.9168 42.2012C85.0894 42.597 83.1869 42.4624 81.4334 41.8131C79.68 41.1638 78.1486 40.0269 77.0197 38.5364C75.8907 37.0459 75.2113 35.2639 75.0613 33.4C74.9114 31.5364 75.2971 29.6685 76.1733 28.0166C76.556 27.2947 76.726 26.4791 76.6633 25.6644C76.6008 24.8496 76.3081 24.0696 75.8193 23.4147C75.3307 22.7598 74.6661 22.2573 73.9029 21.9653C73.1399 21.6734 72.3095 21.6041 71.5085 21.7655L57.1501 24.8423L67.1467 71.2553C67.3836 72.3522 68.0465 73.3098 68.9896 73.9179C69.9327 74.5258 71.0786 74.7344 72.1754 74.4976L95.7624 69.4357C95.9835 67.0433 96.4136 62.1503 97.5489 60.6355C98.8392 58.9168 99.7655 64.6403 100.394 68.4101L114.62 65.3334C115.716 65.0948 116.672 64.4312 117.279 63.4885C117.885 62.5458 118.094 61.4007 117.857 60.3046Z" fill="#E8F8F6"/>
<path d="M159.64 106.819L156.473 110.425C156.353 109.597 156.133 108.786 155.818 108.01C157.126 107.733 158.406 107.334 159.64 106.819Z" fill="#14B8A6"/>
<path d="M182.665 138.283C181.669 140.972 180.85 143.724 180.216 146.52C184.319 146.684 184.583 146.783 188.487 146.783L182.665 138.283Z" fill="#14B8A6"/>
<path d="M169.01 206.498C167.885 207.921 166.727 209.31 165.635 210.7L159.417 190.055L169.01 206.498Z" fill="#14B8A6"/>
<path d="M172.21 86.607C161.696 74.5645 155.273 80.1225 151.771 87.004C155.477 79.9902 161.331 82.1076 162.654 89.8492C162.786 90.7424 163.283 90.6763 163.382 90.6101C163.912 90.4696 164.407 90.222 164.838 89.8822C167.914 87.7318 170.032 93.1245 165.433 94.6794C164.835 98.0226 164.493 101.406 164.407 104.801C164.407 104.801 183.492 99.4835 172.21 86.607Z" fill="#14B8A6"/>
<path d="M184.385 83.6628C180.481 87.7321 174.369 88.2196 170.721 84.7214C167.073 81.2233 167.281 75.0941 171.185 71.0248C175.088 66.9555 181.2 66.4679 184.848 69.9661C188.496 73.4642 188.289 79.5935 184.385 83.6628Z" fill="#14B8A6"/>
<path d="M47.2962 293.504C27.1918 309.304 14.909 315.848 15.2346 318.481C15.9311 324.138 36.7059 314.875 47.1256 315.735C49.5935 315.994 52.0885 315.77 54.4702 315.073C57.15 314.246 59.1716 311.996 61.7486 309.383C55.132 306.061 49.9825 300.403 47.2962 293.504Z" fill="#14B8A6"/>
<path d="M287.937 209.442C280.608 204.361 277.49 206.134 270.768 207.887C273.915 214.391 275.209 221.636 274.507 228.827C283.008 227.638 293.065 226.412 299.285 226.041C308.317 225.519 316.222 224.72 316.852 223.229C319.105 218.011 296.469 215.462 287.937 209.442Z" fill="#14B8A6"/>
<path d="M258.09 116.147L251.078 116.843C252.666 112.279 255.675 111.945 258.09 116.147Z" fill="#14B8A6"/>
<path d="M259.415 136.264C257.86 139.705 255.379 139.837 253.262 136.761L259.415 136.264Z" fill="#14B8A6"/>
<path d="M214.026 51.5403C213.878 51.572 213.725 51.5741 213.577 51.5462C213.429 51.5184 213.286 51.4611 213.161 51.378C213.034 51.2948 212.926 51.1874 212.842 51.062C212.757 50.9365 212.699 50.7954 212.67 50.6471L209.858 36.8912C209.797 36.5973 209.854 36.291 210.018 36.0397C210.183 35.7885 210.441 35.6128 210.734 35.5513C211.028 35.4898 211.334 35.5478 211.587 35.7122C211.838 35.8766 212.013 36.1341 212.074 36.428L214.886 50.1839C214.925 50.3296 214.933 50.482 214.911 50.631C214.888 50.7801 214.834 50.9229 214.752 51.0503C214.672 51.1776 214.566 51.287 214.441 51.3712C214.315 51.4557 214.174 51.5132 214.026 51.5403Z" fill="#14B8A6"/>
<path d="M138.268 133.452L133.044 146.188C134.235 146.287 135.459 146.353 136.65 146.419C135.988 142.03 136.547 137.544 138.268 133.452Z" fill="#14B8A6"/>
<path d="M9.90821 181.354C9.61975 181.631 9.23476 181.786 8.83443 181.786C8.43408 181.784 8.04967 181.629 7.7622 181.35C7.47476 181.072 7.30673 180.692 7.29356 180.292C7.28038 179.891 7.42309 179.503 7.6916 179.205C7.98005 178.928 8.36502 178.773 8.76537 178.773C9.16572 178.775 9.55014 178.93 9.83758 179.209C10.125 179.487 10.2931 179.867 10.3062 180.267C10.3194 180.668 10.1767 181.056 9.90821 181.354Z" fill="#14B8A6"/>
<path d="M159.541 128.192C159.573 128.545 159.5 128.9 159.331 129.212C159.162 129.524 158.905 129.778 158.591 129.943C158.277 130.109 157.921 130.177 157.568 130.14C157.216 130.104 156.882 129.963 156.609 129.736C156.336 129.51 156.137 129.207 156.036 128.867C155.935 128.527 155.937 128.165 156.042 127.826C156.146 127.488 156.349 127.187 156.625 126.964C156.9 126.741 157.236 126.604 157.589 126.571C157.824 126.548 158.061 126.572 158.286 126.641C158.512 126.711 158.721 126.824 158.903 126.975C159.084 127.125 159.234 127.311 159.344 127.519C159.453 127.728 159.52 127.957 159.541 128.192Z" fill="#14B8A6"/>
<path d="M156.629 140.268C156.662 140.621 156.589 140.976 156.42 141.287C156.251 141.599 155.993 141.854 155.679 142.019C155.366 142.184 155.01 142.253 154.657 142.216C154.304 142.179 153.971 142.039 153.698 141.812C153.425 141.585 153.225 141.283 153.124 140.943C153.023 140.603 153.025 140.241 153.13 139.902C153.235 139.563 153.438 139.263 153.714 139.04C153.989 138.816 154.324 138.679 154.677 138.647C154.912 138.624 155.149 138.647 155.375 138.717C155.601 138.786 155.81 138.899 155.992 139.05C156.173 139.201 156.323 139.386 156.432 139.595C156.542 139.804 156.609 140.033 156.629 140.268Z" fill="#14B8A6"/>
<path d="M156.629 153.764C156.662 154.117 156.589 154.472 156.42 154.784C156.251 155.096 155.993 155.351 155.679 155.516C155.366 155.681 155.01 155.75 154.657 155.713C154.304 155.676 153.971 155.535 153.698 155.309C153.425 155.082 153.225 154.78 153.124 154.44C153.023 154.1 153.025 153.737 153.13 153.399C153.235 153.06 153.438 152.76 153.714 152.536C153.989 152.313 154.324 152.176 154.677 152.143C154.912 152.12 155.149 152.144 155.375 152.214C155.6 152.283 155.81 152.396 155.991 152.547C156.173 152.698 156.322 152.883 156.432 153.092C156.542 153.301 156.609 153.529 156.629 153.764Z" fill="#14B8A6"/>
<path d="M71.1516 306.305L115.205 323.442L127.345 292.18C128.052 290.457 129.232 288.972 130.748 287.893C132.264 286.813 134.055 286.186 135.913 286.082C137.771 285.977 139.62 286.402 141.247 287.306C142.874 288.209 144.212 289.555 145.106 291.187C147.146 294.932 150.213 298.016 153.946 300.078C157.68 302.138 161.924 303.09 166.18 302.82C170.436 302.549 174.526 301.069 177.969 298.552C181.413 296.036 184.065 292.589 185.614 288.617C187.164 284.643 187.547 280.309 186.717 276.127C185.886 271.944 183.878 268.086 180.93 265.006C177.981 261.924 174.213 259.75 170.071 258.739C165.928 257.727 161.582 257.92 157.545 259.296C155.782 259.904 153.882 259.998 152.067 259.568C150.251 259.138 148.596 258.201 147.292 256.867C145.989 255.531 145.091 253.855 144.704 252.03C144.317 250.205 144.456 248.307 145.106 246.559L153.311 225.49" stroke="#013941" stroke-width="1.75" stroke-linecap="round" stroke-linejoin="round"/>
<path d="M44.2806 295.852L13.4152 283.838C12.2341 283.378 11.1551 282.69 10.2399 281.814C9.32464 280.937 8.59107 279.889 8.08108 278.729C7.57108 277.569 7.29464 276.319 7.26758 275.051C7.24051 273.786 7.46332 272.525 7.92329 271.344L43.8505 179.006C44.31 177.823 44.9982 176.742 45.8756 175.826C46.7532 174.91 47.8028 174.176 48.9644 173.665C50.126 173.155 51.3767 172.88 52.645 172.854C53.9135 172.828 55.1745 173.052 56.3562 173.514L125.658 200.442" stroke="#013941" stroke-width="1.75" stroke-linecap="round" stroke-linejoin="round"/>
<path d="M289.288 119.722C289.494 120.511 289.805 121.268 290.215 121.972" stroke="#013941" stroke-width="1.75" stroke-linecap="round" stroke-linejoin="round"/>
<path d="M289.196 115.124C289.489 113.731 290.081 112.417 290.93 111.275C291.78 110.133 292.868 109.188 294.119 108.508C297.862 106.468 300.948 103.401 303.008 99.6677C305.068 95.9343 306.018 91.6902 305.748 87.4347C305.477 83.1793 303.997 79.0896 301.481 75.6473C298.965 72.2049 295.517 69.5528 291.545 68.0034C287.572 66.454 283.239 66.0718 279.057 66.9017C274.874 67.7316 271.016 69.7391 267.935 72.6877C264.855 75.6365 262.682 79.4037 261.67 83.5462C260.661 87.6886 260.852 92.0335 262.228 96.0699C262.837 97.8336 262.931 99.734 262.503 101.55C262.073 103.365 261.136 105.021 259.8 106.325C258.465 107.629 256.788 108.526 254.961 108.912C253.137 109.299 251.239 109.158 249.49 108.508L216.011 95.5075L207.305 117.903" stroke="#013941" stroke-width="1.75" stroke-linecap="round" stroke-linejoin="round"/>
<path d="M251.575 236.346L274.037 245.052C275.219 245.513 276.48 245.738 277.747 245.712C279.015 245.686 280.267 245.409 281.428 244.899C282.59 244.388 283.638 243.655 284.516 242.739C285.393 241.822 286.081 240.742 286.541 239.56L291.611 226.514M292.661 124.864C293.417 125.453 294.253 125.932 295.143 126.286L316.945 134.723C318.127 135.182 319.207 135.87 320.122 136.748C321.038 137.625 321.773 138.674 322.283 139.836C322.794 140.997 323.069 142.248 323.095 143.516C323.121 144.784 322.896 146.045 322.435 147.227L296.684 213.469" stroke="#013941" stroke-width="1.75" stroke-linecap="round" stroke-linejoin="round"/>
<path d="M177.542 159.089C179.774 159.259 181.886 160.168 183.544 161.672C185.202 163.175 186.313 165.188 186.701 167.393" stroke="#013941" stroke-width="1.75" stroke-linecap="round" stroke-linejoin="round"/>
<path d="M140.584 118.002C144.76 113.788 150.433 111.397 156.365 111.352" stroke="#013941" stroke-width="1.75" stroke-linecap="round" stroke-linejoin="round"/>
<path d="M168.406 76.1187L116.964 56.1378" stroke="#013941" stroke-width="1.75" stroke-linecap="round" stroke-linejoin="round"/>
<path d="M195.203 118.43L206.02 90.7741L185.377 82.7347" stroke="#013941" stroke-width="1.75" stroke-linecap="round" stroke-linejoin="round"/>
<path d="M133.868 189.757L61.2856 161.538C58.9019 160.604 56.9853 158.764 55.9559 156.42C54.9264 154.076 54.8683 151.419 55.7937 149.032L65.4542 123.99C66.0776 122.24 66.1984 120.35 65.8031 118.534C65.4079 116.719 64.5122 115.051 63.2176 113.718C61.9229 112.386 60.2809 111.442 58.4779 110.995C56.6746 110.547 54.7821 110.614 53.0147 111.186C48.9879 112.546 44.6565 112.729 40.5296 111.713C36.4025 110.697 32.6511 108.524 29.7159 105.45C26.7807 102.376 24.7837 98.5284 23.9593 94.3588C23.1349 90.1892 23.5174 85.8711 25.0621 81.9113C26.6066 77.9517 29.2489 74.5149 32.6788 72.0048C36.1087 69.4947 40.1836 68.0153 44.425 67.7407C48.6665 67.4659 52.8982 68.4072 56.6231 70.4539C60.3482 72.5007 63.4117 75.568 65.4542 79.2953C69.3006 86.3595 80.1573 86.2603 83.215 78.3358L84.5383 74.9282" stroke="#013941" stroke-width="1.75" stroke-linecap="round" stroke-linejoin="round"/>
<path d="M155.809 108.015C157.127 107.75 158.411 107.341 159.64 106.796L156.473 110.392" stroke="#013941" stroke-width="1.75" stroke-linecap="round" stroke-linejoin="round"/>
<path d="M179.422 118.166C175.724 118.087 172.074 117.301 168.67 115.85C166.459 114.651 164.305 112.476 164.402 104.8C164.49 101.406 164.833 98.0219 165.428 94.6785C170.027 93.1567 167.951 87.7902 164.833 89.8814C163.685 90.651 162.853 91.1299 162.649 89.8814C161.388 82.0963 155.472 80.0224 151.766 87.0362L150.608 89.716C147.927 97.2626 147.526 109.314 155.809 108.01C156.133 108.771 156.353 109.572 156.464 110.392C156.508 111.219 155.602 115.65 154.611 116.214C152.59 117.367 149.086 118.464 142.801 118.166" stroke="#013941" stroke-width="1.75" stroke-linecap="round" stroke-linejoin="round"/>
<path d="M253.21 136.842C271.3 135.259 274.813 134.167 286.468 132.426C287.659 132.261 289.05 131.999 290.636 131.665C296.495 130.425 296.922 128.531 290.074 128.621C286.596 128.667 283.131 128.21 279.785 127.265" stroke="#013941" stroke-width="1.75" stroke-linecap="round" stroke-linejoin="round"/>
<path d="M282.275 127.866C282.308 128.031 286.643 126.71 291.902 125.08C297.791 123.262 298.153 120.868 291.009 121.871C287.408 122.556 283.715 122.623 280.091 122.069" stroke="#013941" stroke-width="1.75" stroke-linecap="round" stroke-linejoin="round"/>
<path d="M278.836 118C278.836 118 291.768 114.42 292.564 114.17C298.658 112.197 299.577 114.403 294.383 117.18C289.619 119.728 283.267 122.404 283.267 122.404" stroke="#013941" stroke-width="1.75" stroke-linecap="round" stroke-linejoin="round"/>
<path d="M250.909 116.204C250.551 116.24 250.29 116.56 250.326 116.919C250.363 117.278 250.683 117.539 251.042 117.503L250.909 116.204ZM259.316 116.016V116.669C259.332 116.669 259.346 116.668 259.362 116.667L259.316 116.016ZM267.852 103.146L267.955 102.501H267.953L267.852 103.146ZM276.321 113.534L276.572 114.137L276.574 114.137L276.321 113.534ZM285.451 109.597L285.177 109.005L285.176 109.005L285.451 109.597ZM287.436 112.277L287.773 112.836L287.787 112.827L287.436 112.277ZM280.716 116.902C280.471 117.166 280.485 117.579 280.748 117.825C281.01 118.071 281.425 118.057 281.67 117.793L280.716 116.902ZM250.976 116.853L251.042 117.503C251.042 117.503 251.042 117.503 251.044 117.503C251.044 117.503 251.045 117.502 251.047 117.502C251.052 117.502 251.057 117.501 251.064 117.5L251.134 117.493C251.195 117.487 251.284 117.478 251.397 117.467C251.623 117.444 251.947 117.411 252.336 117.372C253.112 117.293 254.148 117.189 255.186 117.084C256.226 116.979 257.265 116.875 258.05 116.796C258.442 116.757 258.771 116.724 259.003 116.701C259.119 116.69 259.21 116.681 259.274 116.675C259.306 116.672 259.328 116.67 259.346 116.668C259.386 116.665 259.353 116.669 259.316 116.669V115.363C259.299 115.363 259.285 115.363 259.283 115.364C259.276 115.364 259.273 115.364 259.269 115.364C259.264 115.365 259.259 115.365 259.255 115.365C259.247 115.366 259.238 115.367 259.227 115.368C259.208 115.369 259.182 115.372 259.149 115.375C259.085 115.381 258.991 115.39 258.876 115.402C258.642 115.425 258.313 115.457 257.92 115.497C257.134 115.575 256.095 115.68 255.055 115.785C254.018 115.889 252.982 115.994 252.203 116.073C251.815 116.112 251.493 116.145 251.266 116.168C251.153 116.179 251.063 116.188 251.004 116.194C250.972 116.197 250.95 116.2 250.934 116.201L250.916 116.203C250.915 116.203 250.913 116.203 250.911 116.203C250.911 116.203 250.911 116.204 250.909 116.204L250.976 116.853ZM259.362 116.667C260.699 116.575 262.182 116.025 263.38 115.223C264.561 114.432 265.595 113.306 265.816 111.988L264.528 111.772C264.394 112.573 263.708 113.432 262.654 114.138C261.616 114.832 260.349 115.29 259.271 115.364L259.362 116.667ZM265.816 111.988C265.971 111.066 266.102 110.032 266.239 109.029C266.377 108.017 266.52 107.032 266.697 106.175C266.877 105.304 267.082 104.625 267.321 104.195C267.565 103.755 267.709 103.785 267.751 103.791L267.953 102.501C267.084 102.364 266.515 102.959 266.18 103.562C265.841 104.174 265.604 105.015 265.418 105.909C265.23 106.816 265.082 107.842 264.944 108.853C264.806 109.874 264.678 110.876 264.528 111.772L265.816 111.988ZM267.749 103.791C268.096 103.846 268.426 104.131 268.721 104.903C269.01 105.662 269.186 106.695 269.337 107.869C269.485 109.01 269.612 110.288 269.814 111.416C270.014 112.532 270.309 113.635 270.859 114.409L271.925 113.652C271.554 113.132 271.298 112.282 271.099 111.185C270.904 110.098 270.788 108.901 270.633 107.701C270.481 106.533 270.291 105.358 269.941 104.438C269.597 103.532 269.012 102.669 267.955 102.501L267.749 103.791ZM270.859 114.409C271.192 114.877 271.763 115.011 272.205 115.049C272.684 115.09 273.231 115.037 273.758 114.946C274.815 114.763 275.936 114.402 276.572 114.137L276.071 112.932C275.515 113.163 274.488 113.495 273.535 113.659C273.058 113.741 272.635 113.775 272.316 113.748C271.963 113.718 271.907 113.629 271.925 113.652L270.859 114.409ZM276.574 114.137C278.526 113.317 285.083 110.488 285.726 110.19L285.176 109.005C284.557 109.292 278.024 112.112 276.069 112.932L276.574 114.137ZM285.724 110.19C287.161 109.528 288.24 109.201 288.971 109.106C289.339 109.058 289.581 109.074 289.722 109.109C289.86 109.143 289.837 109.177 289.807 109.122C289.779 109.07 289.818 109.073 289.772 109.209C289.727 109.346 289.617 109.55 289.402 109.816C288.971 110.344 288.211 111.007 287.084 111.727L287.787 112.827C288.98 112.065 289.865 111.315 290.415 110.64C290.688 110.304 290.901 109.96 291.012 109.618C291.125 109.277 291.157 108.873 290.956 108.502C290.755 108.128 290.398 107.931 290.035 107.842C289.678 107.753 289.259 107.752 288.803 107.811C287.887 107.93 286.673 108.315 285.177 109.005L285.724 110.19ZM287.098 111.719C284.742 113.146 282.595 114.89 280.716 116.902L281.67 117.793C283.467 115.869 285.522 114.201 287.773 112.836L287.098 111.719Z" fill="#013941"/>
<path d="M277.711 115.421C279.891 119.577 280.533 124.368 279.529 128.952" stroke="#013941" stroke-width="1.75" stroke-linecap="round" stroke-linejoin="round"/>
<path d="M274.568 118.035C274.138 123.394 271.782 127.1 266.76 128.092" stroke="#013941" stroke-width="1.75" stroke-linecap="round" stroke-linejoin="round"/>
<path d="M180.217 146.52C180.85 143.723 181.669 140.971 182.665 138.282L188.442 146.718" stroke="#013941" stroke-width="1.75" stroke-linecap="round" stroke-linejoin="round"/>
<path d="M165.614 210.655L159.409 190.054L169.001 206.496" stroke="#013941" stroke-width="1.75" stroke-linecap="round" stroke-linejoin="round"/>
<path d="M146.804 172.819C112.663 217.348 93.3474 245.168 48.249 287.184C41.4581 293.517 61.23 315.186 68.0993 308.985L79.9397 298.301C112.071 269.255 132.809 250 158.214 219.664C158.214 219.664 167.873 207.919 168.998 206.497L186.102 235.84C187.991 239.095 190.836 241.689 194.251 243.27C197.667 244.849 201.486 245.34 205.19 244.674L272.054 232.659C278.042 231.661 273.083 203.904 266.992 204.973L207.509 213.84C207.509 213.84 202.882 193.467 202.111 189.953C200.735 183.559 197.652 177.656 193.191 172.873C188.728 168.09 183.055 164.606 176.771 162.79" stroke="#013941" stroke-width="1.75" stroke-linecap="round" stroke-linejoin="round"/>
<path d="M151.771 87.0034C155.278 80.1219 161.697 74.5656 172.216 86.6063C183.462 99.4759 164.408 104.834 164.408 104.834" stroke="#013941" stroke-width="1.75" stroke-linecap="round" stroke-linejoin="round"/>
<path d="M184.385 83.662C180.481 87.7313 174.369 88.2189 170.721 84.7207C167.073 81.2225 167.281 75.0933 171.185 71.024C175.088 66.9547 181.2 66.4672 184.848 69.9653C188.496 73.4635 188.289 79.5927 184.385 83.662Z" stroke="#013941" stroke-width="1.75" stroke-linecap="round" stroke-linejoin="round"/>
<path d="M61.7489 309.381C59.1684 311.993 57.145 314.229 54.4705 315.072C52.0885 315.767 49.5938 315.991 47.1259 315.734C36.7028 314.903 15.9366 324.135 15.2349 318.479C15.0381 316.891 21.4216 312.194 28.9647 307.161C33.7287 303.985 40.941 298.495 47.2913 293.5" stroke="#013941" stroke-width="1.75" stroke-linecap="round" stroke-linejoin="round"/>
<path d="M270.763 207.886C274.965 206.794 278.205 205.576 281.282 206.298C283.68 206.908 285.936 207.972 287.932 209.432C296.492 215.419 319.078 217.992 316.847 223.227C316.213 224.714 308.315 225.511 299.28 226.039C293.06 226.404 283.002 227.627 274.502 228.825" stroke="#013941" stroke-width="1.75" stroke-linecap="round" stroke-linejoin="round"/>
<path d="M254.314 113.206C255.553 113.103 256.898 114.076 258.09 116.145" stroke="#013941" stroke-width="1.75" stroke-linecap="round" stroke-linejoin="round"/>
<path d="M259.416 136.264C258.688 137.852 257.695 138.844 256.57 138.943" stroke="#013941" stroke-width="1.75" stroke-linecap="round" stroke-linejoin="round"/>
<path d="M214.92 50.1823C214.968 50.4756 214.902 50.7766 214.735 51.022C214.566 51.2673 214.308 51.4379 214.018 51.4978C213.727 51.5577 213.424 51.5025 213.171 51.3436C212.921 51.1846 212.741 50.9344 212.67 50.6455L209.858 36.8896C209.797 36.5955 209.854 36.2892 210.018 36.038C210.183 35.7867 210.441 35.611 210.735 35.5497C211.028 35.4883 211.334 35.5461 211.587 35.7105C211.838 35.875 212.013 36.1324 212.074 36.4265L214.92 50.1823Z" stroke="#013941" stroke-width="1.75" stroke-linecap="round" stroke-linejoin="round"/>
<path d="M209.328 28.6454L210.983 36.6517" stroke="#013941" stroke-width="1.75" stroke-linecap="round" stroke-linejoin="round"/>
<path d="M205.259 8.76378C203.293 9.16639 201.491 10.1429 200.081 11.5697C198.669 12.9966 197.713 14.8098 197.333 16.78C196.952 18.7502 197.164 20.7891 197.942 22.6386C198.721 24.4882 200.03 26.0654 201.705 27.1711C203.379 28.2766 205.345 28.8608 207.35 28.8498C209.358 28.8389 211.315 28.2331 212.978 27.1091C214.641 25.9853 215.931 24.3938 216.691 22.5357C217.448 20.6778 217.638 18.6367 217.236 16.6708C216.969 15.3651 216.447 14.1246 215.701 13.0205C214.954 11.9163 213.999 10.9701 212.886 10.2359C211.773 9.50158 210.528 8.99353 209.219 8.74097C207.911 8.4884 206.565 8.49615 205.259 8.76378Z" stroke="#013941" stroke-width="1.75" stroke-linecap="round" stroke-linejoin="round"/>
<path d="M326.969 194.421L323.098 193.263" stroke="#013941" stroke-width="1.75" stroke-linecap="round" stroke-linejoin="round"/>
<path d="M331.667 191.841L332.792 187.97" stroke="#013941" stroke-width="1.75" stroke-linecap="round" stroke-linejoin="round"/>
<path d="M328.392 202.957L329.55 199.119" stroke="#013941" stroke-width="1.75" stroke-linecap="round" stroke-linejoin="round"/>
<path d="M334.248 196.538L338.085 197.663" stroke="#013941" stroke-width="1.75" stroke-linecap="round" stroke-linejoin="round"/>
<path d="M334.255 196.538C333.29 196.254 332.479 195.601 331.994 194.72C331.51 193.839 331.395 192.803 331.674 191.836C331.39 192.801 330.737 193.612 329.856 194.096C328.975 194.581 327.939 194.695 326.973 194.417C327.937 194.701 328.749 195.354 329.233 196.235C329.717 197.116 329.832 198.152 329.553 199.118C329.837 198.154 330.49 197.342 331.371 196.858C332.252 196.374 333.288 196.259 334.255 196.538Z" stroke="#013941" stroke-width="1.75" stroke-linecap="round" stroke-linejoin="round"/>
<path d="M88.3463 86.7718C86.3594 82.0036 84.8951 77.0341 83.9792 71.9503" stroke="#013941" stroke-width="1.75" stroke-linecap="round" stroke-linejoin="round"/>
<path d="M95.691 69.4028L72.1371 74.4646C71.0403 74.7014 69.8944 74.4928 68.9513 73.8848C68.0082 73.2767 67.3453 72.319 67.1084 71.2224L57.1501 24.8076L71.5085 21.7308C72.3096 21.5656 73.1411 21.633 73.9052 21.9248C74.6692 22.2168 75.3338 22.7211 75.8207 23.3784C76.3076 24.0356 76.5964 24.8184 76.653 25.6344C76.7096 26.4503 76.5317 27.2654 76.1402 27.9837C75.2638 29.6335 74.8768 31.4991 75.0246 33.3613C75.1723 35.2236 75.8487 37.0051 76.9743 38.4961C78.0998 39.987 79.6276 41.1257 81.3781 41.778C83.1286 42.4305 85.029 42.5694 86.8557 42.1789C88.6826 41.7881 90.3598 40.8839 91.6905 39.5726C93.0209 38.2612 93.9494 36.5973 94.3666 34.7763C94.7838 32.9555 94.6723 31.0531 94.0453 29.2934C93.4185 27.5335 92.3022 25.9894 90.8277 24.8424C90.1808 24.345 89.6884 23.6741 89.408 22.9077C89.1277 22.1414 89.0709 21.3112 89.2443 20.5137C89.4176 19.7164 89.8141 18.9845 90.3871 18.4038C90.9604 17.8229 91.6868 17.4171 92.4819 17.2332L107.866 13.8917L117.857 60.3047C118.094 61.4014 117.885 62.5473 117.277 63.4904C116.669 64.4334 115.712 65.0963 114.615 65.3335L100.356 68.4103" stroke="#013941" stroke-width="1.75" stroke-linecap="round" stroke-linejoin="round"/>
<path d="M94.6985 82.5371C92.8127 80.2212 92.1841 74.6301 95.4925 72.0896C95.4925 72.0896 95.9331 62.7356 97.5437 60.6113C99.1544 58.487 100.056 67.2872 100.753 70.627C101.211 72.8122 102.407 77.8723 103.598 82.0409" stroke="#013941" stroke-width="1.75" stroke-linecap="round" stroke-linejoin="round"/>
<path d="M133.055 146.148L138.301 133.437C136.582 137.529 136.01 142.012 136.647 146.404" stroke="#013941" stroke-width="1.75" stroke-linecap="round" stroke-linejoin="round"/>
<path d="M254.314 113.206C225.336 116.976 195.731 119.457 179.423 118.167C166.321 121.409 154.016 121.773 142.801 118.167C137.011 117.902 128.905 116.38 117.493 112.575L108.131 82.7356C107.138 79.4934 84.1779 86.5072 85.1704 89.7494L100.356 136.793C111.626 142.559 124.001 145.841 136.647 146.418C137.441 152.109 140.187 160.148 146.804 172.819C153.917 177.054 169.266 171 176.579 163.39C177.869 157.435 179.027 151.513 180.218 146.519C205.883 147.389 231.547 144.841 256.539 138.943C249.72 139.532 247.366 113.793 254.314 113.206Z" stroke="#013941" stroke-width="1.75" stroke-linecap="round" stroke-linejoin="round"/>
<path d="M56.3508 279.442C51.1567 283.97 70.8032 306.432 75.9695 301.937" stroke="#013941" stroke-width="1.75" stroke-linecap="round" stroke-linejoin="round"/>
<path d="M254.883 206.794C259.449 205.967 264.544 234.02 259.978 234.847" stroke="#013941" stroke-width="1.75" stroke-linecap="round" stroke-linejoin="round"/>
<path d="M234.737 285.299L222.231 317.488" stroke="#013941" stroke-width="1.75" stroke-linecap="round" stroke-linejoin="round"/>
<path d="M244.594 307.628L212.372 295.157" stroke="#013941" stroke-width="1.75" stroke-linecap="round" stroke-linejoin="round"/>
<path d="M10.934 173.978C11.5957 172.092 12.7867 170.967 16.2274 168.618C23.511 163.645 22.1476 157.943 17.8485 156.245C17.0886 155.951 16.2735 155.828 15.4608 155.884C14.648 155.939 13.8574 156.173 13.1445 156.567C12.4316 156.961 11.8139 157.507 11.3348 158.166C10.8557 158.825 10.5269 159.581 10.3716 160.38" stroke="#013941" stroke-width="1.75" stroke-linecap="round" stroke-linejoin="round"/>
<path d="M65.7188 297.637C99.4293 266.056 131.495 232.765 161.789 197.893" stroke="#013941" stroke-width="1.75" stroke-linecap="round" stroke-linejoin="round"/>
<path d="M169.01 169.18C169.01 169.18 186.704 176.988 188.364 191.179C189.287 199.086 194.517 215.43 197.296 223.765C197.777 225.21 198.747 226.445 200.039 227.253C201.331 228.062 202.863 228.397 204.375 228.198L260.979 220.787" stroke="#013941" stroke-width="1.75" stroke-linecap="round" stroke-linejoin="round"/>
</g>
<defs>
<clipPath id="clip0_163_867">
<rect width="343" height="332" fill="white"/>
</clipPath>
</defs>
</svg>
