<svg width="324" height="51" viewBox="0 0 324 51" fill="none" xmlns="http://www.w3.org/2000/svg">
<path d="M95.7259 16.2736C96.9952 16.2414 98.2484 16.4342 99.4534 16.8359C100.401 17.1572 101.269 17.6875 101.992 18.3783C102.361 18.7479 102.57 19.2299 102.586 19.7601C102.619 20.2742 102.506 20.7884 102.233 21.2222C101.944 21.656 101.51 21.9773 101.012 22.1058C100.321 22.2504 99.598 22.138 99.0035 21.7684C98.5536 21.5274 98.0877 21.3186 97.6057 21.1579C97.0112 20.9651 96.3686 20.8687 95.742 20.8848C94.4887 20.7884 93.2837 21.2704 92.4322 22.2022C91.6449 23.2144 91.2593 24.4837 91.3236 25.753V28.8057C91.2593 30.0911 91.6449 31.3443 92.4322 32.3565C93.2677 33.2723 94.4887 33.7704 95.742 33.674C96.4168 33.674 97.0755 33.6097 97.7342 33.449C98.2162 33.3366 98.6982 33.1598 99.132 32.9188C99.6301 32.6296 100.225 32.5171 100.803 32.5975C101.285 32.6778 101.735 32.9188 102.056 33.2723C102.361 33.6258 102.554 34.0756 102.602 34.5416C102.635 35.0878 102.474 35.6341 102.12 36.0518C101.462 36.8713 100.562 37.4497 99.5658 37.7228C98.3287 38.1084 97.0273 38.3012 95.742 38.2851C94.2799 38.3173 92.8339 38.0763 91.4682 37.5621C90.3596 37.1283 89.3474 36.4535 88.544 35.5698C87.7889 34.7183 87.2105 33.7222 86.8731 32.6296C86.5196 31.4728 86.3268 30.2839 86.3429 29.0788V25.5281H86.375C86.375 24.307 86.5517 23.102 86.9052 21.9612C87.2426 20.8687 87.821 19.8725 88.5762 19.021C89.3795 18.1373 90.3596 17.4465 91.4682 17.0126C92.8339 16.4985 94.2799 16.2575 95.742 16.2896L95.7259 16.2736Z" fill="#06283D"/>
<path d="M111.648 9.68633C112.05 10.0237 112.291 10.5379 112.307 11.0681V36.3091C112.307 36.8393 112.05 37.3374 111.648 37.6908C111.166 38.1246 110.524 38.3496 109.865 38.3014C109.19 38.3335 108.547 38.1086 108.017 37.6908C107.583 37.3695 107.326 36.8554 107.31 36.3091V11.0681C107.31 10.5218 107.583 10.0237 108.017 9.68633C108.451 9.3168 108.997 9.10793 109.576 9.07579H109.865C110.508 9.04366 111.15 9.25253 111.648 9.68633Z" fill="#06283D"/>
<path d="M123.377 16.8841C123.779 17.2215 124.019 17.7357 124.036 18.2659V36.3089C124.036 36.8391 123.779 37.3372 123.377 37.6907C122.895 38.1245 122.252 38.3494 121.593 38.3012C120.919 38.3333 120.276 38.1084 119.746 37.6907C119.312 37.3693 119.055 36.8552 119.039 36.3089V18.2659C119.039 17.7196 119.312 17.2215 119.746 16.8841C120.18 16.5146 120.726 16.3057 121.304 16.2736H121.593C122.236 16.2414 122.879 16.4503 123.377 16.8841ZM123.377 9.30057C123.779 9.63797 124.019 10.136 124.036 10.6662V11.6785C124.036 12.2087 123.779 12.7067 123.377 13.0441C122.879 13.4779 122.252 13.6868 121.593 13.6547C120.919 13.6868 120.276 13.4779 119.746 13.0441C119.312 12.7228 119.055 12.2087 119.039 11.6785V10.6662C119.039 10.12 119.312 9.6219 119.746 9.30057C120.18 8.93103 120.726 8.72216 121.304 8.69003H121.593C122.236 8.65789 122.879 8.86676 123.377 9.30057Z" fill="#06283D"/>
<path d="M139.122 16.2896C140.392 16.2575 141.645 16.4503 142.85 16.852C143.798 17.1733 144.665 17.7035 145.388 18.3944C145.758 18.7639 145.967 19.2459 145.983 19.7761C146.015 20.2903 145.902 20.8044 145.629 21.2382C145.34 21.672 144.906 21.9934 144.408 22.1219C143.717 22.2665 142.994 22.154 142.4 21.7845C141.95 21.5435 141.484 21.3346 141.002 21.174C140.408 20.9812 139.765 20.8848 139.138 20.9008C137.885 20.8044 136.68 21.2864 135.829 22.2183C135.041 23.2305 134.656 24.4998 134.72 25.7691V28.8218C134.656 30.1071 135.041 31.3603 135.829 32.3725C136.664 33.2884 137.885 33.7864 139.138 33.69C139.813 33.69 140.472 33.6258 141.131 33.4651C141.613 33.3526 142.079 33.1759 142.528 32.9349C143.027 32.6457 143.621 32.5332 144.199 32.6135C144.681 32.6939 145.131 32.9349 145.453 33.2884C145.758 33.6418 145.951 34.0917 145.999 34.5576C146.047 35.1039 145.87 35.6341 145.533 36.0518C144.89 36.8552 143.991 37.4336 142.994 37.7067C141.757 38.0923 140.456 38.2851 139.17 38.2691C137.708 38.3012 136.262 38.0602 134.897 37.5461C133.788 37.1123 132.776 36.4375 131.973 35.5538C131.217 34.7022 130.639 33.7061 130.302 32.6135C129.948 31.4567 129.755 30.2678 129.771 29.0628V25.512L129.723 25.4799C129.723 24.2749 129.9 23.0698 130.253 21.9291C130.591 20.8366 131.169 19.8404 131.924 18.9889C132.728 18.1052 133.74 17.4304 134.849 16.9966C136.214 16.4824 137.66 16.2414 139.122 16.2736V16.2896Z" fill="#06283D"/>
<path d="M155.318 9.68617C155.719 10.0236 155.96 10.5377 155.976 11.0679V24.3231H157.92L164.058 16.868C164.508 16.4824 165.086 16.2736 165.665 16.3057C166.339 16.3057 166.966 16.5628 167.448 17.0448C167.898 17.5107 168.123 18.1695 168.01 18.8282C167.946 19.3905 167.689 19.9207 167.271 20.3063L161.809 26.3314L168.541 34.7504C168.878 35.1682 169.007 35.7144 168.878 36.2286C168.717 36.8873 168.3 37.4497 167.737 37.7871C167.223 38.1727 166.597 38.3333 165.954 38.253C165.424 38.2048 164.926 37.9477 164.572 37.53L157.824 28.6772H155.96V36.3089C155.96 36.8391 155.703 37.3372 155.302 37.6907C154.82 38.1245 154.177 38.3494 153.518 38.3012C152.843 38.3333 152.201 38.1084 151.67 37.6907C151.237 37.3693 150.98 36.8552 150.964 36.3089V11.0679C150.964 10.5216 151.237 10.0236 151.67 9.68617C152.104 9.31663 152.651 9.10776 153.229 9.07563H153.518C154.161 9.04349 154.803 9.25236 155.302 9.68617H155.318Z" fill="#06283D"/>
<path d="M192.865 8.22412C193.46 8.22412 194.054 8.27232 194.649 8.40086C195.179 8.49726 195.677 8.67399 196.143 8.93106C196.545 9.156 196.898 9.4452 197.187 9.81474C197.444 10.1361 197.573 10.5538 197.573 10.9555C197.605 11.5018 197.428 12.0159 197.091 12.4336C196.705 12.8192 196.175 13.0281 195.629 12.9799C195.195 12.9799 194.761 12.9317 194.343 12.8032C193.861 12.6746 193.379 12.6264 192.881 12.6264C192.142 12.5461 191.403 12.771 190.809 13.2209C190.359 13.7993 190.134 14.5223 190.214 15.2614V16.7074H193.476C193.958 16.7074 194.408 16.9002 194.745 17.2376C195.115 17.5911 195.324 18.1052 195.291 18.6194C195.324 19.1656 195.115 19.6958 194.745 20.0814C194.408 20.4188 193.958 20.6117 193.476 20.6117H190.198V36.2768C190.198 36.807 189.941 37.3051 189.539 37.6586C189.074 38.0763 188.447 38.3012 187.82 38.2691C187.146 38.3173 186.471 38.0924 185.957 37.6586C185.539 37.3212 185.298 36.8231 185.282 36.2768V20.5956H183.804C183.322 20.5956 182.872 20.4028 182.534 20.0654C182.149 19.6798 181.956 19.1496 181.988 18.6033C181.972 18.0892 182.165 17.5911 182.534 17.2215C182.872 16.8841 183.322 16.6913 183.804 16.6913H185.282V15.4221C185.282 12.771 185.924 10.9073 187.21 9.8308C188.495 8.75433 190.375 8.22412 192.865 8.22412Z" fill="#06283D"/>
<path d="M203.792 16.9164C204.193 17.2538 204.434 17.7679 204.45 18.2981V29.1432C204.338 30.4125 204.804 31.6818 205.72 32.5815C206.603 33.3367 207.728 33.7223 208.901 33.6901C210.058 33.7383 211.182 33.3367 212.05 32.5815C212.95 31.6818 213.416 30.4286 213.303 29.1432V18.2981C213.303 17.7679 213.56 17.2538 213.978 16.9164C214.476 16.4986 215.103 16.2737 215.761 16.3058C216.404 16.2897 217.047 16.4986 217.545 16.9164C217.979 17.2377 218.252 17.7518 218.268 18.2981V28.9665C218.268 30.2197 218.075 31.4729 217.673 32.6779C216.918 34.9273 215.199 36.7268 212.982 37.5622C211.68 38.0603 210.283 38.3174 208.901 38.2852C207.503 38.3174 206.121 38.0764 204.82 37.5783C202.587 36.7428 200.851 34.9273 200.096 32.6618C199.695 31.4729 199.486 30.2197 199.502 28.9504V18.282C199.502 17.7358 199.775 17.2377 200.209 16.9003C200.643 16.5307 201.189 16.3219 201.767 16.2897H202.056C202.699 16.2576 203.342 16.4665 203.84 16.9003L203.792 16.9164Z" fill="#06283D"/>
<path d="M233.627 16.2254C235.009 16.1932 236.407 16.4182 237.708 16.852C238.801 17.2215 239.813 17.8321 240.648 18.6354C241.452 19.4227 242.062 20.3867 242.432 21.4471C242.833 22.62 243.042 23.8571 243.026 25.0943V36.2929C243.026 36.8391 242.737 37.3533 242.303 37.6746C241.805 38.0923 241.179 38.3012 240.52 38.2851C239.877 38.3173 239.234 38.0923 238.736 37.6746C238.319 37.3372 238.078 36.8391 238.062 36.2929V25.4156C238.174 24.1463 237.708 22.8931 236.808 21.9773C235.925 21.2222 234.8 20.8366 233.659 20.8687C232.502 20.8366 231.378 21.2222 230.478 21.9773C229.562 22.877 229.096 24.1303 229.209 25.4156V36.2929C229.209 36.8231 228.952 37.3211 228.55 37.6746C228.068 38.1084 227.425 38.3333 226.767 38.2851C226.092 38.3173 225.449 38.0923 224.919 37.6746C224.485 37.3533 224.228 36.8391 224.212 36.2929V25.5763C224.212 24.3231 224.405 23.0698 224.807 21.8648C225.562 19.5994 227.297 17.7839 229.53 16.9484C230.832 16.4503 232.197 16.1932 233.595 16.2093L233.627 16.2254Z" fill="#06283D"/>
<path d="M258.355 16.2253C259.736 16.1931 261.134 16.4181 262.436 16.8519C263.528 17.2214 264.54 17.832 265.376 18.6353C266.179 19.4226 266.79 20.3866 267.159 21.447C267.561 22.6199 267.77 23.857 267.754 25.0942V36.2928C267.754 36.839 267.465 37.3532 267.031 37.6745C266.533 38.0923 265.906 38.3011 265.247 38.2851C264.605 38.3172 263.962 38.0923 263.464 37.6745C263.046 37.3371 262.805 36.839 262.789 36.2928V25.4155C262.902 24.1462 262.436 22.893 261.536 21.9772C260.652 21.2221 259.528 20.8365 258.387 20.8686C257.23 20.8365 256.105 21.2221 255.206 21.9772C254.29 22.877 253.824 24.1302 253.936 25.4155V36.2928C253.936 36.823 253.679 37.321 253.278 37.6745C252.796 38.1083 252.153 38.3333 251.494 38.2851C250.819 38.3172 250.177 38.0923 249.646 37.6745C249.213 37.3532 248.956 36.839 248.94 36.2928V25.5762C248.94 24.323 249.132 23.0698 249.534 21.8647C250.289 19.5993 252.024 17.7838 254.258 16.9483C255.559 16.4502 256.925 16.1932 258.323 16.2092L258.355 16.2253Z" fill="#06283D"/>
<path d="M286.374 17.0609C288.447 17.9767 290.022 19.7279 290.745 21.8648C291.066 22.8288 291.227 23.8411 291.227 24.8693C291.323 25.8655 291.05 26.8616 290.455 27.665C289.748 28.2755 288.833 28.5647 287.917 28.4683H277.875V29.5608C277.827 30.7819 278.277 31.9548 279.128 32.8224C280.092 33.69 281.378 34.1399 282.679 34.0435C283.386 34.0435 284.077 33.9953 284.784 33.8989C285.298 33.8346 285.812 33.7061 286.278 33.4972L287.419 32.9027C287.724 32.726 288.078 32.6296 288.431 32.6135C288.929 32.5814 289.395 32.7742 289.748 33.1277C290.07 33.4972 290.247 33.9632 290.263 34.4452C290.23 34.9593 290.022 35.4413 289.668 35.7948C289.202 36.2929 288.656 36.7106 288.061 37.0159C287.306 37.4015 286.503 37.7067 285.667 37.8995C284.703 38.1405 283.723 38.2691 282.727 38.253C281.378 38.2691 280.044 38.0441 278.791 37.5782C277.666 37.1765 276.638 36.566 275.722 35.7948C274.855 35.0557 274.164 34.1399 273.666 33.1116C273.184 32.0833 272.943 30.9587 272.943 29.834V25.3353C272.943 22.9413 273.907 20.6277 275.61 18.9407C276.445 18.1052 277.441 17.4465 278.534 16.9966C279.707 16.5146 280.976 16.2575 282.261 16.2736C283.675 16.2414 285.073 16.4985 286.374 17.0609ZM279.16 21.5596C278.373 22.4432 277.923 23.584 277.875 24.7569H286.519V24.1463C286.567 23.0859 286.117 22.0737 285.314 21.3989C284.43 20.692 283.322 20.3385 282.197 20.3867C281.056 20.3224 279.964 20.7562 279.16 21.5756V21.5596Z" fill="#06283D"/>
<path d="M301.172 9.68617C301.574 10.0236 301.815 10.5377 301.831 11.0679V36.3089C301.831 36.8391 301.574 37.3372 301.172 37.6907C300.69 38.1245 300.047 38.3494 299.389 38.3012C298.714 38.3333 298.071 38.1084 297.541 37.6907C297.107 37.3693 296.85 36.8552 296.834 36.3089V11.0679C296.834 10.5216 297.107 10.0236 297.541 9.68617C297.975 9.31663 298.521 9.10776 299.099 9.07563H299.389C300.031 9.04349 300.674 9.25236 301.172 9.68617Z" fill="#06283D"/>
<path d="M315.728 16.2254C316.676 16.2254 317.608 16.3057 318.524 16.4985C319.199 16.6431 319.874 16.868 320.5 17.1572C320.95 17.3661 321.368 17.6393 321.721 17.9767C321.978 18.2177 322.187 18.4908 322.332 18.7961C322.541 19.2299 322.605 19.7279 322.541 20.2099C322.525 20.692 322.284 21.1418 321.882 21.415C321.432 21.7524 320.87 21.8809 320.324 21.7684C319.858 21.656 319.424 21.4632 319.006 21.2382C318.781 21.1258 318.428 20.9651 317.93 20.7562C317.223 20.5152 316.468 20.4028 315.712 20.4349C314.973 20.3867 314.234 20.6116 313.656 21.0936C313.206 21.5114 312.949 22.1058 312.949 22.7164C312.949 23.2466 313.222 23.7286 313.688 23.9696C314.283 24.307 314.909 24.5801 315.552 24.7729L317.994 25.5441C318.862 25.8012 319.681 26.1868 320.436 26.6849C322.171 27.8096 323.167 29.7697 323.039 31.8263C323.119 33.6258 322.348 35.361 320.966 36.5339C319.344 37.7871 317.335 38.4137 315.295 38.3173C314.443 38.3173 313.576 38.2369 312.74 38.0923C311.953 37.9477 311.198 37.7228 310.459 37.4336C309.832 37.1765 309.238 36.8552 308.675 36.4535C308.209 36.1322 307.808 35.7144 307.518 35.2324C307.422 35.0396 307.374 34.8147 307.342 34.6058C307.309 34.3488 307.342 34.0917 307.406 33.8346C307.47 33.5776 307.599 33.3366 307.743 33.1116C307.904 32.8867 308.129 32.7099 308.402 32.5975C308.723 32.4368 309.077 32.3565 309.446 32.3404C309.72 32.3404 309.977 32.3886 310.234 32.485C310.459 32.5814 310.667 32.7099 310.86 32.8706L311.455 33.3205C312.612 34.0114 313.961 34.3327 315.311 34.2042C316.082 34.2363 316.837 34.0274 317.496 33.6097C318.01 33.2562 318.315 32.6939 318.315 32.0673C318.315 31.4567 318.042 30.8623 317.544 30.4927C316.95 30.075 316.307 29.7537 315.616 29.5287C314.845 29.2556 314.009 28.9985 313.126 28.7254C312.258 28.4683 311.407 28.0988 310.635 27.6168C309.88 27.1669 309.221 26.5564 308.707 25.8333C308.161 24.9497 307.888 23.9053 307.936 22.861C307.872 21.0294 308.627 19.262 310.009 18.057C311.615 16.7395 313.656 16.0808 315.728 16.1932V16.2254Z" fill="#06283D"/>
<path d="M19.1199 11.1804C18.9431 12.0962 19.152 13.0281 19.7143 13.7672C20.0839 14.2492 20.5659 14.6508 21.1121 14.8919C21.7548 15.1168 22.4618 15.0847 23.0884 14.8437C23.715 14.6348 24.4058 14.6669 25.0003 14.9561C25.5948 15.2453 26.0446 15.7595 26.2696 16.3861C26.8641 17.6232 26.382 19.1014 25.177 19.744C24.3576 20.1618 23.7792 20.933 23.6346 21.8488C23.5543 22.2505 23.5543 22.6682 23.6346 23.0699C23.9078 24.4516 25.0967 25.4638 26.5106 25.496C27.9084 25.4799 29.0813 26.5885 29.0973 28.0024C29.1134 29.4002 28.0048 30.5731 26.5909 30.5891C25.1931 30.6213 24.0042 31.6496 23.7953 33.0474C23.5543 34.3649 24.2452 35.6823 25.4823 36.2447C26.7516 36.7588 27.3621 38.1888 26.8801 39.4741C26.6873 40.0846 26.2535 40.5988 25.6751 40.888C25.0967 41.1772 24.438 41.2254 23.8274 41.0165C22.4778 40.647 21.0479 41.2093 20.3249 42.4143C19.5055 43.539 19.5697 45.0654 20.4695 46.1258H7.27863C13.8339 42.8963 18.2844 36.1161 18.1398 27.6971C18.0112 19.9368 12.8538 14.0885 7.4393 11.1804H19.1199Z" fill="#2A9DDD"/>
<path d="M56.523 0.560059C58.4189 0.560059 59.9452 2.10248 59.9452 3.9823V47.1378C59.9452 49.0337 58.4028 50.5601 56.523 50.5601H3.42223C1.52635 50.5601 0 49.0176 0 47.1378V3.9823C0 2.10248 1.54241 0.560059 3.42223 0.560059H56.523ZM55.5429 11.1802H4.37017V46.1256H55.5429V11.1802ZM53.2775 3.85376C52.0725 3.85376 51.0924 4.83384 51.0924 6.03885C51.0924 7.24386 52.0725 8.22394 53.2775 8.22394C54.4825 8.22394 55.4626 7.24386 55.4626 6.03885C55.4626 4.83384 54.4825 3.85376 53.2775 3.85376ZM45.469 3.85376C44.8906 3.85376 44.3283 4.0787 43.9266 4.49643C43.5249 4.91417 43.2839 5.46044 43.2839 6.03885C43.2839 7.24386 44.264 8.22394 45.469 8.22394C46.674 8.22394 47.6541 7.24386 47.6541 6.03885C47.6541 4.83384 46.674 3.85376 45.469 3.85376ZM37.6606 3.85376C36.4556 3.85376 35.4755 4.83384 35.4755 6.03885C35.4755 7.24386 36.4556 8.22394 37.6606 8.22394C38.8656 8.22394 39.8456 7.24386 39.8456 6.03885C39.8456 4.83384 38.8656 3.85376 37.6606 3.85376Z" fill="#06283D"/>
<path d="M52.1683 11.1806C44.7776 14.9724 40.3753 23.1182 41.9659 32.437C43.0906 39.0244 47.7018 43.6517 52.6664 46.1099H37.0655C36.4871 45.8207 36.0051 45.3869 35.6677 44.8406C34.8805 43.7159 35.1215 42.1574 36.2301 41.338C36.9852 40.8078 37.4351 39.9242 37.4351 39.0083C37.4351 38.5906 37.3869 38.1889 37.2584 37.8033C36.7763 36.4859 35.4428 35.6664 34.045 35.8432C32.6632 36.0842 31.3458 35.1523 31.1048 33.7706C30.8638 32.3888 31.7956 31.0713 33.1774 30.8303C34.5109 30.5572 35.491 29.4004 35.5071 28.0186C35.5392 26.669 34.6555 25.4801 33.3541 25.1105C32.0366 24.7731 31.2172 23.4556 31.5064 22.1382C31.6028 21.4955 31.9563 20.9171 32.4865 20.5476C33.0167 20.178 33.6755 20.0334 34.3181 20.1459C35.7159 20.3065 37.0495 19.5353 37.5797 18.2339C38.2384 16.9807 37.9332 15.4544 36.8406 14.5546C35.7802 13.7513 35.5392 12.2731 36.2783 11.1806H52.1844H52.1683Z" fill="#E64E39"/>
</svg>
