<svg width="32" height="32" viewBox="0 0 32 32" fill="none" xmlns="http://www.w3.org/2000/svg">
<path d="M18.6663 4L27.9997 13.3333M18.6663 13.3333L27.9997 4M3.99967 8.66667C3.99967 9.2795 4.12038 9.88634 4.3549 10.4525C4.58943 11.0187 4.93317 11.5332 5.36651 11.9665C5.79985 12.3998 6.3143 12.7436 6.88049 12.9781C7.44667 13.2126 8.05351 13.3333 8.66634 13.3333C9.27918 13.3333 9.88601 13.2126 10.4522 12.9781C11.0184 12.7436 11.5328 12.3998 11.9662 11.9665C12.3995 11.5332 12.7433 11.0187 12.9778 10.4525C13.2123 9.88634 13.333 9.2795 13.333 8.66667C13.333 8.05383 13.2123 7.447 12.9778 6.88081C12.7433 6.31462 12.3995 5.80017 11.9662 5.36683C11.5328 4.93349 11.0184 4.58975 10.4522 4.35523C9.88601 4.12071 9.27918 4 8.66634 4C8.05351 4 7.44667 4.12071 6.88049 4.35523C6.3143 4.58975 5.79985 4.93349 5.36651 5.36683C4.93317 5.80017 4.58943 6.31462 4.3549 6.88081C4.12038 7.447 3.99967 8.05383 3.99967 8.66667ZM3.33301 28H13.9997L8.66634 18.6667L3.33301 28ZM18.6663 18.6667H27.9997V28H18.6663V18.6667Z" stroke="#14B8A6" stroke-width="2.66667" stroke-linecap="round" stroke-linejoin="round"/>
</svg>
