<svg width="358" height="56" viewBox="0 0 358 56" fill="none" xmlns="http://www.w3.org/2000/svg">
<path d="M254.512 21.356C253.249 24.5185 251.988 27.681 250.727 30.8435C249.652 33.5518 248.576 36.2602 247.499 38.9685H245.184C242.867 33.1352 240.552 27.3143 238.24 21.506C238.18 21.4248 238.143 21.3279 238.043 21.2716C237.868 21.2716 237.865 21.3841 237.915 21.5185C238.052 27.3154 237.952 33.1123 237.987 38.956H235.34V16.556H239.221C241.552 22.5518 243.891 28.5664 246.237 34.5998L246.434 34.6185L253.443 16.5498H257.38V38.9373H254.662V24.3279C254.765 23.3351 254.774 22.3347 254.687 21.3404C254.687 21.2373 254.687 21.3841 254.634 21.2998C254.612 21.2654 254.543 21.3029 254.512 21.356Z" fill="#55585D"/>
<path d="M84.8461 19.4529L82.7867 21.2623C82.1617 20.8904 81.6024 20.2029 80.8274 19.7591C75.8524 16.9123 69.1274 19.9029 67.9618 25.5154C67.1118 29.6248 68.568 33.3748 71.843 35.4654C74.9086 37.4185 79.5899 37.4904 82.6086 34.5623C83.9867 33.2279 84.5774 31.5591 84.818 29.5623H76.6399C76.4524 28.7185 76.5461 27.9091 76.568 27.0373H87.4524C87.8274 30.5341 87.218 33.706 84.6586 36.306C81.8118 39.1966 78.2805 39.9248 74.4492 39.2685C72.1572 38.8932 70.0358 37.8225 68.3723 36.2016C66.7089 34.5806 65.5838 32.4876 65.1493 30.206C64.1774 25.1185 66.2118 20.3154 70.4618 17.6623C74.7118 15.0091 81.218 15.5998 84.5024 19.0154C84.6118 19.1529 84.693 19.2748 84.8461 19.4529Z" fill="#55585D"/>
<path d="M280.552 38.9622H277.974V22.9997H280.449C280.731 23.6403 280.465 24.306 280.637 25.0028C281.146 24.5685 281.534 24.0653 282.049 23.6778C284.406 21.9466 287.987 22.0403 289.996 23.9341C291.293 25.1653 291.699 26.7653 291.712 28.4778C291.743 31.8622 291.731 35.2466 291.731 38.631C291.718 38.7435 291.693 38.8544 291.659 38.9622H289.112C288.89 38.6497 288.977 38.3372 288.974 38.0247C288.949 34.8997 288.974 31.7747 288.896 28.6497C288.846 26.6935 287.959 25.5466 286.396 25.1341C285.552 24.8781 284.649 24.8966 283.816 25.1869C282.983 25.4773 282.264 26.0245 281.762 26.7497C280.996 27.8761 280.608 29.2165 280.652 30.5778C280.631 33.0778 280.652 35.5778 280.652 38.0778C280.694 38.3763 280.66 38.6805 280.552 38.9622Z" fill="#55585D"/>
<path d="M185.828 38.9718H183.053V19.1781H176.803V16.5781H191.959V19.1406H185.828V38.9718Z" fill="#55585D"/>
<path d="M357.056 22.8841V25.6404C356.565 25.7966 356.212 25.4904 355.824 25.3998C353.012 24.7404 351.096 27.0466 350.724 29.0435C350.484 30.3341 350.59 31.6373 350.577 32.9373C350.577 34.9154 350.577 36.8935 350.577 38.9373H347.874V23.0154H350.374C350.593 23.6966 350.374 24.381 350.521 25.081C352.852 22.6185 355.024 21.8935 357.056 22.8841Z" fill="#55585D"/>
<path d="M149.302 38.9748H146.718V16.5591H149.302V38.9748Z" fill="#55585D"/>
<path d="M223.674 23.7654C223.674 23.5154 223.753 23.2404 223.543 23.0279C222.704 22.8996 221.848 22.9186 221.015 23.0841V25.0935C220.881 24.9836 220.753 24.8668 220.631 24.7435C218.265 21.7716 213.321 21.6966 210.524 24.431C207.818 27.0654 207.153 31.8216 209.018 35.3685C211.653 40.3685 218.109 40.3685 220.69 36.9904C220.702 36.9613 220.721 36.9357 220.746 36.9159C220.77 36.896 220.799 36.8825 220.83 36.8767C220.861 36.8708 220.893 36.8727 220.923 36.8821C220.953 36.8916 220.981 36.9084 221.003 36.931C221.042 37.6134 221.028 38.2978 220.959 38.9779C220.674 43.4466 216.678 44.3591 213.962 43.3529C212.671 42.881 211.843 41.906 211.237 40.6216L208.756 41.6591C208.915 42.3674 209.25 43.024 209.731 43.5685C211.293 45.481 213.378 46.2341 215.793 46.231C218.209 46.2279 220.415 45.606 222.043 43.6248C223.328 42.0623 223.649 40.1873 223.668 38.2873C223.712 33.4466 223.681 28.606 223.674 23.7654ZM220.531 33.481C220.195 34.4176 219.586 35.2319 218.783 35.8186C217.98 36.4053 217.019 36.7373 216.024 36.7716C215.016 36.8202 214.017 36.5516 213.169 36.0034C212.321 35.4552 211.666 34.655 211.296 33.7154C210.874 32.7739 210.667 31.7501 210.691 30.7186C210.715 29.6871 210.969 28.6739 211.434 27.7529C212.299 25.9623 214.246 24.8154 216.121 24.9748C218.309 25.1591 219.774 26.3404 220.565 28.3623C220.876 29.2198 221.021 30.1286 220.993 31.0404C220.976 31.874 220.82 32.6989 220.531 33.481Z" fill="#55585D"/>
<path d="M142.818 23.6904C142.818 23.4654 142.881 23.2216 142.69 23.006H140.134V25.1404C137.352 21.431 131.652 21.7029 129.027 25.1716C126.865 28.0435 126.615 31.231 127.821 34.4935C129.131 38.0248 132.324 39.756 136.037 39.181C137.699 38.9248 139.002 38.0529 140.099 36.7279C140.468 40.1498 139.499 42.4029 137.287 43.2904C136.196 43.7302 134.996 43.8261 133.849 43.5654C132.205 43.2154 131.112 42.156 130.412 40.606L127.956 41.6466C128.03 42.1219 128.217 42.5727 128.499 42.9623C130.012 45.2466 132.209 46.1935 134.881 46.2154C137.359 46.2341 139.568 45.6091 141.218 43.6248C142.468 42.1216 142.815 40.3123 142.827 38.4435C142.818 33.5341 142.818 28.6248 142.818 23.6904ZM139.546 33.7841C138.609 35.8466 136.684 36.9716 134.618 36.756C133.561 36.6642 132.559 36.2407 131.757 35.5459C130.954 34.8512 130.392 33.9207 130.149 32.8873C129.991 32.2752 129.916 31.6444 129.927 31.0123C129.896 28.9529 130.449 27.2623 131.993 26.0373C132.561 25.5781 133.224 25.253 133.935 25.0861C134.646 24.9193 135.385 24.915 136.097 25.0736C136.81 25.2322 137.478 25.5496 138.05 26.0022C138.623 26.4547 139.086 27.0307 139.405 27.6873C139.899 28.6237 140.168 29.6625 140.189 30.7209C140.211 31.7793 139.985 32.8282 139.531 33.7841H139.546Z" fill="#55585D"/>
<path d="M326.446 23.0217H323.902V25.0592C323.746 24.9561 323.693 24.9404 323.668 24.9029C321.227 21.5936 315.596 21.5905 312.824 25.0811C310.637 27.8373 310.262 32.2217 311.902 35.3279C314.568 40.3779 321.165 40.3904 323.74 36.8217C323.74 36.8217 323.821 36.8405 323.862 36.8498C324.174 40.9842 322.781 42.6655 320.834 43.3717C318.14 44.353 316.206 43.5686 314.052 40.653L311.69 41.6436C311.73 42.1176 311.906 42.57 312.196 42.9467C313.609 45.0842 315.634 46.1029 318.171 46.2061C320.79 46.3092 323.137 45.7561 324.909 43.6623C326.212 42.1217 326.531 40.2561 326.543 38.3342C326.574 33.4905 326.543 28.6467 326.543 23.8029C326.593 23.5388 326.559 23.2658 326.446 23.0217ZM323.887 30.8936C323.837 33.2248 323.087 35.1998 320.877 36.2967C317.752 37.8592 314.087 35.6498 313.712 31.9998C313.574 30.6467 313.609 29.2998 314.199 28.0217C315.137 26.0373 317.159 24.7655 319.115 24.978C320.227 25.0701 321.277 25.5244 322.106 26.2712C322.935 27.0181 323.496 28.0161 323.702 29.1123C323.848 29.6943 323.91 30.2941 323.887 30.8936Z" fill="#55585D"/>
<path d="M344.734 31.5216C344.781 31.2812 344.812 31.038 344.827 30.7935C344.832 30.3761 344.813 29.9588 344.771 29.5435C344.459 26.6029 343.209 24.231 340.352 23.0685C337.496 21.906 334.752 22.1498 332.349 24.1591C329.946 26.1685 329.252 28.8466 329.443 31.8716C329.796 37.4966 334.902 40.9341 340.552 38.9216C342.343 38.2966 343.627 36.9779 344.502 35.206L342.221 34.1123C339.83 36.9248 337.718 37.6185 335.23 36.4623C333.402 35.6154 331.974 33.2591 332.287 31.5185L344.734 31.5216ZM337.287 24.9591C339.715 24.9935 341.799 26.9091 341.79 29.1498H332.477C332.571 26.9248 334.871 24.9279 337.287 24.9623V24.9591Z" fill="#55585D"/>
<path d="M167.559 31.5122C167.716 30.828 167.733 30.1188 167.609 29.4278C166.881 22.4341 160.04 21.2091 156.256 23.4184C153.043 25.2934 151.727 28.9216 152.418 32.8372C153.224 37.4122 156.871 39.9966 161.481 39.4184C164.146 39.0872 166.062 37.6497 167.377 35.2184L165.071 34.0966C162.806 36.9372 160.446 37.6653 157.921 36.3841C156.152 35.4841 154.762 33.0559 155.184 31.5122H167.559ZM160.059 24.9497C162.515 24.9309 164.718 26.9309 164.618 29.1466H155.368C155.281 27.1028 157.662 24.9809 160.049 24.9591L160.059 24.9497Z" fill="#55585D"/>
<path d="M205.362 28.5841C205.343 26.5435 204.621 24.806 202.862 23.6529C200.846 22.3373 198.615 22.1998 196.337 22.6966C195.482 22.857 194.669 23.1889 193.946 23.6723C193.223 24.1557 192.605 24.7805 192.131 25.5091C192.713 26.1547 193.411 26.6847 194.19 27.0716C196.474 24.9029 198.771 24.3841 200.827 25.5716C201.523 25.9461 202.077 26.5372 202.405 27.2551C202.734 27.9731 202.82 28.7787 202.649 29.5498C202.527 29.5287 202.405 29.4995 202.287 29.4623C200.235 28.6733 197.995 28.5134 195.852 29.0029C191.881 29.831 190.121 34.281 192.555 37.3748C194.652 40.0498 199.48 40.1873 201.984 37.6873C202.206 37.4623 202.352 37.1435 202.706 37.0123C202.877 37.6966 202.649 38.3529 202.862 38.9685H205.362C205.368 35.4435 205.39 32.0123 205.362 28.5841ZM197.302 37.0216C195.065 36.781 193.749 34.9373 194.546 33.0466C194.749 32.5779 195.064 32.1661 195.464 31.8474C195.863 31.5287 196.335 31.3127 196.837 31.2185C198.674 30.7691 200.611 30.9908 202.299 31.8435C202.454 31.9349 202.6 32.0395 202.737 32.156C202.649 34.9904 199.952 37.2998 197.302 37.0123V37.0216Z" fill="#55585D"/>
<path d="M274.265 28.1154C274.266 27.3062 274.08 26.5076 273.72 25.7827C273.361 25.0577 272.838 24.426 272.193 23.9373C269.452 21.8279 264.777 21.9748 262.177 24.2498C261.74 24.631 261.265 25.0154 261.093 25.6654C261.752 26.156 262.393 26.6373 263.071 27.1466C265.393 24.8873 267.759 24.3623 269.846 25.5841C271.249 26.4216 271.996 28.0841 271.565 29.5123C271.421 29.4748 271.271 29.4435 271.13 29.3935C269.094 28.6381 266.88 28.499 264.765 28.9935C260.824 29.8779 259.121 34.1341 261.443 37.2841C263.184 39.6435 267.359 40.2248 269.943 38.4873C270.542 38.0271 271.106 37.5214 271.627 36.9748C271.827 37.6873 271.593 38.3498 271.796 38.9341H274.296C274.287 35.2904 274.334 31.7029 274.265 28.1154ZM265.318 36.806C264.24 36.431 263.443 35.7248 263.284 34.556C263.198 34.0371 263.263 33.5046 263.469 33.0209C263.676 32.5372 264.016 32.1223 264.449 31.8248C266.102 30.5748 270.074 30.7748 271.637 32.1998C271.521 35.4123 268.234 37.8123 265.318 36.806Z" fill="#55585D"/>
<path d="M308.274 29.1154C308.29 28.647 308.272 28.1781 308.221 27.7123C308.006 26.1904 307.381 24.8685 306.137 23.9185C303.552 21.9404 299.181 21.9466 296.543 23.9185C295.89 24.3454 295.365 24.943 295.027 25.6466L296.993 27.1248C299.865 24.7748 301.849 24.3654 303.899 25.6685C304.55 26.06 305.058 26.6485 305.352 27.3486C305.645 28.0487 305.708 28.8241 305.531 29.5623C303.388 28.6651 301.016 28.4704 298.756 29.006C296.765 29.506 295.118 30.5341 294.577 32.6623C294.037 34.7904 294.474 36.656 296.187 38.106C298.171 39.7904 301.609 39.9654 303.806 38.5498C304.47 38.0972 305.065 37.5497 305.571 36.9248C305.824 37.6654 305.571 38.3341 305.762 38.9373H308.284C308.277 35.6185 308.277 32.3748 308.274 29.1154ZM299.381 36.8279C298.109 36.431 297.34 35.5341 297.243 34.3279C297.192 33.725 297.337 33.1218 297.656 32.6078C297.976 32.0938 298.452 31.6965 299.015 31.4748C301.287 30.581 303.477 30.9091 305.599 32.0404C305.596 35.3123 302.331 37.7529 299.381 36.8279Z" fill="#55585D"/>
<path d="M106.356 30.5216C106.341 29.2668 106.039 28.032 105.473 26.9123C104.906 25.7926 104.09 24.8179 103.088 24.0632C102.085 23.3085 100.923 22.7939 99.69 22.5592C98.4573 22.3244 97.1871 22.3757 95.9774 22.7091C92.2805 23.6685 89.8961 26.9029 89.8899 30.8998C89.9086 31.2123 89.9243 31.4779 89.9399 31.7373C90.3336 38.0841 96.6961 41.2154 101.934 38.5841C105.184 36.956 106.44 34.0529 106.356 30.5216ZM102.506 34.6623C101.872 35.5812 100.966 36.2774 99.9146 36.6521C98.8634 37.0268 97.721 37.061 96.6493 36.7498C95.5245 36.4017 94.5353 35.7136 93.8178 34.7801C93.1004 33.8466 92.6899 32.7137 92.643 31.5373C92.643 31.3529 92.643 31.1716 92.643 30.9904C92.6711 28.8341 93.3868 27.0123 95.2711 25.8154C95.8562 25.4362 96.5108 25.1771 97.1969 25.0533C97.8831 24.9294 98.587 24.9432 99.2677 25.0938C99.9484 25.2444 100.592 25.5289 101.162 25.9307C101.732 26.3325 102.216 26.8435 102.587 27.4341C103.262 28.5221 103.613 29.7798 103.598 31.06C103.584 32.3402 103.205 33.5898 102.506 34.6623Z" fill="#55585D"/>
<path d="M116.827 22.4404C112.087 22.3935 108.581 25.9685 108.531 30.8935C108.481 35.8185 111.918 39.4622 116.656 39.4872C121.393 39.5122 124.937 35.9779 124.974 31.1247C125.006 26.1404 121.59 22.4872 116.827 22.4404ZM116.481 36.9404C115.644 36.9206 114.825 36.6954 114.096 36.2845C113.367 35.8736 112.75 35.2896 112.299 34.5841C111.575 33.4536 111.209 32.1309 111.249 30.7889C111.288 29.4469 111.732 28.1481 112.521 27.0622C113.177 26.2317 114.061 25.6115 115.065 25.2782C116.069 24.945 117.149 24.9133 118.171 25.1872C119.222 25.5087 120.156 26.1291 120.859 26.9726C121.563 27.8161 122.006 28.8462 122.134 29.9372C122.174 30.3247 122.19 30.7154 122.209 30.956C122.124 34.6029 119.727 37.0622 116.481 36.9404Z" fill="#55585D"/>
<path d="M32.2891 53.2469L22.7422 43.9375L43.2453 23L53.1297 32.6875L32.2891 53.2469Z" fill="#8AB4F8"/>
<path d="M32.3308 12.0875L22.8183 2.375L2.0183 22.9781C0.732113 24.267 0.00976563 26.0135 0.00976562 27.8344C0.00976563 29.6552 0.732113 31.4017 2.0183 32.6906L22.5058 53.3125L32.1933 44.25L16.5839 27.8344L32.3308 12.0875Z" fill="#4285F4"/>
<path d="M52.9922 23.1375L32.3672 2.51254C31.0723 1.25126 29.3327 0.550745 27.525 0.562649C25.7174 0.574553 23.9872 1.29792 22.709 2.57614C21.4307 3.85436 20.7074 5.58459 20.6955 7.39223C20.6836 9.19987 21.3841 10.9395 22.6453 12.2344L43.2704 32.8594C43.9056 33.5116 44.6641 34.0312 45.5018 34.3879C46.3394 34.7446 47.2396 34.9314 48.15 34.9374C49.0605 34.9433 49.963 34.7684 50.8053 34.4228C51.6476 34.0772 52.4129 33.5676 53.0567 32.9239C53.7005 32.2801 54.21 31.5148 54.5556 30.6725C54.9013 29.8302 55.0762 28.9277 55.0702 28.0172C55.0642 27.1068 54.8774 26.2066 54.5207 25.3689C54.164 24.5313 53.6444 23.7728 52.9922 23.1375Z" fill="#8AB4F8"/>
<path d="M27.3496 55.5C31.0603 55.5 34.0684 52.4919 34.0684 48.7812C34.0684 45.0706 31.0603 42.0625 27.3496 42.0625C23.6389 42.0625 20.6309 45.0706 20.6309 48.7812C20.6309 52.4919 23.6389 55.5 27.3496 55.5Z" fill="#1967D2"/>
</svg>
