<svg width="400" height="100" viewBox="0 0 400 100" fill="none" xmlns="http://www.w3.org/2000/svg">
<path d="M203.488 51.4562C202.676 50.8061 201.773 50.2772 200.81 49.8859C199.669 49.4175 198.484 49.0641 197.274 48.8312C196.56 48.685 195.856 48.4945 195.166 48.2609C194.627 48.0852 194.116 47.8326 193.649 47.5109C193.279 47.2509 192.969 46.916 192.738 46.528C192.494 46.0816 192.385 45.5745 192.423 45.0676C192.461 44.5606 192.645 44.0754 192.952 43.6702C193.346 43.2047 193.858 42.8534 194.435 42.653C195.866 42.1699 197.418 42.176 198.845 42.6702C199.546 42.9273 200.199 43.3019 200.774 43.778C201.402 44.3037 201.944 44.9242 202.381 45.6171L205.452 42.5812C204.914 41.6632 204.205 40.8569 203.363 40.2062C202.486 39.5359 201.494 39.0337 200.435 38.7249C199.209 38.375 197.94 38.2066 196.666 38.2249C195.49 38.2153 194.32 38.3958 193.202 38.7593C192.179 39.0898 191.222 39.5981 190.375 40.2609C189.586 40.8801 188.935 41.6584 188.466 42.5452C187.998 43.4374 187.758 44.4316 187.769 45.439C187.755 46.394 187.914 47.3437 188.238 48.2421C188.557 49.0789 189.057 49.8349 189.702 50.4562C190.419 51.146 191.253 51.7025 192.166 52.0999C193.268 52.5798 194.421 52.9331 195.603 53.153C196.292 53.2952 196.924 53.4515 197.495 53.6218C198.026 53.7731 198.541 53.9767 199.031 54.2296C199.441 54.439 199.825 54.6965 200.174 54.9968C200.47 55.2494 200.707 55.5645 200.868 55.9194C201.029 56.2743 201.109 56.6604 201.103 57.0499C201.108 57.6096 200.904 58.151 200.531 58.5687C200.103 59.041 199.562 59.3973 198.96 59.6046C198.25 59.862 197.5 59.989 196.745 59.9796C195.424 59.9983 194.12 59.6754 192.96 59.0421C191.841 58.4234 190.698 57.3046 189.531 55.6859L186.488 59.1218C187.219 60.1388 188.098 61.0413 189.095 61.7999C190.082 62.5444 191.193 63.1069 192.377 63.4609C193.676 63.842 195.024 64.0289 196.378 64.0155C198.253 64.0155 199.896 63.6999 201.306 63.0687C202.636 62.5003 203.771 61.5572 204.574 60.3546C205.347 59.1744 205.734 57.7635 205.735 56.1218C205.747 55.2261 205.551 54.3398 205.163 53.5327C204.759 52.7287 204.188 52.0205 203.488 51.4562Z" fill="#19232C"/>
<path d="M223.452 47.475C223.083 46.9272 222.638 46.4343 222.131 46.0109C221.518 45.4997 220.816 45.1062 220.059 44.85C219.219 44.5675 218.338 44.4286 217.452 44.439C215.886 44.4176 214.347 44.8519 213.023 45.689C211.695 46.5432 210.621 47.7399 209.916 49.1531C209.155 50.6302 208.774 52.3088 208.773 54.189C208.772 56.0693 209.153 57.7479 209.916 59.225C210.615 60.6296 211.66 61.8338 212.952 62.725C214.193 63.5757 215.666 64.0246 217.17 64.0109C218.04 64.0165 218.905 63.8712 219.725 63.5812C220.499 63.3073 221.232 62.9288 221.903 62.4562C222.477 62.053 222.989 61.567 223.42 61.014V63.6531H227.875V44.8312H223.445L223.452 47.475ZM221.095 59.3672C220.282 59.8748 219.339 60.1354 218.381 60.1172C217.428 60.1373 216.49 59.8765 215.684 59.3672C214.899 58.8543 214.274 58.1302 213.881 57.2781C213.435 56.3105 213.215 55.2542 213.237 54.189C213.217 53.1411 213.437 52.1024 213.881 51.1531C214.278 50.3073 214.904 49.5896 215.688 49.0812C216.493 48.5719 217.431 48.3111 218.384 48.3312C219.343 48.313 220.286 48.5736 221.098 49.0812C221.89 49.5893 222.525 50.3064 222.934 51.1531C223.39 52.0993 223.616 53.1392 223.595 54.189C223.617 55.256 223.391 56.3135 222.934 57.2781C222.528 58.1322 221.891 58.8557 221.095 59.3672Z" fill="#19232C"/>
<path d="M237.451 37.225H233.023V63.6532H237.451V37.225Z" fill="#19232C"/>
<path d="M256.916 47.064C256.123 46.2377 255.175 45.5761 254.125 45.1172C253.034 44.6367 251.853 44.3933 250.661 44.4031C249.334 44.3882 248.017 44.6373 246.786 45.1359C245.639 45.6026 244.604 46.3084 243.75 47.2062C242.896 48.1242 242.227 49.1993 241.782 50.3718C241.292 51.6603 241.05 53.0295 241.067 54.4078C241.067 56.2651 241.49 57.914 242.335 59.3547C243.179 60.7939 244.402 61.9738 245.871 62.7656C247.383 63.5989 249.127 64.0156 251.103 64.0156C252.008 64.0119 252.908 63.8916 253.782 63.6578C254.677 63.4234 255.545 63.0939 256.371 62.675C257.17 62.2742 257.91 61.7635 258.567 61.1578L256.38 58.1218C255.524 58.8614 254.726 59.3734 253.988 59.6578C253.212 59.9502 252.389 60.0954 251.56 60.0859C250.297 60.0859 249.196 59.8422 248.255 59.3547C247.338 58.8893 246.58 58.1622 246.077 57.2656C245.727 56.6359 245.496 55.9475 245.394 55.2343H259.282L259.317 53.6984C259.353 52.4402 259.153 51.1865 258.728 50.0015C258.335 48.9072 257.717 47.9069 256.916 47.064ZM247.719 48.975C248.516 48.5218 249.498 48.2953 250.664 48.2953C251.389 48.2868 252.106 48.4524 252.753 48.7781C253.373 49.0869 253.909 49.5403 254.316 50.1C254.725 50.6723 254.971 51.3444 255.03 52.0453V52.225H245.499C245.589 51.7746 245.733 51.3366 245.927 50.9203C246.307 50.1008 246.933 49.4206 247.719 48.975Z" fill="#19232C"/>
<path d="M275.416 54.7952C274.887 54.2403 274.257 53.792 273.559 53.4749C272.618 53.0381 271.638 52.6913 270.631 52.439C269.939 52.2904 269.26 52.0872 268.6 51.8312C268.192 51.6739 267.797 51.4831 267.42 51.2609C267.188 51.1001 266.999 50.8857 266.867 50.6359C266.736 50.3862 266.657 50.1124 266.634 49.8312C266.628 49.5278 266.695 49.2274 266.831 48.9562C266.963 48.7063 267.152 48.4919 267.384 48.3312C267.656 48.1514 267.959 48.0241 268.278 47.9562C268.677 47.8686 269.084 47.8267 269.492 47.8312C270.018 47.8408 270.538 47.944 271.028 48.1359C271.596 48.3479 272.14 48.617 272.653 48.939C273.184 49.2684 273.681 49.6511 274.134 50.0812L276.559 47.403C275.99 46.7678 275.32 46.2309 274.577 45.814C273.79 45.3683 272.95 45.0259 272.077 44.7952C271.174 44.5564 270.243 44.4366 269.309 44.439C268.402 44.4361 267.499 44.5683 266.63 44.8312C265.816 45.0719 265.054 45.4595 264.38 45.9749C263.757 46.4522 263.24 47.0541 262.863 47.7421C262.489 48.4393 262.299 49.22 262.309 50.0109C262.303 50.6424 262.406 51.2703 262.612 51.8671C262.812 52.4343 263.121 52.9563 263.523 53.403C264.09 54.0195 264.769 54.5227 265.523 54.8859C266.549 55.3882 267.627 55.777 268.738 56.0452C269.409 56.1965 270.071 56.3874 270.72 56.6171C271.115 56.7515 271.492 56.9314 271.845 57.153C272.053 57.3114 272.22 57.5173 272.332 57.7536C272.444 57.9899 272.497 58.2496 272.488 58.5109C272.492 58.8025 272.424 59.0906 272.291 59.3499C272.154 59.6062 271.966 59.8313 271.737 60.0109C271.489 60.2071 271.203 60.3526 270.898 60.439C270.543 60.5389 270.174 60.5868 269.805 60.5812C268.85 60.5857 267.904 60.4037 267.019 60.0452C266.095 59.6578 265.275 59.0583 264.625 58.2952L261.781 60.7609C262.637 61.825 263.749 62.6542 265.013 63.1702C266.435 63.7494 267.96 64.0353 269.495 64.0109C270.756 64.0309 272.005 63.775 273.156 63.2609C274.181 62.8083 275.068 62.0936 275.728 61.189C276.353 60.3147 276.681 59.2634 276.666 58.189C276.673 57.5466 276.577 56.9072 276.381 56.2952C276.189 55.723 275.857 55.2075 275.416 54.7952Z" fill="#19232C"/>
<path d="M307.844 49.0094H296.452V38.6531H291.808V63.6531H296.452V53.3672H307.844V63.6531H312.488V38.6531H307.844V49.0094Z" fill="#19232C"/>
<path d="M330.986 56.1172C330.991 56.6867 330.882 57.2515 330.665 57.7781C330.461 58.2754 330.157 58.7254 329.772 59.1C329.387 59.4717 328.932 59.7628 328.433 59.9562C327.892 60.1648 327.316 60.2682 326.736 60.2609C325.981 60.2823 325.237 60.0836 324.594 59.6891C323.988 59.2961 323.515 58.7298 323.236 58.064C322.904 57.2547 322.745 56.3853 322.767 55.5109V44.8312H318.375V56.4391C318.375 58.0109 318.635 59.362 319.156 60.4922C319.636 61.5732 320.433 62.4827 321.442 63.1C322.442 63.7062 323.62 64.0099 324.976 64.0109C325.999 64.0162 327.011 63.8031 327.945 63.3859C328.849 62.9861 329.667 62.4158 330.355 61.7062C330.606 61.4487 330.835 61.1695 331.037 60.8719L331.087 63.6531H335.375V44.8312H330.981L330.986 56.1172Z" fill="#19232C"/>
<path d="M355.254 45.6844C353.957 44.8511 352.462 44.4344 350.772 44.4344C350.006 44.4349 349.246 44.5616 348.522 44.8094C347.803 45.0511 347.12 45.3874 346.49 45.8094C345.907 46.1948 345.384 46.6639 344.937 47.2016L344.92 47.225V37.225H340.526V63.5813H344.776L344.831 61.3204C345.262 61.8192 345.761 62.2556 346.312 62.6172C346.981 63.0578 347.708 63.4009 348.473 63.636C349.265 63.8852 350.09 64.0117 350.92 64.011C352.472 64.0302 353.994 63.5886 355.295 62.7422C356.607 61.8784 357.66 60.6754 358.344 59.261C359.081 57.7849 359.45 56.0943 359.451 54.1891C359.451 52.3078 359.076 50.6292 358.326 49.1532C357.635 47.7404 356.573 46.5417 355.254 45.6844ZM354.522 57.2735C354.102 58.1294 353.461 58.8572 352.665 59.3813C351.867 59.8959 350.935 60.1629 349.986 60.1485C349.025 60.1661 348.081 59.8992 347.272 59.3813C346.476 58.8572 345.835 58.1294 345.415 57.2735C344.947 56.3124 344.714 55.2535 344.736 54.1844C344.715 53.1325 344.948 52.0911 345.415 51.1485C345.835 50.3026 346.477 49.5865 347.272 49.0766C348.092 48.5858 349.03 48.3267 349.987 48.3267C350.943 48.3267 351.881 48.5858 352.701 49.0766C353.494 49.586 354.131 50.3046 354.54 51.1532C354.979 52.1151 355.205 53.1605 355.201 54.2177C355.198 55.2749 354.966 56.319 354.522 57.2782V57.2735Z" fill="#19232C"/>
<path d="M357.721 38.7469H359.174V43.0906H360.627V38.7469H362.142V37.4031H357.721V38.7469Z" fill="#19232C"/>
<path d="M367.831 37.4031L366.08 40.3312L364.316 37.4031H362.939V43.0906H364.439L364.419 39.9969L365.548 41.9031H366.581L367.775 39.8547L367.753 43.0906H369.267V37.4031H367.831Z" fill="#19232C"/>
<path d="M46.3344 52.7H35.9375V63.6531H31V36.6281H35.9375V47.95H46.3344V36.6281H51.2719V63.6531H46.3344V52.7Z" fill="#19232C"/>
<path d="M67.0701 54.9187C67.0492 55.9879 66.6097 57.0063 65.8462 57.755C65.0826 58.5038 64.0559 58.9232 62.9865 58.9232C61.9171 58.9232 60.8903 58.5038 60.1268 57.755C59.3632 57.0063 58.9238 55.9879 58.9029 54.9187V43.3406H54.2263V54.9187C54.2571 57.2214 55.1934 59.4193 56.8326 61.0368C58.4718 62.6542 60.682 63.5611 62.9849 63.5611C65.2878 63.5611 67.498 62.6542 69.1372 61.0368C70.7764 59.4193 71.7127 57.2214 71.7435 54.9187V43.3406H67.0701V54.9187Z" fill="#19232C"/>
<path d="M101.762 44.5344C101.762 42.1609 103.333 41.4094 105.053 41.4094C106.438 41.4094 108.27 42.4625 109.466 43.7437L112.531 40.1297C111 38.0594 107.895 36.6219 105.353 36.6219C100.266 36.6219 96.6031 39.5906 96.6031 44.5281C96.6031 53.6765 107.786 50.7781 107.786 55.8984C107.786 57.4781 106.253 58.8672 104.505 58.8672C101.736 58.8672 100.837 57.5125 99.5672 56.0812L96.1562 59.6312C98.3266 62.3031 101.019 63.6594 104.236 63.6594C109.059 63.6594 112.95 60.6484 112.95 55.9406C112.945 45.7765 101.762 48.939 101.762 44.5344Z" fill="#19232C"/>
<path d="M170.948 59.3359C168.181 59.3359 167.395 58.1406 167.395 56.3062V48.1844H171.697V44.0781H167.395V38.6531L162.647 40.7844V57.3172C162.647 61.5437 165.564 63.675 169.564 63.675C170.192 63.687 170.82 63.6373 171.439 63.5265L172.598 59.2625C172.072 59.2984 171.469 59.3359 170.948 59.3359Z" fill="#19232C"/>
<path d="M84.8908 43.4782C82.5721 43.4782 80.9533 44.1516 79.3893 45.686V36.7891H74.7018V53.2782C74.7018 59.4485 79.1627 63.675 84.1768 63.675C89.7487 63.675 94.6315 59.3735 94.6315 53.5782C94.6299 47.8547 90.1283 43.4782 84.8908 43.4782ZM84.8612 58.9547C83.8108 58.9532 82.7844 58.6403 81.9118 58.0556C81.0392 57.4709 80.3595 56.6407 79.9586 55.6698C79.5577 54.6989 79.4536 53.631 79.6595 52.601C79.8654 51.571 80.372 50.6251 81.1152 49.883C81.8585 49.1408 82.8051 48.6356 83.8354 48.4312C84.8657 48.2269 85.9335 48.3325 86.9038 48.7349C87.8741 49.1372 88.7033 49.8181 89.2867 50.6916C89.8701 51.565 90.1815 52.5918 90.1815 53.6422C90.1815 54.3405 90.0438 55.032 89.7763 55.677C89.5089 56.3221 89.1169 56.9081 88.6227 57.4015C88.1286 57.8949 87.542 58.2861 86.8966 58.5526C86.2511 58.8191 85.5595 58.9557 84.8612 58.9547Z" fill="#19232C"/>
<path d="M135.811 53.3406C135.811 47.5437 130.928 43.2422 125.356 43.2422C120.342 43.2422 115.881 47.4688 115.881 53.6406V70.1219H120.568V61.225C122.131 62.7594 123.751 63.4328 126.07 63.4328C131.312 63.4328 135.811 59.0562 135.811 53.3406ZM131.362 53.2828C131.361 54.3329 131.048 55.3589 130.464 56.2313C129.879 57.1038 129.05 57.7835 128.079 58.1846C127.109 58.5857 126.041 58.6903 125.011 58.485C123.982 58.2798 123.036 57.774 122.293 57.0315C121.551 56.289 121.045 55.3431 120.84 54.3133C120.634 53.2835 120.739 52.216 121.14 51.2456C121.541 50.2752 122.221 49.4454 123.093 48.8611C123.966 48.2767 124.992 47.964 126.042 47.9625C126.74 47.9615 127.432 48.0982 128.078 48.3648C128.723 48.6314 129.31 49.0227 129.804 49.5163C130.298 50.0099 130.69 50.596 130.958 51.2413C131.225 51.8865 131.362 52.5781 131.362 53.2766V53.2828Z" fill="#19232C"/>
<path d="M150.967 43.0094V38.2969C151.59 38.0062 152.117 37.5446 152.487 36.9659C152.858 36.3872 153.056 35.7152 153.059 35.0281V34.9188C153.056 33.9592 152.673 33.0399 151.995 32.3613C151.316 31.6828 150.397 31.3002 149.437 31.2969H149.328C148.368 31.2993 147.448 31.6817 146.769 32.3603C146.09 33.039 145.707 33.9588 145.705 34.9188V35.0281C145.707 35.7151 145.905 36.3872 146.275 36.9659C146.646 37.5447 147.173 38.0063 147.795 38.2969V43.0094C146.006 43.2835 144.322 44.0245 142.911 45.1578L129.976 35.0953C130.189 34.2717 130.138 33.4023 129.832 32.6089C129.525 31.8155 128.978 31.1378 128.268 30.6706C127.557 30.2033 126.718 29.9699 125.868 30.0031C125.018 30.0363 124.2 30.3343 123.528 30.8555C122.856 31.3768 122.364 32.0951 122.12 32.9099C121.876 33.7248 121.894 34.5955 122.169 35.4C122.445 36.2046 122.965 36.9029 123.658 37.3971C124.35 37.8913 125.179 38.1567 126.03 38.1562C126.737 38.1533 127.431 37.9648 128.042 37.6094L140.767 47.5078C139.622 49.236 139.025 51.2692 139.052 53.3421C139.08 55.415 139.732 57.4313 140.923 59.1281L137.055 62.9969C136.323 62.7677 135.536 62.7903 134.82 63.0611C134.103 63.3319 133.498 63.8353 133.101 64.4907C132.704 65.1462 132.538 65.9158 132.63 66.6765C132.722 67.4372 133.066 68.1451 133.608 68.6869C134.15 69.2287 134.858 69.5732 135.619 69.6653C136.379 69.7573 137.149 69.5916 137.804 69.1946C138.46 68.7977 138.963 68.1924 139.234 67.4756C139.505 66.7587 139.528 65.9718 139.298 65.2406L143.126 61.4125C144.376 62.3673 145.827 63.0239 147.37 63.3321C148.912 63.6404 150.504 63.5922 152.025 63.1912C153.545 62.7903 154.954 62.0471 156.144 61.0185C157.334 59.9899 158.272 58.7031 158.889 57.2562C159.505 55.8094 159.783 54.2409 159.701 52.6704C159.618 51.0999 159.178 49.5689 158.414 48.1944C157.65 46.82 156.582 45.6383 155.291 44.7397C154 43.8411 152.521 43.2492 150.967 43.0094ZM149.381 58.4969C148.334 58.4969 147.309 58.1862 146.438 57.6042C145.567 57.0222 144.888 56.1949 144.487 55.227C144.087 54.2592 143.982 53.1941 144.186 52.1666C144.39 51.1391 144.895 50.1953 145.636 49.4545C146.376 48.7138 147.32 48.2093 148.348 48.0049C149.375 47.8005 150.44 47.9054 151.408 48.3063C152.376 48.7072 153.203 49.3861 153.785 50.2572C154.367 51.1283 154.678 52.1524 154.678 53.2C154.678 53.8957 154.541 54.5845 154.275 55.2273C154.009 55.87 153.619 56.454 153.127 56.9459C152.635 57.4378 152.051 57.828 151.408 58.0941C150.766 58.3602 150.077 58.4971 149.381 58.4969Z" fill="#FF5C35"/>
</svg>
