<svg width="258" height="60" viewBox="0 0 258 60" fill="none" xmlns="http://www.w3.org/2000/svg">
<g clip-path="url(#clip0_902_3461)">
<path fill-rule="evenodd" clip-rule="evenodd" d="M30.7539 0C47.3114 0 60.7539 13.4426 60.7539 30C60.7539 46.5574 47.3114 60 30.7539 60C14.1965 60 0.753906 46.5574 0.753906 30C0.753906 13.4426 14.1965 0 30.7539 0ZM30.7539 23.6067L21.8841 33.4089H39.6237L30.7539 23.6067Z" fill="url(#paint0_linear_902_3461)"/>
<path d="M62.2583 -38.9594L111.416 15.855L72.2069 51.0178L23.0491 -3.79656L62.2583 -38.9594Z" fill="url(#paint1_linear_902_3461)"/>
<path d="M13.0972 101.749L-36.0605 46.9346L3.14861 11.7717L52.3063 66.5861L13.0972 101.749Z" fill="url(#paint2_linear_902_3461)"/>
<path d="M21.9136 92.7304L-27.2441 37.916L11.965 2.75319L61.1228 57.5676L21.9136 92.7304Z" fill="url(#paint3_linear_902_3461)"/>
<path d="M65.8782 108.294L-7.75 108.294L-7.75 55.6272L65.8782 55.6272L65.8782 108.294Z" fill="url(#paint4_linear_902_3461)"/>
<path d="M56.1807 107.304L105.918 53.0142L67.0846 17.4368L17.3473 71.7262L56.1807 107.304Z" fill="url(#paint5_linear_902_3461)"/>
<path d="M5.08298 -44.5648L-44.6543 9.72461L-5.82088 45.302L43.9164 -8.98739L5.08298 -44.5648Z" fill="url(#paint6_linear_902_3461)"/>
<path d="M13.8935 -35.7543L-35.8438 18.5352L2.98967 54.1126L52.7269 -0.176846L13.8935 -35.7543Z" fill="url(#paint7_linear_902_3461)"/>
<path d="M62.0906 33.4121H-0.09375V45.0955H62.0906V33.4121Z" fill="url(#paint8_linear_902_3461)"/>
</g>
<path d="M76.1094 40.2851C76.7584 38.0234 77.5057 35.688 78.3514 33.2788C79.197 30.8696 80.087 28.4998 81.0211 26.1693C81.9651 23.8289 82.9091 21.6508 83.8531 19.635H87.5701C88.5141 21.6508 89.4581 23.8289 90.4021 26.1693C91.3461 28.4998 92.236 30.8696 93.0719 33.2788C93.9175 35.688 94.6649 38.0234 95.3139 40.2851H91.9361C91.71 39.4197 91.4592 38.5298 91.1839 37.6153C90.9184 36.7008 90.6381 35.7715 90.3431 34.8275H80.9769C80.6819 35.7715 80.3967 36.7008 80.1214 37.6153C79.8559 38.5298 79.61 39.4197 79.3839 40.2851H76.1094ZM81.9504 31.9365H89.3696C88.7796 30.2452 88.165 28.5834 87.5259 26.951C86.8965 25.3088 86.2721 23.7699 85.6526 22.3343C85.043 23.7699 84.4185 25.3088 83.7794 26.951C83.15 28.5834 82.5404 30.2452 81.9504 31.9365Z" fill="#000008"/>
<path d="M103.708 40.6391C102.4 40.6391 101.255 40.3096 100.271 39.6508C99.298 38.9821 98.5408 38.0676 98 36.9073C97.4592 35.7371 97.1887 34.4047 97.1887 32.91C97.1887 31.4154 97.4592 30.0879 98 28.9275C98.5408 27.7574 99.298 26.8429 100.271 26.184C101.255 25.5154 102.4 25.181 103.708 25.181H104.033C105.006 25.181 105.906 25.3924 106.732 25.8153C107.568 26.2283 108.256 26.8478 108.797 27.6738V18.75H111.747V40.2851H108.797V37.9693C108.286 38.8543 107.617 39.523 106.791 39.9753C105.965 40.4178 105.046 40.6391 104.033 40.6391H103.708ZM104.446 37.9103H104.741C105.616 37.9103 106.403 37.6497 107.101 37.1285C107.809 36.6074 108.374 35.8945 108.797 34.9898V30.8303C108.374 29.9256 107.809 29.2127 107.101 28.6915C106.403 28.1704 105.616 27.9098 104.741 27.9098H104.446C103.158 27.9098 102.135 28.3424 101.378 29.2078C100.621 30.0731 100.242 31.3072 100.242 32.91C100.242 34.5129 100.621 35.747 101.378 36.6123C102.135 37.4776 103.158 37.9103 104.446 37.9103Z" fill="#000008"/>
<path d="M121.417 40.6391C119.932 40.6391 118.653 40.3981 117.582 39.9163C116.51 39.4345 115.615 38.7166 114.897 37.7628L116.903 35.919C117.965 37.3449 119.46 38.0578 121.387 38.0578H121.682C122.656 38.0578 123.408 37.9103 123.939 37.6153C124.48 37.3105 124.75 36.8729 124.75 36.3025C124.75 35.8305 124.573 35.4421 124.219 35.1373C123.875 34.8325 123.241 34.5866 122.316 34.3998L119.794 33.8688C116.864 33.2591 115.399 31.8923 115.399 29.7683C115.399 28.3916 115.934 27.2854 117.006 26.4495C118.078 25.6039 119.499 25.181 121.269 25.181H121.594C124.111 25.181 126.043 26.1152 127.39 27.9835L125.384 29.6503C124.873 28.9718 124.298 28.4899 123.659 28.2048C123.029 27.9098 122.331 27.7623 121.564 27.7623H121.269C120.394 27.7623 119.681 27.9147 119.13 28.2195C118.589 28.5244 118.319 28.957 118.319 29.5175C118.319 29.9404 118.486 30.2796 118.821 30.5353C119.165 30.7811 119.74 30.9925 120.546 31.1695L123.496 31.8038C124.765 32.0791 125.778 32.5708 126.535 33.2788C127.292 33.977 127.671 34.9259 127.671 36.1255C127.671 37.4334 127.164 38.5151 126.151 39.3706C125.148 40.2162 123.678 40.6391 121.741 40.6391H121.417Z" fill="#000008"/>
<path d="M138.132 40.2851V19.635H141.82L149.047 32.3053L156.23 19.635H159.918V40.2851H156.909V23.942L150.448 35.329H147.602L141.141 24.0158V40.2851H138.132Z" fill="#000008"/>
<path d="M168.963 40.5801C167.41 40.5801 166.2 40.1818 165.335 39.3853C164.479 38.579 164.051 37.5219 164.051 36.214C164.051 34.916 164.533 33.8295 165.497 32.9543C166.47 32.0791 168.019 31.6415 170.143 31.6415H174.155V31.5973C174.155 29.1193 173.015 27.8803 170.733 27.8803C169.779 27.8803 168.973 28.0524 168.314 28.3965C167.665 28.7407 167.139 29.2225 166.736 29.842L164.715 28.2048C165.345 27.2313 166.171 26.4839 167.193 25.9628C168.226 25.4416 169.396 25.181 170.704 25.181H171.028C172.838 25.181 174.293 25.7022 175.394 26.7445C176.496 27.7869 177.046 29.3454 177.046 31.4203V40.2851H174.214V37.8808C173.644 38.7461 172.911 39.4148 172.016 39.8868C171.122 40.349 170.104 40.5801 168.963 40.5801ZM169.612 37.9545C170.753 37.9545 171.702 37.6989 172.459 37.1875C173.216 36.6664 173.782 35.9633 174.155 35.0783V33.9573H170.261C169.101 33.9573 168.27 34.1441 167.768 34.5178C167.277 34.8816 167.031 35.3782 167.031 36.0075C167.031 37.3055 167.891 37.9545 169.612 37.9545Z" fill="#000008"/>
<path d="M181.142 40.2851V25.535H184.092V27.9983C184.632 27.1231 185.306 26.4348 186.112 25.9333C186.929 25.4318 187.873 25.181 188.944 25.181H189.269C190.901 25.181 192.18 25.7563 193.104 26.9068C194.038 28.0573 194.505 29.6749 194.505 31.7595V40.2851H191.555V32.1135C191.555 29.3209 190.542 27.9245 188.517 27.9245H188.222C187.219 27.9245 186.363 28.2343 185.655 28.8538C184.957 29.4733 184.436 30.255 184.092 31.199V40.2851H181.142Z" fill="#000008"/>
<path d="M202.612 40.5801C201.058 40.5801 199.848 40.1818 198.983 39.3853C198.128 38.579 197.7 37.5219 197.7 36.214C197.7 34.916 198.182 33.8295 199.145 32.9543C200.119 32.0791 201.668 31.6415 203.792 31.6415H207.804V31.5973C207.804 29.1193 206.663 27.8803 204.382 27.8803C203.428 27.8803 202.621 28.0524 201.963 28.3965C201.314 28.7407 200.788 29.2225 200.384 29.842L198.364 28.2048C198.993 27.2313 199.819 26.4839 200.842 25.9628C201.874 25.4416 203.044 25.181 204.352 25.181H204.677C206.486 25.181 207.941 25.7022 209.043 26.7445C210.144 27.7869 210.695 29.3454 210.695 31.4203V40.2851H207.863V37.8808C207.292 38.7461 206.56 39.4148 205.665 39.8868C204.77 40.349 203.752 40.5801 202.612 40.5801ZM203.261 37.9545C204.401 37.9545 205.35 37.6989 206.107 37.1875C206.865 36.6664 207.43 35.9633 207.804 35.0783V33.9573H203.91C202.749 33.9573 201.918 34.1441 201.417 34.5178C200.925 34.8816 200.679 35.3782 200.679 36.0075C200.679 37.3055 201.54 37.9545 203.261 37.9545Z" fill="#000008"/>
<path d="M220.498 40.3441C219.19 40.3441 218.045 40.0196 217.062 39.3706C216.088 38.7117 215.331 37.812 214.79 36.6713C214.249 35.5306 213.979 34.2277 213.979 32.7625C213.979 31.2974 214.249 29.9944 214.79 28.8538C215.331 27.7131 216.088 26.8183 217.062 26.1693C218.045 25.5104 219.19 25.181 220.498 25.181H220.823C221.747 25.181 222.603 25.3678 223.389 25.7415C224.186 26.1152 224.854 26.6659 225.395 27.3935V25.535H228.316V39.0313C228.316 40.7915 228.011 42.2468 227.401 43.3973C226.792 44.5576 225.951 45.4181 224.879 45.9786C223.817 46.5489 222.598 46.8341 221.221 46.8341H220.926C219.618 46.8341 218.433 46.5735 217.371 46.0523C216.309 45.5312 215.434 44.774 214.746 43.7808L216.885 41.9961C217.347 42.6844 217.902 43.2056 218.551 43.5596C219.21 43.9136 220.002 44.0906 220.926 44.0906C222.362 44.0906 223.463 43.7021 224.23 42.9253C225.007 42.1583 225.395 40.9586 225.395 39.3263V37.984C224.874 38.7609 224.22 39.3509 223.434 39.7541C222.647 40.1474 221.777 40.3441 220.823 40.3441H220.498ZM221.236 37.6153H221.531C222.347 37.6153 223.084 37.394 223.743 36.9515C224.412 36.4992 224.963 35.8748 225.395 35.0783V30.4468C224.963 29.6503 224.412 29.0308 223.743 28.5883C223.084 28.1359 222.347 27.9098 221.531 27.9098H221.236C219.948 27.9098 218.925 28.3326 218.168 29.1783C217.411 30.0141 217.032 31.2089 217.032 32.7625C217.032 34.3162 217.411 35.5159 218.168 36.3615C218.925 37.1974 219.948 37.6153 221.236 37.6153Z" fill="#000008"/>
<path d="M238.69 40.6391C237.274 40.6391 236.03 40.3146 234.959 39.6656C233.897 39.0166 233.066 38.1119 232.466 36.9515C231.876 35.7912 231.581 34.449 231.581 32.9248C231.581 31.4006 231.876 30.0584 232.466 28.898C233.066 27.7279 233.897 26.8183 234.959 26.1693C236.03 25.5104 237.274 25.181 238.69 25.181H239.015C240.303 25.181 241.434 25.5006 242.407 26.1398C243.391 26.7691 244.158 27.6836 244.708 28.8833C245.259 30.0731 245.534 31.5088 245.534 33.1903V34.09H234.634C234.811 35.2995 235.263 36.2534 235.991 36.9515C236.729 37.6399 237.687 37.984 238.867 37.984H239.162C239.87 37.984 240.549 37.8415 241.198 37.5563C241.847 37.2613 242.393 36.868 242.835 36.3763L244.649 38.2938C243.981 39.0116 243.155 39.582 242.171 40.0048C241.198 40.4276 240.146 40.6391 239.015 40.6391H238.69ZM238.602 27.836C237.55 27.836 236.67 28.1851 235.962 28.8833C235.263 29.5716 234.821 30.5156 234.634 31.7153H242.57C242.481 30.6238 242.122 29.7044 241.493 28.957C240.873 28.2097 240.008 27.836 238.897 27.836H238.602Z" fill="#000008"/>
<path d="M248.986 40.2851V25.535H251.936V27.777C252.919 26.0464 254.271 25.181 255.992 25.181C256.464 25.181 256.892 25.2204 257.275 25.299V28.2785C257.039 28.249 256.784 28.2244 256.508 28.2048C256.243 28.1851 255.982 28.1753 255.727 28.1753C254.753 28.1753 253.957 28.4555 253.337 29.016C252.718 29.5765 252.251 30.3435 251.936 31.317V40.2851H248.986Z" fill="#000008"/>
<defs>
<linearGradient id="paint0_linear_902_3461" x1="12.4364" y1="17.515" x2="50.606" y2="50.9569" gradientUnits="userSpaceOnUse">
<stop stop-color="#01BB99"/>
<stop offset="1" stop-color="#206ED4"/>
</linearGradient>
<linearGradient id="paint1_linear_902_3461" x1="59.1305" y1="32.0084" x2="48.5228" y2="-2.83972" gradientUnits="userSpaceOnUse">
<stop stop-color="#094FCF" stop-opacity="0.4"/>
<stop offset="0.53" stop-color="#094FCF" stop-opacity="0.111373"/>
<stop offset="1" stop-color="#094FCF" stop-opacity="0"/>
</linearGradient>
<linearGradient id="paint2_linear_902_3461" x1="26.3531" y1="37.6806" x2="17.775" y2="45.5312" gradientUnits="userSpaceOnUse">
<stop stop-color="#094FCF" stop-opacity="0.1"/>
<stop offset="0.53" stop-color="#094FCF" stop-opacity="0.027451"/>
<stop offset="1" stop-color="#094FCF" stop-opacity="0"/>
</linearGradient>
<linearGradient id="paint3_linear_902_3461" x1="35.246" y1="28.6814" x2="27.1411" y2="36.5672" gradientUnits="userSpaceOnUse">
<stop stop-color="#094FCF" stop-opacity="0.1"/>
<stop offset="0.53" stop-color="#094FCF" stop-opacity="0.027451"/>
<stop offset="1" stop-color="#094FCF" stop-opacity="0"/>
</linearGradient>
<linearGradient id="paint4_linear_902_3461" x1="27.7673" y1="55.8076" x2="28.2069" y2="82.6073" gradientUnits="userSpaceOnUse">
<stop stop-color="#5994FE" stop-opacity="0.2"/>
<stop offset="1" stop-color="#5994FE" stop-opacity="0"/>
</linearGradient>
<linearGradient id="paint5_linear_902_3461" x1="43.7497" y1="43.4258" x2="52.3143" y2="51.2075" gradientUnits="userSpaceOnUse">
<stop stop-color="#094FCF" stop-opacity="0.3"/>
<stop offset="1" stop-color="#094FCF" stop-opacity="0"/>
</linearGradient>
<linearGradient id="paint6_linear_902_3461" x1="18.0907" y1="19.1248" x2="12.1303" y2="13.3257" gradientUnits="userSpaceOnUse">
<stop stop-color="#094FCF" stop-opacity="0.05"/>
<stop offset="0.53" stop-color="#094FCF" stop-opacity="0.0137255"/>
<stop offset="1" stop-color="#094FCF" stop-opacity="0"/>
</linearGradient>
<linearGradient id="paint7_linear_902_3461" x1="26.8263" y1="27.7578" x2="21.2814" y2="21.9029" gradientUnits="userSpaceOnUse">
<stop stop-color="#094FCF" stop-opacity="0.05"/>
<stop offset="0.53" stop-color="#094FCF" stop-opacity="0.0137255"/>
<stop offset="1" stop-color="#094FCF" stop-opacity="0"/>
</linearGradient>
<linearGradient id="paint8_linear_902_3461" x1="59.5188" y1="38.6874" x2="10.6208" y2="38.5023" gradientUnits="userSpaceOnUse">
<stop stop-color="#094FCF" stop-opacity="0.4"/>
<stop offset="1" stop-color="#094FCF" stop-opacity="0"/>
</linearGradient>
<clipPath id="clip0_902_3461">
<rect x="0.753906" width="60" height="60" rx="30" fill="white"/>
</clipPath>
</defs>
</svg>
