<svg width="186" height="50" viewBox="0 0 186 50" fill="none" xmlns="http://www.w3.org/2000/svg">
<path d="M25.3483 14.352C24.8912 17.252 22.6493 19.388 18.3585 19.388H12.8752L14.5386 8.84126H19.9258C24.3607 8.84126 25.8043 11.4578 25.3483 14.352ZM19.151 28.2195C27.0185 28.2195 33.6963 22.4793 34.9164 14.7011C36.1462 6.85725 30.0185 0.0166724 21.3331 0H7.33995C6.80054 0 6.34156 0.392291 6.25722 0.925807L0.0128535 40.5276C-0.0852203 41.1425 0.390438 41.6986 1.01321 41.6986H8.41974C8.95817 41.6986 9.41715 41.3063 9.5015 40.7738L11.3365 29.1443C11.4198 28.6118 11.8788 28.2195 12.4182 28.2195H19.151Z" fill="#003087"/>
<path d="M56.6779 27.4698C56.064 31.3594 52.8746 34.2241 48.784 34.2241C47.9778 34.2241 47.2383 34.1133 46.5753 33.9005C43.5429 32.9266 41.8119 30.0129 42.3101 26.8539C42.9241 22.9644 46.1232 20.0997 50.2139 20.0997C51.021 20.0997 51.7605 20.2105 52.4225 20.4233C55.4559 21.3972 57.1761 24.3109 56.6779 27.4698ZM67.008 12.4814H59.9781C59.4387 12.4814 58.9797 12.8737 58.8964 13.4062L58.6659 14.8655C58.6659 14.8655 53.2081 8.90368 43.5468 12.9286C38.0056 15.2382 35.3439 20.0124 34.2141 23.493C34.2141 23.493 30.6187 34.1104 38.7451 39.9437C38.7451 39.9437 46.2811 45.5584 54.7655 39.5965L54.6194 40.5273C54.5223 41.1422 54.9969 41.6982 55.6197 41.6982H62.6496C63.189 41.6982 63.648 41.306 63.7324 40.7734L68.0094 13.6524C68.1065 13.0375 67.6308 12.4814 67.008 12.4814Z" fill="#003087"/>
<path d="M126.594 14.352C126.137 17.252 123.896 19.388 119.604 19.388H114.121L115.784 8.84126H121.171C125.606 8.84126 127.05 11.4578 126.594 14.352ZM120.397 28.2195C128.264 28.2195 134.942 22.4793 136.161 14.7011C137.392 6.85725 131.264 0.0166724 122.579 0H108.586C108.046 0 107.587 0.392291 107.503 0.925807L101.259 40.5276C101.161 41.1425 101.636 41.6986 102.259 41.6986H109.665C110.204 41.6986 110.663 41.3063 110.747 40.7738L112.582 29.1443C112.666 28.6118 113.125 28.2195 113.664 28.2195H120.397Z" fill="#0070E0"/>
<path d="M157.916 27.4698C157.302 31.3594 154.113 34.2241 150.022 34.2241C149.216 34.2241 148.477 34.1133 147.814 33.9005C144.781 32.9266 143.05 30.0129 143.548 26.8539C144.162 22.9644 147.361 20.0997 151.452 20.0997C152.259 20.0997 152.999 20.2105 153.661 20.4233C156.694 21.3972 158.414 24.3109 157.916 27.4698ZM168.246 12.4814H161.216C160.677 12.4814 160.218 12.8737 160.135 13.4062L159.904 14.8655C159.904 14.8655 154.446 8.90368 144.785 12.9286C139.244 15.2382 136.582 20.0124 135.452 23.493C135.452 23.493 131.857 34.1104 139.983 39.9437C139.983 39.9437 147.519 45.5584 156.004 39.5965L155.858 40.5273C155.761 41.1422 156.236 41.6982 156.859 41.6982H163.888C164.427 41.6982 164.886 41.306 164.971 40.7734L169.248 13.6524C169.345 13.0375 168.869 12.4814 168.246 12.4814Z" fill="#0070E0"/>
<path d="M92.8143 13.1541L84.3407 27.4599L80.0392 13.26C79.8989 12.798 79.4733 12.4823 78.9908 12.4823H71.343C70.7859 12.4823 70.3907 13.0256 70.5613 13.5562L78.268 37.4741L71.2988 48.7466C70.9605 49.2939 71.3538 50 71.9971 50H80.2343C80.7129 50 81.1582 49.7499 81.4053 49.34L102.932 13.7288C103.262 13.1815 102.868 12.4823 102.228 12.4823H93.9921C93.5086 12.4823 93.0604 12.7382 92.8143 13.1541Z" fill="#003087"/>
<path d="M176.156 0.925787L169.91 40.5276C169.813 41.1425 170.289 41.6995 170.912 41.6995H178.317C178.856 41.6995 179.314 41.3073 179.399 40.7747L185.644 1.17195C185.741 0.557032 185.266 0.000959396 184.644 0.000959396H177.237C176.699 0.000959396 176.24 0.393251 176.156 0.925787Z" fill="#0070E0"/>
</svg>
