<svg width="300" height="100" viewBox="0 0 300 100" fill="none" xmlns="http://www.w3.org/2000/svg">
<path d="M139.463 14.8402C143.616 10.5378 149.402 7.82019 155.783 7.82019C164.289 7.82019 171.658 12.5674 175.613 19.5891C179.026 18.0565 182.833 17.2155 186.838 17.2155C202.17 17.2155 214.531 29.7263 214.531 45.1564C214.531 60.5865 202.119 73.0938 186.838 73.0938C184.961 73.0938 183.13 72.8958 181.399 72.55C177.938 78.7307 171.31 82.9357 163.693 82.9357C160.53 82.9357 157.512 82.1937 154.841 80.9079C151.331 89.1668 143.12 95 133.575 95C123.636 95 115.13 88.7203 111.865 79.8653C110.417 80.1626 108.942 80.3116 107.464 80.3102C95.5954 80.3102 86 70.6177 86 58.6004C86 50.6073 90.3024 43.5665 96.7318 39.808C95.3973 36.7915 94.6553 33.431 94.6553 29.8688C94.6101 16.1764 105.835 5.00004 119.58 5.00004C123.429 4.99357 127.227 5.87865 130.676 7.58589C134.125 9.29313 137.132 11.7761 139.461 14.8402" fill="#00A1E0"/>
<path d="M104.599 51.6832L105.143 50.2497C105.242 50.0029 105.389 50.102 105.49 50.1506L105.935 50.446C107.468 51.4365 108.903 51.4365 109.348 51.4365C110.486 51.4365 111.225 50.8422 111.225 50.0029V49.9543C111.225 49.0646 110.137 48.7206 108.851 48.3209L108.555 48.2219C106.825 47.7267 104.945 46.9882 104.945 44.8092V44.7605C104.945 42.6841 106.627 41.1984 109.049 41.1984H109.296C110.729 41.1984 112.066 41.5946 113.054 42.2375C113.153 42.2862 113.252 42.3852 113.202 42.5329L112.658 43.9664C112.559 44.2132 112.311 44.0655 112.311 44.0655C111.421 43.5703 110.086 43.2245 108.948 43.2245C107.909 43.2245 107.266 43.7684 107.266 44.5103V44.559C107.266 45.4 108.404 45.7927 109.69 46.1923L109.937 46.241C111.668 46.7849 113.499 47.5268 113.499 49.6537V49.7023C113.499 51.9786 111.866 53.3618 109.245 53.3618C107.959 53.3618 106.726 53.1637 105.388 52.4721C105.141 52.3244 104.892 52.2253 104.646 52.0273C104.597 51.9282 104.498 51.8796 104.597 51.6797L104.599 51.6832ZM143.175 51.6832L143.719 50.2497C143.818 50.0029 144.014 50.102 144.066 50.1506L144.511 50.446C146.044 51.4365 147.479 51.4365 147.924 51.4365C149.062 51.4365 149.801 50.8422 149.801 50.0029V49.9543C149.801 49.0646 148.713 48.7206 147.427 48.3209L147.132 48.2219C145.401 47.7267 143.521 46.9882 143.521 44.8092V44.7605C143.521 42.6841 145.203 41.1984 147.625 41.1984H147.872C149.305 41.1984 150.642 41.5946 151.63 42.2375C151.729 42.2862 151.828 42.3852 151.778 42.5329L151.234 43.9664C151.135 44.2132 150.887 44.0655 150.887 44.0655C149.997 43.5703 148.662 43.2245 147.524 43.2245C146.485 43.2245 145.842 43.7684 145.842 44.5103V44.559C145.842 45.4 146.98 45.7927 148.266 46.1923L148.513 46.241C150.244 46.7849 152.075 47.5268 152.075 49.6537V49.7023C152.075 51.9786 150.442 53.3618 147.821 53.3618C146.536 53.3618 145.302 53.1637 143.964 52.4721C143.717 52.3244 143.469 52.2253 143.222 52.0273C143.222 51.9282 143.123 51.8796 143.173 51.6797L143.175 51.6832ZM171.759 44.9065C171.957 45.6485 172.107 46.4391 172.107 47.2801C172.107 48.1211 172.008 48.9134 171.759 49.6537C171.561 50.3956 171.215 51.0386 170.769 51.5651C170.311 52.114 169.737 52.5534 169.087 52.8509C168.395 53.1463 167.603 53.2957 166.713 53.2957C165.824 53.2957 165.031 53.148 164.34 52.8509C163.648 52.5538 163.106 52.1089 162.658 51.5651C162.209 51.0212 161.867 50.3783 161.667 49.6537C161.467 48.9291 161.32 48.1211 161.32 47.2801C161.32 46.4391 161.419 45.6467 161.667 44.9065C161.865 44.1645 162.211 43.5216 162.658 42.9951C163.115 42.4461 163.69 42.0067 164.34 41.7093C165.089 41.3838 165.896 41.2152 166.713 41.2141C167.603 41.2141 168.395 41.3618 169.087 41.7093C169.778 42.0047 170.321 42.4512 170.769 42.9951C171.217 43.539 171.56 44.1819 171.759 44.9065ZM169.535 47.2314C169.535 45.9456 169.288 44.9552 168.844 44.2636C168.399 43.572 167.657 43.2245 166.717 43.2245C165.726 43.2245 165.035 43.572 164.59 44.2636C164.145 44.9552 163.898 45.9456 163.898 47.2314C163.898 48.5173 164.145 49.5077 164.59 50.2479C165.035 50.9395 165.728 51.287 166.717 51.287C167.705 51.287 168.399 50.9395 168.844 50.2479C169.339 49.5564 169.535 48.5173 169.535 47.2314ZM189.861 50.9395L190.404 52.4234C190.453 52.6215 190.305 52.6702 190.305 52.6702C189.464 53.0177 188.328 53.2141 187.19 53.2141C185.278 53.2141 183.827 52.6702 182.839 51.5807C181.85 50.4912 181.355 49.009 181.355 47.1793C181.355 46.3383 181.454 45.5459 181.702 44.8057C181.951 44.0655 182.297 43.4208 182.79 42.8943C183.284 42.3425 183.892 41.9038 184.571 41.6085C185.354 41.2782 186.195 41.1098 187.044 41.1133C187.589 41.1154 188.134 41.1485 188.675 41.2123C189.171 41.3114 189.862 41.4591 190.159 41.6085C190.208 41.6085 190.358 41.7075 190.307 41.8552L189.763 43.3392C189.664 43.5859 189.517 43.4869 189.517 43.4869C188.775 43.2401 188.083 43.1393 187.192 43.1393C186.104 43.1393 185.28 43.4869 184.768 44.2271C184.224 44.9187 183.926 45.8605 183.926 47.1463C183.926 48.5312 184.274 49.5199 184.865 50.1628C185.456 50.8057 186.298 51.1011 187.384 51.1011C187.829 51.1011 188.225 51.0525 188.571 51.0021C188.917 50.9517 189.263 50.8544 189.61 50.7067C189.562 50.8057 189.758 50.7553 189.857 50.9534L189.861 50.9395ZM201.086 44.4617C201.581 46.1437 201.333 47.5772 201.284 47.6763C201.284 47.8744 201.086 47.8743 201.086 47.8743H193.619C193.668 49.0125 193.915 49.7857 194.509 50.347C195.053 50.8909 195.894 51.2366 197.081 51.2366C198.862 51.2366 199.6 50.8891 200.148 50.6928C200.148 50.6928 200.346 50.6441 200.443 50.8405L200.938 52.2253C201.037 52.4721 200.938 52.5207 200.89 52.5729C200.445 52.8196 199.308 53.3148 197.131 53.3148C196.092 53.3148 195.154 53.1671 194.412 52.87C193.67 52.5729 193.027 52.1784 192.535 51.6363C192.043 51.0942 191.694 50.4495 191.447 49.7597C191.2 49.0177 191.1 48.2271 191.1 47.3861C191.1 46.5451 191.199 45.7527 191.447 45.0125C191.645 44.2705 191.991 43.6276 192.438 43.1011C192.884 42.5746 193.477 42.1107 194.168 41.8153C194.86 41.4677 195.701 41.3201 196.641 41.3201C197.432 41.3201 198.174 41.4678 198.768 41.7649C199.213 41.963 199.706 42.3088 200.201 42.8526C200.448 43.0507 200.893 43.7909 201.091 44.486L201.086 44.4617ZM193.666 46.0429H198.957C198.909 45.3513 198.759 44.7571 198.462 44.2618C198.017 43.5703 197.374 43.1741 196.386 43.1741C195.397 43.1741 194.703 43.5703 194.259 44.2618C193.963 44.7067 193.814 45.3009 193.664 46.0429H193.666ZM141.394 44.4617C141.889 46.1437 141.641 47.5772 141.641 47.6763C141.641 47.8744 141.442 47.8743 141.442 47.8743H133.976C134.024 49.0125 134.271 49.7857 134.865 50.347C135.409 50.8909 136.25 51.2366 137.437 51.2366C139.218 51.2366 139.957 50.8891 140.504 50.6928C140.504 50.6928 140.702 50.6441 140.799 50.8405L141.295 52.2253C141.394 52.4721 141.295 52.5207 141.246 52.5729C140.801 52.8196 139.665 53.3148 137.488 53.3148C136.448 53.3148 135.51 53.1671 134.768 52.87C134.026 52.5729 133.383 52.1784 132.891 51.6363C132.4 51.0942 132.05 50.4495 131.804 49.7597C131.557 49.0177 131.456 48.2271 131.456 47.3861C131.456 46.5451 131.555 45.7527 131.804 45.0125C132.002 44.2705 132.348 43.6276 132.794 43.1011C133.241 42.5746 133.833 42.1107 134.525 41.8153C135.216 41.4677 136.057 41.3201 136.998 41.3201C137.788 41.3201 138.53 41.4678 139.124 41.7649C139.569 41.963 140.063 42.3088 140.558 42.8526C140.756 43.0507 141.25 43.7909 141.399 44.486L141.394 44.4617ZM133.974 46.0429H139.316C139.267 45.3513 139.117 44.7571 138.82 44.2618C138.375 43.5703 137.733 43.1741 136.744 43.1741C135.755 43.1741 135.062 43.5703 134.617 44.2618C134.269 44.7067 134.122 45.3009 133.974 46.0429ZM120.869 45.6467L122.102 45.7944V45.499C122.102 44.5086 121.904 44.0151 121.508 43.718C121.112 43.4208 120.469 43.2227 119.678 43.2227C119.678 43.2227 117.848 43.2227 116.415 43.9647C116.366 44.0134 116.316 44.0134 116.316 44.0134C116.316 44.0134 116.118 44.062 116.069 43.9143L115.525 42.4808C115.426 42.2827 115.574 42.1854 115.574 42.1854C116.265 41.6415 117.85 41.3444 117.85 41.3444C118.394 41.2453 119.284 41.1463 119.828 41.1463C121.312 41.1463 122.448 41.4938 123.24 42.1854C124.033 42.877 124.427 43.9664 124.427 45.499V52.3227C124.427 52.3227 124.427 52.5207 124.28 52.5694C124.28 52.5694 123.984 52.6684 123.736 52.7171L121.859 53.0646C121.117 53.2123 120.375 53.2627 119.583 53.2627C118.841 53.2627 118.198 53.2141 117.605 53.0646C117.013 52.9152 116.517 52.7171 116.073 52.4217C115.676 52.1263 115.331 51.7301 115.082 51.2349C114.835 50.7901 114.735 50.1958 114.735 49.5529C114.735 48.91 114.882 48.3192 115.131 47.8222C115.379 47.3253 115.774 46.9326 116.219 46.5885C116.663 46.2445 117.209 46.0446 117.751 45.8465C118.345 45.6989 118.938 45.5998 119.581 45.5998L120.867 45.6485L120.869 45.6467ZM117.901 50.8891C117.901 50.8891 118.592 51.433 120.076 51.334C121.164 51.2853 122.104 51.0872 122.104 51.0872V47.6745C122.104 47.6745 121.166 47.5268 120.076 47.5268C118.544 47.5268 117.901 48.0707 117.901 48.0707C117.456 48.3661 117.258 48.8613 117.258 49.5042C117.251 49.8499 117.336 50.1911 117.504 50.4929C117.553 50.592 117.603 50.691 117.901 50.8891ZM180.953 41.8396C180.905 42.0377 180.509 43.0733 180.409 43.4208C180.361 43.5685 180.262 43.6189 180.114 43.6189C180.114 43.6189 179.669 43.5199 179.273 43.5199C178.939 43.5275 178.606 43.5772 178.284 43.6676C177.937 43.7666 177.641 43.963 177.346 44.2114C177.051 44.4599 176.851 44.8544 176.703 45.2992C176.555 45.744 176.456 46.486 176.456 47.2766V52.8144C176.456 52.9621 176.357 53.0611 176.21 53.0611H174.232C174.084 53.0611 173.985 52.9621 173.985 52.8144V41.6954C173.985 41.5477 174.084 41.4486 174.183 41.4486H176.095C176.243 41.4486 176.293 41.5477 176.293 41.6954V42.585C176.588 42.1889 177.084 41.8431 177.527 41.6467C177.97 41.4504 178.517 41.2992 179.438 41.3513C179.933 41.4 180.576 41.499 180.672 41.5494C180.87 41.5981 180.967 41.6485 180.919 41.8448L180.953 41.8396ZM162.604 36.6963C162.652 36.6963 162.802 36.7953 162.751 36.943L162.157 38.5242C162.108 38.6233 162.058 38.7223 161.81 38.6233C161.761 38.6233 161.662 38.5746 161.413 38.5242C161.266 38.4756 161.017 38.4756 160.819 38.4756C160.524 38.4756 160.275 38.5242 160.028 38.5746C159.782 38.625 159.584 38.7727 159.386 38.9708C159.187 39.1689 158.989 39.4156 158.842 39.7614C158.546 40.552 158.445 41.3948 158.445 41.4434H160.819C161.017 41.4434 161.066 41.5425 161.066 41.6902L160.77 43.2227C160.722 43.4695 160.524 43.4208 160.524 43.4208H158.051L156.47 52.9656C156.272 53.956 156.074 54.7953 155.827 55.4851C155.58 56.175 155.283 56.6719 154.836 57.1671C154.44 57.612 153.995 57.9578 153.451 58.1055C152.956 58.3035 152.313 58.4008 151.622 58.4008C151.274 58.4008 150.93 58.4008 150.534 58.3018C150.296 58.2654 150.063 58.1989 149.842 58.1037C149.743 58.0551 149.695 57.956 149.743 57.8083L150.287 56.2757C150.386 56.0777 150.534 56.1767 150.534 56.1767L150.93 56.3244C151.128 56.373 151.326 56.373 151.524 56.373C151.872 56.373 152.167 56.3244 152.414 56.2253C152.709 56.1263 152.909 55.93 153.106 55.6815C153.302 55.433 153.453 55.0872 153.649 54.6424C153.832 54.0414 153.981 53.4305 154.094 52.8127L155.776 43.4643H154.143C153.945 43.4643 153.896 43.3652 153.896 43.2175L154.192 41.685C154.24 41.4382 154.438 41.4869 154.438 41.4869H156.12L156.219 40.9916C156.466 39.5077 156.961 38.3713 157.703 37.6293C158.445 36.8874 159.533 36.4912 160.866 36.4912C161.262 36.4912 161.608 36.5399 161.905 36.5903C162.103 36.5416 162.35 36.5903 162.597 36.6893L162.604 36.6963ZM129.272 52.7692C129.272 52.9169 129.173 53.016 129.074 53.016H127.096C126.949 53.016 126.898 52.9169 126.898 52.7692V36.8943C126.898 36.7953 126.997 36.6476 127.096 36.6476H129.074C129.221 36.6476 129.272 36.7466 129.272 36.8943V52.7692Z" fill="white"/>
</svg>
