<svg width="364" height="100" viewBox="0 0 364 100" fill="none" xmlns="http://www.w3.org/2000/svg">
<path d="M79.234 37.4474C79.2715 37.9898 79.2715 38.5323 79.2715 39.0798C79.2715 55.7612 66.5723 75 43.3513 75V74.99C36.4917 75 29.7746 73.0351 24 69.3304C24.9974 69.4504 25.9999 69.5103 27.0048 69.5128C32.6894 69.5178 38.2116 67.6105 42.6838 64.0982C37.2817 63.9957 32.5445 60.4734 30.8896 55.3312C32.7819 55.6962 34.7318 55.6212 36.5892 55.1138C30.6996 53.9238 26.4623 48.7492 26.4623 42.7395C26.4623 42.6845 26.4623 42.632 26.4623 42.5795C28.2172 43.557 30.1821 44.0995 32.192 44.1594C26.6448 40.4522 24.9349 33.0726 28.2847 27.303C34.6943 35.19 44.1512 39.9847 54.3031 40.4922C53.2856 36.1075 54.6756 31.5127 57.9553 28.4304C63.04 23.6507 71.037 23.8957 75.8167 28.9779C78.644 28.4204 81.3539 27.383 83.8337 25.9131C82.8913 28.8354 80.9189 31.3178 78.2841 32.8952C80.7864 32.6002 83.2313 31.9302 85.5336 30.9078C83.8387 33.4476 81.7038 35.66 79.234 37.4474Z" fill="#1D9BF0"/>
<path d="M99.3334 32.8363H128.147V35.7941H115.448V69.248H111.981V35.7941H99.3334V32.8363Z" fill="#555555"/>
<path d="M122.605 42.9337H126.022L132.753 65.4742H132.855L139.281 42.9337H142.902L149.327 65.4742H149.429L156.161 42.9337H159.578L151.112 69.248H147.593L141.117 47.1154H141.015L134.589 69.248H131.07L122.605 42.9337Z" fill="#555555"/>
<path d="M163.107 32.8363H166.32V37.987H163.107V32.8363ZM163.107 42.9337H166.32V69.248H163.107V42.9337Z" fill="#555555"/>
<path d="M177.568 42.9337H182.923V45.6365H177.568V63.3834C177.568 64.4373 177.704 65.2702 177.976 65.8822C178.282 66.4602 179.013 66.7831 180.169 66.8511C181.087 66.8511 182.005 66.8001 182.923 66.6982V69.401C182.447 69.401 181.971 69.418 181.495 69.452C181.019 69.486 180.543 69.503 180.067 69.503C177.925 69.503 176.429 69.095 175.58 68.2791C174.73 67.4291 174.322 65.8822 174.356 63.6383V45.6365H169.766V42.9337H174.356V35.0292H177.568V42.9337Z" fill="#555555"/>
<path d="M192.658 42.9337H198.013V45.6365H192.658V63.3834C192.658 64.4373 192.794 65.2702 193.066 65.8822C193.372 66.4602 194.103 66.7831 195.259 66.8511C196.177 66.8511 197.095 66.8001 198.013 66.6982V69.401C197.537 69.401 197.061 69.418 196.585 69.452C196.109 69.486 195.633 69.503 195.157 69.503C193.015 69.503 191.519 69.095 190.669 68.2791C189.819 67.4291 189.411 65.8822 189.445 63.6383V45.6365H184.856V42.9337H189.445V35.0292H192.658V42.9337Z" fill="#555555"/>
<path d="M221.568 54.2549C221.534 53.031 221.313 51.8581 220.905 50.7362C220.531 49.6142 219.987 48.6283 219.273 47.7783C218.559 46.8944 217.692 46.1974 216.673 45.6875C215.653 45.1435 214.497 44.8715 213.205 44.8715C211.879 44.8715 210.706 45.1435 209.686 45.6875C208.666 46.1974 207.799 46.8944 207.085 47.7783C206.371 48.6283 205.793 49.6312 205.351 50.7872C204.943 51.9091 204.671 53.065 204.535 54.2549H221.568ZM204.535 56.9578C204.535 58.1137 204.688 59.3206 204.994 60.5785C205.334 61.8025 205.861 62.9074 206.575 63.8933C207.289 64.8793 208.19 65.6952 209.278 66.3412C210.366 66.9871 211.675 67.3101 213.205 67.3101C215.551 67.3101 217.387 66.6982 218.712 65.4742C220.038 64.2503 220.956 62.6184 221.466 60.5785H224.679C223.999 63.5704 222.741 65.8822 220.905 67.5141C219.103 69.146 216.537 69.9619 213.205 69.9619C211.131 69.9619 209.329 69.605 207.799 68.891C206.303 68.1431 205.079 67.1401 204.127 65.8822C203.175 64.5903 202.461 63.1114 201.986 61.4455C201.544 59.7456 201.323 57.9607 201.323 56.0908C201.323 54.3569 201.544 52.657 201.986 50.9911C202.461 49.3253 203.175 47.8463 204.127 46.5544C205.079 45.2285 206.303 44.1746 207.799 43.3926C209.329 42.5767 211.131 42.1687 213.205 42.1687C215.313 42.1687 217.115 42.5937 218.61 43.4436C220.106 44.2936 221.313 45.4155 222.231 46.8094C223.183 48.1693 223.863 49.7502 224.271 51.5521C224.679 53.32 224.849 55.1219 224.781 56.9578H204.535Z" fill="#555555"/>
<path d="M229.093 42.9337H232.051V49.1043H232.153C232.969 46.9624 234.227 45.3135 235.927 44.1576C237.661 43.0017 239.717 42.4747 242.097 42.5767V45.7895C240.635 45.7215 239.309 45.9255 238.119 46.4014C236.93 46.8434 235.893 47.4894 235.009 48.3393C234.159 49.1893 233.496 50.2092 233.02 51.3991C232.544 52.555 232.306 53.83 232.306 55.2239V69.248H229.093V42.9337Z" fill="#555555"/>
<path d="M265.135 54.9689H279.465L272.428 36.3041L265.135 54.9689ZM270.643 32.8363H274.518L288.798 69.248H285.075L280.638 57.9267H264.064L259.678 69.248H256.007L270.643 32.8363Z" fill="#555555"/>
<path d="M314.647 69.248H311.689V64.2503H311.587C311.247 65.1003 310.737 65.8822 310.057 66.5962C309.411 67.3101 308.663 67.9221 307.813 68.432C306.963 68.908 306.045 69.282 305.06 69.554C304.108 69.826 303.156 69.9619 302.204 69.9619C300.198 69.9619 298.447 69.605 296.951 68.891C295.489 68.1431 294.265 67.1401 293.279 65.8822C292.293 64.5903 291.562 63.1114 291.086 61.4455C290.61 59.7456 290.372 57.9607 290.372 56.0908C290.372 54.2209 290.61 52.4531 291.086 50.7872C291.562 49.0873 292.293 47.6084 293.279 46.3504C294.265 45.0585 295.489 44.0386 296.951 43.2906C298.447 42.5427 300.198 42.1687 302.204 42.1687C303.19 42.1687 304.142 42.2877 305.06 42.5257C306.011 42.7637 306.895 43.1376 307.711 43.6476C308.527 44.1236 309.241 44.7185 309.853 45.4325C310.499 46.1465 310.992 46.9794 311.332 47.9313H311.434V32.8363H314.647V69.248ZM293.585 56.0908C293.585 57.4507 293.738 58.8106 294.044 60.1706C294.384 61.4965 294.894 62.6864 295.574 63.7403C296.288 64.7943 297.189 65.6612 298.277 66.3412C299.365 66.9871 300.674 67.3101 302.204 67.3101C303.904 67.3101 305.331 66.9871 306.487 66.3412C307.677 65.6612 308.629 64.7943 309.343 63.7403C310.091 62.6864 310.618 61.4965 310.924 60.1706C311.264 58.8106 311.434 57.4507 311.434 56.0908C311.434 54.7309 311.264 53.388 310.924 52.0621C310.618 50.7022 310.091 49.4952 309.343 48.4413C308.629 47.3874 307.677 46.5374 306.487 45.8915C305.331 45.2115 303.904 44.8715 302.204 44.8715C300.674 44.8715 299.365 45.2115 298.277 45.8915C297.189 46.5374 296.288 47.3874 295.574 48.4413C294.894 49.4952 294.384 50.7022 294.044 52.0621C293.738 53.388 293.585 54.7309 293.585 56.0908Z" fill="#555555"/>
<path d="M336.536 50.6342C336.502 49.6482 336.298 48.7983 335.924 48.0843C335.55 47.3364 335.04 46.7244 334.394 46.2484C333.782 45.7725 333.068 45.4325 332.252 45.2285C331.436 44.9905 330.569 44.8715 329.651 44.8715C328.937 44.8715 328.206 44.9565 327.458 45.1265C326.744 45.2625 326.081 45.5175 325.469 45.8915C324.857 46.2314 324.364 46.6904 323.99 47.2684C323.616 47.8463 323.43 48.5603 323.43 49.4102C323.43 50.1242 323.599 50.7362 323.939 51.2461C324.313 51.7221 324.772 52.1301 325.316 52.4701C325.86 52.81 326.455 53.099 327.101 53.337C327.747 53.541 328.342 53.711 328.886 53.847L333.17 54.8159C334.088 54.9519 334.989 55.2069 335.873 55.5809C336.791 55.9208 337.59 56.3798 338.27 56.9578C338.984 57.5357 339.561 58.2497 340.003 59.0996C340.445 59.9496 340.666 60.9525 340.666 62.1084C340.666 63.5364 340.343 64.7603 339.697 65.7802C339.052 66.7661 338.219 67.5821 337.199 68.2281C336.213 68.84 335.091 69.282 333.833 69.554C332.575 69.826 331.334 69.9619 330.11 69.9619C327.016 69.9619 324.5 69.231 322.563 67.7691C320.659 66.3072 319.571 63.9613 319.299 60.7315H322.512C322.648 62.9074 323.43 64.5563 324.857 65.6782C326.319 66.7662 328.121 67.3101 330.263 67.3101C331.045 67.3101 331.844 67.2251 332.66 67.0551C333.51 66.8851 334.292 66.5962 335.006 66.1882C335.72 65.7802 336.298 65.2702 336.74 64.6583C337.216 64.0123 337.454 63.2304 337.454 62.3124C337.454 61.5305 337.284 60.8845 336.944 60.3746C336.638 59.8306 336.213 59.3886 335.669 59.0486C335.125 58.6747 334.496 58.3687 333.782 58.1307C333.102 57.8927 332.405 57.6887 331.691 57.5187L327.56 56.6008C326.506 56.3288 325.537 56.0228 324.653 55.6829C323.769 55.3089 322.988 54.8669 322.308 54.3569C321.662 53.813 321.152 53.167 320.778 52.4191C320.404 51.6371 320.217 50.6852 320.217 49.5632C320.217 48.2373 320.506 47.0984 321.084 46.1465C321.696 45.1945 322.478 44.4296 323.43 43.8516C324.381 43.2736 325.435 42.8487 326.591 42.5767C327.781 42.3047 328.954 42.1687 330.11 42.1687C331.436 42.1687 332.66 42.3387 333.782 42.6787C334.938 43.0187 335.941 43.5456 336.791 44.2596C337.675 44.9735 338.372 45.8575 338.882 46.9114C339.392 47.9653 339.68 49.2063 339.748 50.6342H336.536Z" fill="#555555"/>
</svg>
