<svg width="249" height="51" viewBox="0 0 249 51" fill="none" xmlns="http://www.w3.org/2000/svg">
<path fill-rule="evenodd" clip-rule="evenodd" d="M7.82613 0.5H76.2237C77.2517 0.5 78.2697 0.702539 79.2194 1.09605C80.1691 1.48955 81.032 2.06632 81.7588 2.79339C82.4856 3.52047 83.062 4.38361 83.4551 5.3335C83.8482 6.28339 84.0503 7.30143 84.0499 8.32945V34.4243C84.0499 35.4519 83.8474 36.4694 83.4541 37.4188C83.0607 38.3681 82.4842 39.2306 81.7574 39.9571C81.0307 40.6835 80.1679 41.2597 79.2184 41.6526C78.2689 42.0456 77.2513 42.2476 76.2237 42.2472H51.6935L55.0508 50.5L40.2321 42.2472H7.81621C5.74288 42.2445 3.75532 41.4193 2.28988 39.9526C0.824435 38.4859 0.000874634 36.4976 0 34.4243V8.32945C-1.85261e-07 6.25353 0.824431 4.26257 2.29202 2.79436C3.75961 1.32615 5.75021 0.500877 7.82613 0.5Z" fill="#7D57A4"/>
<path d="M4.23067 7.58849C4.48953 7.26497 4.81624 7.00221 5.18774 6.81875C5.55924 6.63529 5.96647 6.53559 6.38071 6.5267C8.125 6.40541 9.12614 7.22794 9.38414 8.99428C10.4603 16.1589 11.6125 22.2407 12.8407 27.2398L20.3692 12.9239C21.0506 11.6317 21.9117 10.9481 22.9525 10.8731C24.4609 10.7672 25.4036 11.7276 25.7806 13.7541C26.4892 17.7616 27.5779 21.6924 29.0322 25.4934C29.9363 16.7741 31.4457 10.4706 33.5605 6.58293C33.7645 6.14689 34.0836 5.77478 34.4835 5.50666C34.8833 5.23854 35.3487 5.08458 35.8296 5.06136C36.6125 4.99701 37.3896 5.24025 37.9962 5.73945C38.3057 5.97319 38.5601 6.27213 38.7413 6.61509C38.9225 6.95806 39.0261 7.33666 39.0447 7.7241C39.1001 8.29596 38.985 8.87141 38.7139 9.37798C37.3732 11.8654 36.2706 16.0012 35.4062 21.7854C34.5528 27.3689 34.2375 31.7362 34.4602 34.8874C34.5383 35.6598 34.3997 36.4386 34.0599 37.1366C33.895 37.489 33.638 37.7902 33.316 38.0085C32.994 38.2269 32.6191 38.3542 32.2308 38.3771C31.3244 38.4432 30.4214 38.0165 29.5118 37.1036C26.3187 33.8289 23.7828 28.9566 21.904 22.4866C19.6988 26.8969 18.0449 30.1959 16.9423 32.3834C14.9246 36.2645 13.1958 38.2547 11.7558 38.3539C10.8208 38.4201 10.0247 37.635 9.36761 35.9988C7.60347 31.5068 5.71144 22.8163 3.69151 9.92707C3.61168 9.52127 3.61844 9.1032 3.71135 8.7002C3.80426 8.2972 3.98123 7.91836 4.23067 7.58849Z" fill="white"/>
<path d="M78.0629 12.9867C77.4953 11.9624 76.7091 11.0757 75.7601 10.3897C74.8111 9.70365 73.7226 9.23512 72.572 9.01741C71.9585 8.88773 71.3334 8.82123 70.7064 8.81894C67.4163 8.81894 64.7282 10.5313 62.6421 13.9559C60.8657 16.8681 59.9409 20.2199 59.9728 23.6311C59.9728 26.2773 60.5241 28.5453 61.6267 30.4351C62.1936 31.4605 62.9801 32.348 63.9298 33.0342C64.8796 33.7204 65.9692 34.1882 67.1208 34.4044C67.7328 34.5369 68.357 34.6046 68.9831 34.6062C72.3063 34.6062 74.9933 32.8939 77.0441 29.4692C78.8204 26.5362 79.7458 23.1668 79.7167 19.7378C79.7167 17.0916 79.1654 14.8413 78.0629 12.9867ZM73.7297 22.5163C73.26 24.7656 72.389 26.4603 71.1166 27.6004C70.1088 28.5067 69.1849 28.8761 68.3447 28.7085C67.5045 28.5409 66.8308 27.7999 66.3237 26.4857C65.935 25.4887 65.73 24.4297 65.7183 23.3598C65.7151 22.5132 65.7994 21.6686 65.9697 20.8393C66.2972 19.372 66.9134 17.9844 67.7824 16.7576C68.9246 15.0794 70.1176 14.3749 71.3614 14.6439C72.2015 14.8137 72.8741 15.5524 73.3791 16.8601C73.7664 17.8561 73.9704 18.914 73.9811 19.9826C73.9854 20.8336 73.9011 21.6828 73.7297 22.5163Z" fill="white"/>
<path d="M56.536 12.9867C55.9685 11.9624 55.1823 11.0757 54.2333 10.3897C53.2843 9.70365 52.1958 9.23512 51.0452 9.01741C50.4317 8.88773 49.8066 8.82123 49.1796 8.81894C45.8873 8.81894 43.2003 10.5313 41.1186 13.9559C39.3397 16.8672 38.4137 20.2194 38.446 23.6311C38.446 26.2773 38.9972 28.5453 40.0998 30.4351C40.6659 31.4612 41.4521 32.3493 42.402 33.0356C43.3519 33.7219 44.442 34.1893 45.594 34.4044C46.2059 34.5369 46.8301 34.6046 47.4563 34.6062C50.7816 34.6062 53.4697 32.8939 55.5205 29.4692C57.303 26.5377 58.2363 23.1687 58.2164 19.7378C58.2164 17.0916 57.6651 14.8413 56.5625 12.9867H56.536ZM52.2029 22.5163C51.7332 24.77 50.8599 26.4669 49.5831 27.607C48.5732 28.5133 47.6492 28.8827 46.8112 28.7151C45.9733 28.5475 45.3018 27.8043 44.7968 26.4857C44.4082 25.4887 44.2031 24.4297 44.1915 23.3598C44.1883 22.5132 44.2725 21.6686 44.4429 20.8393C44.7732 19.3729 45.3891 17.9859 46.2555 16.7576C47.3934 15.0838 48.5864 14.3815 49.8345 14.6505C50.6747 14.8203 51.3462 15.559 51.8489 16.8667C52.2373 17.8626 52.4423 18.9204 52.4543 19.9892C52.4577 20.8358 52.3734 21.6805 52.2029 22.5097V22.5163Z" fill="white"/>
<path d="M92.7393 12.6924C90.4525 14.9659 89.3092 17.847 89.3092 21.3355C89.3092 25.0998 90.4426 28.1396 92.7095 30.455C94.9764 32.7704 97.9413 33.9237 101.604 33.9149C102.817 33.8854 104.022 33.6974 105.186 33.3559V27.8088C104.173 28.1297 103.12 28.3067 102.057 28.3347C100.238 28.3347 98.7826 27.7239 97.691 26.5022C96.5994 25.2806 96.0548 23.6212 96.057 21.5241C96.057 19.5769 96.5984 17.9715 97.6811 16.708C98.1756 16.1046 98.8003 15.6209 99.5084 15.2932C100.216 14.9656 100.989 14.8024 101.769 14.816C102.926 14.8242 104.075 14.9911 105.186 15.3121V9.73855C103.961 9.42666 102.7 9.27435 101.435 9.28539C97.9314 9.28539 95.0327 10.421 92.7393 12.6924ZM116.582 9.28539C113.413 9.28539 110.937 10.3395 109.156 12.4476C107.374 14.5557 106.492 17.4952 106.509 21.2661C106.509 25.3545 107.392 28.4814 109.156 30.6469C110.92 32.8123 113.484 33.8962 116.849 33.8984C120.102 33.8984 122.607 32.8145 124.365 30.6469C126.122 28.4792 127.006 25.4382 127.017 21.5241C127.017 17.6011 126.124 14.5822 124.338 12.4674C122.552 10.3527 119.966 9.292 116.582 9.28539ZM119.304 27.1473C119.02 27.6096 118.618 27.9881 118.14 28.2439C117.662 28.4997 117.124 28.6235 116.582 28.6027C116.069 28.6179 115.562 28.4897 115.118 28.2326C114.673 27.9755 114.31 27.5997 114.068 27.1473C113.492 26.1814 113.204 24.2486 113.204 21.3488C113.204 16.8348 114.343 14.5778 116.621 14.5778C119.047 14.5778 120.26 16.8612 120.26 21.4281C120.253 24.264 119.935 26.1704 119.304 27.1473ZM144.009 9.94694L142.779 15.1996C142.459 16.5448 142.16 17.923 141.883 19.3343L141.194 22.9729C140.533 19.341 139.637 15.0023 138.505 9.95686H130.517L127.517 33.3427H133.501L135.128 17.2273L139.213 33.3427H143.49L147.387 17.224L149.077 33.3063H155.332L152.156 9.94694H144.009ZM172.628 9.94694L171.398 15.1996C171.078 16.5448 170.779 17.923 170.501 19.3343L169.813 22.9729C169.152 19.341 168.254 15.0023 167.121 9.95686H159.136L156.126 33.3195H162.109L163.733 17.2041L167.822 33.3195H172.095L176.005 17.224L177.695 33.3063H183.95L180.782 9.94694H172.628ZM192.048 24.071H197.671V19.2086H192.048V14.9086H198.511V9.94694H185.73V33.3328H198.554V28.3281H192.048V24.071ZM216.35 20.3829C217.207 19.0215 217.518 17.3862 217.22 15.8052C216.922 14.2242 216.037 12.8145 214.742 11.8588C213.02 10.5842 210.672 9.94694 207.697 9.94694H200.334V33.3328H206.655V22.6686H206.757L211.865 33.3195H218.54L213.492 22.7744C214.671 22.2953 215.67 21.459 216.35 20.3829ZM206.655 20.0058V14.4521C208.152 14.4874 209.225 14.7388 209.873 15.2063C210.522 15.6738 210.846 16.4456 210.846 17.5217C210.846 19.1315 209.449 19.9595 206.655 20.0058ZM221.07 12.6924C218.777 14.9659 217.63 17.847 217.63 21.3355C217.63 25.0998 218.766 28.1341 221.037 30.4385C223.308 32.7429 226.273 33.8962 229.931 33.8984C231.148 33.8753 232.357 33.6929 233.527 33.3559V27.8088C232.514 28.1297 231.46 28.3067 230.398 28.3347C228.576 28.3347 227.12 27.7239 226.028 26.5022C224.937 25.2806 224.389 23.6212 224.384 21.5241C224.384 19.5769 224.927 17.9715 226.012 16.708C226.506 16.1046 227.131 15.6209 227.839 15.2932C228.547 14.9656 229.32 14.8024 230.1 14.816C231.26 14.8235 232.413 14.9904 233.527 15.3121V9.73855C232.298 9.42581 231.034 9.27349 229.766 9.28539C226.262 9.28539 223.363 10.421 221.07 12.6924ZM241.578 28.3281V24.071H247.201V19.2086H241.578V14.9086H248.041V9.94694H235.257V33.3328H248.081V28.3281H241.578Z" fill="#000008"/>
</svg>
