<svg width="393" height="298" viewBox="0 0 393 298" 

fill="none" xmlns="http://www.w3.org/2000/svg">


<g clip-path="url(#clip0_163_321)">
<path d="M350.197 126.134C345.672 126.134 343.968 104.103 348.496 103.751C324.019 106.356 298.887 110.36 281.803 107.645C275.805 115.042 270.912 123.269 267.276 132.071C264.967 123.786 264.128 115.161 264.794 106.587C261.545 106.322 226.079 82.8061 211.146 74.072C207.908 76.2622 205.15 79.0872 203.039 82.3757C200.925 85.664 199.504 89.3473 198.858 93.2019L251.195 125.042L255.316 119.106C254.353 121.476 253.814 123.997 253.724 126.554C253.573 131.696 255.236 139.219 261.435 152.424C267.485 154.239 277.355 151.441 284.877 147.093C284.537 142.367 286.844 136.582 288.583 131.744C287.248 130.766 285.845 129.882 284.386 129.098C306.566 130.558 327.438 128.904 350.197 126.134Z" 
fill="#E8F8F6"/>
<path d="M165.808 160.883C154.312 159.983 142.779 159.667 131.252 159.937C131.971 157.488 132.403 154.962 132.537 152.413C123.085 154.871 113.935 154.946 101.762 153.209V153.058C96.1062 156.799 91.169 170.064 94.7152 179.815L84.8985 200.547L56.9211 182.697C48.4894 187.953 44.2547 194.683 41.1543 205.005L76.429 229.163C78.7953 230.787 81.4787 231.892 84.3023 232.403C87.1261 232.917 90.0263 232.825 92.8121 232.135C95.5979 231.446 98.2062 230.174 100.465 228.403C102.724 226.634 104.583 224.405 105.919 221.866L117.186 200.43L102.966 189.568C105.051 190.786 107.291 191.718 109.624 192.338C121.232 195.552 138.207 194.267 149.623 192.868C146.266 206.225 143.641 219.755 141.761 233.398C148.96 238.242 157.738 240.148 166.297 238.729C172.692 220.807 178.095 202.547 182.482 184.03C183.137 181.395 183.211 178.649 182.697 175.983C182.184 173.318 181.096 170.795 179.509 168.592C177.922 166.389 175.875 164.558 173.508 163.227C171.142 161.895 168.514 161.095 165.808 160.883Z" 
fill="#E8F8F6"/>
<path d="M331.37 43.5983C331.085 43.3114 330.747 43.0837 330.373 42.9283C330.001 42.7729 329.601 42.6929 329.195 42.6929C328.791 42.6929 328.391 42.7729 328.019 42.9283C327.645 43.0837 327.306 43.3114 327.022 43.5983L326.226 44.3943L325.43 43.5983C324.853 43.0218 324.071 42.6978 323.255 42.698C322.439 42.6982 321.657 43.0224 321.08 43.5993C320.505 44.1762 320.18 44.9585 320.18 45.7742C320.18 46.5897 320.505 47.372 321.082 47.9485L326.256 53.0906L331.36 47.9485C331.649 47.6645 331.877 47.3264 332.035 46.9533C332.19 46.5803 332.271 46.1799 332.271 45.7754C332.273 45.371 332.194 44.9702 332.039 44.5965C331.883 44.2228 331.657 43.8837 331.37 43.5983Z" 
fill="#E8F8F6"/>
<path d="M114.88 264.777L109.624 263.983L107.28 259.256L104.936 263.983L99.6821 264.777L103.501 268.444L102.593 273.662L107.28 271.204L111.968 273.662L111.061 268.444L114.88 264.777Z" 
fill="#E8F8F6"/>
<path d="M272.804 99.0491L268.824 102.83C269.192 101.781 269.421 100.687 269.505 99.5784C270.621 99.5249 271.728 99.3474 272.804 99.0491Z" 
fill="#14B8A6"/>
<path d="M289.365 129.344C289.1 130.1 288.836 130.894 288.533 131.732C287.198 130.754 285.795 129.87 284.336 129.085C286.038 129.155 287.702 129.269 289.365 129.344Z" 
fill="#14B8A6"/>
<path d="M320.14 66.5812C313.947 61.4391 297.154 75.8825 297.154 75.8825C300.252 60.6072 277.568 73.6935 269.931 81.1381C273.863 77.9998 277.001 84.8036 276.661 88.6603C276.661 89.5697 277.152 89.7587 278.551 88.7757C281.463 86.6583 283.542 91.6871 278.06 94.0293C277.692 94.4275 277.421 94.9037 277.264 95.4223C276.259 98.2757 276.193 101.376 277.075 104.27C302.521 99.06 326.303 71.6856 320.14 66.5812Z" 
fill="#14B8A6"/>
<path d="M276.434 182.579L273.409 185.188L270.762 173.958L276.434 182.579Z" 
fill="#14B8A6"/>
<path d="M193.369 6.61843C190.339 6.61843 187.376 7.51712 184.856 9.20086C182.337 10.8846 180.372 13.2776 179.213 16.0775C178.053 18.8774 177.75 21.9583 178.341 24.9308C178.932 27.9031 180.391 30.6336 182.534 32.7764C184.677 34.9194 187.408 36.3787 190.38 36.9699C193.352 37.5613 196.433 37.2579 199.234 36.0981C202.034 34.9383 204.426 32.9742 206.109 30.4545C207.793 27.9345 208.692 24.972 208.692 21.9414C208.696 19.9282 208.302 17.934 207.534 16.0733C206.764 14.2125 205.636 12.5218 204.213 11.0983C202.788 9.67468 201.099 8.54615 199.238 7.77741C197.377 7.00867 195.383 6.61485 193.369 6.61843ZM193.747 31.2706C193.747 31.3708 193.708 31.467 193.637 31.538C193.566 31.6089 193.47 31.6487 193.369 31.6487C193.319 31.6516 193.268 31.6437 193.221 31.6258C193.174 31.6079 193.131 31.58 193.096 31.5444C193.06 31.5086 193.032 31.4658 193.014 31.4186C192.996 31.3714 192.988 31.3209 192.991 31.2706V19.3982C192.992 19.2981 193.032 19.2022 193.103 19.1314C193.173 19.0607 193.269 19.0207 193.369 19.0201C193.42 19.0171 193.47 19.0251 193.517 19.043C193.565 19.0609 193.608 19.0888 193.643 19.1244C193.679 19.1602 193.707 19.203 193.725 19.2502C193.742 19.2973 193.75 19.3479 193.747 19.3982V31.2706ZM192.311 13.6531C192.323 13.3753 192.441 13.1128 192.642 12.9206C192.843 12.7281 193.11 12.6209 193.388 12.6209C193.666 12.6209 193.934 12.7281 194.134 12.9206C194.335 13.1128 194.454 13.3753 194.466 13.6531C194.454 13.9309 194.335 14.1934 194.134 14.3856C193.934 14.578 193.666 14.6853 193.388 14.6853C193.11 14.6853 192.843 14.578 192.642 14.3856C192.441 14.1934 192.323 13.9309 192.311 13.6531Z" 
fill="#14B8A6"/>
<path d="M102.743 189.42L117.186 200.423L120.551 194.071C114.337 193.912 108.242 192.32 102.743 189.42Z" 
fill="#14B8A6"/>
<path d="M115.22 106.091L110.683 103.031C111.987 103.188 113.302 103.238 114.615 103.182C114.719 104.17 114.921 105.144 115.22 106.091Z" 
fill="#14B8A6"/>
<path d="M255.262 119.095C254.299 121.466 253.76 123.987 253.67 126.544L251.137 124.994L255.262 119.095Z" 
fill="#14B8A6"/>
<path d="M134.579 119.362C134.916 121.01 135.156 122.676 135.297 124.352C136.016 124.012 136.81 123.596 137.604 123.18L134.579 119.362Z" 
fill="#14B8A6"/>
<path d="M144.899 236.494C144.031 238.99 142.933 241.485 142.179 243.676C142.766 246.191 143.68 248.619 144.899 250.898C148.718 257.968 152.537 271.845 155.561 275.323C157.225 270.37 159.002 257.932 160.174 250.936C154.273 247.057 149.102 242.17 144.899 236.494Z" 
fill="#14B8A6"/>
<path d="M44.2547 179.701C41.6755 179.588 39.0929 179.831 36.5793 180.42C28.7148 182.234 14.3112 182.234 10.1899 184.238C14.5003 187.188 26.0303 192.216 32.458 195.165C37.7717 190.479 43.8792 186.778 50.4934 184.238C48.2626 182.726 46.1452 181.025 44.2547 179.701Z" 
fill="#14B8A6"/>
<path d="M111.439 81.9363C110.191 79.8946 107.459 80.008 107.734 81.5582C106.034 80.0458 103.085 80.7622 103.423 82.5035C101.384 80.8398 99.0016 82.1632 99.4912 83.7512C97.7161 82.39 95.7878 83.7512 96.3928 85.377C93.8595 84.2805 91.7421 86.173 94.7291 89.158C96.0147 90.4436 101.609 94.6007 104.747 99.8563C104.94 99.1003 104.922 98.306 104.695 97.5594C104.469 96.8129 104.042 96.1427 103.461 95.6215C100.361 93.2773 102.478 90.4814 104.444 92.4077C106.184 94.1091 105.618 91.6117 104.369 89.3829C104.628 89.6062 104.939 89.7608 105.273 89.8322C105.607 89.9039 105.954 89.8901 106.282 89.7924C106.61 89.6947 106.907 89.5162 107.148 89.273C107.388 89.0301 107.564 88.7306 107.658 88.4018C107.906 88.5891 108.192 88.7202 108.496 88.7857C108.799 88.8512 109.114 88.8498 109.417 88.7813C109.72 88.7129 110.005 88.5793 110.251 88.3897C110.497 88.2 110.699 87.959 110.842 87.6834C112.235 88.6645 114.132 88.0615 114.207 86.5869C113.367 85.1462 112.422 83.5582 111.439 81.9363Z" 
fill="#14B8A6"/>
<path d="M101.615 132.444L98.8564 135.998C98.4783 134.525 98.1002 133.086 97.6843 131.689C98.9639 131.916 101.615 132.444 101.615 132.444Z" 
fill="#14B8A6"/>
<path d="M63.0444 123.104C63.0313 123.436 62.8904 123.75 62.6508 123.98C62.4114 124.21 62.092 124.339 61.7599 124.339C61.4278 124.339 61.1084 124.21 60.869 123.98C60.6296 123.75 60.4885 123.436 60.4753 123.104C60.4885 122.772 60.6296 122.458 60.869 122.227C61.1084 121.997 61.4278 121.869 61.7599 121.869C62.092 121.869 62.4114 121.997 62.6508 122.227C62.8904 122.458 63.0313 122.772 63.0444 123.104Z" 
fill="#14B8A6"/>
<path d="M80.2857 111.762C80.2857 112.103 80.1504 112.43 79.9092 112.671C79.6682 112.912 79.341 113.048 79.0001 113.048C78.6593 113.048 78.3323 112.912 78.0911 112.671C77.8501 112.43 77.7146 112.103 77.7146 111.762C77.7146 111.421 77.8501 111.094 78.0911 110.853C78.3323 110.612 78.6593 110.477 79.0001 110.477C79.341 110.477 79.6682 110.612 79.9092 110.853C80.1504 111.094 80.2857 111.421 80.2857 111.762Z" 
fill="#14B8A6"/>
<path d="M96.8086 124.391C96.8086 124.732 96.6731 125.059 96.4321 125.3C96.1911 125.541 95.864 125.677 95.5231 125.677C95.1822 125.677 94.8552 125.541 94.6141 125.3C94.3731 125.059 94.2375 124.732 94.2375 124.391C94.2375 124.05 94.3731 123.723 94.6141 123.482C94.8552 123.241 95.1822 123.106 95.5231 123.106C95.864 123.106 96.1911 123.241 96.4321 123.482C96.6731 123.723 96.8086 124.05 96.8086 124.391Z" 
fill="#14B8A6"/>
<path d="M119.342 127.984C119.342 128.325 119.206 128.652 118.965 128.893C118.724 129.134 118.397 129.27 118.056 129.27C117.715 129.27 117.388 129.134 117.147 128.893C116.906 128.652 116.771 128.325 116.771 127.984C116.771 127.643 116.906 127.316 117.147 127.075C117.388 126.834 117.715 126.698 118.056 126.698C118.397 126.698 118.724 126.834 118.965 127.075C119.206 127.316 119.342 127.643 119.342 127.984Z" 
fill="#14B8A6"/>
<path d="M131.066 108.322C131.066 108.663 130.931 108.99 130.69 109.231C130.449 109.472 130.122 109.608 129.781 109.608C129.44 109.608 129.113 109.472 128.872 109.231C128.631 108.99 128.495 108.663 128.495 108.322C128.495 107.982 128.631 107.655 128.872 107.413C129.113 107.172 129.44 107.037 129.781 107.037C130.122 107.037 130.449 107.172 130.69 107.413C130.931 107.655 131.066 107.982 131.066 108.322Z" 
fill="#14B8A6"/>
<path d="M152.99 108.059C152.99 108.4 152.855 108.727 152.614 108.968C152.373 109.209 152.046 109.345 151.705 109.345C151.364 109.345 151.037 109.209 150.796 108.968C150.555 108.727 150.419 108.4 150.419 108.059C150.419 107.718 150.555 107.391 150.796 107.15C151.037 106.909 151.364 106.773 151.705 106.773C152.046 106.773 152.373 106.909 152.614 107.15C152.855 107.391 152.99 107.718 152.99 108.059Z" 
fill="#14B8A6"/>
<path d="M160.401 90.6303C160.401 90.9712 160.266 91.2981 160.025 91.5393C159.784 91.7803 159.457 91.9158 159.116 91.9158C158.775 91.9158 158.448 91.7803 158.207 91.5393C157.966 91.2981 157.83 90.9712 157.83 90.6303C157.83 90.2894 157.966 89.9624 158.207 89.7212C158.448 89.4802 158.775 89.3447 159.116 89.3447C159.457 89.3447 159.784 89.4802 160.025 89.7212C160.266 89.9624 160.401 90.2894 160.401 90.6303Z" 
fill="#14B8A6"/>
<path d="M109.851 145.639C109.851 145.98 109.716 146.307 109.475 146.548C109.234 146.789 108.906 146.925 108.566 146.925C108.225 146.925 107.898 146.789 107.657 146.548C107.416 146.307 107.28 145.98 107.28 145.639C107.28 145.298 107.416 144.971 107.657 144.73C107.898 144.489 108.225 144.354 108.566 144.354C108.906 144.354 109.234 144.489 109.475 144.73C109.716 144.971 109.851 145.298 109.851 145.639Z" 
fill="#14B8A6"/>
<path d="M129.777 144.353C129.777 144.694 129.641 145.021 129.4 145.262C129.159 145.503 128.832 145.639 128.491 145.639C128.15 145.639 127.824 145.503 127.582 145.262C127.341 145.021 127.206 144.694 127.206 144.353C127.206 144.012 127.341 143.685 127.582 143.444C127.824 143.203 128.15 143.068 128.491 143.068C128.832 143.068 129.159 143.203 129.4 143.444C129.641 143.685 129.777 144.012 129.777 144.353Z" 
fill="#14B8A6"/>
<path d="M350.84 105.94C349.517 106.016 347.173 106.129 346.643 106.167C347.626 103.031 349.37 102.991 350.84 105.94Z" 
fill="#14B8A6"/>
<path d="M352.05 124.087C351.105 126.658 349.554 126.772 348.231 124.39C349.327 124.322 350.651 124.201 352.05 124.087Z" 
fill="#14B8A6"/>
<path d="M212.955 81.142C212.955 81.4829 212.82 81.8098 212.579 82.051C212.338 82.292 212.01 82.4275 211.67 82.4275C211.329 82.4275 211.001 82.292 210.76 82.051C210.519 81.8098 210.384 81.4829 210.384 81.142C210.384 80.8011 210.519 80.4741 210.76 80.233C211.001 79.992 211.329 79.8564 211.67 79.8564C212.01 79.8564 212.338 79.992 212.579 80.233C212.82 80.4741 212.955 80.8011 212.955 81.142Z" 
fill="#14B8A6"/>
<path d="M341.992 110.896C341.978 111.228 341.839 111.542 341.598 111.772C341.36 112.003 341.039 112.131 340.709 112.131C340.377 112.131 340.056 112.003 339.817 111.772C339.577 111.542 339.437 111.228 339.423 110.896C339.437 110.564 339.577 110.25 339.817 110.02C340.056 109.79 340.377 109.661 340.709 109.661C341.039 109.661 341.36 109.79 341.598 110.02C341.839 110.25 341.978 110.564 341.992 110.896Z" 
fill="#14B8A6"/>
<path d="M311.784 195.656C311.772 193.483 311.647 191.312 311.406 189.153L322.333 179.02L311.784 195.656Z" 
fill="#14B8A6"/>
<path d="M205.469 247.079C190.699 248.924 175.703 247.332 161.649 242.428" stroke="#013941" stroke-width="2" stroke-linecap="round" stroke-linejoin="round"/>
<path d="M281.198 189.792C272.086 211.133 255.533 228.438 234.618 238.49" stroke="#013941" stroke-width="2" stroke-linecap="round" stroke-linejoin="round"/>
<path d="M287.248 135.278C288.086 139.797 288.577 144.372 288.722 148.965" stroke="#013941" stroke-width="2" stroke-linecap="round" stroke-linejoin="round"/>
<path d="M208.304 58.1487C230.372 61.6171 250.514 72.74 265.204 89.5688" stroke="#013941" stroke-width="2" stroke-linecap="round" stroke-linejoin="round"/>
<path d="M185.354 57.3189C189.657 56.9732 193.978 56.9099 198.289 57.1298C199.045 57.1696 199.839 57.2054 200.595 57.2811" stroke="#013941" stroke-width="2" stroke-linecap="round" stroke-linejoin="round"/>
<path d="M117.905 93.953C131.983 75.7774 152.148 63.2923 174.693 58.7917" stroke="#013941" stroke-width="2" stroke-linecap="round" stroke-linejoin="round"/>
<path d="M98.0566 157.096C97.9021 153.896 97.9147 150.69 98.0944 147.492C98.2759 144.086 98.6291 140.692 99.1531 137.322" stroke="#013941" stroke-width="2" stroke-linecap="round" stroke-linejoin="round"/>
<path d="M141.95 232.824C131.004 225.805 121.602 216.635 114.313 205.867" stroke="#013941" stroke-width="2" stroke-linecap="round" stroke-linejoin="round"/>
<path d="M269.515 99.5477C270.616 99.5144 271.706 99.3495 272.767 99.0562L268.834 102.799" stroke="#013941" stroke-width="2" stroke-linecap="round" stroke-linejoin="round"/>
<path d="M368.044 109.795L375.492 106.392C380.216 104.237 380.268 101.938 374.623 103.745C374.28 103.855 365.888 106.35 364.565 106.543C363.544 106.692 361.779 106.844 361.58 106.165C360.822 103.578 363.968 96.5891 361.769 95.8807C360.334 95.421 357.883 99.9303 356.325 103.178C355.234 105.451 353.339 105.825 350.842 105.938" stroke="#013941" stroke-width="2" stroke-linecap="round" stroke-linejoin="round"/>
<path d="M366.683 109.948C366.683 109.948 378.026 108.555 378.782 108.435C384.676 107.577 384.265 109.802 379.236 111.195C374.434 112.525 368.649 114.18 368.649 114.18" stroke="#013941" stroke-width="2" stroke-linecap="round" stroke-linejoin="round"/>
<path d="M366.683 114.145C370.404 114.256 374.127 114.155 377.837 113.842C383.771 113.378 383.128 115.354 378.101 116.602C375.001 117.45 371.841 118.069 368.649 118.455" stroke="#013941" stroke-width="2" stroke-linecap="round" stroke-linejoin="round"/>
<path d="M352.05 124.087C352.05 124.087 360.255 123.55 361.843 123.407C364.904 123.128 368.048 122.641 371.107 122.235C372.165 122.093 373.413 121.9 374.85 121.638C380.147 120.643 380.935 118.677 374.925 118.84C371.7 118.917 368.476 118.612 365.322 117.932" stroke="#013941" stroke-width="2" stroke-linecap="round" stroke-linejoin="round"/>
<path d="M366.456 108.133C367.031 112.842 366.004 117.608 363.544 121.665" stroke="#013941" stroke-width="2" stroke-linecap="round" stroke-linejoin="round"/>
<path d="M361.994 108.06C361.107 110.406 359.741 112.542 357.982 114.332C356.225 116.122 354.116 117.527 351.785 118.457" stroke="#013941" stroke-width="2" stroke-linecap="round" stroke-linejoin="round"/>
<path d="M289.389 129.357C289.124 130.113 288.86 130.907 288.557 131.745C286.591 130.422 284.924 129.566 284.36 129.098C286.062 129.168 287.725 129.281 289.389 129.357Z" stroke="#013941" stroke-width="2" stroke-linecap="round" stroke-linejoin="round"/>
<path d="M251.141 125.031L255.262 119.095C254.192 121.434 253.635 123.975 253.631 126.548" stroke="#013941" stroke-width="2" stroke-linecap="round" stroke-linejoin="round"/>
<path d="M264.795 106.583C266.162 106.583 267.929 105.409 268.84 102.802C269.207 101.752 269.435 100.659 269.521 99.55C265.967 99.5878 261.402 97.759 266.572 86.1295C267.684 83.63 269.843 79.8073 272.526 80.3923C275.135 80.9634 276.926 85.5822 276.705 88.5513C276.615 89.8269 277.501 89.5145 278.55 88.7682C281.479 86.6747 283.54 91.6776 278.058 94.0218C277.694 94.4218 277.421 94.8974 277.262 95.4148C275.847 101.385 275.797 106.302 281.799 107.665" stroke="#013941" stroke-width="2" stroke-linecap="round" stroke-linejoin="round"/>
<path d="M269.969 81.1425C277.606 73.694 300.292 60.6117 297.192 75.887C297.192 75.887 313.975 61.4455 320.178 66.5857C326.347 71.692 302.597 99.0625 277.152 104.28" stroke="#013941" stroke-width="2" stroke-linecap="round" stroke-linejoin="round"/>
<path d="M350.197 126.131C345.722 126.131 343.967 104.099 348.496 103.747C324.218 106.334 299.04 110.384 281.803 107.641C275.805 115.038 270.912 123.265 267.276 132.067C264.968 123.782 264.128 115.157 264.795 106.583C261.545 106.318 226.079 82.8022 211.146 74.0681C207.908 76.2583 205.15 79.0833 203.039 82.3718C200.926 85.6601 199.505 89.3434 198.858 93.198L253.637 126.55C253.623 127.161 253.637 127.802 253.67 128.487C253.951 133.557 255.891 140.779 261.354 152.406C268.11 154.422 278.581 150.711 284.872 147.075C284.474 141.549 287.694 134.578 289.395 129.364C309.735 130.294 329.159 128.682 350.197 126.131Z" stroke="#013941" stroke-width="2" stroke-linecap="round" stroke-linejoin="round"/>
<path d="M261.386 152.406L228.72 187.378C222.82 193.681 218.515 201.304 216.169 209.611L203.957 252.294C207.328 255.271 211.367 257.389 215.735 258.463C220.101 259.538 224.664 259.538 229.031 258.463L241.568 213.047C278.667 180.575 272.311 186.125 276.426 182.575L296.655 213.388C297.843 215.195 299.409 216.721 301.244 217.865C303.08 219.007 305.14 219.74 307.287 220.008C309.432 220.279 311.61 220.08 313.671 219.425C315.733 218.773 317.627 217.68 319.225 216.223L357.449 181.327C356.444 176.993 354.432 172.957 351.577 169.546C348.723 166.135 345.103 163.445 341.014 161.694L311.399 189.155C311.399 189.155 306.294 155.469 284.82 147.075" stroke="#013941" stroke-width="2" stroke-linecap="round" stroke-linejoin="round"/>
<path d="M273.409 185.188L270.763 173.958L276.434 182.579" stroke="#013941" stroke-width="2" stroke-linecap="round" stroke-linejoin="round"/>
<path d="M206.338 254.11C204.848 262.13 202.567 269.981 199.533 277.553C196.653 284.052 194.396 289.873 195.222 290.862C198.116 294.322 207.958 279.373 215.262 275.549C217.001 274.685 218.557 273.491 219.838 272.032C222.404 269.004 220.971 265.491 223.958 259.177" stroke="#013941" stroke-width="2" stroke-linecap="round" stroke-linejoin="round"/>
<path d="M355.907 176.677C362.167 171.348 368.732 166.387 375.568 161.82C381.502 157.885 386.531 154.182 386.379 152.934C385.844 148.473 369.445 155.702 361.276 155.014C359.333 154.811 357.371 154.978 355.491 155.505C351.71 156.648 351.218 160.232 345.282 163.975" stroke="#013941" stroke-width="2" stroke-linecap="round" stroke-linejoin="round"/>
<path d="M198.058 69.7608C198.058 61.4028 204.557 45.8211 207.095 44.5436C207.162 44.5129 207.236 44.5 207.308 44.5065C207.381 44.5131 207.451 44.5386 207.513 44.5806C207.572 44.6228 207.62 44.6797 207.652 44.7461C207.684 44.8126 207.698 44.8862 207.692 44.9595C206.822 53.8866 201.031 69.134 209.103 75.5557" stroke="#013941" stroke-width="2" stroke-linecap="round" stroke-linejoin="round"/>
<path d="M199.835 89.3794C196.924 87.4133 192.816 84.0065 192.954 80.6832C193.334 71.4973 193.276 67.185 193.294 63.5552C193.308 60.8707 195.419 60.7931 196.848 65.4457C198.102 69.5272 199.419 75.2763 199.419 75.2763" stroke="#013941" stroke-width="2" stroke-linecap="round" stroke-linejoin="round"/>
<path d="M205.922 55.5374C206.718 54.2141 207.58 52.8509 207.926 52.2878C210.454 48.1764 211.468 49.1834 211.254 49.9435C210.412 52.9166 208.38 57.3901 207.699 60.1502C206.685 64.2118 204.957 69.8813 208.177 74.7051" stroke="#013941" stroke-width="2" stroke-linecap="round" stroke-linejoin="round"/>
<path d="M167.321 189.991C167.321 189.991 159.796 191.617 149.625 192.864" stroke="#013941" stroke-width="2" stroke-linecap="round" stroke-linejoin="round"/>
<path d="M97.9429 157.284C98.9256 155.647 100.223 154.22 101.76 153.087V153.239C113.935 154.978 123.085 154.902 132.537 152.443C132.403 154.992 131.971 157.517 131.252 159.967C142.743 159.702 154.262 160.017 165.808 160.912C168.512 161.121 171.137 161.917 173.501 163.246C175.865 164.574 177.91 166.402 179.494 168.603C181.078 170.804 182.162 173.326 182.672 175.988C183.181 178.651 183.103 181.393 182.442 184.024C178.064 202.545 172.662 220.809 166.262 238.733C157.701 240.152 148.922 238.245 141.723 233.402C143.604 219.758 146.23 206.228 149.587 192.871C138.171 194.264 121.198 195.544 109.588 192.342C102.709 190.446 97.1012 186.486 94.6634 179.751C91.8794 172.11 94.3868 162.84 97.9429 157.284Z" stroke="#013941" stroke-width="2" stroke-linecap="round" stroke-linejoin="round"/>
<path d="M131.289 160.006C129.399 160.044 127.546 160.12 125.694 160.195" stroke="#013941" stroke-width="2" stroke-linecap="round" stroke-linejoin="round"/>
<path d="M120.519 194.069L105.913 221.86C104.577 224.399 102.718 226.628 100.459 228.397C98.2002 230.168 95.5919 231.44 92.8061 232.128C90.0203 232.819 87.1201 232.91 84.2963 232.397C81.4727 231.885 78.7894 230.781 76.4231 229.157L41.1543 204.998C44.2587 194.664 48.4994 187.93 56.9509 182.673L84.8607 200.541L94.6913 179.745" stroke="#013941" stroke-width="2" stroke-linecap="round" stroke-linejoin="round"/>
<path d="M102.781 189.42L117.186 200.423" stroke="#013941" stroke-width="2" stroke-linecap="round" stroke-linejoin="round"/>
<path d="M115.22 106.091L110.683 102.99C111.99 103.137 113.306 103.175 114.619 103.104" stroke="#013941" stroke-width="2" stroke-linecap="round" stroke-linejoin="round"/>
<path d="M123.69 107.036C123.009 107.452 122.328 107.832 121.648 108.246C120.909 108.827 119.994 109.139 119.054 109.132C118.114 109.126 117.204 108.8 116.474 108.208C115.315 106.755 114.665 104.962 114.625 103.104C120.707 102.748 121.079 98.6583 114.205 86.5452C114.134 86.8978 113.97 87.2252 113.73 87.4938C113.491 87.7623 113.184 87.9626 112.842 88.0741C112.5 88.1855 112.134 88.2042 111.783 88.1282C111.431 88.0524 111.106 87.8844 110.84 87.6417C110.704 87.9246 110.506 88.1732 110.26 88.3688C110.015 88.5644 109.728 88.7019 109.422 88.771C109.116 88.84 108.798 88.839 108.492 88.7678C108.186 88.6968 107.901 88.5573 107.656 88.36C107.562 88.6886 107.386 88.9879 107.146 89.2309C106.905 89.4739 106.607 89.6524 106.28 89.7503C105.953 89.8482 105.606 89.8621 105.271 89.7911C104.937 89.7198 104.626 89.5658 104.367 89.3431C105.652 91.5719 106.182 94.0674 104.442 92.3659C102.476 90.4396 100.359 93.2734 103.461 95.5818C104.042 96.1023 104.469 96.7722 104.695 97.5184C104.922 98.2647 104.94 99.0589 104.747 99.8145C106.541 102.431 107.258 105.638 106.749 108.769C106.408 110.361 104.14 111.605 101.376 110.887C104.673 116.811 111.459 122.27 118.058 119.937C125.319 117.38 123.69 107.036 123.69 107.036Z" stroke="#013941" stroke-width="2" stroke-linecap="round" stroke-linejoin="round"/>
<path d="M170.667 75.9629C180.007 68.9004 180.375 53.9675 180.375 43.2593C180.375 42.919 180.864 42.4633 181.129 42.6623C183.491 44.1986 186.633 60.1206 185.877 68.4984" stroke="#013941" stroke-width="2" stroke-linecap="round" stroke-linejoin="round"/>
<path d="M181.384 88.6603C184.063 87.5814 186.282 85.6027 187.66 83.0645C190.539 76.6567 191.547 69.5653 190.568 62.6092C190.054 59.5884 188.486 59.8491 187.127 64.4241C185.915 68.5076 184.027 73.9901 184.027 73.9901" stroke="#013941" stroke-width="2" stroke-linecap="round" stroke-linejoin="round"/>
<path d="M170.51 75.8688C173.113 72.6848 175.563 67.0332 175.45 64.0502C175.144 60.7058 174.562 57.3924 173.71 54.1439C173.539 53.3479 174.532 52.2893 177.416 57.7259" stroke="#013941" stroke-width="2" stroke-linecap="round" stroke-linejoin="round"/>
<path d="M135.297 124.352C135.156 122.676 134.916 121.01 134.579 119.362L137.56 123.129" stroke="#013941" stroke-width="2" stroke-linecap="round" stroke-linejoin="round"/>
<path d="M132.575 152.444H132.613C134.239 142.84 136.016 133.123 135.297 124.353C150.396 116.433 169.585 101.08 181.465 90.6288C182.813 89.2816 178.094 83.3156 176.797 81.7853C175.466 80.2152 170.26 74.4342 168.423 75.3536C154.544 87.2844 139.581 97.8915 123.728 107.036" stroke="#013941" stroke-width="2" stroke-linecap="round" stroke-linejoin="round"/>
<path d="M162.443 239.214C161.469 243.073 160.724 246.987 160.212 250.935C154.296 247.061 149.122 242.156 144.937 236.454C145.088 236.124 145.215 235.784 145.315 235.433" stroke="#013941" stroke-width="2" stroke-linecap="round" stroke-linejoin="round"/>
<path d="M144.899 250.886C143.68 248.608 142.766 246.18 142.179 243.665C141.536 245.185 141.198 246.817 141.184 248.468C141.659 250.823 142.488 253.091 143.641 255.197C147.536 262.456 151.43 277.656 154.228 277.467C154.644 277.429 155.098 276.635 155.552 275.312C152.575 271.841 148.756 257.965 144.899 250.886Z" stroke="#013941" stroke-width="2" stroke-linecap="round" stroke-linejoin="round"/>
<path d="M144.899 236.494C144.031 238.99 142.933 241.485 142.179 243.676C142.766 246.191 143.68 248.619 144.899 250.898C148.718 257.968 152.537 271.845 155.561 275.323C157.225 270.37 159.002 257.932 160.174 250.936C154.273 247.057 149.102 242.17 144.899 236.494Z" stroke="#013941" stroke-width="2" stroke-linecap="round" stroke-linejoin="round"/>
<path d="M42.7801 200.197C39.4435 198.314 35.9966 196.634 32.458 195.168C37.7568 190.489 43.8528 186.802 50.4556 184.279C51.4764 184.959 51.6277 185.224 52.6107 185.791" stroke="#013941" stroke-width="2" stroke-linecap="round" stroke-linejoin="round"/>
<path d="M39.9067 177.51C37.5095 177.331 35.099 177.522 32.7606 178.079C24.7449 179.929 9.01788 179.627 8.48257 182.387C8.40695 182.803 9.04972 183.446 10.184 184.24C14.3053 182.236 28.7089 182.236 36.6112 180.459C39.1244 179.868 41.7074 179.625 44.2867 179.742C42.9928 178.71 41.5027 177.949 39.9067 177.51Z" stroke="#013941" stroke-width="2" stroke-linecap="round" stroke-linejoin="round"/>
<path d="M44.2548 179.701C41.6755 179.588 39.0929 179.831 36.5794 180.42C28.7149 182.234 14.3112 182.234 10.1899 184.238C14.5003 187.188 26.0304 192.216 32.4581 195.165C37.7718 190.479 43.8793 186.778 50.4934 184.238C48.2626 182.726 46.1453 181.025 44.2548 179.701Z" stroke="#013941" stroke-width="2" stroke-linecap="round" stroke-linejoin="round"/>
<path d="M20.2476 125.598C18.8108 126.09 16.9561 126.653 15.0735 127.224C11.593 128.275 10.3095 127.64 13.788 125.258C17.0769 123.025 20.7058 121.339 24.534 120.267" stroke="#013941" stroke-width="2" stroke-linecap="round" stroke-linejoin="round"/>
<path d="M27.9966 115.883C26.9466 116.909 25.9964 118.031 25.1588 119.236C23.6556 121.489 22.6389 124.03 22.1738 126.697" stroke="#013941" stroke-width="2" stroke-linecap="round" stroke-linejoin="round"/>
<path d="M18.9241 122.351C6.33332 126.775 4.75326 124.711 15.2943 119.893C19.3615 118.152 23.5954 116.831 27.9308 115.949" stroke="#013941" stroke-width="2" stroke-linecap="round" stroke-linejoin="round"/>
<path d="M43.5823 125.676C38.3147 125.381 27.0752 127.345 18.9242 130.054C15.37 131.226 13.4695 130.452 17.4117 127.483C19.0726 126.241 20.8525 125.167 22.7251 124.277" stroke="#013941" stroke-width="2" stroke-linecap="round" stroke-linejoin="round"/>
<path d="M21.758 117.472C17.5252 118.455 7.8777 118.817 22.8923 113.955C25.2365 113.197 28.0663 112.562 30.7189 111.989C30.8688 111.003 30.6963 109.996 30.2274 109.116C28.6354 106.449 29.1727 105.366 31.7776 106.96C35.0836 109.21 39.0091 110.373 43.0072 110.288" stroke="#013941" stroke-width="2" stroke-linecap="round" stroke-linejoin="round"/>
<path d="M30.7188 111.984C30.7021 112.982 30.8915 113.973 31.2754 114.895C31.6593 115.816 32.2294 116.649 32.95 117.34C33.6704 118.031 34.5259 118.566 35.4628 118.912C36.3994 119.257 37.3974 119.405 38.3942 119.347" stroke="#013941" stroke-width="2" stroke-linecap="round" stroke-linejoin="round"/>
<path d="M114.2 86.5823C114.124 88.0568 112.233 88.6618 110.834 87.6787C110.691 87.9546 110.489 88.1959 110.243 88.3856C109.997 88.5754 109.712 88.7094 109.409 88.7776C109.106 88.8461 108.792 88.8475 108.488 88.7818C108.184 88.7159 107.898 88.5848 107.65 88.3971C107.556 88.7255 107.38 89.0246 107.139 89.2674C106.899 89.5101 106.601 89.6884 106.274 89.7862C105.946 89.8839 105.599 89.8976 105.265 89.8264C104.931 89.7551 104.62 89.6009 104.361 89.3782C105.609 91.609 106.176 94.1064 104.437 92.403C102.47 90.4767 100.361 93.2647 103.454 95.6169C104.035 96.1372 104.462 96.8075 104.689 97.5541C104.916 98.301 104.933 99.0956 104.739 99.8516C101.603 94.598 96.0069 90.4389 94.7214 89.1533C91.7364 86.1683 93.8518 84.2758 96.385 85.3723C95.788 83.7465 97.7084 82.3873 99.4835 83.7465C98.9919 82.1545 101.376 80.8351 103.416 82.4988C103.075 80.7595 106.025 80.0411 107.726 81.5535C107.461 80.0033 110.19 79.8859 111.431 81.9316C112.426 83.5535 114.2 86.5823 114.2 86.5823Z" stroke="#013941" stroke-width="2" stroke-linecap="round" stroke-linejoin="round"/>
<path d="M98.8505 135.998L101.615 132.444C100.255 132.181 98.9699 131.914 97.6843 131.689" stroke="#013941" stroke-width="2" stroke-linecap="round" stroke-linejoin="round"/>
<path d="M101.384 110.891C100.892 110.702 77.1058 104.501 43.6877 107.707C41.8754 114.475 42.083 121.625 44.2847 128.276C62.1537 126.823 80.1391 127.971 97.6784 131.685C99.8085 138.649 101.177 145.824 101.76 153.083" stroke="#013941" stroke-width="2" stroke-linecap="round" stroke-linejoin="round"/>
<path d="M77.9794 67.5618C78.0679 68.5863 77.8508 69.6139 77.3555 70.515C76.86 71.4159 76.1088 72.1498 75.1964 72.624C74.2839 73.098 73.2513 73.2908 72.2295 73.1784C71.2074 73.0658 70.2416 72.6527 69.4544 71.9914C68.667 71.3299 68.0934 70.4501 67.8061 69.4629C67.5187 68.4756 67.5305 67.4253 67.8399 66.4448C68.1496 65.4642 68.7426 64.5975 69.5446 63.954C70.3465 63.3106 71.3214 62.9192 72.3457 62.8296C73.7194 62.7142 75.0829 63.147 76.1386 64.0338C77.1941 64.9205 77.856 66.1887 77.9794 67.5618Z" stroke="#013941" stroke-width="2" stroke-linecap="round" stroke-linejoin="round"/>
<path d="M285.244 247.834H268.872" stroke="#013941" stroke-width="2" stroke-linecap="round" stroke-linejoin="round"/>
<path d="M277.059 256.038V239.63" stroke="#013941" stroke-width="2" stroke-linecap="round" stroke-linejoin="round"/>
<path d="M55.6456 106.925C53.7967 113.828 54.1404 121.135 56.6287 127.834" stroke="#013941" stroke-width="2" stroke-linecap="round" stroke-linejoin="round"/>
<path d="M161.315 81.3247C166.998 85.125 171.624 90.3046 174.761 96.3791" stroke="#013941" stroke-width="2" stroke-linecap="round" stroke-linejoin="round"/>
<path d="M350.84 105.94C349.517 106.016 347.172 106.129 346.643 106.167C347.626 103.031 349.369 102.991 350.84 105.94Z" stroke="#013941" stroke-width="2" stroke-linecap="round" stroke-linejoin="round"/>
<path d="M352.05 124.087C351.105 126.658 349.555 126.772 348.231 124.39C349.328 124.322 350.651 124.201 352.05 124.087Z" stroke="#013941" stroke-width="2" stroke-linecap="round" stroke-linejoin="round"/>
<path d="M279.308 149.793C294.621 160.539 298.81 173.805 305.243 197.354C305.468 198.176 305.9 198.927 306.497 199.536C307.096 200.142 307.838 200.586 308.656 200.827C309.474 201.066 310.34 201.092 311.17 200.903C312.001 200.712 312.769 200.314 313.402 199.742L349.37 167.15" stroke="#013941" stroke-width="2" stroke-linecap="round" stroke-linejoin="round"/>
<path d="M219.837 259.137L232.879 209.156L271.216 175.845" stroke="#013941" stroke-width="2" stroke-linecap="round" stroke-linejoin="round"/>
<path d="M122.064 158.456C120.617 160.906 118.665 163.019 116.338 164.657C114.01 166.293 111.361 167.415 108.566 167.947" stroke="#013941" stroke-width="2" stroke-linecap="round" stroke-linejoin="round"/>
<path d="M143.803 220.497C147.63 223.257 151.99 225.191 156.605 226.176C161.22 227.159 165.99 227.171 170.61 226.21" stroke="#013941" stroke-width="2" stroke-linecap="round" stroke-linejoin="round"/>
<path d="M67.128 189.198C59.7192 194.189 54.989 202.281 52.1194 212.481" stroke="#013941" stroke-width="2" stroke-linecap="round" stroke-linejoin="round"/>
<path d="M322.333 179.02L311.786 195.656C311.774 193.483 311.649 191.312 311.408 189.153" stroke="#013941" stroke-width="2" stroke-linecap="round" stroke-linejoin="round"/>
<path d="M170.679 75.9667C176.096 71.8832 177.416 65.8177 177.605 60.2994C177.217 56.44 176.56 52.6127 175.639 48.845C175.519 48.0888 176.584 47.1813 178.739 51.5295L179.987 54.2439" stroke="#013941" stroke-width="2" stroke-linecap="round" stroke-linejoin="round"/>
<path d="M193.37 6.61843C190.339 6.61843 187.377 7.51712 184.857 9.20086C182.337 10.8846 180.373 13.2776 179.213 16.0775C178.053 18.8774 177.75 21.9583 178.341 24.9308C178.932 27.9031 180.392 30.6336 182.535 32.7764C184.678 34.9194 187.408 36.3787 190.38 36.9699C193.353 37.5613 196.434 37.2579 199.234 36.0981C202.034 34.9383 204.426 32.9742 206.11 30.4545C207.793 27.9345 208.693 24.972 208.693 21.9414C208.697 19.9282 208.303 17.934 207.534 16.0733C206.764 14.2125 205.636 12.5218 204.213 11.0983C202.788 9.67468 201.099 8.54615 199.238 7.77741C197.377 7.00867 195.383 6.61485 193.37 6.61843Z" stroke="#013941" stroke-width="2" stroke-linejoin="round"/>
<path d="M191.877 13.6187C191.877 14.0146 192.034 14.3942 192.314 14.6741C192.594 14.954 192.974 15.1112 193.369 15.1112C193.765 15.1112 194.145 14.954 194.425 14.6741C194.705 14.3942 194.862 14.0146 194.862 13.6187C194.862 13.2229 194.705 12.8433 194.425 12.5634C194.145 12.2835 193.765 12.1262 193.369 12.1262C192.974 12.1262 192.594 12.2835 192.314 12.5634C192.034 12.8433 191.877 13.2229 191.877 13.6187Z" stroke="#013941" stroke-width="2" stroke-linejoin="round"/>
<path d="M194.1 19.1525C194.1 18.7404 193.766 18.4062 193.354 18.4062C192.942 18.4062 192.607 18.7404 192.607 19.1525H194.1ZM192.607 31.4656C192.607 31.8778 192.942 32.2119 193.354 32.2119C193.766 32.2119 194.1 31.8778 194.1 31.4656H192.607ZM192.607 19.1525V31.4656H194.1V19.1525H192.607Z" 
fill="#013941"/>
</g>
<defs>
<clipPath id="clip0_163_321">
<rect width="393" height="298" 
fill="white"/>
</clipPath>
</defs>
</svg>
