<svg width="406" height="364" viewBox="0 0 406 364" fill="none" xmlns="http://www.w3.org/2000/svg">
<g clip-path="url(#clip0_180_495)">
<path d="M273.306 112.124C272.245 105.226 266.408 98.1021 260.952 94.6534C260.382 94.2753 259.815 93.9331 259.246 93.5928C246.892 102.15 224.304 115.99 197.775 120.197C195.729 120.537 193.228 120.044 191.674 121.447C186.786 125.805 185.801 141.04 173.712 141.381C172.042 145.627 170.528 149.719 168.898 153.205C170.874 150.437 185.316 153.062 188.983 153.888C192.581 154.684 208.101 158.913 207.441 162.226C210.169 156.349 209.108 150.401 207.327 144.185C228.966 140.017 258.944 124.706 273.306 112.124Z" fill="#E8F8F6"/>
<path d="M84.0466 176.058C80.1977 179.758 75.3381 182.233 70.0823 183.171C64.8267 184.108 59.411 183.467 54.5201 181.326C49.6293 179.186 45.4829 175.644 42.6054 171.147C39.7279 166.65 38.2485 161.401 38.3542 156.063C38.46 150.726 40.1462 145.539 43.1996 141.16C46.2529 136.781 50.5364 133.405 55.5082 131.46C60.48 129.516 65.9169 129.089 71.1313 130.234C76.3457 131.379 81.1033 134.045 84.8028 137.894C87.2612 140.448 89.1921 143.462 90.4848 146.764C91.7775 150.065 92.4067 153.588 92.3367 157.133C92.2665 160.678 91.4981 164.173 90.0755 167.421C88.653 170.668 86.6043 173.603 84.0466 176.058Z" fill="#E8F8F6"/>
<path d="M374.113 282.133C376.841 272.697 385.938 275.576 390.94 269.891C391.85 278.571 387.074 287.287 378.433 287.703L374.113 282.133Z" fill="#E8F8F6"/>
<path d="M168.443 300.816C164.994 302.826 158.552 298.657 151.504 290.697C151.627 293.443 152.406 296.121 153.776 298.505C158.552 307.448 158.326 329.506 163.631 327.957C165.11 327.502 166.853 319.997 168.407 311.397C169.211 307.241 170.275 303.14 171.591 299.116C170.932 299.453 169.103 300.376 168.443 300.816Z" fill="#14B8A6"/>
<path d="M190.5 110.76C191.196 112.783 192.22 114.678 193.533 116.368C196.866 115.877 200.571 114.866 201.262 113.337C201.382 113.08 201.484 112.814 201.566 112.541C200.695 115.307 195.654 113.451 190.5 110.76Z" fill="#14B8A6"/>
<path d="M194.971 90.4086C188.263 83.36 166.397 88.8922 151.579 99.6183C136.686 110.38 140.969 120.462 160.258 115.839C159.121 116.179 146.765 119.892 138.694 129.172C126.832 142.815 137.14 148.045 150.435 145.317C166.313 142.057 179.957 129.021 184.579 120C186.703 114.685 188.143 109.122 188.866 103.445C183.334 98.9357 186.707 94.8423 189.737 97.9507C191.367 99.6183 193.186 98.8223 191.178 93.3737C193.202 92.118 195.632 91.716 194.971 90.4086Z" fill="#14B8A6"/>
<path d="M245.565 310.745C244.865 301.747 244.966 292.704 245.868 283.723C238.678 285.753 231.05 285.635 223.926 283.383C224.077 289.675 222.107 292.857 223.737 296.762C224.716 298.951 226.105 300.931 227.828 302.596C234.954 309.798 241.056 331.019 245.716 327.989C247.006 327.151 246.512 319.462 245.565 310.745Z" fill="#14B8A6"/>
<path d="M174.279 151.993C173.938 153.752 173.405 155.468 172.687 157.109C166.51 154.039 167.951 152.031 174.279 151.993Z" fill="#14B8A6"/>
<path d="M207.478 162.18C207.325 162.901 206.302 163.356 204.597 163.573C205.242 162.399 205.811 161.337 206.302 160.276C207.174 161.012 207.59 161.657 207.478 162.18Z" fill="#14B8A6"/>
<path d="M224.455 220.321L220.475 231.728C220.324 227.294 220.173 222.936 220.095 218.654L224.455 220.321Z" fill="#14B8A6"/>
<path d="M88.3531 300.853C78.1762 283.433 64.6721 268.595 58.2921 271.053C49.6575 274.38 61.3726 301.062 68.0909 312.715C79.3841 332.271 93.0276 345.535 98.719 342.474C106.991 337.865 93.4773 309.623 88.3531 300.853Z" fill="#14B8A6"/>
<path d="M158.325 259.811C147.108 240.407 133.502 227.295 127.892 230.558C122.247 233.816 126.794 252.16 137.974 271.562C149.153 290.965 162.797 304.041 168.405 300.815C174.052 297.558 169.505 279.214 158.325 259.811Z" fill="#14B8A6"/>
<path d="M171.589 299.11C170.276 303.134 169.213 307.236 168.405 311.391C166.868 319.995 165.111 327.51 163.629 327.951C158.333 329.543 158.532 307.454 153.774 298.499C152.401 296.117 151.622 293.439 151.502 290.691" stroke="#013941" stroke-width="2" stroke-linecap="round" stroke-linejoin="round"/>
<path d="M302.752 156.503C301.995 155.279 300.981 154.237 299.777 153.449C298.573 152.661 297.211 152.148 295.787 151.945C294.362 151.743 292.911 151.856 291.536 152.276C290.161 152.697 288.893 153.415 287.827 154.38C287.405 152.94 286.655 151.617 285.64 150.514C284.623 149.41 283.365 148.556 281.964 148.017C280.565 147.478 279.059 147.269 277.564 147.406C276.07 147.543 274.629 148.023 273.349 148.808C272.243 149.489 271.282 150.382 270.522 151.435C269.759 152.489 269.214 153.682 268.916 154.947C267.342 153.76 265.447 153.077 263.479 152.986C261.511 152.895 259.561 153.401 257.885 154.438C256.21 155.474 254.886 156.993 254.088 158.795C253.29 160.596 253.057 162.597 253.416 164.535C252.136 164.2 250.803 164.124 249.495 164.313C248.186 164.502 246.93 164.952 245.798 165.635C244.52 166.419 243.442 167.486 242.642 168.754C241.842 170.022 241.344 171.456 241.187 172.946C241.03 174.436 241.217 175.943 241.734 177.35C242.25 178.757 243.083 180.026 244.168 181.06C242.839 181.583 241.641 182.391 240.658 183.427C239.675 184.462 238.928 185.7 238.475 187.054C238.019 188.407 237.866 189.844 238.025 191.264C238.182 192.683 238.65 194.05 239.392 195.27C240.429 196.984 241.979 198.331 243.82 199.119C245.662 199.907 247.706 200.098 249.662 199.666L302.567 167.229C303.898 166.427 305.516 160.967 302.752 156.503Z" stroke="#013941" stroke-width="2" stroke-linecap="round" stroke-linejoin="round"/>
<path d="M262.619 171.547C263.869 172.725 264.675 174.298 264.902 176C265.129 177.703 264.763 179.432 263.863 180.896C262.964 182.359 261.589 183.469 259.969 184.037C258.347 184.606 256.58 184.599 254.964 184.017" stroke="#013941" stroke-width="2" stroke-linecap="round" stroke-linejoin="round"/>
<path d="M286.191 164.878C285.98 166.411 285.303 167.842 284.249 168.975C283.194 170.107 281.815 170.886 280.303 171.206C278.788 171.525 277.212 171.369 275.789 170.758C274.368 170.148 273.17 169.113 272.359 167.796C272.014 167.227 271.748 166.615 271.562 165.977" stroke="#013941" stroke-width="2" stroke-linecap="round" stroke-linejoin="round"/>
<path d="M287.821 154.38C286.802 155.341 285.956 156.47 285.319 157.717" stroke="#013941" stroke-width="2" stroke-linecap="round" stroke-linejoin="round"/>
<path d="M247.619 180.421C246.443 180.48 245.28 180.696 244.162 181.062" stroke="#013941" stroke-width="2" stroke-linecap="round" stroke-linejoin="round"/>
<path d="M268.91 154.948C268.661 156.183 268.621 157.451 268.788 158.7" stroke="#013941" stroke-width="2" stroke-linecap="round" stroke-linejoin="round"/>
<path d="M257.165 166.294C256.029 165.489 254.757 164.894 253.41 164.537" stroke="#013941" stroke-width="2" stroke-linecap="round" stroke-linejoin="round"/>
<path d="M316.244 178.406C313.432 173.775 307.629 172.95 306.618 173.708L253.674 206.187C252.16 207.096 250.08 212.598 252.956 217.251C253.704 218.467 254.709 219.506 255.899 220.292C257.091 221.08 258.44 221.595 259.853 221.804C261.266 222.011 262.707 221.908 264.076 221.5C265.443 221.092 266.707 220.389 267.773 219.44C268.38 221.527 269.67 223.352 271.433 224.624C273.196 225.895 275.333 226.54 277.506 226.459C279.679 226.375 281.763 225.569 283.425 224.166C285.086 222.765 286.231 220.847 286.678 218.72C288.242 219.918 290.133 220.616 292.101 220.721C294.069 220.829 296.023 220.337 297.709 219.313C299.392 218.288 300.728 216.779 301.54 214.982C302.35 213.185 302.598 211.185 302.254 209.245C304.354 209.776 306.57 209.595 308.556 208.732C310.542 207.866 312.186 206.366 313.227 204.467C314.268 202.567 314.648 200.376 314.307 198.234C313.967 196.096 312.926 194.13 311.348 192.647C312.692 192.137 313.907 191.338 314.908 190.306C315.907 189.274 316.67 188.034 317.137 186.675C317.603 185.315 317.766 183.87 317.611 182.441C317.458 181.012 316.99 179.634 316.244 178.406Z" stroke="#013941" stroke-width="2" stroke-linecap="round" stroke-linejoin="round"/>
<path d="M284.599 207.399C284.209 206.08 283.465 204.894 282.446 203.971C281.427 203.047 280.175 202.422 278.824 202.164C277.473 201.905 276.078 202.024 274.79 202.506C273.503 202.99 272.372 203.815 271.525 204.898C270.695 205.967 270.16 207.234 269.97 208.573" stroke="#013941" stroke-width="2" stroke-linecap="round" stroke-linejoin="round"/>
<path d="M301.237 189.443C299.779 188.939 298.198 188.897 296.714 189.324C295.231 189.75 293.914 190.623 292.945 191.825C291.976 193.026 291.399 194.497 291.297 196.038C291.194 197.578 291.568 199.114 292.368 200.433C292.71 201.006 293.132 201.53 293.62 201.988" stroke="#013941" stroke-width="2" stroke-linecap="round" stroke-linejoin="round"/>
<path d="M311.355 192.657C310.019 193.15 308.608 193.407 307.186 193.415" stroke="#013941" stroke-width="2" stroke-linecap="round" stroke-linejoin="round"/>
<path d="M269.871 216.707C269.304 217.717 268.597 218.643 267.773 219.459" stroke="#013941" stroke-width="2" stroke-linecap="round" stroke-linejoin="round"/>
<path d="M302.26 209.256C301.04 208.906 299.886 208.358 298.843 207.636" stroke="#013941" stroke-width="2" stroke-linecap="round" stroke-linejoin="round"/>
<path d="M286.792 214.671C286.973 216.022 286.935 217.391 286.685 218.731" stroke="#013941" stroke-width="2" stroke-linecap="round" stroke-linejoin="round"/>
<path d="M253.674 206.187L248.029 209.596" stroke="#013941" stroke-width="2" stroke-linecap="round" stroke-linejoin="round"/>
<path d="M249.658 199.668L244.086 203.042" stroke="#013941" stroke-width="2" stroke-linecap="round" stroke-linejoin="round"/>
<path d="M220.288 226.461L160.106 262.994" stroke="#013941" stroke-width="2" stroke-linecap="round" stroke-linejoin="round"/>
<path d="M219.074 218.236L156.278 256.4" stroke="#013941" stroke-width="2" stroke-linecap="round" stroke-linejoin="round"/>
<path d="M272.51 112.807C285.988 111.56 299.54 114.234 311.533 120.507C323.527 126.78 333.455 136.384 340.12 148.165C360.251 182.761 349.706 227.443 316.584 247.95C295.866 260.777 290.117 253.995 249.885 265.462" stroke="#013941" stroke-width="2" stroke-linecap="round" stroke-linejoin="round"/>
<path d="M168.839 300.521C187.242 290.923 203.689 282.533 220.628 275.614" stroke="#013941" stroke-width="2" stroke-linecap="round" stroke-linejoin="round"/>
<path d="M170.944 198.265C158.174 208.497 144.188 218.465 127.854 230.517" stroke="#013941" stroke-width="2" stroke-linecap="round" stroke-linejoin="round"/>
<path d="M225.82 138.766C217.878 150.707 208.967 161.975 199.178 172.457" stroke="#013941" stroke-width="2" stroke-linecap="round" stroke-linejoin="round"/>
<path d="M259.208 93.6308C265.612 97.2307 272.131 104.622 273.306 112.124C258.942 124.707 228.966 140.018 207.327 144.185C209.108 150.402 210.169 156.352 207.441 162.226C208.101 158.917 192.808 154.742 188.983 153.888C185.25 153.054 170.858 150.463 168.898 153.205C170.528 149.719 172.044 145.626 173.712 141.381C185.801 141.041 186.766 125.783 191.674 121.447C193.22 120.082 195.654 120.54 197.775 120.197C224.288 115.885 246.892 102.158 259.246 93.593L259.208 93.6308Z" stroke="#013941" stroke-width="2" stroke-linecap="round" stroke-linejoin="round"/>
<path d="M171.067 159.952C181.917 159.779 192.602 162.617 201.936 168.151" stroke="#013941" stroke-width="2" stroke-linecap="round" stroke-linejoin="round"/>
<path d="M201.391 112.946C200.155 115.107 195.379 113.308 190.5 110.757C191.195 112.78 192.22 114.675 193.533 116.365" stroke="#013941" stroke-width="2" stroke-linecap="round" stroke-linejoin="round"/>
<path d="M196.37 120.339C193.729 119.69 194.436 118.405 193.532 116.369C200.657 115.316 201.89 114.005 201.598 110.435C201.17 105.249 198.125 93.9494 194.971 90.4092" stroke="#013941" stroke-width="2" stroke-linecap="round" stroke-linejoin="round"/>
<path d="M207.327 144.184C205.128 144.602 203.007 144.904 201.035 145.095" stroke="#013941" stroke-width="2" stroke-linecap="round" stroke-linejoin="round"/>
<path d="M191.182 93.3658C193.19 98.8224 191.381 99.6184 189.742 97.9428C186.709 94.8364 183.338 98.9378 188.87 103.437C188.149 109.116 186.71 114.681 184.587 119.998C179.965 129.019 166.321 142.055 150.443 145.315C137.14 148.043 126.832 142.813 138.702 129.17C146.773 119.885 159.129 116.171 160.266 115.837C140.977 120.46 136.698 110.384 151.587 99.6164C166.409 88.8963 188.271 83.3581 194.979 90.4067C195.62 91.7042 193.13 92.1619 191.182 93.3658Z" stroke="#013941" stroke-width="2" stroke-linecap="round" stroke-linejoin="round"/>
<path d="M173.712 141.381C175.714 135.965 178.293 130.781 181.405 125.919C182.636 124.078 183.689 122.124 184.55 120.084" stroke="#013941" stroke-width="2" stroke-linecap="round" stroke-linejoin="round"/>
<path d="M199.236 172.396C201.864 168.527 204.231 164.486 206.322 160.301" stroke="#013941" stroke-width="2" stroke-linecap="round" stroke-linejoin="round"/>
<path d="M281.568 91.7743C287.289 90.4092 292 92.9882 291.61 95.1852C291.522 95.6256 291.341 96.0423 291.08 96.4078C290.818 96.7736 290.483 97.0797 290.095 97.3065" stroke="#013941" stroke-width="2" stroke-linecap="round" stroke-linejoin="round"/>
<path d="M281.037 88.287C287.063 86.8463 293.05 89.879 290.473 93.063" stroke="#013941" stroke-width="2" stroke-linecap="round" stroke-linejoin="round"/>
<path d="M272.661 109.395C276.227 105.325 280.802 102.266 285.926 100.528" stroke="#013941" stroke-width="2" stroke-linecap="round" stroke-linejoin="round"/>
<path d="M281.339 95.865C286.911 94.7287 290.581 96.9257 290.36 99.0868C290.087 101.739 284.788 105.757 280.316 103.18" stroke="#013941" stroke-width="2" stroke-linecap="round" stroke-linejoin="round"/>
<path d="M276.641 86.278C276.716 86.2023 279.029 82.9825 278.006 81.9577C277.134 81.0861 264.552 91.4321 261.027 94.7295" stroke="#013941" stroke-width="2" stroke-linecap="round" stroke-linejoin="round"/>
<path d="M283.878 87.9077C293.884 83.0959 296.571 77.2911 294.68 78.3557C288.372 81.5138 281.892 84.3225 275.276 86.7694C270.153 88.7182 265.342 91.3994 260.99 94.7294" stroke="#013941" stroke-width="2" stroke-linecap="round" stroke-linejoin="round"/>
<path d="M245.868 283.723C244.974 292.704 244.873 301.746 245.565 310.745C246.53 319.459 247.004 327.153 245.716 327.989C241.052 331.015 234.94 309.812 227.828 302.596C226.101 300.932 224.712 298.95 223.737 296.761C222.103 292.851 224.083 289.663 223.924 283.351" stroke="#013941" stroke-width="2" stroke-linecap="round" stroke-linejoin="round"/>
<path d="M158.325 259.811C169.519 279.206 174.056 297.563 168.405 300.805C162.801 304.033 149.153 290.953 137.974 271.552C126.794 252.152 122.251 233.82 127.892 230.554C133.534 227.288 147.122 240.399 158.325 259.811Z" stroke="#013941" stroke-width="2" stroke-linecap="round" stroke-linejoin="round"/>
<path d="M100.805 331.792C97.9708 314.155 80.9364 284.81 67.1059 274.214C59.9618 268.679 54.8455 269.658 55.4305 278.94C56.541 296.551 76.1524 330.529 90.7909 340.498C98.918 346.031 102.412 341.804 100.805 331.792Z" stroke="#013941" stroke-width="2" stroke-linecap="round" stroke-linejoin="round"/>
<path d="M99.0951 342.276L110.347 335.766C111.431 334.917 112.167 333.701 112.419 332.347C112.67 330.994 112.419 329.595 111.712 328.413C116.189 335.157 124.975 328.194 121.451 322.35C124.72 327.922 135.001 324.324 130.774 315.87C131.732 317.112 133.097 317.974 134.629 318.306C136.161 318.64 137.761 318.421 139.148 317.689C143.725 314.768 142.027 309.086 139.188 299.839C133.876 283.957 125.45 269.292 114.402 256.706C111.747 253.543 108.707 250.724 105.354 248.316C100.05 245.026 94.0843 247.492 96.136 256.441C94.4485 253.629 92.4684 251.79 89.1232 252.688C88.2787 252.923 87.5 253.35 86.8483 253.935C86.1963 254.523 85.6891 255.251 85.3663 256.067C85.0433 256.881 84.9136 257.76 84.9872 258.634C85.0606 259.507 85.3355 260.351 85.79 261.101C85.79 261.101 81.8637 256.138 77.4141 259.663C76.309 260.524 75.5646 261.766 75.3262 263.145C75.0878 264.526 75.3723 265.945 76.1245 267.127C75.7663 266.494 75.2864 265.941 74.7124 265.495C74.1385 265.05 73.4822 264.723 72.7809 264.532C72.0799 264.341 71.3481 264.293 70.6278 264.387C69.9074 264.48 69.2131 264.717 68.5844 265.081L57.9937 271.175" stroke="#013941" stroke-width="2" stroke-linecap="round" stroke-linejoin="round"/>
<path d="M374.113 282.133C369.439 284.714 364.957 287.628 360.699 290.85C348.189 300.511 335.989 312.64 337.615 314.763C339.24 316.887 354.028 308.174 366.567 298.505C370.77 295.202 374.722 291.592 378.392 287.703" stroke="#013941" stroke-width="2" stroke-linecap="round" stroke-linejoin="round"/>
<path d="M374.113 282.134C376.841 272.697 385.938 275.577 390.94 269.891C391.85 278.571 387.074 287.288 378.433 287.704L374.113 282.134Z" stroke="#013941" stroke-width="2" stroke-linecap="round" stroke-linejoin="round"/>
<path d="M362.271 289.662L368.125 297.254" stroke="#013941" stroke-width="2" stroke-linecap="round" stroke-linejoin="round"/>
<path d="M383.02 100.603L378.055 111.725H387.149L382.147 122.849" stroke="#013941" stroke-width="2" stroke-linecap="round" stroke-linejoin="round"/>
<path d="M174.279 151.994C173.938 153.752 173.405 155.468 172.687 157.11C166.51 154.039 167.951 152.031 174.279 151.994Z" stroke="#013941" stroke-width="2" stroke-linecap="round" stroke-linejoin="round"/>
<path d="M207.441 162.226C207.258 162.912 206.284 163.36 204.639 163.583" stroke="#013941" stroke-width="2" stroke-linecap="round" stroke-linejoin="round"/>
<path d="M174.279 151.994C173.658 156.299 171.473 160.225 168.14 163.02C153.247 174.845 153.016 191.406 163.895 203.799" stroke="#013941" stroke-width="2" stroke-linecap="round" stroke-linejoin="round"/>
<path d="M57.3309 271.589L40.5393 281.109" stroke="#013941" stroke-width="2" stroke-linecap="round" stroke-linejoin="round"/>
<path d="M98.325 342.691L83.2507 351.484" stroke="#013941" stroke-width="2" stroke-linecap="round" stroke-linejoin="round"/>
<path d="M75.9733 356.07L64.7935 362.589" stroke="#013941" stroke-width="2" stroke-linecap="round" stroke-linejoin="round"/>
<path d="M32.7326 285.998L21.3259 292.479" stroke="#013941" stroke-width="2" stroke-linecap="round" stroke-linejoin="round"/>
<path d="M68.1287 312.715L31.4053 334.43" stroke="#013941" stroke-width="2" stroke-linecap="round" stroke-linejoin="round"/>
<path d="M24.092 339.017L12.95 345.497" stroke="#013941" stroke-width="2" stroke-linecap="round" stroke-linejoin="round"/>
<path d="M84.0466 176.059C80.1977 179.758 75.3381 182.234 70.0823 183.171C64.8267 184.109 59.411 183.467 54.5201 181.327C49.6293 179.187 45.4829 175.644 42.6054 171.147C39.7279 166.65 38.2485 161.401 38.3542 156.064C38.46 150.726 40.1462 145.54 43.1996 141.161C46.2529 136.781 50.5364 133.406 55.5082 131.461C60.48 129.516 65.9169 129.089 71.1313 130.234C76.3457 131.38 81.1033 134.045 84.8028 137.895C87.2612 140.449 89.1921 143.463 90.4848 146.764C91.7775 150.065 92.4067 153.589 92.3367 157.134C92.2665 160.678 91.4981 164.174 90.0755 167.421C88.653 170.669 86.6043 173.604 84.0466 176.059Z" stroke="#013941" stroke-width="2" stroke-linecap="round" stroke-linejoin="round"/>
<path d="M92.3072 158.201C100.683 162.181 105.64 165.962 104.928 168.35C103.652 172.662 84.8029 171.002 62.7855 164.634C40.7682 158.266 23.9347 149.604 25.1904 145.285C25.9068 142.82 32.2768 142.29 41.7074 143.467" stroke="#013941" stroke-width="2" stroke-linecap="round" stroke-linejoin="round"/>
<path d="M165.384 186.364C166.483 193.262 170.359 199.586 175.579 201.222C191.879 206.32 220.107 218.692 220.107 218.692C220.459 238.21 222.226 259.686 220.336 282.133C229.374 285.938 239.519 286.167 248.721 282.776C250.313 261.592 251.334 241.278 250.956 222.519C250.87 217.85 249.79 213.255 247.784 209.038C245.776 204.824 242.893 201.084 239.322 198.076C224.594 185.9 208.173 175.93 190.575 168.478" stroke="#013941" stroke-width="2" stroke-linecap="round" stroke-linejoin="round"/>
<path d="M220.097 218.692L224.455 220.322L220.477 231.728" stroke="#013941" stroke-width="2" stroke-linecap="round" stroke-linejoin="round"/>
<path d="M221.122 267.163C230.336 270.325 240.256 270.811 249.734 268.566" stroke="#013941" stroke-width="2" stroke-linecap="round" stroke-linejoin="round"/>
<path d="M212.784 10.2937V16.6239" stroke="#013941" stroke-width="2" stroke-linecap="round" stroke-linejoin="round"/>
<path d="M225.1 22.6099H218.77" stroke="#013941" stroke-width="2" stroke-linecap="round" stroke-linejoin="round"/>
<path d="M212.784 34.9283V28.5981" stroke="#013941" stroke-width="2" stroke-linecap="round" stroke-linejoin="round"/>
<path d="M200.468 22.6099H206.8" stroke="#013941" stroke-width="2" stroke-linecap="round" stroke-linejoin="round"/>
<path d="M218.77 22.6097C217.984 22.6117 217.204 22.4585 216.477 22.1584C215.749 21.8583 215.088 21.4173 214.533 20.8611C213.976 20.3049 213.536 19.6442 213.235 18.9169C212.935 18.1898 212.782 17.4104 212.784 16.6238C212.786 17.4103 212.632 18.1895 212.332 18.9165C212.033 19.6436 211.592 20.3041 211.036 20.8605C210.479 21.4167 209.819 21.8575 209.092 22.1578C208.366 22.4579 207.586 22.6115 206.8 22.6097C207.586 22.6079 208.366 22.7616 209.092 23.0618C209.821 23.3621 210.481 23.8031 211.036 24.3597C211.592 24.9161 212.033 25.577 212.334 26.3044C212.632 27.0315 212.786 27.811 212.784 28.5976C212.782 27.8108 212.935 27.0313 213.235 26.3038C213.534 25.5764 213.976 24.9153 214.531 24.3589C215.088 23.8025 215.749 23.3615 216.475 23.0612C217.204 22.761 217.984 22.6075 218.77 22.6097Z" stroke="#013941" stroke-width="2" stroke-linecap="round" stroke-linejoin="round"/>
</g>
<defs>
<clipPath id="clip0_180_495">
<rect width="406" height="364" fill="white"/>
</clipPath>
</defs>
</svg>
