<svg width="392" height="349" viewBox="0 0 392 349" fill="none" xmlns="http://www.w3.org/2000/svg">
<g clip-path="url(#clip0_163_691)">
<path d="M286.598 191.911C273.77 178.45 240.079 160.512 223.849 151.597C218.333 160.934 198.025 162.168 186.757 158.743C180.785 163.353 176.301 169.618 173.862 176.757C176.693 180.858 173.862 194.786 172.792 204.965C174.28 213.228 176.538 221.333 179.536 229.175C173.367 222.294 166.907 215.526 161.689 210.384C139.401 197.129 144.452 200.036 136.394 195.336C135.335 195.873 134.312 196.48 133.332 197.15C128.449 200.452 124.467 204.919 121.747 210.149C119.027 215.377 117.654 221.202 117.754 227.096C120.9 229.683 163.401 260.528 181.199 272.052C202.259 285.626 217.005 278.253 219.161 259.008C220.249 249.006 223.877 202.143 224.076 199.457C229.62 205.331 246.991 219.225 255.231 221.235C254.69 226.919 249.174 274.713 248.804 277.799C258.953 286.314 277.81 288.565 286.311 284.643C288.397 272.305 293.334 227.979 294.024 213.068C294.365 205.642 294.189 199.871 286.598 191.911Z" fill="#E8F8F6"/>
<path d="M282.946 37.4147C279.364 38.1311 278.966 47.7627 278.938 51.4422C282.988 50.964 287.095 51.5114 290.878 53.0342C288.882 43.6155 285.706 37.0744 282.946 37.4147Z" fill="#E8F8F6"/>
<path d="M292.89 69.2129C289.601 71.5981 285.772 73.131 281.746 73.6745C282.64 77.161 285.4 86.5259 288.968 86.303C291.714 85.9627 293.193 78.8544 292.89 69.2129Z" fill="#E8F8F6"/>
<path d="M264.873 56.4331L243.964 59.0042C241.998 62.4827 242.571 69.591 244.834 73.372C246.426 72.1999 250.008 71.8596 252.925 71.5571C255.345 71.3302 255.836 72.0864 256.214 73.4476C256.29 73.7123 256.328 73.9769 256.403 74.2794C258.179 73.2207 261.858 71.977 263.209 72.6536L266.791 72.1999C263.655 69.0995 262.604 60.4032 264.873 56.4331Z" fill="#E8F8F6"/>
<path d="M150.46 307.529L139.154 299.589C137.885 298.702 137.02 297.347 136.75 295.822C136.48 294.296 136.827 292.726 137.715 291.456C138.602 290.188 139.957 289.323 141.483 289.052C143.008 288.784 144.578 289.13 145.847 290.017L147.586 291.227L148.796 289.488C149.684 288.22 151.039 287.355 152.563 287.086C154.088 286.817 155.657 287.164 156.925 288.051C158.194 288.939 159.058 290.294 159.327 291.818C159.597 293.343 159.25 294.913 158.362 296.18L150.46 307.529Z" fill="#E8F8F6"/>
<path d="M107.432 86.4541C112.444 86.4541 116.506 82.3913 116.506 77.3797C116.506 72.3681 112.444 68.3053 107.432 68.3053C102.42 68.3053 98.3577 72.3681 98.3577 77.3797C98.3577 82.3913 102.42 86.4541 107.432 86.4541Z" fill="#14B8A6"/>
<path d="M274.439 286.468C266.733 286.279 259.197 284.174 252.509 280.343C250.505 286.512 246.724 290.589 245.363 293.652C251.261 306.054 274.666 326.885 288.202 335.044C287.384 312.937 273.669 302.653 274.439 286.468Z" fill="#14B8A6"/>
<path d="M126.11 190.885C128.038 192.17 130.231 194.703 133.294 197.161C129.378 199.847 126.033 203.28 123.45 207.264C120.867 211.25 119.099 215.706 118.246 220.376C107.167 221.851 95.1815 228.468 78.0476 226.086C83.8385 215.612 112.914 194.552 126.11 190.885Z" fill="#14B8A6"/>
<path d="M176.019 218.676C177.003 222.003 178.175 225.519 179.536 229.187C173.367 222.343 166.907 215.537 161.689 210.32C167.701 213.874 172.995 216.984 176.019 218.676Z" fill="#14B8A6"/>
<path d="M224.038 199.472C223.698 203.593 223.357 208.206 222.979 213.004C225.513 213.647 243.434 218.335 252.131 220.528C241.914 214.723 232.476 207.649 224.038 199.472Z" fill="#14B8A6"/>
<path d="M223.32 138.706C225.097 144.151 227.18 149.49 229.558 154.7C227.706 153.679 225.815 152.658 223.849 151.6C223.773 146.76 223.584 142.487 223.32 138.706Z" fill="#14B8A6"/>
<path d="M135.865 170.505C134.273 173.265 133.937 175.798 135.069 177.271C136.241 178.745 138.359 179.312 142.669 177.989C139.983 175.909 137.68 173.376 135.865 170.505Z" fill="#14B8A6"/>
<path d="M162.861 160.108C163.287 160.835 163.434 161.693 163.274 162.521C163.114 163.349 162.658 164.091 161.992 164.607C159.534 162.187 157.265 159.919 155.337 157.841C159.689 157.27 161.542 158.512 162.861 160.108Z" fill="#14B8A6"/>
<path d="M173.562 127.1C171.795 130.815 169.839 134.437 167.701 137.951C164.752 134.966 162.143 132.469 160.366 130.986C165.622 129.406 170.722 127.894 173.562 127.1Z" fill="#14B8A6"/>
<path d="M235.419 105.359C231.751 106.115 229.067 107.665 229.18 109.102C229.18 111.213 235.723 111.834 235.986 111.862C235.873 110.501 235.646 108.081 235.419 105.359Z" fill="#14B8A6"/>
<path d="M264.154 106.909C264.081 108.195 261.508 109.669 257.273 110.728C257.122 109.405 256.592 106.72 256.063 104.036C261.848 104.452 264.232 105.586 264.154 106.909Z" fill="#14B8A6"/>
<path d="M263.776 91.0292C262.306 91.9633 260.658 92.5812 258.937 92.844C256.063 93.2978 254.097 90.8779 258.294 88.4203C255.231 89.0173 252.774 86.492 257.235 83.6562C256.875 83.6518 256.517 83.588 256.177 83.4672C255.269 84.4124 253.53 83.694 251.866 77.2285C252.571 79.9278 252.597 82.7593 251.942 85.4711C252.097 89.5215 253.211 93.4775 255.194 97.0131C255.271 97.1898 255.373 97.3552 255.496 97.5046C258.783 96.7454 261.942 95.5099 264.873 93.8371C264.419 92.938 264.051 91.9977 263.776 91.0292Z" fill="#14B8A6"/>
<path d="M229.029 53.7098C235.457 51.3656 232.621 43.6145 228.046 42.0265C232.659 39.7201 231.26 31.7422 225.475 32.0447C228.727 27.6965 226.118 21.6091 219.425 22.5544C220.295 17.0341 216.514 13.4004 210.54 15.9376C210.691 9.73677 203.177 7.05226 199.84 11.2114C198.447 5.08614 191.635 2.85336 186.493 8.82336C185.1 2.58471 175.188 2.39566 174.28 8.67212C170.083 3.29912 160.858 6.36571 161.5 12.4909C155.791 6.63038 148.04 13.0581 148.565 19.4559C142.629 16.1287 137.147 24.3334 139.61 29.6646C132.086 30.7611 130.456 38.0226 135.3 42.4006C128.23 44.8961 129.25 51.7775 133.863 54.9535C128.456 58.6589 129.78 66.0319 136.207 67.0149C131.595 72.1889 136.51 80.6265 142.824 79.4166C139.308 85.2772 144.11 91.7427 150.386 89.1676C149.849 90.6657 149.879 92.3086 150.471 93.786C151.063 95.2632 152.175 96.4725 153.598 97.1853C158.097 95.5595 168.798 91.5138 168.798 91.5138C181.124 86.712 184.073 77.3729 186.455 67.6557C179.611 65.4667 182.598 58.6191 186.039 61.2658C189.328 63.7991 188.27 60.3962 187.93 56.7664C192.325 55.4795 196.855 54.7056 201.428 54.46C207.028 71.3213 206.074 79.5579 199.261 79.2495C195.985 78.782 192.846 77.6292 190.047 75.8665C190.987 78.226 192.374 80.382 194.13 82.2166C194.13 86.1428 196.904 91.1178 202.789 94.3934L204.906 95.5655C205.927 96.1326 207.061 96.7754 208.233 97.4938C209.601 97.1419 210.783 96.2799 211.535 95.0847C212.287 93.8893 212.554 92.4515 212.279 91.0661C213.463 91.8428 214.86 92.2288 216.273 92.1699C217.688 92.111 219.047 91.6102 220.164 90.7377C221.278 89.8653 222.09 88.6651 222.486 87.3066C222.884 85.9478 222.844 84.4989 222.374 83.1638C228.953 83.0882 229.823 75.8286 226.307 72.3501C231.865 71.0268 231.638 65.5065 227.554 63.2757C232.697 61.6499 232.961 55.9406 229.029 53.7098Z" fill="#14B8A6"/>
<path d="M250.845 260.116L217.61 265.976" stroke="#013941" stroke-width="2" stroke-linecap="round" stroke-linejoin="round"/>
<path d="M286.992 85.5465L315.765 248.659L290.319 253.158" stroke="#013941" stroke-width="2" stroke-linecap="round" stroke-linejoin="round"/>
<path d="M225.097 74.6952L237.196 72.54" stroke="#013941" stroke-width="2" stroke-linecap="round" stroke-linejoin="round"/>
<path d="M106.373 123.47L101.609 96.4733L144.202 88.9517" stroke="#013941" stroke-width="2" stroke-linecap="round" stroke-linejoin="round"/>
<path d="M118.775 193.834L110.986 149.596" stroke="#013941" stroke-width="2" stroke-linecap="round" stroke-linejoin="round"/>
<path d="M181.653 272.328L134.088 280.721L125.656 233.005" stroke="#013941" stroke-width="2" stroke-linecap="round" stroke-linejoin="round"/>
<path d="M351.798 343.945L297.163 34.1022C296.569 30.7242 295.318 27.4962 293.475 24.6031C291.634 21.7099 289.24 19.2082 286.43 17.2415C283.621 15.2748 280.45 13.8816 277.101 13.1415C273.754 12.4014 270.292 12.329 266.914 12.9286L219.672 21.251M126.186 343.945L104.89 223.662M132.624 36.5857L99.3784 42.4423C95.999 43.0345 92.7694 44.287 89.8744 46.1278C86.9791 47.9687 84.4751 50.3621 82.5052 53.1712C80.5355 55.9802 79.1383 59.1499 78.3941 62.4991C77.6496 65.8483 77.5726 69.3113 78.167 72.6903V72.7281L101.5 204.516" stroke="#013941" stroke-width="2" stroke-linecap="round" stroke-linejoin="round"/>
<path d="M345.748 110.879C351.052 110.879 355.352 106.579 355.352 101.275C355.352 95.9712 351.052 91.6714 345.748 91.6714C340.445 91.6714 336.145 95.9712 336.145 101.275C336.145 106.579 340.445 110.879 345.748 110.879Z" stroke="#013941" stroke-width="2" stroke-linecap="round" stroke-linejoin="round"/>
<path d="M374.446 130.616C379.75 130.616 384.05 126.316 384.05 121.012C384.05 115.708 379.75 111.409 374.446 111.409C369.143 111.409 364.843 115.708 364.843 121.012C364.843 126.316 369.143 130.616 374.446 130.616Z" stroke="#013941" stroke-width="2" stroke-linecap="round" stroke-linejoin="round"/>
<path d="M342.194 136.477L377.925 85.4332" stroke="#013941" stroke-width="2" stroke-linecap="round" stroke-linejoin="round"/>
<path d="M378.677 31.6288C377.722 30.9426 376.536 30.661 375.374 30.8451C374.214 31.0292 373.173 31.664 372.476 32.6118L371.531 33.8974C371.531 33.8974 370.138 32.9143 370.094 32.8765C369.117 32.2421 367.929 32.0176 366.787 32.2514C365.645 32.4851 364.64 33.1583 363.991 34.126C363.34 35.0935 363.095 36.2778 363.312 37.4234C363.527 38.5689 364.184 39.584 365.141 40.2494L373.724 46.2612L379.736 37.6784C380.377 36.7287 380.623 35.5682 380.426 34.4402C380.229 33.3121 379.602 32.3046 378.677 31.6288Z" stroke="#013941" stroke-width="2" stroke-linecap="round" stroke-linejoin="round"/>
<path d="M189.669 296.034C190.498 294.307 190.763 292.363 190.425 290.476C190.247 288.293 189.412 286.216 188.031 284.516C186.651 282.817 184.788 281.573 182.688 280.952C180.588 280.331 178.349 280.359 176.265 281.034C174.181 281.708 172.35 282.996 171.013 284.731C169.675 286.465 168.894 288.564 168.771 290.751C168.648 292.936 169.19 295.109 170.324 296.982C171.459 298.856 173.134 300.343 175.129 301.246C177.124 302.15 179.345 302.428 181.502 302.046C183.695 301.66 185.73 300.649 187.362 299.135L192.126 300.156L189.669 296.034Z" stroke="#013941" stroke-width="2" stroke-linecap="round" stroke-linejoin="round"/>
<path d="M301.927 282.687L310.169 273.083L321.172 279.284L317.731 259.85L298.486 263.253L301.927 282.687Z" stroke="#013941" stroke-width="2" stroke-linecap="round" stroke-linejoin="round"/>
<path d="M121.648 74.8837L134.366 72.6416" stroke="#013941" stroke-width="2" stroke-linecap="round" stroke-linejoin="round"/>
<path d="M38.2397 214.327C40.85 214.327 42.9659 212.212 42.9659 209.601C42.9659 206.99 40.85 204.875 38.2397 204.875C35.6294 204.875 33.5134 206.99 33.5134 209.601C33.5134 212.212 35.6294 214.327 38.2397 214.327Z" stroke="#013941" stroke-width="2" stroke-linecap="round" stroke-linejoin="round"/>
<path d="M66.446 209.336C69.0563 209.336 71.1722 207.221 71.1722 204.61C71.1722 201.999 69.0563 199.884 66.446 199.884C63.8357 199.884 61.7197 201.999 61.7197 204.61C61.7197 207.221 63.8357 209.336 66.446 209.336Z" stroke="#013941" stroke-width="2" stroke-linecap="round" stroke-linejoin="round"/>
<path d="M42.8525 208.77L61.7953 205.442" stroke="#013941" stroke-width="2" stroke-linecap="round" stroke-linejoin="round"/>
<path d="M5.94995 166.498L16.2343 164.683L36.1601 205.367" stroke="#013941" stroke-width="2" stroke-linecap="round" stroke-linejoin="round"/>
<path d="M32.795 198.522L68.1852 188.427L72.1552 169.258L22.7375 177.992" stroke="#013941" stroke-width="2" stroke-linecap="round" stroke-linejoin="round"/>
<path d="M40.0547 86.0756L44.1382 109.253" stroke="#013941" stroke-width="2" stroke-linecap="round" stroke-linejoin="round"/>
<path d="M53.7039 95.6415L30.5264 99.725" stroke="#013941" stroke-width="2" stroke-linecap="round" stroke-linejoin="round"/>
<path d="M359.625 174.703L366.771 215.386" stroke="#013941" stroke-width="2" stroke-linecap="round" stroke-linejoin="round"/>
<path d="M383.559 191.491L342.837 198.637" stroke="#013941" stroke-width="2" stroke-linecap="round" stroke-linejoin="round"/>
<path d="M257.273 110.69C256.971 107.892 254.853 99.0071 255.194 96.9594" stroke="#013941" stroke-width="2" stroke-linecap="round" stroke-linejoin="round"/>
<path d="M251.98 85.8108C252.308 89.911 253.506 93.894 255.496 97.4941C258.79 96.7518 261.95 95.5152 264.873 93.8265C264.413 92.9465 264.047 92.0216 263.776 91.0664" stroke="#013941" stroke-width="2" stroke-linecap="round" stroke-linejoin="round"/>
<path d="M292.928 69.2126C293.23 78.8541 291.718 85.9704 288.996 86.3027C285.519 86.7286 281.358 76.1318 279.695 62.6336C278.031 49.1355 279.505 37.8363 282.984 37.4144C285.744 37.0781 288.92 43.6152 290.924 53.0299" stroke="#013941" stroke-width="2" stroke-linecap="round" stroke-linejoin="round"/>
<path d="M266.801 72.2C263.663 69.0996 262.604 60.4033 264.873 56.4332" stroke="#013941" stroke-width="2" stroke-linecap="round" stroke-linejoin="round"/>
<path d="M244.834 73.3713C242.565 69.5903 241.998 62.4821 243.964 59.0035" stroke="#013941" stroke-width="2" stroke-linecap="round" stroke-linejoin="round"/>
<path d="M278.978 51.4416C288.544 50.4963 296.787 54.4266 297.505 60.4782C298.223 66.5298 291.228 72.3127 281.7 73.6739" stroke="#013941" stroke-width="2" stroke-linecap="round" stroke-linejoin="round"/>
<path d="M263.209 72.6526L266.801 72.1989L287.332 85.7726" stroke="#013941" stroke-width="2" stroke-linecap="round" stroke-linejoin="round"/>
<path d="M281.509 38.3215L264.873 56.4305L242.3 59.1907C232.394 60.4006 233.226 75.2977 243.246 75.033" stroke="#013941" stroke-width="2" stroke-linecap="round" stroke-linejoin="round"/>
<path d="M235.419 105.358C231.714 106.114 229.067 107.665 229.18 109.064C229.332 110.916 234.096 112.568 247.178 112.013C257.16 111.589 264.053 109.028 264.155 106.871C264.214 105.583 261.81 104.413 256.063 103.997" stroke="#013941" stroke-width="2" stroke-linecap="round" stroke-linejoin="round"/>
<path d="M161.992 164.647C162.66 164.132 163.117 163.39 163.278 162.562C163.438 161.733 163.29 160.875 162.861 160.148C161.12 157.412 154.991 156.128 145.582 161.471C136.88 166.412 132.635 174.195 135.071 177.314C136.215 178.78 138.361 179.355 142.671 178.032" stroke="#013941" stroke-width="2" stroke-linecap="round" stroke-linejoin="round"/>
<path d="M155.3 157.839C159.723 162.604 165.821 168.303 172.352 174.589C173.4 175.682 174.186 176.999 174.652 178.44C175.117 179.881 175.248 181.409 175.036 182.908C174.81 186.235 172.692 205.442 172.352 208.165C171.898 211.566 167.974 213.38 168.231 188.579" stroke="#013941" stroke-width="2" stroke-linecap="round" stroke-linejoin="round"/>
<path d="M135.865 170.467C137.778 173.633 140.339 176.358 143.38 178.465C146.421 180.571 149.872 182.011 153.509 182.69" stroke="#013941" stroke-width="2" stroke-linecap="round" stroke-linejoin="round"/>
<path d="M154.205 180.903C153.978 181.622 152.768 184.457 152.613 184.883" stroke="#013941" stroke-width="2" stroke-linecap="round" stroke-linejoin="round"/>
<path d="M147.775 180.979C147.511 184.041 148.153 187.858 151.065 189.788C154.657 192.176 156.207 191.036 159.912 183.096" stroke="#013941" stroke-width="2" stroke-linecap="round" stroke-linejoin="round"/>
<path d="M155.489 190.281C159.723 192.776 161.614 191.944 165.206 183.55" stroke="#013941" stroke-width="2" stroke-linecap="round" stroke-linejoin="round"/>
<path d="M160.782 190.885C164.639 193.074 166.907 192.625 170.499 183.815" stroke="#013941" stroke-width="2" stroke-linecap="round" stroke-linejoin="round"/>
<path d="M158.782 177.802C162.849 177.754 166.914 177.953 170.957 178.399" stroke="#013941" stroke-width="2" stroke-linecap="round" stroke-linejoin="round"/>
<path d="M136.848 130.162C142.973 136.588 159.421 156.025 162.861 160.07" stroke="#013941" stroke-width="2" stroke-linecap="round" stroke-linejoin="round"/>
<path d="M142.633 136.588C146.679 135.151 166.642 129.026 173.562 127.097C171.785 130.803 169.818 134.433 167.701 137.949" stroke="#013941" stroke-width="2" stroke-linecap="round" stroke-linejoin="round"/>
<path d="M172.768 204.799C174.521 214.323 177.232 223.646 180.859 232.627" stroke="#013941" stroke-width="2" stroke-linecap="round" stroke-linejoin="round"/>
<path d="M160.374 131.032C165.819 135.532 178.825 149.483 186.765 158.747C180.794 163.311 176.319 169.55 173.91 176.669" stroke="#013941" stroke-width="2" stroke-linecap="round" stroke-linejoin="round"/>
<path d="M126.186 167.669C125.429 159.729 140.742 145.74 153.182 148.764" stroke="#013941" stroke-width="2" stroke-linecap="round" stroke-linejoin="round"/>
<path d="M236.024 111.863C235.873 109.367 235.154 103.393 235.041 98.3645C234.852 89.9707 235.453 87.8892 237.612 83.8375C239.57 80.1306 241.956 76.6662 244.72 73.5154C246.213 72.212 249.976 71.8617 253.001 71.5871C255.42 71.3682 255.89 72.1105 256.29 73.4776C256.885 76.144 257.128 78.8773 257.008 81.6067C256.929 83.9132 254.362 86.6355 251.98 77.2287C253.19 82.8624 252.622 87.7758 248.161 90.7608" stroke="#013941" stroke-width="2" stroke-linecap="round" stroke-linejoin="round"/>
<path d="M263.738 81.3877C265.742 82.1061 265.762 84.8563 263.663 86.2652C262.037 87.3408 260.208 88.0741 258.29 88.4204C255.221 88.9935 252.77 86.492 257.231 83.6563" stroke="#013941" stroke-width="2" stroke-linecap="round" stroke-linejoin="round"/>
<path d="M263.655 86.2653C264.099 86.4802 264.473 86.8131 264.74 87.2272C265.004 87.6411 265.152 88.1205 265.163 88.6127C265.175 89.1048 265.052 89.5905 264.805 90.0168C264.559 90.4433 264.2 90.7935 263.768 91.0293C262.3 91.9656 260.652 92.5839 258.929 92.8442C256.053 93.29 254.089 90.8781 258.286 88.4204" stroke="#013941" stroke-width="2" stroke-linecap="round" stroke-linejoin="round"/>
<path d="M256.555 74.2415C258.266 73.222 260.198 72.6282 262.188 72.5102C264.984 72.345 265.213 76.0922 262.529 77.1608C260.781 77.9502 258.917 78.4483 257.008 78.6354" stroke="#013941" stroke-width="2" stroke-linecap="round" stroke-linejoin="round"/>
<path d="M263.398 76.6234C265.402 77.4552 265.402 80.3288 263.209 81.7656C262.113 82.484 258.672 84.1536 256.328 83.467" stroke="#013941" stroke-width="2" stroke-linecap="round" stroke-linejoin="round"/>
<path d="M210.275 104.792C216.552 110.652 223.32 115.794 223.887 151.6C293.23 189.07 294.78 197.275 294.062 213.079C293.382 228.052 288.315 273.348 286.301 284.616C277.832 288.548 259.002 286.279 248.794 277.772C250.079 266.429 254.843 225.481 255.221 221.256C248.831 219.706 225.881 213.694 223.007 212.976" stroke="#013941" stroke-width="2" stroke-linecap="round" stroke-linejoin="round"/>
<path d="M250.354 264.69C257.16 272.214 277.048 276.146 288.164 271.723" stroke="#013941" stroke-width="2" stroke-linecap="round" stroke-linejoin="round"/>
<path d="M225.21 185.176C224.303 195.723 220.585 246.048 219.123 259.018C216.952 278.262 202.208 285.665 181.162 272.063C163.415 260.591 122.027 230.472 117.754 227.107C117.654 220.613 119.339 214.218 122.627 208.616C125.914 203.016 130.676 198.425 136.395 195.346C148.002 202.077 168.684 214.592 176.019 218.629" stroke="#013941" stroke-width="2" stroke-linecap="round" stroke-linejoin="round"/>
<path d="M127.244 234.139C127.131 222.721 135.449 206.122 147.473 201.925" stroke="#013941" stroke-width="2" stroke-linecap="round" stroke-linejoin="round"/>
<path d="M186.757 158.746C198.932 162.603 218.745 160.221 223.887 151.638" stroke="#013941" stroke-width="2" stroke-linecap="round" stroke-linejoin="round"/>
<path d="M192.089 159.957C178.023 181.017 182.485 213.949 189.555 248.924C167.55 234.894 139.495 217.995 133.708 213.912" stroke="#013941" stroke-width="2" stroke-linecap="round" stroke-linejoin="round"/>
<path d="M252.511 280.381C250.545 286.55 246.726 290.628 245.365 293.69C251.263 306.054 274.705 326.887 288.203 335.054C287.334 312.567 273.155 301.252 274.441 286.544" stroke="#013941" stroke-width="2" stroke-linecap="round" stroke-linejoin="round"/>
<path d="M133.294 197.161C130.232 194.741 128.039 192.208 126.11 190.885C112.915 194.552 83.8386 215.612 78.0537 226.048C95.1816 228.436 107.205 221.851 118.252 220.339" stroke="#013941" stroke-width="2" stroke-linecap="round" stroke-linejoin="round"/>
<path d="M264.154 106.909C264.646 163.208 263.625 168.997 259.277 171.753" stroke="#013941" stroke-width="2" stroke-linecap="round" stroke-linejoin="round"/>
<path d="M229.18 109.103C230.73 117.874 234.398 141.846 235.683 147.82" stroke="#013941" stroke-width="2" stroke-linecap="round" stroke-linejoin="round"/>
<path d="M231.524 123.205C240.479 126.91 259.428 126.229 264.268 120.021" stroke="#013941" stroke-width="2" stroke-linecap="round" stroke-linejoin="round"/>
<path d="M224.076 199.472C232.506 207.659 241.946 214.736 252.169 220.532" stroke="#013941" stroke-width="2" stroke-linecap="round" stroke-linejoin="round"/>
<path d="M161.689 210.32C166.863 215.538 173.373 222.306 179.536 229.187" stroke="#013941" stroke-width="2" stroke-linecap="round" stroke-linejoin="round"/>
<path d="M223.32 138.669C225.091 144.116 227.172 149.456 229.558 154.663" stroke="#013941" stroke-width="2" stroke-linecap="round" stroke-linejoin="round"/>
<path d="M194.095 77.8826C192.718 77.2813 191.379 76.5981 190.085 75.8369C191.038 78.1829 192.416 80.3325 194.15 82.1771" stroke="#013941" stroke-width="2" stroke-linecap="round" stroke-linejoin="round"/>
<path d="M134.868 177.021C121.456 162.918 114.841 154.349 108.226 146.156C97.6393 133.036 103.952 122.257 117.679 113.375C132.007 104.108 152.305 97.9745 168.835 91.521C181.158 86.7091 184.073 77.38 186.531 67.6629C179.687 65.4739 182.666 58.6382 186.115 61.273C189.396 63.7784 188.304 60.3655 188.005 56.7736C192.405 55.5081 196.932 54.7346 201.503 54.4672C208.287 74.988 205.42 82.753 194.095 77.8755C193.364 87.4275 198.057 91.7438 202.827 94.3925C209.746 98.2492 221.354 104.526 230.768 118.591" stroke="#013941" stroke-width="2" stroke-linecap="round" stroke-linejoin="round"/>
<path d="M166.718 92.3525C178.174 96.1335 193.782 106.002 201.957 112.505C203.77 107.034 204.775 101.328 204.942 95.5664" stroke="#013941" stroke-width="2" stroke-linecap="round" stroke-linejoin="round"/>
<path d="M153.636 97.1857C152.217 96.4701 151.109 95.2619 150.517 93.7873C149.926 92.3128 149.893 90.6732 150.424 89.1759C144.148 91.747 139.346 85.3193 142.862 79.4249C136.548 80.6348 131.632 72.2032 136.245 67.0611C129.818 66.0402 128.484 58.6672 133.901 54.9618C129.288 51.7779 128.267 44.9044 135.338 42.4089C130.498 38.0309 132.124 30.7635 139.648 29.6729C137.191 24.3417 142.673 16.1409 148.603 19.4642C148.074 13.1122 155.825 6.64664 161.538 12.4992C160.895 6.37401 170.121 3.31141 174.318 8.68043C175.225 2.40397 185.132 2.59302 186.531 8.83167C191.673 2.86167 198.471 5.08848 199.878 11.2197C203.205 7.06057 210.729 9.74507 210.578 15.9459C216.548 13.4126 220.329 17.0424 219.463 22.5627C226.155 21.6174 228.764 27.7048 225.513 32.053C231.335 31.7505 232.697 39.7284 228.084 42.0348C232.661 43.6268 235.495 51.3739 229.067 53.7181C229.998 54.223 230.75 55.0034 231.222 55.9525C231.694 56.9017 231.859 57.9731 231.698 59.0203C231.536 60.0674 231.055 61.0391 230.321 61.8023C229.586 62.5656 228.633 63.083 227.592 63.284C231.676 65.5148 231.903 71.045 226.307 72.3584C229.823 75.837 228.953 83.1044 222.374 83.1721C222.844 84.5072 222.884 85.9561 222.488 87.3149C222.09 88.6734 221.278 89.8736 220.164 90.746C219.047 91.6184 217.688 92.1193 216.273 92.1782C214.86 92.2371 213.463 91.8511 212.279 91.0744C212.554 92.4598 212.287 93.8976 211.535 95.093C210.783 96.2882 209.601 97.1502 208.234 97.5021" stroke="#013941" stroke-width="2" stroke-linecap="round" stroke-linejoin="round"/>
<path d="M150.46 307.529L139.155 299.589C137.886 298.702 137.021 297.346 136.751 295.822C136.481 294.296 136.827 292.726 137.715 291.456C138.603 290.188 139.958 289.323 141.483 289.052C143.008 288.783 144.578 289.13 145.847 290.017L147.586 291.227L148.796 289.488C149.684 288.22 151.039 287.355 152.563 287.086C154.088 286.817 155.657 287.163 156.925 288.051C158.194 288.939 159.058 290.294 159.327 291.818C159.597 293.342 159.25 294.913 158.362 296.18L150.46 307.529Z" stroke="#013941" stroke-width="2" stroke-linejoin="round"/>
</g>
<defs>
<clipPath id="clip0_163_691">
<rect width="392" height="349" fill="white"/>
</clipPath>
</defs>
</svg>
