<svg width="476" height="356" viewBox="0 0 476 356" fill="none" xmlns="http://www.w3.org/2000/svg">
<path d="M252.567 259.122H206.867L104.974 208.554H150.627L252.567 259.122Z" fill="#E8F8F6"/>
<path d="M336.595 259.122H290.942L189.002 208.554H234.702L336.595 259.122Z" fill="#E8F8F6"/>
<path d="M420.672 259.122H375.019L273.079 208.554H318.779L420.672 259.122Z" fill="#E8F8F6"/>
<path d="M440.853 227.411V250.095L357.154 208.554H402.854L440.853 227.411Z" fill="#E8F8F6"/>
<path d="M364.432 141.727L360.763 148.013L352.806 134.212L337.871 160.112H375.019L364.432 141.727Z" fill="#E8F8F6"/>
<path d="M168.492 259.122H122.789L82.6182 239.177V216.541L168.492 259.122Z" fill="#E8F8F6"/>
<path d="M375.303 354.351H337.918V345.891H375.303V354.351Z" fill="#14B8A6"/>
<path d="M370.103 343.153L345.621 331.053L348.315 318.765L365.991 327.556L370.103 343.153Z" fill="#14B8A6"/>
<path d="M361.975 312.054L350.962 306.571L352.806 297.969H358.288L361.975 312.054Z" fill="#14B8A6"/>
<path d="M372.183 140.546C373.932 140.546 375.35 139.128 375.35 137.379C375.35 135.63 373.932 134.212 372.183 134.212C370.434 134.212 369.017 135.63 369.017 137.379C369.017 139.128 370.434 140.546 372.183 140.546Z" fill="#14B8A6"/>
<path d="M149.634 101.84L152.754 107.228C153.037 105.763 153.368 104.393 153.5 103.967C152.166 103.343 150.875 102.633 149.634 101.84Z" fill="#14B8A6"/>
<path d="M164.285 75.6591L159.465 77.4526C158.833 75.879 157.848 74.4718 156.585 73.3407C155.322 72.2094 153.815 71.3848 152.181 70.9304C152.488 70.7361 152.731 70.4555 152.879 70.1237C153.027 69.7918 153.074 69.4234 153.014 69.065C152.953 68.7068 152.788 68.3744 152.539 68.1095C152.29 67.8449 151.968 67.6598 151.614 67.5772C148.974 67.0444 146.24 67.2135 143.686 68.0677C141.131 68.922 138.846 70.4314 137.057 72.4452C136.824 72.7077 136.671 73.031 136.616 73.3773C136.56 73.7236 136.604 74.0785 136.743 74.4007C136.882 74.7228 137.11 74.9987 137.4 75.1962C137.69 75.3934 138.03 75.5039 138.381 75.5148C136.941 77.2864 136.031 79.4284 135.755 81.6943C135.479 83.9601 135.849 86.2578 136.821 88.323L139.572 87.2757C140.674 91.3776 143.492 96.7606 144.903 100.753C145.229 97.4332 144.924 94.0818 144.005 90.8751C143.526 90.8212 143.063 90.6717 142.644 90.4356C142.224 90.1995 141.856 89.8816 141.561 89.5008C141.266 89.12 141.051 88.6839 140.927 88.2185C140.804 87.7531 140.776 87.2675 140.843 86.7907L144.144 85.5469C144.675 85.8521 145.25 86.0752 145.848 86.2086C146.594 86.3852 146.694 85.1439 146.741 84.5569L164.989 77.6068C166.591 76.7959 165.084 75.0969 164.285 75.6591Z" fill="#14B8A6"/>
<path d="M159.843 208.554H163.671L165.892 193.477L159.843 208.554Z" fill="#14B8A6"/>
<path d="M219.108 351.279C212.421 345.376 202.193 338.344 193.113 335.685C185.008 338.023 176.408 338.023 168.303 335.685C166.608 340.468 165.574 345.461 165.231 350.523C165.2 350.983 165.264 351.446 165.419 351.881C165.575 352.316 165.818 352.714 166.133 353.053C166.449 353.388 166.831 353.657 167.256 353.839C167.68 354.023 168.137 354.117 168.599 354.115C184.519 354.162 198.23 354.304 217.986 354.351C218.342 354.351 218.691 354.242 218.983 354.038C219.275 353.831 219.498 353.543 219.62 353.207C219.743 352.871 219.759 352.508 219.667 352.162C219.576 351.819 219.38 351.51 219.108 351.279Z" fill="#14B8A6"/>
<path d="M51.6637 197.447C51.1214 197.223 50.5162 197.208 49.9622 197.4C38.2909 201.524 21.7266 204.942 2.94857 214.792C2.53309 215.014 2.1934 215.355 1.97325 215.77C1.75311 216.185 1.66264 216.658 1.71351 217.126C1.76435 217.593 1.95422 218.036 2.25859 218.394C2.56296 218.755 2.9679 219.014 3.4212 219.141C17.3608 222.787 31.6895 224.74 46.0966 224.954C51.0119 213.327 54.6014 207.845 60.559 204.308C58.1949 201.333 55.1419 198.977 51.6637 197.447Z" fill="#14B8A6"/>
<path d="M443.169 190.452C443.169 191.079 442.92 191.681 442.478 192.124C442.035 192.567 441.433 192.815 440.806 192.815C440.179 192.815 439.577 192.567 439.134 192.124C438.692 191.681 438.443 191.079 438.443 190.452C438.443 189.825 438.692 189.223 439.134 188.781C439.577 188.338 440.179 188.089 440.806 188.089C441.433 188.089 442.035 188.338 442.478 188.781C442.92 189.223 443.169 189.825 443.169 190.452Z" fill="#14B8A6"/>
<path d="M84.8869 190.452C84.8869 191.079 84.6379 191.681 84.1946 192.124C83.7516 192.567 83.1506 192.815 82.5238 192.815C81.8969 192.815 81.2959 192.567 80.8527 192.124C80.4096 191.681 80.1606 191.079 80.1606 190.452C80.1606 189.825 80.4096 189.223 80.8527 188.781C81.2959 188.338 81.8969 188.089 82.5238 188.089C83.1506 188.089 83.7516 188.338 84.1946 188.781C84.6379 189.223 84.8869 189.825 84.8869 190.452Z" fill="#14B8A6"/>
<path d="M82.6185 212.429V251.04L59.6465 238.518C61.1701 226.976 66.9334 216.412 75.8152 208.885L82.6185 212.429Z" fill="#14B8A6"/>
<path d="M173.925 259.092L167.783 315.263C177.788 321.233 188.735 321.946 199.919 319.422L209.986 259.092H173.925Z" fill="#14B8A6"/>
<path d="M97.1279 259.122L108.093 265.266C111.97 267.448 116.382 268.497 120.826 268.298C125.27 268.097 129.569 266.654 133.234 264.132C135.277 262.766 137.082 261.075 138.575 259.122H97.1279Z" fill="#14B8A6"/>
<path d="M160.888 172.211L157.532 162.097H138.717C134.605 167.072 124.963 180.256 123.215 193.761C122.647 198.014 121.324 204.064 120.332 208.554H190.183L176.193 182.609C172.853 182.806 169.541 181.893 166.772 180.012C164.004 178.132 161.935 175.39 160.888 172.211Z" fill="#14B8A6"/>
<path fill-rule="evenodd" clip-rule="evenodd" d="M221.234 149.528C225.36 148.328 229.199 146.254 232.48 143.429C240.831 136.13 242.492 138.265 234.035 148.962C239.759 148.046 245.154 146.396 250.437 143.996C254.037 142.503 255.116 144.516 251.477 147.068C249.154 148.632 246.53 150.149 244.012 151.369C247.758 150.607 251.452 149.61 255.072 148.384C258.718 146.983 259.46 149.414 255.686 151.692C252.818 153.207 249.743 154.706 246.753 155.953C249.452 155.634 252.134 155.177 254.788 154.583C258.559 153.645 259.037 156.227 255.024 157.938C252.169 159.042 248.955 160.093 245.997 160.868C247.858 160.885 249.721 160.807 251.574 160.632C255.353 160.135 255.353 162.09 251.338 163.562C247.875 164.83 244.251 165.789 240.691 166.731C240.159 166.872 239.627 167.013 239.097 167.154C234.026 168.507 226.865 169.952 221.234 170.946V172.684H302.284V121.549H221.234V149.528Z" fill="#14B8A6"/>
<path d="M375.303 354.351H337.918V345.891H375.303V354.351Z" stroke="#013941" stroke-width="2.5" stroke-linecap="round" stroke-linejoin="round"/>
<path d="M370.103 343.152L345.621 331.053L348.315 318.765L365.991 327.556L370.103 343.152Z" stroke="#013941" stroke-width="2.5" stroke-linecap="round" stroke-linejoin="round"/>
<path d="M361.975 312.054L350.962 306.571L352.806 297.969H358.288L361.975 312.054Z" stroke="#013941" stroke-width="2.5" stroke-linecap="round" stroke-linejoin="round"/>
<path d="M365.992 327.556L348.316 318.765L350.963 306.571L361.975 312.054L365.992 327.556Z" stroke="#013941" stroke-width="2.5" stroke-linecap="round" stroke-linejoin="round"/>
<path d="M370.812 345.797H342.408L345.622 331.053L370.104 343.152L370.812 345.797Z" stroke="#013941" stroke-width="2.5" stroke-linecap="round" stroke-linejoin="round"/>
<path d="M162.064 78.7114C163.138 79.1231 164.061 79.8517 164.711 80.8002C165.361 81.7487 165.707 82.8725 165.703 84.0222C165.7 85.2182 165.325 86.3834 164.631 87.357C163.937 88.3308 162.957 89.0647 161.828 89.4574" stroke="#013941" stroke-width="2.5" stroke-linecap="round" stroke-linejoin="round"/>
<path d="M144.908 100.753C143.487 96.7284 140.679 91.3778 139.609 87.2634" stroke="#013941" stroke-width="2.5" stroke-linecap="round" stroke-linejoin="round"/>
<path d="M144.246 85.5345C144.687 85.8046 145.163 86.0106 145.661 86.1464C146.656 86.3951 146.567 85.619 146.656 84.6365" stroke="#013941" stroke-width="2.5" stroke-linecap="round" stroke-linejoin="round"/>
<path d="M172.082 121.549H203.984V140.546" stroke="#013941" stroke-width="2.5" stroke-linecap="round" stroke-linejoin="round"/>
<path d="M170.427 119.044L187.064 143.476L221.234 137.568" stroke="#013941" stroke-width="2.5" stroke-linecap="round" stroke-linejoin="round"/>
<path d="M411.197 208.554V96.0268C411.202 86.1897 407.301 76.7534 400.351 69.7919C393.401 62.8303 383.971 58.914 374.133 58.9033H149.397C144.526 58.9011 139.703 59.8583 135.202 61.7204C130.702 63.5826 126.612 66.3133 123.167 69.7563C119.722 73.1992 116.989 77.2872 115.124 81.7866C113.259 86.2862 112.299 91.109 112.298 95.9795V208.554" stroke="#013941" stroke-width="2.5" stroke-linecap="round" stroke-linejoin="round"/>
<path d="M124.68 267.819C131.478 273.893 140.281 277.244 149.398 277.224H171.703" stroke="#013941" stroke-width="2.5" stroke-linecap="round" stroke-linejoin="round"/>
<path d="M405.974 259.122C402.685 264.635 398.021 269.202 392.442 272.373C386.86 275.545 380.554 277.216 374.134 277.224H207.103" stroke="#013941" stroke-width="2.5" stroke-linecap="round" stroke-linejoin="round"/>
<path d="M158.992 103.967H411.172" stroke="#013941" stroke-width="2.5" stroke-linecap="round" stroke-linejoin="round"/>
<path d="M112.298 103.967H144.151" stroke="#013941" stroke-width="2.5" stroke-linecap="round" stroke-linejoin="round"/>
<path d="M183.566 84.0222C183.565 85.1625 183.226 86.2769 182.591 87.2246C181.957 88.1721 181.056 88.9104 180.002 89.346C178.948 89.7818 177.789 89.895 176.671 89.6718C175.553 89.4485 174.526 88.8987 173.72 88.0918C172.914 87.2851 172.366 86.2575 172.144 85.1389C171.922 84.0202 172.037 82.8611 172.474 81.8079C172.911 80.7546 173.65 79.8544 174.599 79.2216C175.547 78.5885 176.662 78.2507 177.802 78.2512C178.56 78.2507 179.31 78.3995 180.01 78.6893C180.71 78.9793 181.346 79.4044 181.882 79.9405C182.417 80.4768 182.841 81.1131 183.131 81.8136C183.419 82.5141 183.567 83.2645 183.566 84.0222Z" stroke="#013941" stroke-width="2.5" stroke-linecap="round" stroke-linejoin="round"/>
<path d="M221.234 149.573V121.549H302.284V172.684H221.234V170.841" stroke="#013941" stroke-width="2.5" stroke-linecap="round" stroke-linejoin="round"/>
<path d="M393.685 172.684H319.535V121.549H393.685V172.684Z" stroke="#013941" stroke-width="2.5" stroke-linecap="round" stroke-linejoin="round"/>
<path d="M131.06 172.684H129.784V121.549H139.142" stroke="#013941" stroke-width="2.5" stroke-linecap="round" stroke-linejoin="round"/>
<path d="M221.234 208.554V190.311H302.284V208.554" stroke="#013941" stroke-width="2.5" stroke-linecap="round" stroke-linejoin="round"/>
<path d="M319.535 208.554V190.311H393.685V208.554" stroke="#013941" stroke-width="2.5" stroke-linecap="round" stroke-linejoin="round"/>
<path d="M180.352 190.311H203.983V208.554" stroke="#013941" stroke-width="2.5" stroke-linecap="round" stroke-linejoin="round"/>
<path d="M302.284 121.549L258.002 149.478" stroke="#013941" stroke-width="2.5" stroke-linecap="round" stroke-linejoin="round"/>
<path d="M221.234 121.549L302.284 172.684" stroke="#013941" stroke-width="2.5" stroke-linecap="round" stroke-linejoin="round"/>
<path d="M352.806 134.212L337.871 160.112H367.741L352.806 134.212Z" stroke="#013941" stroke-width="2.5" stroke-linecap="round" stroke-linejoin="round"/>
<path d="M364.432 141.727L360.793 148.013L367.741 160.112H375.019L364.432 141.727Z" stroke="#013941" stroke-width="2.5" stroke-linecap="round" stroke-linejoin="round"/>
<path d="M372.183 140.546C373.932 140.546 375.35 139.128 375.35 137.379C375.35 135.63 373.932 134.212 372.183 134.212C370.434 134.212 369.017 135.63 369.017 137.379C369.017 139.128 370.434 140.546 372.183 140.546Z" stroke="#013941" stroke-width="2.5" stroke-linecap="round" stroke-linejoin="round"/>
<path d="M231.393 149.337C237.976 148.54 244.4 146.739 250.437 143.996C254.036 142.503 255.116 144.516 251.477 147.068C248.106 149.337 244.512 151.254 240.748 152.789" stroke="#013941" stroke-width="2.5" stroke-linecap="round" stroke-linejoin="round"/>
<path d="M244.012 151.369C247.758 150.607 251.452 149.61 255.072 148.384C258.718 146.983 259.46 149.414 255.686 151.692C251.102 154.115 246.348 156.2 241.46 157.931" stroke="#013941" stroke-width="2.5" stroke-linecap="round" stroke-linejoin="round"/>
<path d="M246.753 155.953C249.452 155.634 252.133 155.177 254.788 154.583C258.559 153.645 259.036 156.227 255.024 157.938C250.79 159.575 246.427 160.856 241.979 161.767" stroke="#013941" stroke-width="2.5" stroke-linecap="round" stroke-linejoin="round"/>
<path d="M245.997 160.868C247.858 160.885 249.721 160.806 251.574 160.632C255.353 160.135 255.353 162.09 251.338 163.562C247.358 165.02 243.161 166.07 239.097 167.154C233.948 168.527 226.998 169.891 221.329 170.886" stroke="#013941" stroke-width="2.5" stroke-linecap="round" stroke-linejoin="round"/>
<path d="M234.418 148.928C242.876 138.232 240.831 136.13 232.48 143.429C228.119 147.184 222.773 149.612 217.075 150.423" stroke="#013941" stroke-width="2.5" stroke-linecap="round" stroke-linejoin="round"/>
<path d="M152.729 107.138L149.634 101.84C150.899 102.611 152.209 103.306 153.557 103.92" stroke="#013941" stroke-width="2.5" stroke-linecap="round" stroke-linejoin="round"/>
<path d="M158.617 80.0247C163.908 89.0319 163.883 106.143 155.731 104.534L153.557 103.92L152.706 107.228C152.346 108.681 152.412 110.207 152.895 111.623L142.498 109.827C143.503 106.86 144.309 103.828 144.908 100.753C145.251 97.4362 144.962 94.0845 144.057 90.8751C141.339 90.2085 140.545 88.2409 140.901 86.7732" stroke="#013941" stroke-width="2.5" stroke-linecap="round" stroke-linejoin="round"/>
<path d="M164.285 75.6591C164.022 75.7511 159.465 77.4525 159.465 77.4525C158.833 75.8789 157.848 74.4718 156.585 73.3407C155.322 72.2094 153.815 71.3848 152.181 70.9303C152.488 70.736 152.731 70.4555 152.879 70.1236C153.027 69.7915 153.074 69.4234 153.014 69.0649C152.953 68.7067 152.788 68.3742 152.539 68.1095C152.29 67.8448 151.968 67.6598 151.614 67.5772C148.974 67.0356 146.238 67.2006 143.681 68.0553C141.125 68.91 138.84 70.4244 137.057 72.4452C136.824 72.7076 136.671 73.031 136.616 73.3773C136.56 73.7235 136.604 74.0785 136.743 74.4006C136.882 74.7228 137.11 74.9986 137.4 75.1959C137.69 75.3934 138.03 75.5038 138.381 75.5148C136.941 77.2864 136.031 79.4284 135.755 81.6942C135.479 83.9601 135.849 86.2578 136.821 88.3229L164.989 77.5943C165.119 77.5498 165.238 77.4802 165.34 77.3891C165.442 77.2981 165.525 77.1876 165.584 77.0642C165.643 76.9406 165.676 76.8068 165.683 76.6702C165.69 76.5337 165.669 76.3971 165.622 76.2685C165.575 76.1401 165.503 76.022 165.41 75.9217C165.318 75.8212 165.206 75.7401 165.081 75.6834C164.957 75.6267 164.822 75.5954 164.686 75.5911C164.549 75.5869 164.413 75.6101 164.285 75.6591Z" stroke="#013941" stroke-width="2.5" stroke-linecap="round" stroke-linejoin="round"/>
<path d="M165.892 193.477L163.671 208.554H159.843L165.892 193.477Z" stroke="#013941" stroke-width="2.5" stroke-linecap="round" stroke-linejoin="round"/>
<path d="M138.527 259.122C135.024 263.627 130.02 266.724 124.426 267.851C118.833 268.978 113.02 268.062 108.045 265.266L97.0806 259.122" stroke="#013941" stroke-width="2.5" stroke-linecap="round" stroke-linejoin="round"/>
<path d="M82.6176 212.429L75.8143 208.885C67.0806 215.73 62.0236 225.872 59.6455 238.518L82.6101 250.993" stroke="#013941" stroke-width="2.5" stroke-linecap="round" stroke-linejoin="round"/>
<path d="M120.615 208.554C121.655 203.733 122.562 198.629 123.214 193.761C125.513 176.657 138.669 162.097 138.669 162.097H157.527" stroke="#013941" stroke-width="2.5" stroke-linecap="round" stroke-linejoin="round"/>
<path d="M173.877 259.17L167.783 315.268C176.855 320.939 187.683 322.026 199.919 319.427L209.418 263.518C209.655 262.053 209.844 260.587 209.938 259.122" stroke="#013941" stroke-width="2.5" stroke-linecap="round" stroke-linejoin="round"/>
<path d="M176.24 182.701L190.183 208.506" stroke="#013941" stroke-width="2.5" stroke-linecap="round" stroke-linejoin="round"/>
<path d="M217.973 354.364C198.219 354.05 184.511 354.152 168.586 354.127C168.125 354.125 167.67 354.03 167.248 353.846C166.826 353.662 166.446 353.394 166.131 353.058C165.817 352.719 165.575 352.324 165.42 351.889C165.265 351.456 165.2 350.996 165.23 350.535C165.584 345.473 166.617 340.483 168.302 335.698C176.407 338.038 185.008 338.038 193.113 335.698C202.187 338.344 212.421 345.399 219.107 351.292C219.381 351.523 219.576 351.831 219.668 352.177C219.759 352.523 219.742 352.889 219.618 353.224C219.494 353.56 219.269 353.851 218.975 354.055C218.681 354.259 218.331 354.366 217.973 354.364Z" stroke="#013941" stroke-width="2.5" stroke-linecap="round" stroke-linejoin="round"/>
<path d="M168.255 335.732L171.23 317.158" stroke="#013941" stroke-width="2.5" stroke-linecap="round" stroke-linejoin="round"/>
<path d="M195.145 320.277L192.924 335.732" stroke="#013941" stroke-width="2.5" stroke-linecap="round" stroke-linejoin="round"/>
<path d="M51.6637 197.447C51.1214 197.223 50.5162 197.208 49.9622 197.4C38.2909 201.524 21.7266 204.942 2.94857 214.792C2.53309 215.014 2.1934 215.355 1.97325 215.77C1.75311 216.185 1.66264 216.658 1.71351 217.126C1.76435 217.593 1.95422 218.036 2.25859 218.394C2.56296 218.755 2.9679 219.014 3.4212 219.141C17.3608 222.787 31.6895 224.74 46.0966 224.954C51.0119 213.327 54.6014 207.845 60.559 204.308C58.1949 201.333 55.1419 198.977 51.6637 197.447Z" stroke="#013941" stroke-width="2.5" stroke-linecap="round" stroke-linejoin="round"/>
<path d="M60.5469 204.111L73.0714 211.106" stroke="#013941" stroke-width="2.5" stroke-linecap="round" stroke-linejoin="round"/>
<path d="M46.0869 224.954L60.8776 233.036" stroke="#013941" stroke-width="2.5" stroke-linecap="round" stroke-linejoin="round"/>
<path d="M82.6182 190.972V354.398" stroke="#013941" stroke-width="2.5" stroke-linecap="round" stroke-linejoin="round"/>
<path d="M440.853 354.398V190.97" stroke="#013941" stroke-width="2.5" stroke-linecap="round" stroke-linejoin="round"/>
<path d="M45.6143 354.351H474.313" stroke="#013941" stroke-width="2.5" stroke-linecap="round" stroke-linejoin="round"/>
<path d="M440.853 208.554H82.6182" stroke="#013941" stroke-width="2.5" stroke-linecap="round" stroke-linejoin="round"/>
<path d="M440.853 259.122H82.6182" stroke="#013941" stroke-width="2.5" stroke-linecap="round" stroke-linejoin="round"/>
<path d="M77.6555 152.951H56.248" stroke="#013941" stroke-width="2.5" stroke-linecap="round" stroke-linejoin="round"/>
<path d="M66.9517 163.657V142.2" stroke="#013941" stroke-width="2.5" stroke-linecap="round" stroke-linejoin="round"/>
<path d="M458.574 109.26C458.681 110.49 458.423 111.723 457.828 112.805C457.236 113.887 456.333 114.768 455.239 115.338C454.144 115.908 452.905 116.14 451.679 116.006C450.453 115.871 449.293 115.376 448.348 114.583C447.403 113.79 446.714 112.734 446.371 111.549C446.025 110.365 446.037 109.104 446.41 107.928C446.781 106.751 447.492 105.711 448.455 104.938C449.418 104.166 450.587 103.696 451.816 103.589C452.632 103.515 453.455 103.603 454.239 103.848C455.02 104.094 455.746 104.491 456.375 105.019C457.002 105.546 457.52 106.192 457.898 106.92C458.276 107.648 458.505 108.443 458.574 109.26Z" stroke="#013941" stroke-width="2.5" stroke-linecap="round" stroke-linejoin="round"/>
<path d="M301.056 1.60132L295.762 13.4393H305.404L300.11 25.2301" stroke="#013941" stroke-width="2.5" stroke-linecap="round" stroke-linejoin="round"/>
<path d="M136.731 188.089C144.245 186.131 150.814 181.557 155.258 175.189" stroke="#013941" stroke-width="2.5" stroke-linecap="round" stroke-linejoin="round"/>
<path d="M169.626 300.285C180.139 304.119 191.402 305.447 202.518 304.161" stroke="#013941" stroke-width="2.5" stroke-linecap="round" stroke-linejoin="round"/>
<path d="M150.768 141.727L160.887 172.211C162.047 175.732 164.458 178.706 167.662 180.569C170.867 182.433 174.644 183.057 178.278 182.323L220.764 173.828C222.565 165.602 219.585 154.443 216.088 148.58L182.432 154.393C177.8 140.262 176.111 130.899 173.546 124.571C170.347 116.673 165.892 113.514 152.9 111.636L142.502 109.84C142.03 111.305 141.55 112.862 141.037 114.519C136.287 129.936 135.474 146.298 138.674 162.11" stroke="#013941" stroke-width="2.5" stroke-linecap="round" stroke-linejoin="round"/>
<path d="M252.567 259.122H206.867L104.974 208.554H150.627L252.567 259.122Z" stroke="#013941" stroke-width="2.5" stroke-linecap="round" stroke-linejoin="round"/>
<path d="M336.595 259.122H290.942L189.001 208.554H234.702L336.595 259.122Z" stroke="#013941" stroke-width="2.5" stroke-linecap="round" stroke-linejoin="round"/>
<path d="M420.672 259.122H375.019L273.079 208.554H318.779L420.672 259.122Z" stroke="#013941" stroke-width="2.5" stroke-linecap="round" stroke-linejoin="round"/>
<path d="M440.853 227.412V250.095L357.154 208.554H402.854L440.853 227.412Z" stroke="#013941" stroke-width="2.5" stroke-linecap="round" stroke-linejoin="round"/>
<path d="M168.492 259.122H122.789L82.6182 239.177V216.541L168.492 259.122Z" stroke="#013941" stroke-width="2.5" stroke-linecap="round" stroke-linejoin="round"/>
</svg>
