<svg width="32" height="32" viewBox="0 0 32 32" fill="none" xmlns="http://www.w3.org/2000/svg">
<path d="M16 28H10.6667C9.95942 28 9.28115 27.719 8.78105 27.219C8.28095 26.7189 8 26.0406 8 25.3333V6.66667C8 5.95942 8.28095 5.28115 8.78105 4.78105C9.28115 4.28095 9.95942 4 10.6667 4H21.3333C22.0406 4 22.7189 4.28095 23.219 4.78105C23.719 5.28115 24 5.95942 24 6.66667V17.3333M14.6667 5.33333H17.3333M21.3333 29.3333L28 22.6667M28 22.6667V28.6667M28 22.6667H22M16 22.6667V22.68" stroke="#14B8A6" stroke-width="2.66667" stroke-linecap="round" stroke-linejoin="round"/>
</svg>
