<svg width="32" height="32" viewBox="0 0 32 32" fill="none" xmlns="http://www.w3.org/2000/svg">
<path d="M13.333 4.2666C11.2472 4.75012 9.32885 5.78287 7.7768 7.25772C6.22475 8.73257 5.09555 10.5958 4.50633 12.6542C3.91711 14.7125 3.88934 16.8911 4.42588 18.9638C4.96242 21.0365 6.04374 22.9279 7.55769 24.4419C9.07163 25.9558 10.9631 27.0371 13.0358 27.5737C15.1085 28.1102 17.287 28.0824 19.3454 27.4932C21.4038 26.904 23.267 25.7748 24.7418 24.2228C26.2167 22.6707 27.2494 20.7523 27.733 18.6666C27.733 18.313 27.5925 17.9738 27.3424 17.7238C27.0924 17.4737 26.7532 17.3333 26.3996 17.3333H17.333C16.6257 17.3333 15.9474 17.0523 15.4473 16.5522C14.9472 16.0521 14.6663 15.3738 14.6663 14.6666V5.33327C14.6497 5.1753 14.602 5.0222 14.5258 4.88283C14.4496 4.74346 14.3465 4.6206 14.2225 4.52138C14.0984 4.42216 13.9559 4.34855 13.8033 4.30481C13.6506 4.26108 13.4907 4.24809 13.333 4.2666Z" stroke="#14B8A6" stroke-width="2.66667" stroke-linecap="round" stroke-linejoin="round"/>
<path d="M19.9996 4.66663C21.6926 5.26274 23.2303 6.23102 24.4994 7.50017C25.7686 8.76932 26.7369 10.307 27.333 12H21.333C20.9793 12 20.6402 11.8595 20.3902 11.6094C20.1401 11.3594 19.9996 11.0202 19.9996 10.6666V4.66663Z" stroke="#14B8A6" stroke-width="2.66667" stroke-linecap="round" stroke-linejoin="round"/>
</svg>
