<svg width="120" height="32" viewBox="0 0 120 32" fill="none" xmlns="http://www.w3.org/2000/svg">
<g clip-path="url(#clip0_156_255)">
<path d="M15.1618 8.85808C14.8469 6.15898 14.5143 3.30915 14.5143 0H17.4857C17.4857 3.27198 17.1547 6.11819 16.8402 8.82032C16.5839 11.0224 16.3388 13.1288 16.2933 15.292C17.7853 13.7358 19.0904 12.0856 20.4576 10.357C22.1433 8.22584 23.9234 5.97556 26.2632 3.63571L28.3643 5.73683C26.0506 8.05048 23.8038 9.82888 21.6707 11.5173L21.6687 11.5188C19.9313 12.8942 18.2692 14.2099 16.708 15.7067C18.8632 15.6612 20.9529 15.4174 23.1418 15.1619C25.8409 14.8469 28.6909 14.5143 32 14.5143V17.4857C28.7282 17.4857 25.8819 17.1546 23.1799 16.8402L23.1779 16.84C20.9763 16.5838 18.8706 16.3389 16.708 16.2933C18.2632 17.7842 19.9125 19.0887 21.6399 20.455L21.6426 20.4573C23.7739 22.1431 26.0243 23.9231 28.3643 26.2632L26.2632 28.3643C23.9495 26.0507 22.1712 23.804 20.483 21.6711L20.479 21.6656L20.4757 21.6612C19.102 19.9265 17.7879 18.267 16.2933 16.708C16.3388 18.8712 16.5839 20.9776 16.8402 23.1797C17.1547 25.8818 17.4857 28.728 17.4857 32H14.5143C14.5143 28.6909 14.8469 25.841 15.1618 23.1419L15.1625 23.1375C15.4176 20.9502 15.6612 18.8618 15.7067 16.708C14.2121 18.267 12.898 19.9265 11.5243 21.6612L11.521 21.6656L11.517 21.6711C9.8288 23.804 8.05048 26.0507 5.73683 28.3643L3.63571 26.2632C5.97567 23.9231 8.22608 22.1431 10.3574 20.4573L10.3601 20.455C12.0875 19.0887 13.7368 17.7842 15.292 16.2933C13.1288 16.339 11.0223 16.584 8.82008 16.8402C6.11808 17.1546 3.27187 17.4857 0 17.4857V14.5143C3.30915 14.5143 6.15915 14.8469 8.85824 15.1619C11.0471 15.4174 13.1368 15.6612 15.292 15.7067C13.7302 14.2094 12.0674 12.8933 10.3293 11.5173C8.19624 9.82888 5.94933 8.05048 3.63571 5.73683L5.73683 3.63571C8.07656 5.97556 9.85672 8.22584 11.5424 10.357C12.9096 12.0855 14.2147 13.7357 15.7067 15.2918C15.6612 13.1382 15.4176 11.0498 15.1625 8.86248L15.1618 8.85808Z" fill="#14B8A6"/>
</g>
<path d="M43.5938 25V7.53906H50.0625C53.8008 7.53906 56.1445 9.63672 56.1445 12.9766C56.1445 16.3281 53.7188 18.4258 49.9805 18.4258H46.1953V25H43.5938ZM46.1953 16.1758H49.9336C52.1836 16.1758 53.5781 14.9453 53.5781 12.9766C53.5781 11.0078 52.1836 9.80078 49.9336 9.80078H46.1953V16.1758ZM62.467 25.2461C59.9241 25.2461 57.9905 23.5703 57.9905 20.3359V12.625H60.4631V20.0312C60.4631 22.0117 61.4592 23.0312 63.1819 23.0312C64.8577 23.0312 66.1584 22.0469 66.1584 19.75V12.625H68.6311V25H66.2053V23.1367C65.3616 24.543 64.1077 25.2461 62.467 25.2461ZM73.6528 7.53906V25H71.1802V7.53906H73.6528ZM80.7956 25.293C77.9597 25.293 75.8034 23.9219 75.6277 21.2383H78.0652C78.2058 22.5742 79.1433 23.3242 80.7487 23.3242C82.3191 23.3242 83.2917 22.6094 83.2917 21.625C83.2917 20.7812 82.5769 20.2891 81.5105 20.0547L79.4597 19.5977C77.1277 19.082 75.9089 17.8984 75.9089 16.0586C75.9089 13.8672 77.8073 12.3555 80.6433 12.3555C83.4323 12.3555 85.4245 13.9023 85.4948 16.3984H83.1277C83.1042 15.1914 82.1433 14.3125 80.6784 14.3125C79.2722 14.3125 78.3816 15.0625 78.3816 16.0117C78.3816 16.8438 79.0495 17.3477 80.1628 17.6055L82.2722 18.0742C84.6862 18.6133 85.7878 19.6914 85.7878 21.4844C85.7878 23.8398 83.6784 25.293 80.7956 25.293ZM93.0244 25.2812C89.3564 25.2812 87.1298 22.5742 87.1298 18.8359C87.1298 15.0625 89.5205 12.3438 92.8955 12.3438C96.3994 12.3438 98.6728 14.9922 98.6728 18.8125V19.4805H89.5673C89.6494 21.707 90.8916 23.2188 93.0595 23.2188C94.6767 23.2188 95.7548 22.4102 96.1064 21.2383H98.4853C98.0283 23.6289 95.8252 25.2812 93.0244 25.2812ZM89.5908 17.6055H96.2588C96.0595 15.6367 94.7939 14.4062 92.9189 14.4062C91.0556 14.4062 89.8017 15.6367 89.5908 17.6055ZM105.33 25V22.8789L113.99 11.8984C114.529 11.207 115.103 10.5156 115.689 9.82422H105.658V7.53906H118.794V9.66016L110.31 20.4414C109.712 21.2031 109.091 21.9648 108.447 22.7148H118.888V25H105.33Z" fill="#0A0D14"/>
<defs>
<clipPath id="clip0_156_255">
<rect width="32" height="32" fill="white"/>
</clipPath>
</defs>
</svg>
