<svg width="20" height="20" viewBox="0 0 20 20" fill="none" xmlns="http://www.w3.org/2000/svg">
<path d="M10 15.8333H13.75C14.5236 15.8333 15.2655 15.526 15.8124 14.9791C16.3594 14.4321 16.6667 13.6902 16.6667 12.9167C16.6667 12.1431 16.3594 11.4013 15.8124 10.8543C15.2655 10.3073 14.5236 10 13.75 10H7.08337C6.30983 10 5.56796 9.69271 5.02098 9.14573C4.474 8.59875 4.16671 7.85688 4.16671 7.08333C4.16671 6.30979 4.474 5.56792 5.02098 5.02094C5.56796 4.47396 6.30983 4.16667 7.08337 4.16667H10M3.33337 15.8333C3.33337 16.2754 3.50897 16.6993 3.82153 17.0118C4.13409 17.3244 4.55801 17.5 5.00004 17.5C5.44207 17.5 5.86599 17.3244 6.17855 17.0118C6.49111 16.6993 6.66671 16.2754 6.66671 15.8333C6.66671 15.3913 6.49111 14.9674 6.17855 14.6548C5.86599 14.3423 5.44207 14.1667 5.00004 14.1667C4.55801 14.1667 4.13409 14.3423 3.82153 14.6548C3.50897 14.9674 3.33337 15.3913 3.33337 15.8333ZM13.3334 4.16667C13.3334 4.60869 13.509 5.03262 13.8215 5.34518C14.1341 5.65774 14.558 5.83333 15 5.83333C15.4421 5.83333 15.866 5.65774 16.1786 5.34518C16.4911 5.03262 16.6667 4.60869 16.6667 4.16667C16.6667 3.72464 16.4911 3.30072 16.1786 2.98816C15.866 2.67559 15.4421 2.5 15 2.5C14.558 2.5 14.1341 2.67559 13.8215 2.98816C13.509 3.30072 13.3334 3.72464 13.3334 4.16667Z" stroke="#14B8A6" stroke-width="1.66667" stroke-linecap="round" stroke-linejoin="round"/>
</svg>
