<svg width="382" height="271" viewBox="0 0 382 271" fill="none" xmlns="http://www.w3.org/2000/svg">
<g clip-path="url(#clip0_163_429)">
<path d="M236.57 152.312C231.822 155.238 216.766 157.174 210.368 157.53H239.223C238.463 155.731 237.577 153.986 236.57 152.312Z" fill="#E8F8F6"/>
<path d="M241.298 164.114H146.696L111.911 236.333C113.561 237.791 115.315 239.129 117.158 240.334L111.948 251.303C119.433 253.359 127.319 253.476 134.861 251.644L136.78 247.168C138.693 247.355 140.615 247.437 142.537 247.409L156.16 222.476L152.065 243.172C153.905 244.08 155.799 244.878 157.734 245.56L156.224 251.64C163.045 253.588 170.274 253.588 177.095 251.64L177.736 248.776C179.565 248.764 181.405 248.692 183.258 248.539L198.269 187.816L202.806 188.497L234.377 185.964C240.869 180.656 243.696 174.06 241.298 164.114Z" fill="#E8F8F6"/>
<path d="M121.401 103.883C121.287 105.27 120.771 106.593 119.918 107.692C119.063 108.791 117.908 109.617 116.592 110.07C115.276 110.523 113.857 110.582 112.508 110.242C111.158 109.901 109.937 109.175 108.994 108.152C108.051 107.129 107.426 105.853 107.196 104.48C106.966 103.108 107.14 101.698 107.698 100.423C108.256 99.1482 109.174 98.0635 110.338 97.3015C111.502 96.5393 112.863 96.1328 114.255 96.1316C116.23 96.2124 118.093 97.0743 119.433 98.5278C120.773 99.9812 121.481 101.907 121.401 103.883Z" fill="#E8F8F6"/>
<path d="M118.565 92.8795C117.419 93.7255 116.018 94.1525 114.595 94.0895C114.735 92.6732 115.363 91.3496 116.372 90.3463C117.518 89.5003 118.919 89.0733 120.342 89.1364C120.203 90.5526 119.575 91.8762 118.565 92.8795Z" fill="#E8F8F6"/>
<path d="M201.709 85.2497C201.646 86.2431 201.445 87.223 201.112 88.1611L204.742 84.7582C203.755 85.0479 202.736 85.2131 201.709 85.2497Z" fill="#14B8A6"/>
<path d="M216.153 117.304V134.924C217.136 134.772 218.119 134.621 219.102 134.432C218.577 128.653 217.59 122.926 216.153 117.304Z" fill="#14B8A6"/>
<path d="M194.11 143.431L189.497 141.73C188.967 141.276 188.438 140.785 187.947 140.293C189.16 135.038 192.408 137.004 194.11 143.431Z" fill="#14B8A6"/>
<path d="M158.871 78.3986V126.19C158.87 127.935 158.176 129.608 156.943 130.841C155.709 132.075 154.036 132.768 152.292 132.769H149.796C151.541 132.768 153.214 132.075 154.447 130.841C155.681 129.608 156.374 127.935 156.375 126.19V78.3986C156.374 76.654 155.681 74.9812 154.447 73.7478C153.214 72.5142 151.541 71.8207 149.796 71.8197H152.292C154.036 71.8207 155.709 72.5142 156.943 73.7478C158.176 74.9812 158.87 76.654 158.871 78.3986Z" fill="#14B8A6"/>
<path d="M135.013 155.871H130.097C129.309 155.879 128.546 155.592 127.957 155.069C127.368 154.544 126.996 153.819 126.913 153.035L124.842 132.811H122.346L125.106 157.992H137.092C137.097 157.716 137.048 157.441 136.945 157.184C136.843 156.928 136.691 156.693 136.497 156.496C136.304 156.299 136.073 156.142 135.818 156.034C135.563 155.927 135.289 155.871 135.013 155.871Z" fill="#14B8A6"/>
<path d="M218.989 71.5924C219.434 71.0559 219.675 70.3777 219.665 69.6798C219.655 68.9821 219.398 68.3107 218.937 67.7863C218.477 67.2621 217.844 66.9195 217.154 66.82C216.463 66.7207 215.759 66.8711 215.17 67.2442C215.49 66.6689 215.606 66.0027 215.5 65.3529C215.397 64.7032 215.076 64.1078 214.591 63.6626C214.105 63.2173 213.486 62.948 212.83 62.8981C212.173 62.8481 211.52 63.0207 210.973 63.3876C212.736 60.2136 207.681 57.5012 205.799 60.5519C204.635 63.9964 203.18 67.3356 201.451 70.5337C206.29 63.7677 209.542 70.9496 209.24 75.1843C209.277 76.0162 209.693 76.243 211.054 75.26C213.852 73.2182 215.856 77.9823 210.639 80.3265C209.031 83.4194 208.561 86.9801 209.315 90.3839C209.277 89.8546 208.672 79.3056 220.583 77.1126C221.199 76.9819 221.753 76.6444 222.151 76.1561C222.549 75.6679 222.768 75.0582 222.772 74.4281C222.776 73.968 222.672 73.5133 222.467 73.101C222.264 72.6885 221.966 72.3299 221.597 72.0539C221.229 71.7778 220.801 71.5922 220.348 71.5122C219.894 71.432 219.428 71.4595 218.989 71.5924Z" fill="#14B8A6"/>
<path d="M207.041 102.672C207.041 103.033 206.897 103.379 206.643 103.634C206.386 103.889 206.04 104.033 205.68 104.033C205.319 104.033 204.973 103.889 204.716 103.634C204.462 103.379 204.318 103.033 204.318 102.672C204.318 102.311 204.462 101.964 204.716 101.709C204.973 101.454 205.319 101.311 205.68 101.311C206.04 101.311 206.386 101.454 206.643 101.709C206.897 101.964 207.041 102.311 207.041 102.672Z" fill="#14B8A6"/>
<path d="M193.958 115.263C193.958 115.624 193.815 115.97 193.56 116.225C193.304 116.481 192.957 116.624 192.597 116.624C192.237 116.624 191.891 116.481 191.634 116.225C191.379 115.97 191.236 115.624 191.236 115.263C191.236 114.902 191.379 114.556 191.634 114.3C191.891 114.045 192.237 113.902 192.597 113.902C192.957 113.902 193.304 114.045 193.56 114.3C193.815 114.556 193.958 114.902 193.958 115.263Z" fill="#14B8A6"/>
<path d="M204.129 129.517C204.129 129.878 203.986 130.224 203.731 130.479C203.475 130.734 203.128 130.878 202.768 130.878C202.408 130.878 202.062 130.734 201.805 130.479C201.55 130.224 201.407 129.878 201.407 129.517C201.407 129.156 201.55 128.81 201.805 128.554C202.062 128.299 202.408 128.156 202.768 128.156C203.128 128.156 203.475 128.299 203.731 128.554C203.986 128.81 204.129 129.156 204.129 129.517Z" fill="#14B8A6"/>
<path d="M278.909 133.79H265.298C264.816 133.79 264.355 133.981 264.014 134.321C263.674 134.662 263.483 135.123 263.483 135.605V155.72C263.483 156.201 263.674 156.663 264.014 157.003C264.355 157.343 264.816 157.534 265.298 157.534H278.909C279.389 157.529 279.847 157.333 280.185 156.995C280.525 156.657 280.718 156.199 280.724 155.72V135.597C280.722 135.117 280.529 134.657 280.191 134.319C279.851 133.98 279.389 133.79 278.909 133.79Z" fill="#14B8A6"/>
<path d="M276.919 38.0868L258.506 43.1155C258.178 43.2043 257.877 43.378 257.636 43.6192C257.395 43.8606 257.222 44.1611 257.133 44.4906C257.045 44.82 257.045 45.1668 257.133 45.4962C257.222 45.8255 257.395 46.126 257.636 46.3672L274.197 62.7767C274.438 63.0177 274.738 63.191 275.069 63.2794C275.397 63.3678 275.745 63.3678 276.074 63.2796C276.404 63.1916 276.704 63.0183 276.945 62.7775C277.186 62.5365 277.359 62.2364 277.449 61.9071L282.364 43.1533L276.919 38.0868Z" fill="#14B8A6"/>
<path d="M289.677 30.3942C289.347 30.0685 288.955 29.8112 288.525 29.6369C288.097 29.4625 287.638 29.3748 287.174 29.3781C286.71 29.3817 286.251 29.4767 285.825 29.6574C285.397 29.8382 285.011 30.1015 284.686 30.4321L277.011 38.1831L282.185 42.985L289.709 35.3852C290.358 34.7151 290.72 33.8166 290.714 32.8831C290.708 31.9496 290.334 31.0557 289.677 30.3942Z" fill="#14B8A6"/>
<path d="M127.299 5.05276C127.298 5.53116 127.155 5.99861 126.888 6.39602C126.622 6.79322 126.243 7.10247 125.8 7.28455C125.358 7.46664 124.872 7.5134 124.402 7.41908C123.933 7.32475 123.503 7.09331 123.165 6.75441C122.827 6.41532 122.598 5.98369 122.505 5.51425C122.413 5.0448 122.462 4.55845 122.646 4.11667C122.83 3.67489 123.14 3.29758 123.539 3.03232C123.937 2.76725 124.405 2.62616 124.883 2.62696C125.202 2.62636 125.517 2.68884 125.811 2.81063C126.105 2.93262 126.372 3.11132 126.596 3.33679C126.821 3.56245 126.999 3.83011 127.119 4.12463C127.24 4.41915 127.301 4.73456 127.299 5.05276Z" fill="#14B8A6"/>
<path d="M177.095 251.644C170.274 253.592 163.045 253.592 156.224 251.644C149.834 253.496 137.281 262.42 137.281 262.42H179.515C179.115 258.748 178.304 255.134 177.095 251.644Z" fill="#14B8A6"/>
<path d="M134.861 251.643C127.319 253.476 119.434 253.358 111.949 251.303C105.096 253.549 98.8575 257.354 93.7241 262.419H137.243C136.713 258.773 135.917 255.171 134.861 251.643Z" fill="#14B8A6"/>
<path d="M210.292 187.896L202.806 188.501L198.269 187.821L199.214 184.002L210.292 187.896Z" fill="#14B8A6"/>
<path d="M341.228 157.535H47.2934C46.421 157.535 45.5844 157.881 44.9675 158.498C44.3506 159.115 44.0039 159.952 44.0039 160.824C44.0039 161.696 44.3506 162.533 44.9675 163.15C45.5844 163.767 46.421 164.113 47.2934 164.113H87.5769L69.0341 266.768C69.0029 266.955 68.9901 267.146 68.9963 267.335H75.6509L94.2852 164.113H294.306L312.946 267.373H319.601C319.563 267.184 319.563 266.994 319.525 266.776L300.985 164.121H341.228C342.1 164.121 342.938 163.775 343.555 163.158C344.172 162.541 344.518 161.704 344.518 160.832C344.518 159.96 344.172 159.123 343.555 158.506C342.938 157.889 342.1 157.543 341.228 157.543V157.535Z" fill="#14B8A6"/>
<path d="M127.299 5.05276C127.298 5.53116 127.155 5.99861 126.888 6.39602C126.622 6.79322 126.243 7.10247 125.8 7.28455C125.358 7.46664 124.872 7.5134 124.402 7.41908C123.933 7.32475 123.503 7.09331 123.165 6.75441C122.827 6.41532 122.598 5.98369 122.505 5.51425C122.413 5.0448 122.462 4.55845 122.646 4.11667C122.83 3.67489 123.14 3.29758 123.539 3.03232C123.937 2.76725 124.405 2.62616 124.883 2.62696C125.202 2.62636 125.517 2.68884 125.811 2.81063C126.105 2.93262 126.372 3.11132 126.596 3.33679C126.821 3.56245 126.999 3.83011 127.119 4.12463C127.24 4.41915 127.301 4.73456 127.299 5.05276Z" stroke="#013941" stroke-width="2"/>
<path d="M289.678 30.3942C289.347 30.0685 288.955 29.8112 288.525 29.6369C288.098 29.4625 287.638 29.3748 287.174 29.3781C286.71 29.3817 286.251 29.4767 285.825 29.6574C285.397 29.8382 285.011 30.1015 284.687 30.4321L277.011 38.1831L282.185 42.985L289.709 35.3852C290.358 34.7151 290.72 33.8166 290.714 32.8831C290.708 31.9496 290.334 31.0557 289.678 30.3942Z" stroke="#013941" stroke-width="2" stroke-linejoin="round"/>
<path d="M341.228 157.535H47.2934C46.421 157.535 45.5844 157.881 44.9675 158.498C44.3506 159.115 44.0039 159.952 44.0039 160.824C44.0039 161.696 44.3506 162.533 44.9675 163.15C45.5844 163.767 46.421 164.113 47.2934 164.113H87.5769L69.0341 266.768C69.0029 266.955 68.9901 267.146 68.9963 267.335H75.6509L94.2852 164.113H294.306L312.946 267.373H319.601C319.563 267.184 319.563 266.994 319.525 266.776L300.985 164.121H341.228C342.1 164.121 342.938 163.775 343.555 163.158C344.172 162.541 344.518 161.704 344.518 160.832C344.518 159.96 344.172 159.123 343.555 158.506C342.938 157.889 342.1 157.543 341.228 157.543V157.535Z" stroke="#013941" stroke-width="2" stroke-linejoin="round"/>
<path d="M185.527 152.392C183.957 154.518 181.8 156.138 179.32 157.051C176.841 157.964 174.149 158.133 171.575 157.535" stroke="#013941" stroke-width="2" stroke-linecap="round" stroke-linejoin="round"/>
<path d="M100.008 146.041C100.008 146.041 81.6229 144.341 79.0896 157.535" stroke="#013941" stroke-width="2" stroke-linecap="round" stroke-linejoin="round"/>
<path d="M106.542 148.99C105.974 148.687 105.517 148.393 105.067 148.12C102.93 146.828 102.156 145.965 100.265 144.717C98.4471 143.511 96.7614 142.118 95.2364 140.558C91.0375 136.25 92.4385 135.491 97.1647 138.327C97.1934 138.331 97.2201 138.345 97.2404 138.365C100.379 140.265 103.652 141.935 107.033 143.358" stroke="#013941" stroke-width="2" stroke-linecap="round" stroke-linejoin="round"/>
<path d="M105.067 148.119C100.936 146.293 96.6798 144.762 92.3311 143.542C88.6655 142.512 89.3063 141.686 89.9113 141.576C92.1448 141.407 94.3905 141.495 96.6036 141.841" stroke="#013941" stroke-width="2" stroke-linecap="round" stroke-linejoin="round"/>
<path d="M105.861 155.871C105.029 155.758 104.235 155.706 103.555 155.682C97.0176 155.444 99.322 153.989 101.589 153.338C102.763 153.002 104.689 152.62 106.239 152.09" stroke="#013941" stroke-width="2" stroke-linecap="round" stroke-linejoin="round"/>
<path d="M247.271 191.752L258.046 267.372" stroke="#013941" stroke-width="2" stroke-linecap="round" stroke-linejoin="round"/>
<path d="M258.954 136.852L241.259 135.567" stroke="#013941" stroke-width="2" stroke-linecap="round" stroke-linejoin="round"/>
<path d="M177.736 248.781L177.095 251.644" stroke="#013941" stroke-width="2" stroke-linecap="round" stroke-linejoin="round"/>
<path d="M156.186 251.644L157.734 245.564" stroke="#013941" stroke-width="2" stroke-linecap="round" stroke-linejoin="round"/>
<path d="M136.79 247.144L134.861 251.643" stroke="#013941" stroke-width="2" stroke-linecap="round" stroke-linejoin="round"/>
<path d="M111.911 251.341L117.158 240.334" stroke="#013941" stroke-width="2" stroke-linecap="round" stroke-linejoin="round"/>
<path d="M156.186 222.379L142.537 247.409C131.283 247.795 120.314 243.829 111.911 236.333L146.696 164.114" stroke="#013941" stroke-width="2" stroke-linecap="round" stroke-linejoin="round"/>
<path d="M172.407 248.629L186.359 182.489C186.562 181.522 186.954 180.607 187.514 179.793C188.074 178.981 188.789 178.286 189.619 177.751C190.449 177.216 191.377 176.851 192.349 176.678C193.322 176.505 194.319 176.527 195.282 176.742C207.021 179.367 229.09 181.779 231.311 164.201" stroke="#013941" stroke-width="2" stroke-linecap="round" stroke-linejoin="round"/>
<path d="M123.236 140.684L166.092 133.719C173.163 122.973 181.561 98.0817 193.732 94.6231C195.728 94.114 197.544 93.0679 198.987 91.5983" stroke="#013941" stroke-width="2" stroke-linecap="round" stroke-linejoin="round"/>
<path d="M201.71 85.2498C202.713 85.214 203.708 85.0671 204.677 84.812L201.095 88.1612" stroke="#013941" stroke-width="2" stroke-linecap="round" stroke-linejoin="round"/>
<path d="M209.914 91.8964C210.499 92.9718 211.472 93.7831 212.637 94.165C218.684 96.4224 224.29 99.7226 229.197 103.916C234.797 109.054 239.744 127.882 241.902 140.289C242.423 143.207 241.824 146.211 240.226 148.707C238.628 151.202 236.148 153.003 233.281 153.75C225.8 155.827 218.119 157.095 210.368 157.531" stroke="#013941" stroke-width="2" stroke-linecap="round" stroke-linejoin="round"/>
<path d="M223.412 133.563C212.438 135.68 201.312 136.918 190.14 137.268" stroke="#013941" stroke-width="2" stroke-linecap="round" stroke-linejoin="round"/>
<path d="M219.064 134.403C218.573 128.62 217.586 122.89 216.115 117.275V134.933" stroke="#013941" stroke-width="2" stroke-linecap="round" stroke-linejoin="round"/>
<path d="M129.757 139.613C133.202 144.894 134.425 151.32 133.16 157.497" stroke="#013941" stroke-width="2" stroke-linecap="round" stroke-linejoin="round"/>
<path d="M176.49 142.411C173.579 143.696 166.13 145.815 162.123 147.099C160.232 147.696 163.597 149.859 175.016 146.57" stroke="#013941" stroke-width="2" stroke-linecap="round" stroke-linejoin="round"/>
<path d="M177.057 145.36C174.297 147.099 170.291 149.101 166.66 151.031C164.958 151.937 166.508 153.905 176.566 149.746" stroke="#013941" stroke-width="2" stroke-linecap="round" stroke-linejoin="round"/>
<path d="M177.851 148.12C176.259 150.087 174.88 151.993 172.218 154.851C170.978 156.182 173.255 156.99 181.67 151.07C183.222 149.977 184.058 151.175 186.094 152.885C188.787 155.143 190.593 157.762 192.56 157.497" stroke="#013941" stroke-width="2" stroke-linecap="round" stroke-linejoin="round"/>
<path d="M182.767 139.31C179.742 132.345 181.708 131.947 182.767 133.714C184.561 136.612 186.734 139.254 189.228 141.577" stroke="#013941" stroke-width="2" stroke-linecap="round" stroke-linejoin="round"/>
<path d="M187.947 140.293C188.89 136.194 191.077 136.488 192.8 139.867C194.79 143.776 196.605 157.535 192.446 157.535" stroke="#013941" stroke-width="2" stroke-linecap="round" stroke-linejoin="round"/>
<path d="M193.97 143.38C189.523 141.72 182.387 138.819 180.46 138.819C179.742 138.819 171.537 141.207 167.567 142.297C164.958 143.017 163.713 144.221 167.945 144.074C169.722 144.013 171.688 143.772 173.466 143.545" stroke="#013941" stroke-width="2" stroke-linecap="round" stroke-linejoin="round"/>
<path d="M185.678 113.906C184.038 121.913 184.141 130.179 185.981 138.142" stroke="#013941" stroke-width="2" stroke-linecap="round" stroke-linejoin="round"/>
<path d="M125.106 157.497H105.672L108.092 132.807H122.384L125.106 157.497Z" stroke="#013941" stroke-width="2" stroke-linecap="round" stroke-linejoin="round"/>
<path d="M121.401 103.882C121.287 105.269 120.771 106.593 119.918 107.692C119.063 108.79 117.908 109.617 116.592 110.069C115.276 110.522 113.857 110.582 112.508 110.241C111.158 109.901 109.937 109.174 108.994 108.151C108.051 107.128 107.426 105.852 107.196 104.48C106.966 103.107 107.14 101.698 107.698 100.423C108.256 99.1477 109.174 98.063 110.338 97.301C111.502 96.5389 112.863 96.1323 114.255 96.1311C116.23 96.2119 118.093 97.0738 119.433 98.5273C120.773 99.9808 121.481 101.907 121.401 103.882Z" stroke="#013941" stroke-width="2" stroke-linecap="round" stroke-linejoin="round"/>
<path d="M118.565 92.8788C117.419 93.7248 116.018 94.1518 114.595 94.0887C114.735 92.6724 115.363 91.3489 116.372 90.3455C117.518 89.4996 118.919 89.0725 120.342 89.1356C120.203 90.5519 119.575 91.8755 118.565 92.8788Z" stroke="#013941" stroke-width="2" stroke-linecap="round" stroke-linejoin="round"/>
<path d="M201.445 70.5722C203.17 67.3725 204.625 64.0335 205.793 60.5904C206.153 60.0614 206.673 59.6612 207.276 59.4481C207.878 59.235 208.533 59.2203 209.146 59.4061C209.759 59.5918 210.294 59.9683 210.678 60.4807C211.061 60.9929 211.269 61.6144 211.275 62.254C211.271 62.6635 211.168 63.0657 210.973 63.4261C211.52 63.0592 212.173 62.8868 212.83 62.9366C213.486 62.9865 214.105 63.2558 214.591 63.7011C215.074 64.1465 215.397 64.7419 215.5 65.3916C215.606 66.0412 215.49 66.7074 215.17 67.2827C215.759 66.9096 216.463 66.7592 217.154 66.8585C217.844 66.958 218.477 67.3006 218.937 67.825C219.399 68.3492 219.655 69.0208 219.665 69.7185C219.675 70.4162 219.434 71.0944 218.989 71.6309C219.353 71.5139 219.735 71.4709 220.117 71.5045C220.497 71.5384 220.867 71.648 221.204 71.8273C221.542 72.0064 221.838 72.2516 222.079 72.5479C222.32 72.8442 222.499 73.1861 222.606 73.5528C222.712 73.9196 222.744 74.3041 222.7 74.6833C222.654 75.0626 222.535 75.4292 222.346 75.7611C222.157 76.0931 221.904 76.3838 221.6 76.6162C221.297 76.8485 220.951 77.0174 220.581 77.1133C217.361 77.4608 214.396 79.0311 212.298 81.5007C210.203 83.9701 209.134 87.1501 209.313 90.3846" stroke="#013941" stroke-width="2" stroke-linecap="round" stroke-linejoin="round"/>
<path d="M209.914 91.8968L209.196 97.5683L203.411 92.9933L196.87 96.2828L198.987 91.5944" stroke="#013941" stroke-width="2" stroke-linecap="round" stroke-linejoin="round"/>
<path d="M203.411 92.9928C198.647 105.016 196.945 120.103 196.87 136.89" stroke="#013941" stroke-width="2" stroke-linecap="round" stroke-linejoin="round"/>
<path d="M280.732 140.256C282.167 140.256 283.542 140.825 284.555 141.84C285.57 142.853 286.139 144.228 286.139 145.663C286.139 147.097 285.57 148.473 284.555 149.485C283.542 150.5 282.167 151.07 280.732 151.07" stroke="#013941" stroke-width="2" stroke-linecap="round" stroke-linejoin="round"/>
<path d="M330.301 90.0819C330.301 90.7399 330.106 91.3833 329.74 91.9304C329.376 92.4776 328.855 92.9041 328.248 93.1558C327.639 93.4077 326.97 93.4736 326.325 93.3453C325.679 93.2169 325.088 92.8999 324.622 92.4346C324.156 91.9694 323.84 91.3764 323.711 90.731C323.583 90.0856 323.649 89.4166 323.9 88.8087C324.152 88.2007 324.578 87.6809 325.125 87.3154C325.673 86.9498 326.315 86.7546 326.974 86.7546C327.412 86.752 327.846 86.8362 328.25 87.0025C328.656 87.1687 329.024 87.4139 329.332 87.7233C329.643 88.0328 329.887 88.4005 330.053 88.8055C330.22 89.2104 330.303 89.6443 330.301 90.0819Z" stroke="#013941" stroke-width="2" stroke-linecap="round" stroke-linejoin="round"/>
<path d="M303.57 147.93L326.974 93.4082" stroke="#013941" stroke-width="2" stroke-linecap="round" stroke-linejoin="round"/>
<path d="M326.974 86.7542L292.869 48.4905" stroke="#013941" stroke-width="2" stroke-linecap="round" stroke-linejoin="round"/>
<path d="M288.786 45.8816L283.001 42.1763" stroke="#013941" stroke-width="2" stroke-linecap="round" stroke-linejoin="round"/>
<path d="M269.389 58.0182C268.776 58.4968 268.05 58.811 267.28 58.9312C266.512 59.0514 265.726 58.9734 264.995 58.7045C264.263 58.4359 263.614 57.9854 263.107 57.3955C262.597 56.8057 262.249 56.096 262.092 55.3337C261.959 54.6899 261.969 54.0251 262.118 53.3851C262.269 52.7451 262.556 52.1457 262.962 51.6283" stroke="#013941" stroke-width="2" stroke-linecap="round" stroke-linejoin="round"/>
<path d="M293.436 46.9403C293.436 47.4265 293.293 47.9015 293.023 48.3057C292.752 48.7098 292.368 49.0248 291.92 49.2109C291.47 49.397 290.977 49.4455 290.499 49.3508C290.024 49.2559 289.584 49.0219 289.242 48.6782C288.897 48.3345 288.662 47.8965 288.569 47.4197C288.473 46.9431 288.523 46.449 288.708 45.9998C288.895 45.5507 289.21 45.1668 289.614 44.8968C290.018 44.6267 290.493 44.4827 290.979 44.4827C291.628 44.491 292.248 44.7525 292.708 45.2116C293.166 45.6707 293.429 46.2912 293.436 46.9403Z" stroke="#013941" stroke-width="2" stroke-linecap="round" stroke-linejoin="round"/>
<path d="M305.989 150.388C305.989 150.874 305.846 151.349 305.576 151.753C305.305 152.157 304.921 152.473 304.473 152.659C304.023 152.844 303.53 152.893 303.052 152.798C302.577 152.704 302.137 152.469 301.795 152.125C301.45 151.783 301.215 151.343 301.122 150.868C301.026 150.39 301.076 149.896 301.261 149.447C301.446 148.999 301.763 148.615 302.167 148.344C302.571 148.074 303.046 147.93 303.532 147.93C303.854 147.93 304.175 147.992 304.473 148.115C304.772 148.239 305.042 148.42 305.271 148.649C305.5 148.878 305.681 149.148 305.804 149.447C305.928 149.745 305.989 150.066 305.989 150.388Z" stroke="#013941" stroke-width="2" stroke-linecap="round" stroke-linejoin="round"/>
<path d="M202.806 196.933L198.269 267.373" stroke="#013941" stroke-width="2" stroke-linecap="round" stroke-linejoin="round"/>
<path d="M128.736 38.4703H106.201V15.9355H128.736V38.4703Z" stroke="#013941" stroke-width="2" stroke-linecap="round" stroke-linejoin="round"/>
<path d="M117.469 21.0788L124.048 7.20251" stroke="#013941" stroke-width="2" stroke-linecap="round" stroke-linejoin="round"/>
<path d="M52.6247 200.844H35.4211" stroke="#013941" stroke-width="2" stroke-linecap="round" stroke-linejoin="round"/>
<path d="M44.0039 209.448V192.244" stroke="#013941" stroke-width="2" stroke-linecap="round" stroke-linejoin="round"/>
<path d="M330.982 189.938C331.071 190.925 330.866 191.916 330.393 192.785C329.919 193.657 329.197 194.367 328.319 194.827C327.442 195.289 326.449 195.478 325.464 195.374C324.477 195.269 323.545 194.875 322.783 194.24C322.023 193.605 321.466 192.76 321.185 191.81C320.905 190.859 320.912 189.846 321.207 188.901C321.502 187.954 322.071 187.116 322.841 186.493C323.613 185.87 324.55 185.49 325.537 185.4C326.194 185.333 326.857 185.398 327.489 185.592C328.12 185.785 328.705 186.101 329.213 186.525C329.72 186.947 330.138 187.466 330.443 188.053C330.745 188.638 330.928 189.279 330.982 189.938Z" stroke="#013941" stroke-width="2" stroke-linecap="round" stroke-linejoin="round"/>
<path d="M2.29956 267.373H380.4" stroke="#013941" stroke-width="2" stroke-linecap="round" stroke-linejoin="round"/>
<path d="M137.281 262.42H179.515" stroke="#013941" stroke-width="2" stroke-linecap="round" stroke-linejoin="round"/>
<path d="M93.6863 262.42H137.206" stroke="#013941" stroke-width="2" stroke-linecap="round" stroke-linejoin="round"/>
<path d="M137.279 262.36C136.879 258.708 136.068 255.112 134.861 251.642C127.319 253.474 119.434 253.357 111.949 251.301C102.978 254.348 95.0756 259.914 89.187 267.335C106.655 267.335 118.263 267.373 131.421 267.335" stroke="#013941" stroke-width="2" stroke-linecap="round" stroke-linejoin="round"/>
<path d="M177.095 251.644C170.274 253.592 163.045 253.592 156.224 251.644C146.807 254.374 134.758 263.998 131.421 267.335C151.384 267.335 163.937 267.146 179.628 267.146C179.767 261.864 178.907 256.605 177.095 251.644Z" stroke="#013941" stroke-width="2" stroke-linecap="round" stroke-linejoin="round"/>
<path d="M198.269 187.821L199.214 184.002L210.292 187.896" stroke="#013941" stroke-width="2" stroke-linecap="round" stroke-linejoin="round"/>
<path d="M198.269 187.821L202.806 188.501L243.635 185.166" stroke="#013941" stroke-width="2" stroke-linecap="round" stroke-linejoin="round"/>
<path d="M248.896 185.551L236.041 184.606" stroke="#013941" stroke-width="2" stroke-linecap="round" stroke-linejoin="round"/>
<path d="M130.135 246.01L162.123 192.358" stroke="#013941" stroke-width="2" stroke-linecap="round" stroke-linejoin="round"/>
<path d="M199.932 136.663C203.335 141.692 204.205 148.649 202.466 157.534" stroke="#013941" stroke-width="2" stroke-linecap="round" stroke-linejoin="round"/>
<path d="M196.189 196.176L202.806 196.932L244.198 193.491C245.068 193.424 245.893 193.083 246.558 192.52C247.223 191.957 247.694 191.199 247.903 190.353L265.787 103.655C265.982 102.724 265.973 101.762 265.758 100.836C265.545 99.9095 265.133 99.0407 264.55 98.2893C263.967 97.5379 263.228 96.9219 262.385 96.4839C261.541 96.0459 260.611 95.7964 259.662 95.7524L211.2 93.4082" stroke="#013941" stroke-width="2" stroke-linecap="round" stroke-linejoin="round"/>
<path d="M180.498 162.979C176.626 163.725 173.064 165.609 170.269 168.391C167.474 171.173 165.572 174.725 164.807 178.594L152.071 243.174C161.786 247.77 172.571 249.629 183.264 248.547C183.264 248.359 194.844 201.66 198.275 187.824" stroke="#013941" stroke-width="2" stroke-linecap="round" stroke-linejoin="round"/>
<path d="M149.796 71.8197C151.541 71.8207 153.214 72.5142 154.447 73.7478C155.681 74.9814 156.374 76.6542 156.375 78.3986V126.228C156.375 127.974 155.682 129.647 154.448 130.882C153.215 132.116 151.542 132.81 149.796 132.811H84.4228C82.6766 132.811 81.0016 132.118 79.765 130.885C78.5286 129.652 77.8313 127.979 77.8259 126.232V78.3986C77.8243 77.5352 77.9931 76.6801 78.3224 75.8819C78.6518 75.0837 79.1352 74.3583 79.7451 73.7474C80.355 73.1363 81.0796 72.6515 81.8772 72.3208C82.6746 71.9901 83.5295 71.8197 84.3929 71.8197H149.796Z" stroke="#013941" stroke-width="2" stroke-linecap="round" stroke-linejoin="round"/>
<path d="M158.871 78.3986V126.19C158.87 127.935 158.176 129.608 156.943 130.841C155.709 132.075 154.036 132.768 152.292 132.769H149.796C151.541 132.768 153.214 132.075 154.447 130.841C155.681 129.608 156.374 127.935 156.375 126.19V78.3986C156.374 76.6542 155.681 74.9814 154.447 73.7478C153.214 72.5142 151.541 71.8207 149.796 71.8197H152.292C154.036 71.8207 155.709 72.5142 156.943 73.7478C158.176 74.9814 158.87 76.6542 158.871 78.3986Z" stroke="#013941" stroke-width="2" stroke-linecap="round" stroke-linejoin="round"/>
<path d="M211.051 75.3002C213.837 73.2465 215.827 77.9927 210.635 80.3667C209.912 80.6971 207.686 87.9666 209.916 91.9087C206.354 93.0809 202.052 93.7793 198.989 91.6063C200.607 89.8682 201.568 87.6207 201.71 85.2502C191.879 85.4014 201.256 70.5421 201.445 70.5421C206.251 63.8219 209.491 70.8924 209.24 75.1032C209.166 76.3469 210.038 76.0425 211.051 75.3002Z" stroke="#013941" stroke-width="2" stroke-linecap="round" stroke-linejoin="round"/>
<path d="M234.58 185.844C237.092 183.962 239.098 181.486 240.417 178.638C241.738 175.791 242.329 172.658 242.142 169.526C242.005 167.731 241.742 165.952 241.36 164.205" stroke="#013941" stroke-width="2" stroke-linecap="round" stroke-linejoin="round"/>
<path d="M236.57 152.313C237.597 153.987 238.491 155.732 239.247 157.533" stroke="#013941" stroke-width="2" stroke-linecap="round" stroke-linejoin="round"/>
<path d="M280.733 155.72C280.733 156.201 280.542 156.663 280.201 157.003C279.861 157.343 279.399 157.535 278.918 157.535H265.306C264.825 157.535 264.363 157.343 264.023 157.003C263.682 156.663 263.491 156.201 263.491 155.72V135.597C263.491 135.115 263.682 134.654 264.023 134.313C264.363 133.973 264.825 133.782 265.306 133.782H278.91C279.149 133.782 279.383 133.829 279.604 133.92C279.825 134.011 280.024 134.145 280.193 134.313C280.362 134.482 280.496 134.682 280.587 134.902C280.677 135.123 280.725 135.358 280.725 135.597L280.733 155.72Z" stroke="#013941" stroke-width="2" stroke-linecap="round" stroke-linejoin="round"/>
<path d="M320.66 152.808C320.809 152.812 320.95 152.868 321.058 152.963C321.163 153.059 321.223 153.188 321.227 153.325V157.013C321.223 157.15 321.163 157.28 321.058 157.375C320.95 157.471 320.809 157.526 320.66 157.53H286.442C286.292 157.526 286.151 157.471 286.044 157.375C285.938 157.28 285.878 157.15 285.875 157.013V153.325C285.878 153.188 285.938 153.059 286.044 152.963C286.151 152.868 286.292 152.812 286.442 152.808H320.66Z" stroke="#013941" stroke-width="2" stroke-linecap="round" stroke-linejoin="round"/>
<path d="M202.806 196.933V188.501" stroke="#013941" stroke-width="2" stroke-linecap="round" stroke-linejoin="round"/>
<path d="M276.92 38.0868L258.506 43.1155C258.178 43.2043 257.877 43.378 257.637 43.6192C257.396 43.8606 257.223 44.1611 257.133 44.4906C257.045 44.82 257.045 45.1668 257.133 45.4962C257.223 45.8255 257.396 46.126 257.637 46.3672L274.197 62.7767C274.438 63.0177 274.739 63.191 275.069 63.2794C275.397 63.3678 275.746 63.3678 276.074 63.2796C276.404 63.1916 276.705 63.0183 276.945 62.7775C277.186 62.5365 277.359 62.2364 277.449 61.9071L282.364 43.1533L276.92 38.0868Z" stroke="#013941" stroke-width="2" stroke-linejoin="round"/>
</g>
<defs>
<clipPath id="clip0_163_429">
<rect width="382" height="271" fill="white"/>
</clipPath>
</defs>
</svg>
