<svg width="32" height="32" viewBox="0 0 32 32" fill="none" xmlns="http://www.w3.org/2000/svg">
<path d="M21.3333 24C22.0406 24 22.7189 24.281 23.219 24.7811C23.719 25.2812 24 25.9595 24 26.6667C24 25.9595 24.281 25.2812 24.781 24.7811C25.2811 24.281 25.9594 24 26.6667 24C25.9594 24 25.2811 23.7191 24.781 23.219C24.281 22.7189 24 22.0406 24 21.3334C24 22.0406 23.719 22.7189 23.219 23.219C22.7189 23.7191 22.0406 24 21.3333 24ZM21.3333 8.00004C22.0406 8.00004 22.7189 8.28099 23.219 8.78109C23.719 9.28119 24 9.95946 24 10.6667C24 9.95946 24.281 9.28119 24.781 8.78109C25.2811 8.28099 25.9594 8.00004 26.6667 8.00004C25.9594 8.00004 25.2811 7.71909 24.781 7.21899C24.281 6.7189 24 6.04062 24 5.33337C24 6.04062 23.719 6.7189 23.219 7.21899C22.7189 7.71909 22.0406 8.00004 21.3333 8.00004ZM12 24C12 21.8783 12.8429 19.8435 14.3431 18.3432C15.8434 16.8429 17.8783 16 20 16C17.8783 16 15.8434 15.1572 14.3431 13.6569C12.8429 12.1566 12 10.1218 12 8.00004C12 10.1218 11.1571 12.1566 9.65685 13.6569C8.15656 15.1572 6.12173 16 4 16C6.12173 16 8.15656 16.8429 9.65685 18.3432C11.1571 19.8435 12 21.8783 12 24Z" stroke="#14B8A6" stroke-width="2.66667" stroke-linecap="round" stroke-linejoin="round"/>
</svg>
