<svg width="32" height="32" viewBox="0 0 32 32" fill="none" xmlns="http://www.w3.org/2000/svg">
<path d="M8 10.6667C6.93913 10.6667 5.92172 11.0881 5.17157 11.8382C4.42143 12.5884 4 13.6058 4 14.6667C4 15.7275 4.42143 16.7449 5.17157 17.4951C5.92172 18.2452 6.93913 18.6667 8 18.6667M18.6667 10.6667V25.3333C18.6667 25.6869 18.8071 26.0261 19.0572 26.2761C19.3072 26.5262 19.6464 26.6667 20 26.6667H21.3333C21.687 26.6667 22.0261 26.5262 22.2761 26.2761C22.5262 26.0261 22.6667 25.6869 22.6667 25.3333V18.6667M16 10.6666L9.968 5.63992C9.79273 5.49393 9.57948 5.40092 9.35324 5.37179C9.127 5.34267 8.89714 5.37862 8.6906 5.47545C8.48407 5.57229 8.30941 5.72598 8.1871 5.91852C8.06478 6.11106 7.99988 6.33448 8 6.56259V22.7706C7.99988 22.9987 8.06478 23.2221 8.1871 23.4147C8.30941 23.6072 8.48407 23.7609 8.6906 23.8577C8.89714 23.9545 9.127 23.9905 9.35324 23.9614C9.57948 23.9323 9.79273 23.8392 9.968 23.6933L16 18.6666H26.6667C27.0203 18.6666 27.3594 18.5261 27.6095 18.2761C27.8595 18.026 28 17.6869 28 17.3333V11.9999C28 11.6463 27.8595 11.3072 27.6095 11.0571C27.3594 10.8071 27.0203 10.6666 26.6667 10.6666H16Z" stroke="#14B8A6" stroke-width="2.66667" stroke-linecap="round" stroke-linejoin="round"/>
</svg>
