<svg width="398" height="476" viewBox="0 0 398 476" fill="none" xmlns="http://www.w3.org/2000/svg">
<path d="M222.666 437.841C234.394 438.652 235.85 420.938 224.158 419.732L112.062 404.28C110.87 404.026 109.64 404.014 108.444 404.242C107.247 404.469 106.109 404.934 105.094 405.611C104.08 406.285 103.211 407.155 102.538 408.17C101.865 409.185 101.402 410.324 101.175 411.521C100.949 412.717 100.964 413.949 101.22 415.14C101.475 416.329 101.966 417.458 102.664 418.456C103.361 419.456 104.252 420.304 105.282 420.953C106.312 421.603 107.462 422.04 108.664 422.239C107.412 422.17 106.159 422.354 104.981 422.782C103.803 423.21 102.724 423.871 101.809 424.729C100.894 425.585 100.162 426.62 99.658 427.767C99.1538 428.913 98.8876 430.152 98.8754 431.406C98.8769 433.637 99.6963 435.789 101.178 437.455C102.66 439.125 104.702 440.189 106.918 440.453C105.709 440.326 104.487 440.44 103.323 440.791C102.159 441.142 101.077 441.722 100.14 442.495C99.203 443.269 98.4297 444.224 97.8655 445.299C97.3013 446.376 96.9576 447.555 96.8543 448.766C96.7511 449.978 96.8904 451.196 97.2643 452.353C97.6381 453.51 98.2389 454.579 99.0314 455.5C99.8239 456.423 100.792 457.176 101.88 457.719C102.968 458.261 104.152 458.582 105.365 458.661L217.353 474.126C230.118 475.549 231.733 458.248 220.835 456.129C232.146 456.388 233.486 439.64 222.666 437.841Z" fill="#E8F8F6"/>
<path fill-rule="evenodd" clip-rule="evenodd" d="M70.3965 170.838C99.0881 165.228 128.209 162.093 157.437 161.467C155.516 173.961 154.791 186.609 155.273 199.24C154.211 199.227 153.15 199.213 152.089 199.199L152.073 199.199L152.056 199.199C126.605 198.87 100.966 198.538 72.7597 203.257C68.0438 193.101 67.2033 181.571 70.3965 170.838ZM82.2664 176.419C82.7094 175.976 82.9584 175.375 82.9584 174.748C82.9584 174.121 82.7094 173.52 82.2664 173.077C81.8231 172.634 81.2221 172.385 80.5953 172.385C79.9684 172.385 79.3674 172.634 78.9242 173.077C78.4812 173.52 78.2322 174.121 78.2322 174.748C78.2322 175.375 78.4812 175.976 78.9242 176.419C79.3674 176.862 79.9684 177.111 80.5953 177.111C81.2221 177.111 81.8231 176.862 82.2664 176.419ZM115.283 191.193C115.283 191.82 115.034 192.421 114.591 192.864C114.148 193.307 113.547 193.556 112.92 193.556C112.293 193.556 111.693 193.307 111.249 192.864C110.806 192.421 110.557 191.82 110.557 191.193C110.557 190.566 110.806 189.965 111.249 189.522C111.693 189.079 112.293 188.83 112.92 188.83C113.547 188.83 114.148 189.079 114.591 189.522C115.034 189.965 115.283 190.566 115.283 191.193ZM149.939 170.937C150.382 170.493 150.631 169.892 150.631 169.266C150.631 168.639 150.382 168.038 149.939 167.595C149.496 167.151 148.895 166.902 148.268 166.902C147.641 166.902 147.04 167.151 146.597 167.595C146.154 168.038 145.905 168.639 145.905 169.266C145.905 169.892 146.154 170.493 146.597 170.937C147.04 171.38 147.641 171.629 148.268 171.629C148.895 171.629 149.496 171.38 149.939 170.937Z" fill="#E8F8F6"/>
<path fill-rule="evenodd" clip-rule="evenodd" d="M200.487 157.923C200.487 160.286 201.908 161.656 205.733 161.751C208.701 161.798 212.303 161.94 216.273 162.132C208.855 173.201 202.957 185.217 198.741 197.857L166.463 197.148C165.259 187.34 166.839 170.559 167.834 161.373L179.883 161.656C181.408 161.743 182.93 161.452 184.315 160.809C185.701 160.166 186.906 159.191 187.823 157.97V157.923H200.487ZM184.875 190.501C185.318 190.058 185.567 189.457 185.567 188.83C185.567 188.203 185.318 187.602 184.875 187.159C184.432 186.716 183.831 186.467 183.204 186.467C182.577 186.467 181.976 186.716 181.533 187.159C181.09 187.602 180.841 188.203 180.841 188.83C180.841 189.457 181.09 190.058 181.533 190.501C181.976 190.944 182.577 191.193 183.204 191.193C183.831 191.193 184.432 190.944 184.875 190.501Z" fill="#E8F8F6"/>
<path fill-rule="evenodd" clip-rule="evenodd" d="M225.77 162.656C247.416 164.074 300.204 168.895 321.564 177.305C324.026 188.471 323.039 200.121 318.728 210.712C278.276 202.402 250.394 199.275 214.43 199.417L211.121 210.859C203.607 205.329 218.4 174.753 225.77 162.656ZM238.357 173.3C238.8 172.856 239.048 172.256 239.048 171.629C239.048 171.002 238.8 170.401 238.357 169.958C237.914 169.515 237.312 169.266 236.685 169.266C236.058 169.266 235.456 169.515 235.014 169.958C234.571 170.401 234.322 171.002 234.322 171.629C234.322 172.256 234.571 172.856 235.014 173.3C235.456 173.743 236.058 173.992 236.685 173.992C237.312 173.992 237.914 173.743 238.357 173.3ZM273.975 195.399C273.975 196.026 273.727 196.627 273.284 197.07C272.841 197.513 272.239 197.762 271.612 197.762C270.985 197.762 270.383 197.513 269.941 197.07C269.498 196.627 269.249 196.026 269.249 195.399C269.249 194.773 269.498 194.171 269.941 193.728C270.383 193.285 270.985 193.036 271.612 193.036C272.239 193.036 272.841 193.285 273.284 193.728C273.727 194.171 273.975 194.773 273.975 195.399ZM313.263 184.073C313.706 183.63 313.955 183.029 313.955 182.402C313.955 181.775 313.706 181.174 313.263 180.731C312.82 180.288 312.218 180.039 311.591 180.039C310.965 180.039 310.363 180.288 309.92 180.731C309.477 181.174 309.228 181.775 309.228 182.402C309.228 183.029 309.477 183.63 309.92 184.073C310.363 184.516 310.965 184.765 311.591 184.765C312.218 184.765 312.82 184.516 313.263 184.073Z" fill="#E8F8F6"/>
<path d="M196.662 150.266L189.715 154.709C190.373 153.285 190.88 151.796 191.227 150.266C193.037 150.371 194.852 150.371 196.662 150.266Z" fill="#14B8A6"/>
<path d="M265.563 134.435C280.545 100.456 225.393 128.963 225.393 128.963C234.183 112.329 209.704 116.11 199.117 124.142C209.893 116.819 211.784 127.451 208.806 133.5C208.286 134.776 208.901 135.391 211.5 134.729C216.935 133.358 217.082 141.943 207.814 142.102C207.05 142.458 206.386 142.993 205.876 143.662C203.04 149.851 200.441 154.813 200.441 157.98C200.441 160.39 201.858 161.761 205.687 161.808C236.957 162.774 268.118 165.98 298.928 171.402C303.326 169.826 307.331 167.321 310.674 164.059C314.017 160.797 316.619 156.854 318.303 152.497C336.828 108.302 265.563 134.435 265.563 134.435Z" fill="#14B8A6"/>
<path d="M160.084 346.624C154.546 353.151 147.113 357.793 138.818 359.905C142.174 365.952 143.828 376.539 145.285 383.439C147.766 396.805 151.647 409.871 156.862 422.426C167.26 399.043 168.489 378.997 171.892 365.101C168.489 358.617 164.539 352.435 160.084 346.624Z" fill="#14B8A6"/>
<path d="M311.167 264.537C304.224 268.228 297.615 272.514 291.414 277.345C297.418 283.248 301.754 290.633 303.985 298.752C318.289 291.601 342.562 291.635 368.302 280.511C345.052 269.877 325.015 268.129 311.167 264.537Z" fill="#14B8A6"/>
<path d="M246.85 293.79L225.631 311.416L218.495 305.18C228.338 302.441 237.847 298.621 246.85 293.79Z" fill="#14B8A6"/>
<path d="M157.673 288.166C158.335 290.954 159.138 293.79 160.084 296.623C172.968 294.402 185.547 290.67 197.56 285.511C185.319 290.427 170.643 290.218 157.673 288.166Z" fill="#14B8A6"/>
<path d="M161.322 411.07L224.124 419.645C236.188 420.891 234.024 439.239 222.134 437.746C234.012 439.112 231.87 457.149 220.111 456.01C232.019 457.514 229.778 475.449 218.151 474.275L105.015 458.634C103.818 458.512 102.657 458.154 101.599 457.582C100.542 457.007 99.6075 456.231 98.851 455.296C98.0948 454.36 97.5312 453.283 97.1926 452.129C96.8541 450.975 96.7474 449.766 96.8787 448.569C97.01 447.373 97.3767 446.216 97.9578 445.162C98.5386 444.109 99.3224 443.179 100.264 442.43C101.205 441.682 102.285 441.127 103.442 440.796C104.599 440.468 105.81 440.371 107.005 440.51C105.799 440.391 104.628 440.035 103.561 439.46C102.493 438.888 101.551 438.107 100.787 437.167C100.023 436.226 99.453 435.142 99.1105 433.98C98.768 432.819 98.6593 431.6 98.7908 430.396C98.9224 429.189 99.2916 428.023 99.8771 426.963C100.462 425.901 101.252 424.968 102.202 424.214C103.151 423.461 104.24 422.901 105.406 422.573C106.572 422.242 107.792 422.147 108.995 422.292C107.771 422.147 106.59 421.754 105.522 421.14C104.454 420.525 103.522 419.699 102.782 418.714C102.042 417.727 101.51 416.603 101.217 415.406C100.925 414.21 100.878 412.966 101.081 411.749C101.283 410.533 101.729 409.371 102.393 408.334C103.057 407.294 103.925 406.404 104.944 405.71C105.963 405.016 107.111 404.538 108.321 404.302C109.53 404.066 110.775 404.076 111.98 404.334L151.882 409.782" stroke="#013941" stroke-width="2.5" stroke-linecap="round" stroke-linejoin="round"/>
<path d="M308.284 127.11C301.043 105.338 287.844 86.0318 270.185 71.3811C252.526 56.7308 231.114 47.3225 208.381 44.2239C143.544 35.3286 85.4833 79.4817 78.5158 142.801C77.5663 151.585 77.6297 160.449 78.7048 169.218" stroke="#013941" stroke-width="2.5" stroke-linecap="round" stroke-linejoin="round"/>
<path d="M313.293 174.653C313.81 169.825 314.014 164.968 313.905 160.114" stroke="#013941" stroke-width="2.5" stroke-linecap="round" stroke-linejoin="round"/>
<path d="M304.47 207.901C303.836 209.388 303.077 210.82 302.201 212.18C281.505 246.259 269.546 266.159 261.133 285.81" stroke="#013941" stroke-width="2.5" stroke-linecap="round" stroke-linejoin="round"/>
<path d="M168.513 382.524L236.783 391.862C238.72 381.372 243.25 349.756 244.959 341.485" stroke="#013941" stroke-width="2.5" stroke-linecap="round" stroke-linejoin="round"/>
<path d="M108.704 330.179C108.609 336.687 105.644 366.024 105.398 373.845L144.385 378.997" stroke="#013941" stroke-width="2.5" stroke-linecap="round" stroke-linejoin="round"/>
<path d="M87.5898 201.165C92.7862 216.948 96.8508 229.376 99.9229 240.341" stroke="#013941" stroke-width="2.5" stroke-linecap="round" stroke-linejoin="round"/>
<path d="M185.603 137.649L157.72 133.821C154.173 133.262 150.549 133.426 147.067 134.302C143.584 135.179 140.315 136.75 137.455 138.922C134.594 141.093 132.203 143.82 130.422 146.939C128.643 150.058 127.511 153.505 127.097 157.072C126.896 159.052 126.909 161.047 127.134 163.024" stroke="#013941" stroke-width="2.5" stroke-linecap="round" stroke-linejoin="round"/>
<path d="M171.096 382.872L177.521 327.533" stroke="#013941" stroke-width="2.5" stroke-linecap="round" stroke-linejoin="round"/>
<path d="M157.436 161.42C157.436 161.42 150.969 199.133 159.705 227.819C158.328 231.256 157.345 234.839 156.775 238.498" stroke="#013941" stroke-width="2.5" stroke-linecap="round" stroke-linejoin="round"/>
<path d="M155.168 199.227C128.656 198.897 102.097 198.329 72.655 203.242C67.9651 193.082 67.1417 181.561 70.3392 170.838C106.372 163.755 143.081 160.695 179.789 161.716C184.61 161.917 187.772 158.878 189.714 154.721C190.371 153.297 190.878 151.808 191.227 150.278C184.51 149.711 175.307 146.032 194.393 128.02C195.874 126.616 197.453 125.321 199.12 124.145" stroke="#013941" stroke-width="2.5" stroke-linecap="round" stroke-linejoin="round"/>
<path d="M321.565 177.345C300.316 169.062 248.629 164.161 225.724 162.696C218.353 174.795 203.56 205.372 211.075 210.899L214.431 199.414C250.395 199.272 278.277 202.399 318.729 210.71C323.097 200.148 324.087 188.493 321.565 177.345Z" stroke="#013941" stroke-width="2.5" stroke-linecap="round" stroke-linejoin="round"/>
<path d="M208.905 133.276C211.739 127.195 209.769 116.886 199.117 124.127C209.704 116.095 234.191 112.314 225.393 128.948C225.393 128.948 280.543 100.451 265.563 134.421C343.173 105.976 325.44 161.694 298.928 171.378C268.12 165.923 236.96 162.701 205.687 161.736C201.858 161.684 200.441 160.318 200.441 157.908C200.441 154.741 203.117 149.813 205.876 143.59C206.388 142.922 207.052 142.387 207.814 142.03C217.082 141.863 216.933 133.281 211.5 134.657C208.935 135.321 208.378 134.416 208.905 133.276Z" stroke="#013941" stroke-width="2.5" stroke-linecap="round" stroke-linejoin="round"/>
<path d="M343.539 188.121C347.415 189.483 351.215 191.045 354.929 192.8C377.068 203.476 362.442 200.976 356.111 198.521" stroke="#013941" stroke-width="2.5" stroke-linecap="round" stroke-linejoin="round"/>
<path d="M352.991 208.725C355.661 210.507 358.158 212.532 360.454 214.774C365.889 220.209 362.82 220.963 357.573 218.366C353.273 216.237 348.171 214.152 342.78 212.128C335.576 209.162 328.009 207.177 320.278 206.227" stroke="#013941" stroke-width="2.5" stroke-linecap="round" stroke-linejoin="round"/>
<path d="M353.275 212.458C353.158 205.918 350.807 199.614 346.611 194.596" stroke="#013941" stroke-width="2.5" stroke-linecap="round" stroke-linejoin="round"/>
<path d="M356.489 211.277C358.616 212.364 361.307 213.595 364.096 214.916C369.198 217.332 371.372 216.573 366.506 212.18C361.912 208.039 356.698 204.643 351.054 202.115" stroke="#013941" stroke-width="2.5" stroke-linecap="round" stroke-linejoin="round"/>
<path d="M359.23 206.551C377.707 216.145 380.575 213.284 365.372 203.566C359.429 199.974 353.146 196.982 346.611 194.636" stroke="#013941" stroke-width="2.5" stroke-linecap="round" stroke-linejoin="round"/>
<path d="M329.882 197.762C332.377 198.332 334.994 197.994 337.263 196.809C339.531 195.624 341.305 193.669 342.262 191.295C344.048 187.84 342.735 186.19 344.72 183.78C347.792 180.049 347.19 178.23 342.782 180.141C339.907 181.385 333.188 184.773 328.039 183.26C325.88 182.658 323.711 182.079 322.382 181.74" stroke="#013941" stroke-width="2.5" stroke-linecap="round" stroke-linejoin="round"/>
<path d="M48.0858 180.218C44.0834 181.409 40.1539 182.833 36.3174 184.481C13.7732 194.265 28.4719 192.327 34.8996 190.153" stroke="#013941" stroke-width="2.5" stroke-linecap="round" stroke-linejoin="round"/>
<path d="M37.5436 200.456C34.8049 202.133 32.229 204.063 29.8498 206.22C24.223 211.466 27.2006 212.314 32.5437 209.951C36.9366 208.011 42.1405 206.185 47.5707 204.374C63.7395 198.984 71.202 199.367 71.202 199.367" stroke="#013941" stroke-width="2.5" stroke-linecap="round" stroke-linejoin="round"/>
<path d="M37.1187 204.187C37.5149 197.655 40.128 191.454 44.5264 186.608" stroke="#013941" stroke-width="2.5" stroke-linecap="round" stroke-linejoin="round"/>
<path d="M33.9992 202.864C31.8252 203.859 29.0839 204.991 26.2482 206.172C21.0493 208.344 18.9175 207.538 23.9323 203.337C28.6742 199.369 34.0345 196.205 39.8001 193.971" stroke="#013941" stroke-width="2.5" stroke-linecap="round" stroke-linejoin="round"/>
<path d="M31.3999 197.999C12.4949 206.787 9.79094 203.745 25.3975 194.737C31.4941 191.412 37.9009 188.689 44.5264 186.608" stroke="#013941" stroke-width="2.5" stroke-linecap="round" stroke-linejoin="round"/>
<path d="M69.2051 175.599C63.9615 176.872 51.82 173.698 49.0265 172.337C44.7331 170.243 44.0242 171.999 46.947 175.88C48.7952 178.335 47.5216 179.753 48.5539 182.78C49.6011 185.85 52.2851 190.578 58.479 189.397" stroke="#013941" stroke-width="2.5" stroke-linecap="round" stroke-linejoin="round"/>
<path d="M160.083 346.577L162.871 350.358" stroke="#013941" stroke-width="2.5" stroke-linecap="round" stroke-linejoin="round"/>
<path d="M162.872 350.358C166.256 355.032 169.274 359.962 171.899 365.101C168.496 378.997 167.267 399.033 156.87 422.426C151.655 409.871 147.775 396.805 145.293 383.439C143.638 375.728 142.41 366.945 138.825 359.952" stroke="#013941" stroke-width="2.5" stroke-linecap="round" stroke-linejoin="round"/>
<path d="M291.413 277.392C297.622 272.569 304.229 268.283 311.166 264.584C325.014 268.129 345.051 269.878 368.302 280.504C355.703 285.594 342.603 289.347 329.221 291.698C318.609 293.852 313.052 294.215 303.96 298.75" stroke="#013941" stroke-width="2.5" stroke-linecap="round" stroke-linejoin="round"/>
<path d="M73.0334 345.632L42.2207 296.247" stroke="#013941" stroke-width="2.5" stroke-linecap="round" stroke-linejoin="round"/>
<path d="M38.6758 311.416L42.2205 296.247L57.3917 299.792" stroke="#013941" stroke-width="2.5" stroke-linecap="round" stroke-linejoin="round"/>
<path d="M395.854 166.193C395.854 167.698 395.408 169.17 394.57 170.421C393.734 171.672 392.548 172.648 391.157 173.223C389.767 173.8 388.237 173.95 386.759 173.656C385.284 173.363 383.928 172.638 382.864 171.574C381.799 170.51 381.075 169.154 380.782 167.678C380.488 166.202 380.637 164.672 381.215 163.281C381.789 161.891 382.764 160.703 384.018 159.867C385.269 159.03 386.739 158.584 388.244 158.584C389.244 158.583 390.234 158.78 391.157 159.162C392.08 159.544 392.921 160.105 393.627 160.812C394.334 161.518 394.893 162.357 395.276 163.281C395.657 164.204 395.854 165.194 395.854 166.193Z" stroke="#013941" stroke-width="2.5" stroke-linecap="round" stroke-linejoin="round"/>
<path d="M276.953 439.204C276.953 440.194 276.66 441.164 276.11 441.988C275.558 442.811 274.777 443.453 273.861 443.833C272.946 444.211 271.939 444.311 270.966 444.117C269.993 443.925 269.103 443.448 268.401 442.746C267.7 442.045 267.222 441.154 267.031 440.182C266.837 439.209 266.936 438.202 267.314 437.286C267.695 436.371 268.337 435.59 269.16 435.037C269.983 434.488 270.954 434.194 271.944 434.194C272.603 434.189 273.257 434.316 273.866 434.567C274.476 434.816 275.031 435.184 275.496 435.652C275.963 436.117 276.332 436.672 276.58 437.281C276.832 437.891 276.958 438.545 276.953 439.204Z" stroke="#013941" stroke-width="2.5" stroke-linecap="round" stroke-linejoin="round"/>
<path d="M66.3691 70.3054L83.3364 80.2778" stroke="#013941" stroke-width="2.5" stroke-linecap="round" stroke-linejoin="round"/>
<path d="M153.656 1.68762L159.564 20.3066" stroke="#013941" stroke-width="2.5" stroke-linecap="round" stroke-linejoin="round"/>
<path d="M261.593 26.2615L270.999 9.20227" stroke="#013941" stroke-width="2.5" stroke-linecap="round" stroke-linejoin="round"/>
<path d="M334.275 94.5982L351.952 86.0437" stroke="#013941" stroke-width="2.5" stroke-linecap="round" stroke-linejoin="round"/>
<path d="M12.2584 112.556L10.2759 130.749" stroke="#013941" stroke-width="2.5" stroke-linecap="round" stroke-linejoin="round"/>
<path d="M20.3405 122.667L2.14697 120.685" stroke="#013941" stroke-width="2.5" stroke-linecap="round" stroke-linejoin="round"/>
<path d="M216.226 162.131C208.808 173.201 202.91 185.218 198.694 197.859L166.464 197.148C164.951 185.049 167.787 161.373 167.787 161.373" stroke="#013941" stroke-width="2.5" stroke-linecap="round" stroke-linejoin="round"/>
<path d="M167.503 205.369L169.299 224.274L180.545 232.117L192.456 224.085L196.662 205.794L167.503 205.369Z" stroke="#013941" stroke-width="2.5" stroke-linecap="round" stroke-linejoin="round"/>
<path d="M187.729 157.97H200.393" stroke="#013941" stroke-width="2.5" stroke-linecap="round" stroke-linejoin="round"/>
<path d="M246.85 293.79L225.632 311.416L218.532 305.17" stroke="#013941" stroke-width="2.5" stroke-linecap="round" stroke-linejoin="round"/>
<path d="M211.075 210.899L206.49 226.684C206.49 226.684 234.323 265.947 202.759 283.151C195.254 287.243 184.563 290.024 170.421 289.454C156.863 288.708 143.507 285.835 130.843 280.937C141.203 300.735 152.87 319.821 165.767 338.07C162.187 345.269 156.61 351.283 149.703 355.395C143.472 358.91 136.554 361.029 129.425 361.614C111.617 335.809 95.313 308.998 80.5952 281.315C78.4114 277.245 77.2612 272.701 77.2458 268.081C77.2301 263.465 78.35 258.913 80.5064 254.828C82.6625 250.744 85.7896 247.251 89.6121 244.659C93.4347 242.067 97.8358 240.455 102.428 239.963C126.388 237.406 154.034 236.938 175.063 240.53" stroke="#013941" stroke-width="2.5" stroke-linecap="round" stroke-linejoin="round"/>
<path d="M130.843 280.937C128.196 276.069 126.117 271.437 126.117 271.437" stroke="#013941" stroke-width="2.5" stroke-linecap="round" stroke-linejoin="round"/>
<path d="M157.673 288.166C162.626 309.715 175.112 328.786 192.881 341.945C197.72 345.619 203.373 348.072 209.361 349.102C215.348 350.129 221.495 349.701 227.283 347.853C255.524 338.764 282.063 325.063 305.828 307.307C303.376 291.855 297.334 280.897 284.324 271.437C264.586 283.937 240.932 299.364 218.532 305.17C212.144 298.715 206.928 291.203 203.11 282.964" stroke="#013941" stroke-width="2.5" stroke-linecap="round" stroke-linejoin="round"/>
<path d="M197.56 285.511C185.546 290.671 172.968 294.397 160.083 296.618" stroke="#013941" stroke-width="2.5" stroke-linecap="round" stroke-linejoin="round"/>
<path d="M191.227 150.266C193.037 150.371 194.852 150.371 196.662 150.266L189.714 154.709" stroke="#013941" stroke-width="2.5" stroke-linecap="round" stroke-linejoin="round"/>
</svg>
